M48
INCH,TZ
T1C0.0157
T2C0.0250
T3C0.0315
T4C0.0354
T5C0.0394
T6C0.0490
T7C0.0630
T8C0.0720
%
G90
G05
T1
X45681Y-23657
X45681Y-24657
X45681Y-25657
X45681Y-26657
X45681Y-27657
X45681Y-28657
X45681Y-29657
X45681Y-30657
X45681Y-31657
X45681Y-32657
X45681Y-33657
X45681Y-34657
X45681Y-35657
X45681Y-36657
X45681Y-37657
X45681Y-38657
X45681Y-39657
X45681Y-40657
X45681Y-41657
X45681Y-42657
X45681Y-43657
X45681Y-44657
X45681Y-45657
X45681Y-46657
X45681Y-47657
X45681Y-48657
X45681Y-49657
X45681Y-50657
X45681Y-51657
X45681Y-52657
X45681Y-53657
X45681Y-54657
X45681Y-55657
X45913Y-22343
X46118Y-56583
X46516Y-21217
X46969Y-57551
X47563Y-20374
X47878Y-58315
X48811Y-20000
X48811Y-58780
X49811Y-20000
X49811Y-58780
X50067Y-33134
X50524Y-31906
X50791Y-33866
X50811Y-20000
X50811Y-58780
X51602Y-34677
X51720Y-32276
X51811Y-20000
X51811Y-58780
X51874Y-33697
X52213Y-29453
X52492Y-35567
X52665Y-34496
X52811Y-20000
X52811Y-58780
X52870Y-32441
X52921Y-33783
X53146Y-30075
X53224Y-31398
X53386Y-32795
X53622Y-36705
X53799Y-35606
X53811Y-20000
X53811Y-58780
X53913Y-30819
X53957Y-32071
X54020Y-33776
X54098Y-25114
X54555Y-30232
X54602Y-32783
X54654Y-31398
X54669Y-37752
X54811Y-20000
X54811Y-58780
X54858Y-36665
X55091Y-25035
X55232Y-26728
X55264Y-32075
X55362Y-30819
X55402Y-33744
X55437Y-26102
X55697Y-38732
X55760Y-25437
X55811Y-20000
X55811Y-58780
X55894Y-26563
X55941Y-31398
X55957Y-30236
X55996Y-32795
X56193Y-27150
X56319Y-26000
X56429Y-37823
X56587Y-26571
X56626Y-32071
X56650Y-30819
X56650Y-33744
X56811Y-20000
X56811Y-58780
X57106Y-26000
X57126Y-27150
X57161Y-38713
X57291Y-32783
X57323Y-31398
X57331Y-30236
X57618Y-26571
X57811Y-20000
X57811Y-58780
X57913Y-37823
X57972Y-32079
X58094Y-30819
X58114Y-33764
X58189Y-27150
X58209Y-25996
X58665Y-38720
X58748Y-32776
X58772Y-31394
X58799Y-30232
X58807Y-26575
X58811Y-20000
X58811Y-58780
X59228Y-27150
X59287Y-25996
X59311Y-37823
X59457Y-30819
X59488Y-32075
X59689Y-33776
X59705Y-26571
X59811Y-20000
X59811Y-58780
X59933Y-38720
X60114Y-30232
X60126Y-31394
X60161Y-27154
X60189Y-25996
X60272Y-32776
X60622Y-30791
X60638Y-26571
X60665Y-37823
X60724Y-32075
X60811Y-20000
X60811Y-58780
X60854Y-29732
X61134Y-27154
X61146Y-25996
X61201Y-33744
X61213Y-32681
X61366Y-38732
X61441Y-30783
X61476Y-31681
X61528Y-29886
X61598Y-28996
X61606Y-26571
X61811Y-20000
X61811Y-58780
X62020Y-27287
X62031Y-32756
X62063Y-25996
X62063Y-26862
X62311Y-31681
X62343Y-37823
X62370Y-30787
X62394Y-29835
X62445Y-28969
X62465Y-27264
X62469Y-26858
X62494Y-26443
X62547Y-28039
X62811Y-58780
X62854Y-33736
X62890Y-27283
X62900Y-27699
X62906Y-26854
X62921Y-26437
X63043Y-35957
X63236Y-37272
X63295Y-30720
X63325Y-27274
X63346Y-29811
X63366Y-38720
X63508Y-28724
X63512Y-27906
X63575Y-32756
X63606Y-26980
X63811Y-58780
X64039Y-20480
X64039Y-37827
X64138Y-35787
X64150Y-34886
X64181Y-29819
X64386Y-28776
X64386Y-33764
X64449Y-26134
X64453Y-26961
X64626Y-32350
X64642Y-29441
X64661Y-38772
X64748Y-27484
X64811Y-58780
X64929Y-30354
X65059Y-29031
X65122Y-29504
X65126Y-35976
X65156Y-29955
X65201Y-27031
X65201Y-27957
X65205Y-34717
X65232Y-37776
X65244Y-26161
X65268Y-38894
X65295Y-28697
X65299Y-33764
X65331Y-25260
X65472Y-20476
X65547Y-22484
X65555Y-24260
X65598Y-39878
X65622Y-29594
X65665Y-30047
X65724Y-32598
X65732Y-30520
X65783Y-31201
X65811Y-58780
X66016Y-27984
X66067Y-29941
X66071Y-25339
X66098Y-26134
X66118Y-27031
X66130Y-23496
X66134Y-29476
X66173Y-38394
X66236Y-37311
X66291Y-36268
X66409Y-21043
X66457Y-21819
X66496Y-40783
X66594Y-30228
X66638Y-33283
X66654Y-39622
X66713Y-24374
X66713Y-25390
X66717Y-22701
X66768Y-32307
X66811Y-58780
X66921Y-27075
X66945Y-26193
X66965Y-20480
X67118Y-30815
X67134Y-36280
X67252Y-29650
X67307Y-23425
X67358Y-21732
X67433Y-35114
X67524Y-33882
X67551Y-40528
X67555Y-41811
X67764Y-20756
X67811Y-31728
X67811Y-58780
X67878Y-30232
X67953Y-35437
X68000Y-21921
X68063Y-26425
X68154Y-33035
X68228Y-24161
X68409Y-34760
X68476Y-42760
X68559Y-21335
X68587Y-29650
X68610Y-41555
X68650Y-30807
X68811Y-58780
X68941Y-32142
X68969Y-33886
X68972Y-24906
X69098Y-21913
X69150Y-29240
X69150Y-35358
X69177Y-23874
X69201Y-20752
X69244Y-43492
X69480Y-30075
X69524Y-30807
X69531Y-42504
X69669Y-21327
X69701Y-25638
X69811Y-58780
X69906Y-33028
X69965Y-24657
X70008Y-34768
X70031Y-43791
X70039Y-27079
X70165Y-29287
X70181Y-28075
X70303Y-20752
X70327Y-21921
X70343Y-30024
X70453Y-31213
X70575Y-32169
X70677Y-26614
X70811Y-58780
X70823Y-25512
X70858Y-21335
X70858Y-42890
X71020Y-35354
X71031Y-33890
X71110Y-32898
X71146Y-23232
X71146Y-29264
X71394Y-21913
X71500Y-30173
X71512Y-31469
X71535Y-43783
X71650Y-20752
X71717Y-26409
X71724Y-24606
X71811Y-58780
X71819Y-34748
X71933Y-27823
X71972Y-23646
X72067Y-21335
X72142Y-22496
X72150Y-29228
X72362Y-42882
X72504Y-34894
X72587Y-26898
X72646Y-21909
X72646Y-32453
X72673Y-31346
X72709Y-23512
X72791Y-20752
X72811Y-58780
X72850Y-30114
X73043Y-27539
X73122Y-26224
X73161Y-22500
X73169Y-25228
X73189Y-43791
X73315Y-21335
X73441Y-28358
X73480Y-24295
X73567Y-33902
X73634Y-23524
X73646Y-32925
X73744Y-27343
X73803Y-31256
X73811Y-58780
X73862Y-30177
X73969Y-20752
X74016Y-42890
X74197Y-26236
X74201Y-28236
X74220Y-22236
X74272Y-25154
X74323Y-21524
X74461Y-29559
X74516Y-24366
X74811Y-58780
X74831Y-43791
X74854Y-23819
X74961Y-20488
X75039Y-32378
X75102Y-22425
X75142Y-21524
X75146Y-28051
X75150Y-23240
X75154Y-26035
X75165Y-26921
X75417Y-25331
X75429Y-29598
X75453Y-31118
X75657Y-42890
X75681Y-24598
X75811Y-58780
X75846Y-27520
X75850Y-26213
X75850Y-30240
X75854Y-23705
X75980Y-21543
X76114Y-22516
X76374Y-43783
X76409Y-25358
X76413Y-30984
X76441Y-29677
X76457Y-28350
X76488Y-26602
X76516Y-20484
X76638Y-24484
X76811Y-58780
X76902Y-22343
X77201Y-42882
X77252Y-25240
X77272Y-27264
X77811Y-58780
X77819Y-43791
X77831Y-26406
X77882Y-20472
X78598Y-27268
X78642Y-25295
X78646Y-42890
X78811Y-58780
X78965Y-43783
X79571Y-24004
X79626Y-20480
X79791Y-42882
X79811Y-58780
X79870Y-26476
X80016Y-27866
X80272Y-36252
X80291Y-37244
X80398Y-25323
X80488Y-43780
X80760Y-23854
X80807Y-31228
X80807Y-33224
X80807Y-35205
X80811Y-29583
X80811Y-58780
X81016Y-27512
X81465Y-20685
X81591Y-43791
X81602Y-24657
X81748Y-26461
X81819Y-32283
X81898Y-34303
X81917Y-30441
X81949Y-42882
X82130Y-28441
X82154Y-37441
X82165Y-36004
X82252Y-58232
X82315Y-38890
X82319Y-40406
X82339Y-42102
X82681Y-25744
X82823Y-43799
X82988Y-36587
X83028Y-38417
X83028Y-39417
X83028Y-41417
X83106Y-35138
X83114Y-28004
X83114Y-33394
X83130Y-31343
X83142Y-29571
X83154Y-21894
X83256Y-42327
X83417Y-57240
X83583Y-43543
X83740Y-35906
X83748Y-30335
X83748Y-37358
X83748Y-38854
X83748Y-41587
X83760Y-32256
X83760Y-34173
X83843Y-23996
X83846Y-26217
X84150Y-44094
X84150Y-45094
X84150Y-46094
X84150Y-47094
X84150Y-48094
X84150Y-49094
X84150Y-50094
X84150Y-51094
X84150Y-52094
X84150Y-53094
X84150Y-54094
X84150Y-55094
X84150Y-56094
X84441Y-42579
T2
X63711Y-36761
X64211Y-36761
X64711Y-36761
X65211Y-36761
X65711Y-36761
X66211Y-36761
T3
X65843Y-35323
X66827Y-35323
X69459Y-27465
X70459Y-27465
X71459Y-27465
X72459Y-27465
X74577Y-25752
X77577Y-25752
T4
X51319Y-29746
X51319Y-30746
X51319Y-31746
X51319Y-32746
X51400Y-26728
X51900Y-25728
X52319Y-30246
X52319Y-31246
X52319Y-32246
X52319Y-33246
X52400Y-26728
X52900Y-25728
X53400Y-26728
X53900Y-25728
X54400Y-26728
X54900Y-25728
T5
X67652Y-22917
X67652Y-23917
X67652Y-25917
X67652Y-26917
X67652Y-27917
X67652Y-28917
X67656Y-24913
X68652Y-22917
X68652Y-28917
X69652Y-22917
X69652Y-28917
X70652Y-22917
X70652Y-28917
X71652Y-22917
X71652Y-28917
X72652Y-22917
X72652Y-28917
X73652Y-22917
X73652Y-28917
X74652Y-22917
X74652Y-28917
X75652Y-22917
X75652Y-28917
X76652Y-22917
X76652Y-28917
X77652Y-22917
X77652Y-28917
X78652Y-22917
X78652Y-28917
X79652Y-22917
X79652Y-28917
X80652Y-22917
X80652Y-28917
T6
X80709Y-37795
X80709Y-42717
X81193Y-36713
X82193Y-36713
X82677Y-37795
X82677Y-42717
T7
X47618Y-28445
X47618Y-34547
X50098Y-22028
X56201Y-22028
T8
X62086Y-39221
X67836Y-39221
T3
G00X59312Y-21268
M15
G01X59312Y-20677
M16
G05
G00X59469Y-24083
M15
G01X59469Y-23610
M16
G05
G00X60808Y-24083
M15
G01X60808Y-23610
M16
G05
G00X62855Y-24083
M15
G01X62855Y-23610
M16
G05
G00X63210Y-21268
M15
G01X63210Y-20677
M16
G05
T0
M30
