M48
INCH,TZ
T1C0.0157
T2C0.0250
T3C0.0315
T4C0.0354
T5C0.0490
T6C0.0630
T7C0.0720
%
G90
G05
T1
X45681Y-23657
X45681Y-24657
X45681Y-25657
X45681Y-26657
X45681Y-27657
X45681Y-28657
X45681Y-29657
X45681Y-30657
X45681Y-31657
X45681Y-32657
X45681Y-33657
X45681Y-34657
X45681Y-35657
X45681Y-36657
X45681Y-37657
X45681Y-38657
X45681Y-39657
X45681Y-40657
X45681Y-41657
X45681Y-42657
X45681Y-43657
X45681Y-44657
X45681Y-45657
X45681Y-46657
X45681Y-47657
X45681Y-48657
X45681Y-49657
X45681Y-50657
X45681Y-51657
X45681Y-52657
X45681Y-53657
X45681Y-54657
X45681Y-55657
X45913Y-22343
X46118Y-56583
X46516Y-21217
X46969Y-57551
X47563Y-20374
X47878Y-58315
X48646Y-42531
X48657Y-38079
X48811Y-20000
X48811Y-58780
X48925Y-38945
X48925Y-40295
X48925Y-41531
X48972Y-36047
X49126Y-37185
X49504Y-40925
X49508Y-38319
X49508Y-39555
X49508Y-42197
X49622Y-35398
X49669Y-36201
X49689Y-36909
X49811Y-20000
X49811Y-58780
X49827Y-37665
X50323Y-36244
X50331Y-34689
X50370Y-37047
X50378Y-35492
X50811Y-20000
X50811Y-58780
X51031Y-35535
X51039Y-33980
X51079Y-36339
X51087Y-34783
X51740Y-34827
X51748Y-33272
X51787Y-35630
X51795Y-34075
X51811Y-20000
X51811Y-58780
X52449Y-34118
X52457Y-32563
X52496Y-34921
X52504Y-33366
X52811Y-20000
X52811Y-58780
X53157Y-33409
X53165Y-31854
X53205Y-34213
X53213Y-32657
X53811Y-20000
X53811Y-58780
X53866Y-32701
X53874Y-31146
X53913Y-33504
X53921Y-31949
X54575Y-31992
X54583Y-30437
X54622Y-32795
X54630Y-31240
X54811Y-20000
X54811Y-58780
X55283Y-31283
X55291Y-29728
X55331Y-32087
X55339Y-30531
X55811Y-20000
X55811Y-58780
X55992Y-30575
X56039Y-31378
X56047Y-29823
X56059Y-28972
X56598Y-29256
X56748Y-30669
X56787Y-29811
X56811Y-20000
X56811Y-58780
X56898Y-28669
X57382Y-29252
X57449Y-30335
X57811Y-20000
X57811Y-58780
X57898Y-28669
X57965Y-29752
X58382Y-29252
X58449Y-30335
X58811Y-20000
X58811Y-58780
X58898Y-28669
X58965Y-29752
X59382Y-29252
X59449Y-30335
X59811Y-20000
X59811Y-58780
X59898Y-28669
X59965Y-29752
X60382Y-29252
X60449Y-30335
X60811Y-20000
X60811Y-58780
X60898Y-28669
X60965Y-29752
X61382Y-29252
X61449Y-30335
X61811Y-20000
X61811Y-58780
X61898Y-28669
X61965Y-29752
X62382Y-29252
X62449Y-30335
X62811Y-20000
X62811Y-58780
X62898Y-28669
X62965Y-29752
X63382Y-29252
X63449Y-30335
X63811Y-20000
X63811Y-58780
X63898Y-28669
X63965Y-29752
X64220Y-36256
X64382Y-29252
X64449Y-30335
X64516Y-37472
X64811Y-20000
X64811Y-58780
X64898Y-28669
X64965Y-29752
X65165Y-37307
X65382Y-29252
X65449Y-30335
X65559Y-34173
X65673Y-37902
X65807Y-34764
X65811Y-20000
X65811Y-58780
X65898Y-28669
X65965Y-29752
X66134Y-37283
X66248Y-36244
X66331Y-34232
X66339Y-33398
X66382Y-29252
X66449Y-30335
X66528Y-34996
X66669Y-36748
X66811Y-20000
X66811Y-58780
X66819Y-37457
X66862Y-35630
X66898Y-28669
X66945Y-33618
X66953Y-32783
X66965Y-29752
X67079Y-36374
X67161Y-34362
X67256Y-37020
X67382Y-29252
X67449Y-30335
X67504Y-34988
X67587Y-32976
X67594Y-32142
X67701Y-35752
X67783Y-33740
X67811Y-20000
X67811Y-58780
X67890Y-36386
X67898Y-28669
X67965Y-29752
X68291Y-34197
X68374Y-32185
X68382Y-29252
X68382Y-31350
X68441Y-35016
X68449Y-30335
X68512Y-35764
X68524Y-33004
X68811Y-20000
X68811Y-58780
X68898Y-28669
X68965Y-29752
X69020Y-33472
X69102Y-31461
X69205Y-34248
X69252Y-35028
X69287Y-32236
X69382Y-29252
X69449Y-30335
X69713Y-33705
X69811Y-20000
X69811Y-58780
X69819Y-32921
X69898Y-28669
X69902Y-30909
X69965Y-29752
X70016Y-34260
X70350Y-33594
X70382Y-29252
X70433Y-31583
X70449Y-30335
X70811Y-20000
X70811Y-58780
X70819Y-32921
X70831Y-34177
X70898Y-28669
X70902Y-30909
X70965Y-29752
X71350Y-33594
X71382Y-29252
X71433Y-31583
X71449Y-30335
X71811Y-20000
X71811Y-58780
X71819Y-32921
X71831Y-34177
X71898Y-28669
X71902Y-30909
X71965Y-29752
X72350Y-33594
X72433Y-31583
X72449Y-30335
X72469Y-29248
X72811Y-20000
X72811Y-58780
X72819Y-32921
X72831Y-34177
X72902Y-28669
X72902Y-30909
X72965Y-29752
X73350Y-33594
X73433Y-31583
X73449Y-30335
X73811Y-20000
X73811Y-58780
X73819Y-32921
X73831Y-34177
X73902Y-30909
X73965Y-29752
X74094Y-28213
X74350Y-33594
X74433Y-31583
X74449Y-30335
X74811Y-20000
X74811Y-58780
X74819Y-32921
X74831Y-34177
X74902Y-30909
X74965Y-29752
X75020Y-28185
X75350Y-33594
X75433Y-31583
X75449Y-30335
X75811Y-20000
X75811Y-58776
X75819Y-32921
X75831Y-34177
X75902Y-30909
X75965Y-29752
X76000Y-28213
X76350Y-33594
X76433Y-31583
X76449Y-30335
X76811Y-20000
X76811Y-58776
X76819Y-32921
X76831Y-34177
X76902Y-30909
X76965Y-29752
X77091Y-28748
X77339Y-33587
X77748Y-34185
X77811Y-20000
X77811Y-58780
X78008Y-29315
X78075Y-33547
X78264Y-32697
X78677Y-34185
X78811Y-20000
X78811Y-58780
X79142Y-33260
X79331Y-32547
X79449Y-33874
X79811Y-20000
X79811Y-58780
X80811Y-20000
X80811Y-58780
X82134Y-20283
X82252Y-58232
X83264Y-21031
X83417Y-57240
X84114Y-22291
X84161Y-55980
X84358Y-23543
X84358Y-24543
X84358Y-25543
X84358Y-26543
X84358Y-27543
X84358Y-28543
X84358Y-29543
X84358Y-30543
X84358Y-31543
X84358Y-32543
X84358Y-33543
X84358Y-34543
X84358Y-35543
X84358Y-36543
X84358Y-37543
X84358Y-38543
X84358Y-39543
X84358Y-40543
X84358Y-41543
X84358Y-42543
X84358Y-43543
X84358Y-44543
X84358Y-45543
X84358Y-46543
X84358Y-47543
X84358Y-48543
X84358Y-49543
X84358Y-50543
X84358Y-51543
X84358Y-52543
X84358Y-53543
X84358Y-54543
T2
X63711Y-36761
X64211Y-36761
X64711Y-36761
X65211Y-36761
X65711Y-36761
X66211Y-36761
T3
X64728Y-35335
X65713Y-35335
X73386Y-28961
X76386Y-28961
T4
X77602Y-29746
X77602Y-30746
X77602Y-31746
X77602Y-32746
X78602Y-30246
X78602Y-31246
X78602Y-32246
X78602Y-33246
T5
X47244Y-37795
X47244Y-42717
X47728Y-36713
X48728Y-36713
X49213Y-37795
X49213Y-42717
T6
X82303Y-28445
X82303Y-34547
T7
X62086Y-39221
X67836Y-39221
T0
M30
