%TF.GenerationSoftware,KiCad,Pcbnew,7.0.1*%
%TF.CreationDate,2024-08-21T14:55:40-07:00*%
%TF.ProjectId,Dual encoder controller - left,4475616c-2065-46e6-936f-64657220636f,rev?*%
%TF.SameCoordinates,Original*%
%TF.FileFunction,Drillmap*%
%TF.FilePolarity,Positive*%
%FSLAX45Y45*%
G04 Gerber Fmt 4.5, Leading zero omitted, Abs format (unit mm)*
G04 Created by KiCad (PCBNEW 7.0.1) date 2024-08-21 14:55:40*
%MOMM*%
%LPD*%
G01*
G04 APERTURE LIST*
%ADD10C,0.100000*%
%ADD11C,0.200000*%
%ADD12C,0.040000*%
%ADD13C,0.063500*%
%ADD14C,0.080000*%
%ADD15C,0.090000*%
%ADD16C,0.124460*%
%ADD17C,0.160000*%
%ADD18C,0.182880*%
G04 APERTURE END LIST*
D10*
X12500000Y-5000000D02*
G75*
G03*
X11500000Y-6000000I0J-1000000D01*
G01*
X11500000Y-14000000D02*
X11500000Y-6000000D01*
X12500000Y-5000000D02*
X20500000Y-5000000D01*
X20500000Y-15000000D02*
X12500000Y-15000000D01*
X11500000Y-14000000D02*
G75*
G03*
X12500000Y-15000000I1000000J0D01*
G01*
X21500000Y-6000000D02*
X21500000Y-14000000D01*
X20500000Y-15000000D02*
G75*
G03*
X21500000Y-14000000I0J1000000D01*
G01*
X21500000Y-6000000D02*
G75*
G03*
X20500000Y-5000000I-1000000J0D01*
G01*
D11*
D12*
X11583000Y-5989000D02*
X11623000Y-6029000D01*
X11623000Y-5989000D02*
X11583000Y-6029000D01*
X11583000Y-6243000D02*
X11623000Y-6283000D01*
X11623000Y-6243000D02*
X11583000Y-6283000D01*
X11583000Y-6497000D02*
X11623000Y-6537000D01*
X11623000Y-6497000D02*
X11583000Y-6537000D01*
X11583000Y-6751000D02*
X11623000Y-6791000D01*
X11623000Y-6751000D02*
X11583000Y-6791000D01*
X11583000Y-7005000D02*
X11623000Y-7045000D01*
X11623000Y-7005000D02*
X11583000Y-7045000D01*
X11583000Y-7259000D02*
X11623000Y-7299000D01*
X11623000Y-7259000D02*
X11583000Y-7299000D01*
X11583000Y-7513000D02*
X11623000Y-7553000D01*
X11623000Y-7513000D02*
X11583000Y-7553000D01*
X11583000Y-7767000D02*
X11623000Y-7807000D01*
X11623000Y-7767000D02*
X11583000Y-7807000D01*
X11583000Y-8021000D02*
X11623000Y-8061000D01*
X11623000Y-8021000D02*
X11583000Y-8061000D01*
X11583000Y-8275000D02*
X11623000Y-8315000D01*
X11623000Y-8275000D02*
X11583000Y-8315000D01*
X11583000Y-8529000D02*
X11623000Y-8569000D01*
X11623000Y-8529000D02*
X11583000Y-8569000D01*
X11583000Y-8783000D02*
X11623000Y-8823000D01*
X11623000Y-8783000D02*
X11583000Y-8823000D01*
X11583000Y-9037000D02*
X11623000Y-9077000D01*
X11623000Y-9037000D02*
X11583000Y-9077000D01*
X11583000Y-9291000D02*
X11623000Y-9331000D01*
X11623000Y-9291000D02*
X11583000Y-9331000D01*
X11583000Y-9545000D02*
X11623000Y-9585000D01*
X11623000Y-9545000D02*
X11583000Y-9585000D01*
X11583000Y-9799000D02*
X11623000Y-9839000D01*
X11623000Y-9799000D02*
X11583000Y-9839000D01*
X11583000Y-10053000D02*
X11623000Y-10093000D01*
X11623000Y-10053000D02*
X11583000Y-10093000D01*
X11583000Y-10307000D02*
X11623000Y-10347000D01*
X11623000Y-10307000D02*
X11583000Y-10347000D01*
X11583000Y-10561000D02*
X11623000Y-10601000D01*
X11623000Y-10561000D02*
X11583000Y-10601000D01*
X11583000Y-10815000D02*
X11623000Y-10855000D01*
X11623000Y-10815000D02*
X11583000Y-10855000D01*
X11583000Y-11069000D02*
X11623000Y-11109000D01*
X11623000Y-11069000D02*
X11583000Y-11109000D01*
X11583000Y-11323000D02*
X11623000Y-11363000D01*
X11623000Y-11323000D02*
X11583000Y-11363000D01*
X11583000Y-11577000D02*
X11623000Y-11617000D01*
X11623000Y-11577000D02*
X11583000Y-11617000D01*
X11583000Y-11831000D02*
X11623000Y-11871000D01*
X11623000Y-11831000D02*
X11583000Y-11871000D01*
X11583000Y-12085000D02*
X11623000Y-12125000D01*
X11623000Y-12085000D02*
X11583000Y-12125000D01*
X11583000Y-12339000D02*
X11623000Y-12379000D01*
X11623000Y-12339000D02*
X11583000Y-12379000D01*
X11583000Y-12593000D02*
X11623000Y-12633000D01*
X11623000Y-12593000D02*
X11583000Y-12633000D01*
X11583000Y-12847000D02*
X11623000Y-12887000D01*
X11623000Y-12847000D02*
X11583000Y-12887000D01*
X11583000Y-13101000D02*
X11623000Y-13141000D01*
X11623000Y-13101000D02*
X11583000Y-13141000D01*
X11583000Y-13355000D02*
X11623000Y-13395000D01*
X11623000Y-13355000D02*
X11583000Y-13395000D01*
X11583000Y-13609000D02*
X11623000Y-13649000D01*
X11623000Y-13609000D02*
X11583000Y-13649000D01*
X11583000Y-13863000D02*
X11623000Y-13903000D01*
X11623000Y-13863000D02*
X11583000Y-13903000D01*
X11583000Y-14117000D02*
X11623000Y-14157000D01*
X11623000Y-14117000D02*
X11583000Y-14157000D01*
X11642000Y-5655000D02*
X11682000Y-5695000D01*
X11682000Y-5655000D02*
X11642000Y-5695000D01*
X11694000Y-14352000D02*
X11734000Y-14392000D01*
X11734000Y-14352000D02*
X11694000Y-14392000D01*
X11795000Y-5369000D02*
X11835000Y-5409000D01*
X11835000Y-5369000D02*
X11795000Y-5409000D01*
X11910000Y-14598000D02*
X11950000Y-14638000D01*
X11950000Y-14598000D02*
X11910000Y-14638000D01*
X12061000Y-5155000D02*
X12101000Y-5195000D01*
X12101000Y-5155000D02*
X12061000Y-5195000D01*
X12141000Y-14792000D02*
X12181000Y-14832000D01*
X12181000Y-14792000D02*
X12141000Y-14832000D01*
X12336000Y-10783000D02*
X12376000Y-10823000D01*
X12376000Y-10783000D02*
X12336000Y-10823000D01*
X12339000Y-9652000D02*
X12379000Y-9692000D01*
X12379000Y-9652000D02*
X12339000Y-9692000D01*
X12378000Y-5060000D02*
X12418000Y-5100000D01*
X12418000Y-5060000D02*
X12378000Y-5100000D01*
X12378000Y-14910000D02*
X12418000Y-14950000D01*
X12418000Y-14910000D02*
X12378000Y-14950000D01*
X12407000Y-9872000D02*
X12447000Y-9912000D01*
X12447000Y-9872000D02*
X12407000Y-9912000D01*
X12407000Y-10215000D02*
X12447000Y-10255000D01*
X12447000Y-10215000D02*
X12407000Y-10255000D01*
X12407000Y-10529000D02*
X12447000Y-10569000D01*
X12447000Y-10529000D02*
X12407000Y-10569000D01*
X12419000Y-9136000D02*
X12459000Y-9176000D01*
X12459000Y-9136000D02*
X12419000Y-9176000D01*
X12458000Y-9425000D02*
X12498000Y-9465000D01*
X12498000Y-9425000D02*
X12458000Y-9465000D01*
X12554000Y-10375000D02*
X12594000Y-10415000D01*
X12594000Y-10375000D02*
X12554000Y-10415000D01*
X12555000Y-9713000D02*
X12595000Y-9753000D01*
X12595000Y-9713000D02*
X12555000Y-9753000D01*
X12555000Y-10027000D02*
X12595000Y-10067000D01*
X12595000Y-10027000D02*
X12555000Y-10067000D01*
X12555000Y-10698000D02*
X12595000Y-10738000D01*
X12595000Y-10698000D02*
X12555000Y-10738000D01*
X12584000Y-8971000D02*
X12624000Y-9011000D01*
X12624000Y-8971000D02*
X12584000Y-9011000D01*
X12596000Y-9175000D02*
X12636000Y-9215000D01*
X12636000Y-9175000D02*
X12596000Y-9215000D01*
X12601000Y-9355000D02*
X12641000Y-9395000D01*
X12641000Y-9355000D02*
X12601000Y-9395000D01*
X12632000Y-5060000D02*
X12672000Y-5100000D01*
X12672000Y-5060000D02*
X12632000Y-5100000D01*
X12632000Y-14910000D02*
X12672000Y-14950000D01*
X12672000Y-14910000D02*
X12632000Y-14950000D01*
X12636000Y-9547000D02*
X12676000Y-9587000D01*
X12676000Y-9547000D02*
X12636000Y-9587000D01*
X12762000Y-9186000D02*
X12802000Y-9226000D01*
X12802000Y-9186000D02*
X12762000Y-9226000D01*
X12764000Y-8791000D02*
X12804000Y-8831000D01*
X12804000Y-8791000D02*
X12764000Y-8831000D01*
X12774000Y-9390000D02*
X12814000Y-9430000D01*
X12814000Y-9390000D02*
X12774000Y-9430000D01*
X12776000Y-8995000D02*
X12816000Y-9035000D01*
X12816000Y-8995000D02*
X12776000Y-9035000D01*
X12886000Y-5060000D02*
X12926000Y-5100000D01*
X12926000Y-5060000D02*
X12886000Y-5100000D01*
X12886000Y-14910000D02*
X12926000Y-14950000D01*
X12926000Y-14910000D02*
X12886000Y-14950000D01*
X12942000Y-9006000D02*
X12982000Y-9046000D01*
X12982000Y-9006000D02*
X12942000Y-9046000D01*
X12944000Y-8611000D02*
X12984000Y-8651000D01*
X12984000Y-8611000D02*
X12944000Y-8651000D01*
X12954000Y-9210000D02*
X12994000Y-9250000D01*
X12994000Y-9210000D02*
X12954000Y-9250000D01*
X12956000Y-8815000D02*
X12996000Y-8855000D01*
X12996000Y-8815000D02*
X12956000Y-8855000D01*
X13122000Y-8826000D02*
X13162000Y-8866000D01*
X13162000Y-8826000D02*
X13122000Y-8866000D01*
X13124000Y-8431000D02*
X13164000Y-8471000D01*
X13164000Y-8431000D02*
X13124000Y-8471000D01*
X13134000Y-9030000D02*
X13174000Y-9070000D01*
X13174000Y-9030000D02*
X13134000Y-9070000D01*
X13136000Y-8635000D02*
X13176000Y-8675000D01*
X13176000Y-8635000D02*
X13136000Y-8675000D01*
X13140000Y-5060000D02*
X13180000Y-5100000D01*
X13180000Y-5060000D02*
X13140000Y-5100000D01*
X13140000Y-14910000D02*
X13180000Y-14950000D01*
X13180000Y-14910000D02*
X13140000Y-14950000D01*
X13302000Y-8646000D02*
X13342000Y-8686000D01*
X13342000Y-8646000D02*
X13302000Y-8686000D01*
X13304000Y-8251000D02*
X13344000Y-8291000D01*
X13344000Y-8251000D02*
X13304000Y-8291000D01*
X13314000Y-8850000D02*
X13354000Y-8890000D01*
X13354000Y-8850000D02*
X13314000Y-8890000D01*
X13316000Y-8455000D02*
X13356000Y-8495000D01*
X13356000Y-8455000D02*
X13316000Y-8495000D01*
X13394000Y-5060000D02*
X13434000Y-5100000D01*
X13434000Y-5060000D02*
X13394000Y-5100000D01*
X13394000Y-14910000D02*
X13434000Y-14950000D01*
X13434000Y-14910000D02*
X13394000Y-14950000D01*
X13482000Y-8466000D02*
X13522000Y-8506000D01*
X13522000Y-8466000D02*
X13482000Y-8506000D01*
X13484000Y-8071000D02*
X13524000Y-8111000D01*
X13524000Y-8071000D02*
X13484000Y-8111000D01*
X13494000Y-8670000D02*
X13534000Y-8710000D01*
X13534000Y-8670000D02*
X13494000Y-8710000D01*
X13496000Y-8275000D02*
X13536000Y-8315000D01*
X13536000Y-8275000D02*
X13496000Y-8315000D01*
X13648000Y-5060000D02*
X13688000Y-5100000D01*
X13688000Y-5060000D02*
X13648000Y-5100000D01*
X13648000Y-14910000D02*
X13688000Y-14950000D01*
X13688000Y-14910000D02*
X13648000Y-14950000D01*
X13662000Y-8286000D02*
X13702000Y-8326000D01*
X13702000Y-8286000D02*
X13662000Y-8326000D01*
X13664000Y-7891000D02*
X13704000Y-7931000D01*
X13704000Y-7891000D02*
X13664000Y-7931000D01*
X13674000Y-8490000D02*
X13714000Y-8530000D01*
X13714000Y-8490000D02*
X13674000Y-8530000D01*
X13676000Y-8095000D02*
X13716000Y-8135000D01*
X13716000Y-8095000D02*
X13676000Y-8135000D01*
X13842000Y-8106000D02*
X13882000Y-8146000D01*
X13882000Y-8106000D02*
X13842000Y-8146000D01*
X13844000Y-7711000D02*
X13884000Y-7751000D01*
X13884000Y-7711000D02*
X13844000Y-7751000D01*
X13854000Y-8310000D02*
X13894000Y-8350000D01*
X13894000Y-8310000D02*
X13854000Y-8350000D01*
X13856000Y-7915000D02*
X13896000Y-7955000D01*
X13896000Y-7915000D02*
X13856000Y-7955000D01*
X13902000Y-5060000D02*
X13942000Y-5100000D01*
X13942000Y-5060000D02*
X13902000Y-5100000D01*
X13902000Y-14910000D02*
X13942000Y-14950000D01*
X13942000Y-14910000D02*
X13902000Y-14950000D01*
X14022000Y-7926000D02*
X14062000Y-7966000D01*
X14062000Y-7926000D02*
X14022000Y-7966000D01*
X14024000Y-7531000D02*
X14064000Y-7571000D01*
X14064000Y-7531000D02*
X14024000Y-7571000D01*
X14034000Y-8130000D02*
X14074000Y-8170000D01*
X14074000Y-8130000D02*
X14034000Y-8170000D01*
X14036000Y-7735000D02*
X14076000Y-7775000D01*
X14076000Y-7735000D02*
X14036000Y-7775000D01*
X14156000Y-5060000D02*
X14196000Y-5100000D01*
X14196000Y-5060000D02*
X14156000Y-5100000D01*
X14156000Y-14910000D02*
X14196000Y-14950000D01*
X14196000Y-14910000D02*
X14156000Y-14950000D01*
X14202000Y-7746000D02*
X14242000Y-7786000D01*
X14242000Y-7746000D02*
X14202000Y-7786000D01*
X14214000Y-7950000D02*
X14254000Y-7990000D01*
X14254000Y-7950000D02*
X14214000Y-7990000D01*
X14216000Y-7555000D02*
X14256000Y-7595000D01*
X14256000Y-7555000D02*
X14216000Y-7595000D01*
X14219000Y-7339000D02*
X14259000Y-7379000D01*
X14259000Y-7339000D02*
X14219000Y-7379000D01*
X14356000Y-7411000D02*
X14396000Y-7451000D01*
X14396000Y-7411000D02*
X14356000Y-7451000D01*
X14394000Y-7770000D02*
X14434000Y-7810000D01*
X14434000Y-7770000D02*
X14394000Y-7810000D01*
X14404000Y-7552000D02*
X14444000Y-7592000D01*
X14444000Y-7552000D02*
X14404000Y-7592000D01*
X14410000Y-5060000D02*
X14450000Y-5100000D01*
X14450000Y-5060000D02*
X14410000Y-5100000D01*
X14410000Y-14910000D02*
X14450000Y-14950000D01*
X14450000Y-14910000D02*
X14410000Y-14950000D01*
X14432000Y-7262000D02*
X14472000Y-7302000D01*
X14472000Y-7262000D02*
X14432000Y-7302000D01*
X14555000Y-7410000D02*
X14595000Y-7450000D01*
X14595000Y-7410000D02*
X14555000Y-7450000D01*
X14572000Y-7685000D02*
X14612000Y-7725000D01*
X14612000Y-7685000D02*
X14572000Y-7725000D01*
X14664000Y-5060000D02*
X14704000Y-5100000D01*
X14704000Y-5060000D02*
X14664000Y-5100000D01*
X14664000Y-14910000D02*
X14704000Y-14950000D01*
X14704000Y-14910000D02*
X14664000Y-14950000D01*
X14686000Y-7262000D02*
X14726000Y-7302000D01*
X14726000Y-7262000D02*
X14686000Y-7302000D01*
X14703000Y-7537000D02*
X14743000Y-7577000D01*
X14743000Y-7537000D02*
X14703000Y-7577000D01*
X14809000Y-7410000D02*
X14849000Y-7450000D01*
X14849000Y-7410000D02*
X14809000Y-7450000D01*
X14826000Y-7685000D02*
X14866000Y-7725000D01*
X14866000Y-7685000D02*
X14826000Y-7725000D01*
X14918000Y-5060000D02*
X14958000Y-5100000D01*
X14958000Y-5060000D02*
X14918000Y-5100000D01*
X14918000Y-14910000D02*
X14958000Y-14950000D01*
X14958000Y-14910000D02*
X14918000Y-14950000D01*
X14940000Y-7262000D02*
X14980000Y-7302000D01*
X14980000Y-7262000D02*
X14940000Y-7302000D01*
X14957000Y-7537000D02*
X14997000Y-7577000D01*
X14997000Y-7537000D02*
X14957000Y-7577000D01*
X15063000Y-7410000D02*
X15103000Y-7450000D01*
X15103000Y-7410000D02*
X15063000Y-7450000D01*
X15080000Y-7685000D02*
X15120000Y-7725000D01*
X15120000Y-7685000D02*
X15080000Y-7725000D01*
X15172000Y-5060000D02*
X15212000Y-5100000D01*
X15212000Y-5060000D02*
X15172000Y-5100000D01*
X15172000Y-14910000D02*
X15212000Y-14950000D01*
X15212000Y-14910000D02*
X15172000Y-14950000D01*
X15194000Y-7262000D02*
X15234000Y-7302000D01*
X15234000Y-7262000D02*
X15194000Y-7302000D01*
X15211000Y-7537000D02*
X15251000Y-7577000D01*
X15251000Y-7537000D02*
X15211000Y-7577000D01*
X15317000Y-7410000D02*
X15357000Y-7450000D01*
X15357000Y-7410000D02*
X15317000Y-7450000D01*
X15334000Y-7685000D02*
X15374000Y-7725000D01*
X15374000Y-7685000D02*
X15334000Y-7725000D01*
X15426000Y-5060000D02*
X15466000Y-5100000D01*
X15466000Y-5060000D02*
X15426000Y-5100000D01*
X15426000Y-14910000D02*
X15466000Y-14950000D01*
X15466000Y-14910000D02*
X15426000Y-14950000D01*
X15448000Y-7262000D02*
X15488000Y-7302000D01*
X15488000Y-7262000D02*
X15448000Y-7302000D01*
X15465000Y-7537000D02*
X15505000Y-7577000D01*
X15505000Y-7537000D02*
X15465000Y-7577000D01*
X15571000Y-7410000D02*
X15611000Y-7450000D01*
X15611000Y-7410000D02*
X15571000Y-7450000D01*
X15588000Y-7685000D02*
X15628000Y-7725000D01*
X15628000Y-7685000D02*
X15588000Y-7725000D01*
X15680000Y-5060000D02*
X15720000Y-5100000D01*
X15720000Y-5060000D02*
X15680000Y-5100000D01*
X15680000Y-14910000D02*
X15720000Y-14950000D01*
X15720000Y-14910000D02*
X15680000Y-14950000D01*
X15702000Y-7262000D02*
X15742000Y-7302000D01*
X15742000Y-7262000D02*
X15702000Y-7302000D01*
X15719000Y-7537000D02*
X15759000Y-7577000D01*
X15759000Y-7537000D02*
X15719000Y-7577000D01*
X15825000Y-7410000D02*
X15865000Y-7450000D01*
X15865000Y-7410000D02*
X15825000Y-7450000D01*
X15842000Y-7685000D02*
X15882000Y-7725000D01*
X15882000Y-7685000D02*
X15842000Y-7725000D01*
X15934000Y-5060000D02*
X15974000Y-5100000D01*
X15974000Y-5060000D02*
X15934000Y-5100000D01*
X15934000Y-14910000D02*
X15974000Y-14950000D01*
X15974000Y-14910000D02*
X15934000Y-14950000D01*
X15956000Y-7262000D02*
X15996000Y-7302000D01*
X15996000Y-7262000D02*
X15956000Y-7302000D01*
X15973000Y-7537000D02*
X16013000Y-7577000D01*
X16013000Y-7537000D02*
X15973000Y-7577000D01*
X16079000Y-7410000D02*
X16119000Y-7450000D01*
X16119000Y-7410000D02*
X16079000Y-7450000D01*
X16096000Y-7685000D02*
X16136000Y-7725000D01*
X16136000Y-7685000D02*
X16096000Y-7725000D01*
X16188000Y-5060000D02*
X16228000Y-5100000D01*
X16228000Y-5060000D02*
X16188000Y-5100000D01*
X16188000Y-14910000D02*
X16228000Y-14950000D01*
X16228000Y-14910000D02*
X16188000Y-14950000D01*
X16210000Y-7262000D02*
X16250000Y-7302000D01*
X16250000Y-7262000D02*
X16210000Y-7302000D01*
X16227000Y-7537000D02*
X16267000Y-7577000D01*
X16267000Y-7537000D02*
X16227000Y-7577000D01*
X16292000Y-9189000D02*
X16332000Y-9229000D01*
X16332000Y-9189000D02*
X16292000Y-9229000D01*
X16333000Y-7410000D02*
X16373000Y-7450000D01*
X16373000Y-7410000D02*
X16333000Y-7450000D01*
X16350000Y-7685000D02*
X16390000Y-7725000D01*
X16390000Y-7685000D02*
X16350000Y-7725000D01*
X16367000Y-9498000D02*
X16407000Y-9538000D01*
X16407000Y-9498000D02*
X16367000Y-9538000D01*
X16442000Y-5060000D02*
X16482000Y-5100000D01*
X16482000Y-5060000D02*
X16442000Y-5100000D01*
X16442000Y-14910000D02*
X16482000Y-14950000D01*
X16482000Y-14910000D02*
X16442000Y-14950000D01*
X16464000Y-7262000D02*
X16504000Y-7302000D01*
X16504000Y-7262000D02*
X16464000Y-7302000D01*
X16481000Y-7537000D02*
X16521000Y-7577000D01*
X16521000Y-7537000D02*
X16481000Y-7577000D01*
X16532000Y-9456000D02*
X16572000Y-9496000D01*
X16572000Y-9456000D02*
X16532000Y-9496000D01*
X16587000Y-7410000D02*
X16627000Y-7450000D01*
X16627000Y-7410000D02*
X16587000Y-7450000D01*
X16604000Y-7685000D02*
X16644000Y-7725000D01*
X16644000Y-7685000D02*
X16604000Y-7725000D01*
X16632000Y-8660000D02*
X16672000Y-8700000D01*
X16672000Y-8660000D02*
X16632000Y-8700000D01*
X16661000Y-9607000D02*
X16701000Y-9647000D01*
X16701000Y-9607000D02*
X16661000Y-9647000D01*
X16695000Y-8810000D02*
X16735000Y-8850000D01*
X16735000Y-8810000D02*
X16695000Y-8850000D01*
X16696000Y-5060000D02*
X16736000Y-5100000D01*
X16736000Y-5060000D02*
X16696000Y-5100000D01*
X16696000Y-14910000D02*
X16736000Y-14950000D01*
X16736000Y-14910000D02*
X16696000Y-14950000D01*
X16718000Y-7262000D02*
X16758000Y-7302000D01*
X16758000Y-7262000D02*
X16718000Y-7302000D01*
X16735000Y-7537000D02*
X16775000Y-7577000D01*
X16775000Y-7537000D02*
X16735000Y-7577000D01*
X16778000Y-9450000D02*
X16818000Y-9490000D01*
X16818000Y-9450000D02*
X16778000Y-9490000D01*
X16807000Y-9186000D02*
X16847000Y-9226000D01*
X16847000Y-9186000D02*
X16807000Y-9226000D01*
X16828000Y-8675000D02*
X16868000Y-8715000D01*
X16868000Y-8675000D02*
X16828000Y-8715000D01*
X16830000Y-8463000D02*
X16870000Y-8503000D01*
X16870000Y-8463000D02*
X16830000Y-8503000D01*
X16841000Y-7410000D02*
X16881000Y-7450000D01*
X16881000Y-7410000D02*
X16841000Y-7450000D01*
X16858000Y-7685000D02*
X16898000Y-7725000D01*
X16898000Y-7685000D02*
X16858000Y-7725000D01*
X16878000Y-8869000D02*
X16918000Y-8909000D01*
X16918000Y-8869000D02*
X16878000Y-8909000D01*
X16914000Y-9314000D02*
X16954000Y-9354000D01*
X16954000Y-9314000D02*
X16914000Y-9354000D01*
X16950000Y-5060000D02*
X16990000Y-5100000D01*
X16990000Y-5060000D02*
X16950000Y-5100000D01*
X16950000Y-14910000D02*
X16990000Y-14950000D01*
X16990000Y-14910000D02*
X16950000Y-14950000D01*
X16952000Y-9494000D02*
X16992000Y-9534000D01*
X16992000Y-9494000D02*
X16952000Y-9534000D01*
X16963000Y-9030000D02*
X17003000Y-9070000D01*
X17003000Y-9030000D02*
X16963000Y-9070000D01*
X16972000Y-7262000D02*
X17012000Y-7302000D01*
X17012000Y-7262000D02*
X16972000Y-7302000D01*
X16984000Y-8519000D02*
X17024000Y-8559000D01*
X17024000Y-8519000D02*
X16984000Y-8559000D01*
X16986000Y-8307000D02*
X17026000Y-8347000D01*
X17026000Y-8307000D02*
X16986000Y-8347000D01*
X16989000Y-7537000D02*
X17029000Y-7577000D01*
X17029000Y-7537000D02*
X16989000Y-7577000D01*
X17018000Y-9219000D02*
X17058000Y-9259000D01*
X17058000Y-9219000D02*
X17018000Y-9259000D01*
X17039000Y-8708000D02*
X17079000Y-8748000D01*
X17079000Y-8708000D02*
X17039000Y-8748000D01*
X17063000Y-9383000D02*
X17103000Y-9423000D01*
X17103000Y-9383000D02*
X17063000Y-9423000D01*
X17095000Y-7410000D02*
X17135000Y-7450000D01*
X17135000Y-7410000D02*
X17095000Y-7450000D01*
X17112000Y-7685000D02*
X17152000Y-7725000D01*
X17152000Y-7685000D02*
X17112000Y-7725000D01*
X17126000Y-8867000D02*
X17166000Y-8907000D01*
X17166000Y-8867000D02*
X17126000Y-8907000D01*
X17147000Y-8356000D02*
X17187000Y-8396000D01*
X17187000Y-8356000D02*
X17147000Y-8396000D01*
X17149000Y-8144000D02*
X17189000Y-8184000D01*
X17189000Y-8144000D02*
X17149000Y-8184000D01*
X17176000Y-9061000D02*
X17216000Y-9101000D01*
X17216000Y-9061000D02*
X17176000Y-9101000D01*
X17197000Y-8550000D02*
X17237000Y-8590000D01*
X17237000Y-8550000D02*
X17197000Y-8590000D01*
X17204000Y-5060000D02*
X17244000Y-5100000D01*
X17244000Y-5060000D02*
X17204000Y-5100000D01*
X17204000Y-14910000D02*
X17244000Y-14950000D01*
X17244000Y-14910000D02*
X17204000Y-14950000D01*
X17224000Y-9222000D02*
X17264000Y-9262000D01*
X17264000Y-9222000D02*
X17224000Y-9262000D01*
X17226000Y-7262000D02*
X17266000Y-7302000D01*
X17266000Y-7262000D02*
X17226000Y-7302000D01*
X17243000Y-7537000D02*
X17283000Y-7577000D01*
X17283000Y-7537000D02*
X17243000Y-7577000D01*
X17326000Y-8666000D02*
X17366000Y-8706000D01*
X17366000Y-8666000D02*
X17326000Y-8706000D01*
X17347000Y-8155000D02*
X17387000Y-8195000D01*
X17387000Y-8155000D02*
X17347000Y-8195000D01*
X17349000Y-7410000D02*
X17389000Y-7450000D01*
X17389000Y-7410000D02*
X17349000Y-7450000D01*
X17349000Y-7943000D02*
X17389000Y-7983000D01*
X17389000Y-7943000D02*
X17349000Y-7983000D01*
X17364000Y-8874000D02*
X17404000Y-8914000D01*
X17404000Y-8874000D02*
X17364000Y-8914000D01*
X17366000Y-7685000D02*
X17406000Y-7725000D01*
X17406000Y-7685000D02*
X17366000Y-7725000D01*
X17382000Y-9064000D02*
X17422000Y-9104000D01*
X17422000Y-9064000D02*
X17382000Y-9104000D01*
X17385000Y-8363000D02*
X17425000Y-8403000D01*
X17425000Y-8363000D02*
X17385000Y-8403000D01*
X17458000Y-5060000D02*
X17498000Y-5100000D01*
X17498000Y-5060000D02*
X17458000Y-5100000D01*
X17458000Y-14910000D02*
X17498000Y-14950000D01*
X17498000Y-14910000D02*
X17458000Y-14950000D01*
X17480000Y-7262000D02*
X17520000Y-7302000D01*
X17520000Y-7262000D02*
X17480000Y-7302000D01*
X17497000Y-7537000D02*
X17537000Y-7577000D01*
X17537000Y-7537000D02*
X17497000Y-7577000D01*
X17511000Y-8482000D02*
X17551000Y-8522000D01*
X17551000Y-8482000D02*
X17511000Y-8522000D01*
X17532000Y-7971000D02*
X17572000Y-8011000D01*
X17572000Y-7971000D02*
X17532000Y-8011000D01*
X17558000Y-8679000D02*
X17598000Y-8719000D01*
X17598000Y-8679000D02*
X17558000Y-8719000D01*
X17570000Y-8877000D02*
X17610000Y-8917000D01*
X17610000Y-8877000D02*
X17570000Y-8917000D01*
X17579000Y-8168000D02*
X17619000Y-8208000D01*
X17619000Y-8168000D02*
X17579000Y-8208000D01*
X17603000Y-7410000D02*
X17643000Y-7450000D01*
X17643000Y-7410000D02*
X17603000Y-7450000D01*
X17620000Y-7685000D02*
X17660000Y-7725000D01*
X17660000Y-7685000D02*
X17620000Y-7725000D01*
X17687000Y-8541000D02*
X17727000Y-8581000D01*
X17727000Y-8541000D02*
X17687000Y-8581000D01*
X17712000Y-5060000D02*
X17752000Y-5100000D01*
X17752000Y-5060000D02*
X17712000Y-5100000D01*
X17712000Y-14910000D02*
X17752000Y-14950000D01*
X17752000Y-14910000D02*
X17712000Y-14950000D01*
X17714000Y-8342000D02*
X17754000Y-8382000D01*
X17754000Y-8342000D02*
X17714000Y-8382000D01*
X17734000Y-7262000D02*
X17774000Y-7302000D01*
X17774000Y-7262000D02*
X17734000Y-7302000D01*
X17735000Y-7831000D02*
X17775000Y-7871000D01*
X17775000Y-7831000D02*
X17735000Y-7871000D01*
X17751000Y-7537000D02*
X17791000Y-7577000D01*
X17791000Y-7537000D02*
X17751000Y-7577000D01*
X17764000Y-8682000D02*
X17804000Y-8722000D01*
X17804000Y-8682000D02*
X17764000Y-8722000D01*
X17849000Y-8513000D02*
X17889000Y-8553000D01*
X17889000Y-8513000D02*
X17849000Y-8553000D01*
X17857000Y-7410000D02*
X17897000Y-7450000D01*
X17897000Y-7410000D02*
X17857000Y-7450000D01*
X17870000Y-8002000D02*
X17910000Y-8042000D01*
X17910000Y-8002000D02*
X17870000Y-8042000D01*
X17874000Y-7685000D02*
X17914000Y-7725000D01*
X17914000Y-7685000D02*
X17874000Y-7725000D01*
X17966000Y-5060000D02*
X18006000Y-5100000D01*
X18006000Y-5060000D02*
X17966000Y-5100000D01*
X17966000Y-14910000D02*
X18006000Y-14950000D01*
X18006000Y-14910000D02*
X17966000Y-14950000D01*
X17968000Y-8342000D02*
X18008000Y-8382000D01*
X18008000Y-8342000D02*
X17968000Y-8382000D01*
X17971000Y-8661000D02*
X18011000Y-8701000D01*
X18011000Y-8661000D02*
X17971000Y-8701000D01*
X17988000Y-7262000D02*
X18028000Y-7302000D01*
X18028000Y-7262000D02*
X17988000Y-7302000D01*
X17989000Y-7831000D02*
X18029000Y-7871000D01*
X18029000Y-7831000D02*
X17989000Y-7871000D01*
X18005000Y-7537000D02*
X18045000Y-7577000D01*
X18045000Y-7537000D02*
X18005000Y-7577000D01*
X18103000Y-8513000D02*
X18143000Y-8553000D01*
X18143000Y-8513000D02*
X18103000Y-8553000D01*
X18111000Y-7410000D02*
X18151000Y-7450000D01*
X18151000Y-7410000D02*
X18111000Y-7450000D01*
X18124000Y-8002000D02*
X18164000Y-8042000D01*
X18164000Y-8002000D02*
X18124000Y-8042000D01*
X18128000Y-7685000D02*
X18168000Y-7725000D01*
X18168000Y-7685000D02*
X18128000Y-7725000D01*
X18220000Y-5060000D02*
X18260000Y-5100000D01*
X18260000Y-5060000D02*
X18220000Y-5100000D01*
X18220000Y-14910000D02*
X18260000Y-14950000D01*
X18260000Y-14910000D02*
X18220000Y-14950000D01*
X18222000Y-8342000D02*
X18262000Y-8382000D01*
X18262000Y-8342000D02*
X18222000Y-8382000D01*
X18225000Y-8661000D02*
X18265000Y-8701000D01*
X18265000Y-8661000D02*
X18225000Y-8701000D01*
X18242000Y-7262000D02*
X18282000Y-7302000D01*
X18282000Y-7262000D02*
X18242000Y-7302000D01*
X18243000Y-7831000D02*
X18283000Y-7871000D01*
X18283000Y-7831000D02*
X18243000Y-7871000D01*
X18259000Y-7537000D02*
X18299000Y-7577000D01*
X18299000Y-7537000D02*
X18259000Y-7577000D01*
X18357000Y-8513000D02*
X18397000Y-8553000D01*
X18397000Y-8513000D02*
X18357000Y-8553000D01*
X18378000Y-8002000D02*
X18418000Y-8042000D01*
X18418000Y-8002000D02*
X18378000Y-8042000D01*
X18382000Y-7685000D02*
X18422000Y-7725000D01*
X18422000Y-7685000D02*
X18382000Y-7725000D01*
X18387000Y-7409000D02*
X18427000Y-7449000D01*
X18427000Y-7409000D02*
X18387000Y-7449000D01*
X18474000Y-5060000D02*
X18514000Y-5100000D01*
X18514000Y-5060000D02*
X18474000Y-5100000D01*
X18474000Y-14910000D02*
X18514000Y-14950000D01*
X18514000Y-14910000D02*
X18474000Y-14950000D01*
X18476000Y-8342000D02*
X18516000Y-8382000D01*
X18516000Y-8342000D02*
X18476000Y-8382000D01*
X18479000Y-8661000D02*
X18519000Y-8701000D01*
X18519000Y-8661000D02*
X18479000Y-8701000D01*
X18497000Y-7262000D02*
X18537000Y-7302000D01*
X18537000Y-7262000D02*
X18497000Y-7302000D01*
X18497000Y-7831000D02*
X18537000Y-7871000D01*
X18537000Y-7831000D02*
X18497000Y-7871000D01*
X18513000Y-7537000D02*
X18553000Y-7577000D01*
X18553000Y-7537000D02*
X18513000Y-7577000D01*
X18611000Y-8513000D02*
X18651000Y-8553000D01*
X18651000Y-8513000D02*
X18611000Y-8553000D01*
X18632000Y-8002000D02*
X18672000Y-8042000D01*
X18672000Y-8002000D02*
X18632000Y-8042000D01*
X18636000Y-7685000D02*
X18676000Y-7725000D01*
X18676000Y-7685000D02*
X18636000Y-7725000D01*
X18728000Y-5060000D02*
X18768000Y-5100000D01*
X18768000Y-5060000D02*
X18728000Y-5100000D01*
X18728000Y-14910000D02*
X18768000Y-14950000D01*
X18768000Y-14910000D02*
X18728000Y-14950000D01*
X18730000Y-8342000D02*
X18770000Y-8382000D01*
X18770000Y-8342000D02*
X18730000Y-8382000D01*
X18733000Y-8661000D02*
X18773000Y-8701000D01*
X18773000Y-8661000D02*
X18733000Y-8701000D01*
X18751000Y-7831000D02*
X18791000Y-7871000D01*
X18791000Y-7831000D02*
X18751000Y-7871000D01*
X18767000Y-7537000D02*
X18807000Y-7577000D01*
X18807000Y-7537000D02*
X18767000Y-7577000D01*
X18800000Y-7146000D02*
X18840000Y-7186000D01*
X18840000Y-7146000D02*
X18800000Y-7186000D01*
X18865000Y-8513000D02*
X18905000Y-8553000D01*
X18905000Y-8513000D02*
X18865000Y-8553000D01*
X18886000Y-8002000D02*
X18926000Y-8042000D01*
X18926000Y-8002000D02*
X18886000Y-8042000D01*
X18890000Y-7685000D02*
X18930000Y-7725000D01*
X18930000Y-7685000D02*
X18890000Y-7725000D01*
X18982000Y-5060000D02*
X19022000Y-5100000D01*
X19022000Y-5060000D02*
X18982000Y-5100000D01*
X18982000Y-14910000D02*
X19022000Y-14950000D01*
X19022000Y-14910000D02*
X18982000Y-14950000D01*
X18984000Y-8342000D02*
X19024000Y-8382000D01*
X19024000Y-8342000D02*
X18984000Y-8382000D01*
X18987000Y-8661000D02*
X19027000Y-8701000D01*
X19027000Y-8661000D02*
X18987000Y-8701000D01*
X19005000Y-7831000D02*
X19045000Y-7871000D01*
X19045000Y-7831000D02*
X19005000Y-7871000D01*
X19021000Y-7537000D02*
X19061000Y-7577000D01*
X19061000Y-7537000D02*
X19021000Y-7577000D01*
X19035000Y-7139000D02*
X19075000Y-7179000D01*
X19075000Y-7139000D02*
X19035000Y-7179000D01*
X19119000Y-8513000D02*
X19159000Y-8553000D01*
X19159000Y-8513000D02*
X19119000Y-8553000D01*
X19140000Y-8002000D02*
X19180000Y-8042000D01*
X19180000Y-8002000D02*
X19140000Y-8042000D01*
X19144000Y-7685000D02*
X19184000Y-7725000D01*
X19184000Y-7685000D02*
X19144000Y-7725000D01*
X19236000Y-5060000D02*
X19276000Y-5100000D01*
X19276000Y-5060000D02*
X19236000Y-5100000D01*
X19236000Y-14909000D02*
X19276000Y-14949000D01*
X19276000Y-14909000D02*
X19236000Y-14949000D01*
X19238000Y-8342000D02*
X19278000Y-8382000D01*
X19278000Y-8342000D02*
X19238000Y-8382000D01*
X19241000Y-8661000D02*
X19281000Y-8701000D01*
X19281000Y-8661000D02*
X19241000Y-8701000D01*
X19259000Y-7831000D02*
X19299000Y-7871000D01*
X19299000Y-7831000D02*
X19259000Y-7871000D01*
X19275000Y-7537000D02*
X19315000Y-7577000D01*
X19315000Y-7537000D02*
X19275000Y-7577000D01*
X19284000Y-7146000D02*
X19324000Y-7186000D01*
X19324000Y-7146000D02*
X19284000Y-7186000D01*
X19373000Y-8513000D02*
X19413000Y-8553000D01*
X19413000Y-8513000D02*
X19373000Y-8553000D01*
X19394000Y-8002000D02*
X19434000Y-8042000D01*
X19434000Y-8002000D02*
X19394000Y-8042000D01*
X19398000Y-7685000D02*
X19438000Y-7725000D01*
X19438000Y-7685000D02*
X19398000Y-7725000D01*
X19490000Y-5060000D02*
X19530000Y-5100000D01*
X19530000Y-5060000D02*
X19490000Y-5100000D01*
X19490000Y-14909000D02*
X19530000Y-14949000D01*
X19530000Y-14909000D02*
X19490000Y-14949000D01*
X19492000Y-8342000D02*
X19532000Y-8382000D01*
X19532000Y-8342000D02*
X19492000Y-8382000D01*
X19495000Y-8661000D02*
X19535000Y-8701000D01*
X19535000Y-8661000D02*
X19495000Y-8701000D01*
X19513000Y-7831000D02*
X19553000Y-7871000D01*
X19553000Y-7831000D02*
X19513000Y-7871000D01*
X19529000Y-7537000D02*
X19569000Y-7577000D01*
X19569000Y-7537000D02*
X19529000Y-7577000D01*
X19561000Y-7282000D02*
X19601000Y-7322000D01*
X19601000Y-7282000D02*
X19561000Y-7322000D01*
X19624000Y-8511000D02*
X19664000Y-8551000D01*
X19664000Y-8511000D02*
X19624000Y-8551000D01*
X19728000Y-8663000D02*
X19768000Y-8703000D01*
X19768000Y-8663000D02*
X19728000Y-8703000D01*
X19744000Y-5060000D02*
X19784000Y-5100000D01*
X19784000Y-5060000D02*
X19744000Y-5100000D01*
X19744000Y-14910000D02*
X19784000Y-14950000D01*
X19784000Y-14910000D02*
X19744000Y-14950000D01*
X19794000Y-7426000D02*
X19834000Y-7466000D01*
X19834000Y-7426000D02*
X19794000Y-7466000D01*
X19811000Y-8501000D02*
X19851000Y-8541000D01*
X19851000Y-8501000D02*
X19811000Y-8541000D01*
X19859000Y-8285000D02*
X19899000Y-8325000D01*
X19899000Y-8285000D02*
X19859000Y-8325000D01*
X19964000Y-8663000D02*
X20004000Y-8703000D01*
X20004000Y-8663000D02*
X19964000Y-8703000D01*
X19998000Y-5060000D02*
X20038000Y-5100000D01*
X20038000Y-5060000D02*
X19998000Y-5100000D01*
X19998000Y-14910000D02*
X20038000Y-14950000D01*
X20038000Y-14910000D02*
X19998000Y-14950000D01*
X20082000Y-8428000D02*
X20122000Y-8468000D01*
X20122000Y-8428000D02*
X20082000Y-8468000D01*
X20130000Y-8247000D02*
X20170000Y-8287000D01*
X20170000Y-8247000D02*
X20130000Y-8287000D01*
X20160000Y-8584000D02*
X20200000Y-8624000D01*
X20200000Y-8584000D02*
X20160000Y-8624000D01*
X20252000Y-5060000D02*
X20292000Y-5100000D01*
X20292000Y-5060000D02*
X20252000Y-5100000D01*
X20252000Y-14910000D02*
X20292000Y-14950000D01*
X20292000Y-14910000D02*
X20252000Y-14950000D01*
X20506000Y-5060000D02*
X20546000Y-5100000D01*
X20546000Y-5060000D02*
X20506000Y-5100000D01*
X20506000Y-14910000D02*
X20546000Y-14950000D01*
X20546000Y-14910000D02*
X20506000Y-14950000D01*
X20842000Y-5132000D02*
X20882000Y-5172000D01*
X20882000Y-5132000D02*
X20842000Y-5172000D01*
X20872000Y-14771000D02*
X20912000Y-14811000D01*
X20912000Y-14771000D02*
X20872000Y-14811000D01*
X21129000Y-5322000D02*
X21169000Y-5362000D01*
X21169000Y-5322000D02*
X21129000Y-5362000D01*
X21168000Y-14519000D02*
X21208000Y-14559000D01*
X21208000Y-14519000D02*
X21168000Y-14559000D01*
X21345000Y-5642000D02*
X21385000Y-5682000D01*
X21385000Y-5642000D02*
X21345000Y-5682000D01*
X21357000Y-14199000D02*
X21397000Y-14239000D01*
X21397000Y-14199000D02*
X21357000Y-14239000D01*
X21407000Y-5960000D02*
X21447000Y-6000000D01*
X21447000Y-5960000D02*
X21407000Y-6000000D01*
X21407000Y-6214000D02*
X21447000Y-6254000D01*
X21447000Y-6214000D02*
X21407000Y-6254000D01*
X21407000Y-6468000D02*
X21447000Y-6508000D01*
X21447000Y-6468000D02*
X21407000Y-6508000D01*
X21407000Y-6722000D02*
X21447000Y-6762000D01*
X21447000Y-6722000D02*
X21407000Y-6762000D01*
X21407000Y-6976000D02*
X21447000Y-7016000D01*
X21447000Y-6976000D02*
X21407000Y-7016000D01*
X21407000Y-7230000D02*
X21447000Y-7270000D01*
X21447000Y-7230000D02*
X21407000Y-7270000D01*
X21407000Y-7484000D02*
X21447000Y-7524000D01*
X21447000Y-7484000D02*
X21407000Y-7524000D01*
X21407000Y-7738000D02*
X21447000Y-7778000D01*
X21447000Y-7738000D02*
X21407000Y-7778000D01*
X21407000Y-7992000D02*
X21447000Y-8032000D01*
X21447000Y-7992000D02*
X21407000Y-8032000D01*
X21407000Y-8246000D02*
X21447000Y-8286000D01*
X21447000Y-8246000D02*
X21407000Y-8286000D01*
X21407000Y-8500000D02*
X21447000Y-8540000D01*
X21447000Y-8500000D02*
X21407000Y-8540000D01*
X21407000Y-8754000D02*
X21447000Y-8794000D01*
X21447000Y-8754000D02*
X21407000Y-8794000D01*
X21407000Y-9008000D02*
X21447000Y-9048000D01*
X21447000Y-9008000D02*
X21407000Y-9048000D01*
X21407000Y-9262000D02*
X21447000Y-9302000D01*
X21447000Y-9262000D02*
X21407000Y-9302000D01*
X21407000Y-9516000D02*
X21447000Y-9556000D01*
X21447000Y-9516000D02*
X21407000Y-9556000D01*
X21407000Y-9770000D02*
X21447000Y-9810000D01*
X21447000Y-9770000D02*
X21407000Y-9810000D01*
X21407000Y-10024000D02*
X21447000Y-10064000D01*
X21447000Y-10024000D02*
X21407000Y-10064000D01*
X21407000Y-10278000D02*
X21447000Y-10318000D01*
X21447000Y-10278000D02*
X21407000Y-10318000D01*
X21407000Y-10532000D02*
X21447000Y-10572000D01*
X21447000Y-10532000D02*
X21407000Y-10572000D01*
X21407000Y-10786000D02*
X21447000Y-10826000D01*
X21447000Y-10786000D02*
X21407000Y-10826000D01*
X21407000Y-11040000D02*
X21447000Y-11080000D01*
X21447000Y-11040000D02*
X21407000Y-11080000D01*
X21407000Y-11294000D02*
X21447000Y-11334000D01*
X21447000Y-11294000D02*
X21407000Y-11334000D01*
X21407000Y-11548000D02*
X21447000Y-11588000D01*
X21447000Y-11548000D02*
X21407000Y-11588000D01*
X21407000Y-11802000D02*
X21447000Y-11842000D01*
X21447000Y-11802000D02*
X21407000Y-11842000D01*
X21407000Y-12056000D02*
X21447000Y-12096000D01*
X21447000Y-12056000D02*
X21407000Y-12096000D01*
X21407000Y-12310000D02*
X21447000Y-12350000D01*
X21447000Y-12310000D02*
X21407000Y-12350000D01*
X21407000Y-12564000D02*
X21447000Y-12604000D01*
X21447000Y-12564000D02*
X21407000Y-12604000D01*
X21407000Y-12818000D02*
X21447000Y-12858000D01*
X21447000Y-12818000D02*
X21407000Y-12858000D01*
X21407000Y-13072000D02*
X21447000Y-13112000D01*
X21447000Y-13072000D02*
X21407000Y-13112000D01*
X21407000Y-13326000D02*
X21447000Y-13366000D01*
X21447000Y-13326000D02*
X21407000Y-13366000D01*
X21407000Y-13580000D02*
X21447000Y-13620000D01*
X21447000Y-13580000D02*
X21407000Y-13620000D01*
X21407000Y-13834000D02*
X21447000Y-13874000D01*
X21447000Y-13834000D02*
X21407000Y-13874000D01*
D13*
X16214250Y-9337390D02*
G75*
G03*
X16214250Y-9337390I-31750J0D01*
G01*
X16341250Y-9337390D02*
G75*
G03*
X16341250Y-9337390I-31750J0D01*
G01*
X16468250Y-9337390D02*
G75*
G03*
X16468250Y-9337390I-31750J0D01*
G01*
X16595250Y-9337390D02*
G75*
G03*
X16595250Y-9337390I-31750J0D01*
G01*
X16722250Y-9337390D02*
G75*
G03*
X16722250Y-9337390I-31750J0D01*
G01*
X16849250Y-9337390D02*
G75*
G03*
X16849250Y-9337390I-31750J0D01*
G01*
D14*
X16441000Y-8935000D02*
X16441000Y-9015000D01*
X16401000Y-8975000D02*
X16481000Y-8975000D01*
X16691000Y-8935000D02*
X16691000Y-9015000D01*
X16651000Y-8975000D02*
X16731000Y-8975000D01*
X18640000Y-7316000D02*
X18640000Y-7396000D01*
X18600000Y-7356000D02*
X18680000Y-7356000D01*
X19402000Y-7316000D02*
X19402000Y-7396000D01*
X19362000Y-7356000D02*
X19442000Y-7356000D01*
D15*
X19742820Y-7587320D02*
X19742820Y-7523680D01*
X19679180Y-7523680D01*
X19679180Y-7587320D01*
X19742820Y-7587320D01*
X19742820Y-7841320D02*
X19742820Y-7777680D01*
X19679180Y-7777680D01*
X19679180Y-7841320D01*
X19742820Y-7841320D01*
X19742820Y-8095320D02*
X19742820Y-8031680D01*
X19679180Y-8031680D01*
X19679180Y-8095320D01*
X19742820Y-8095320D01*
X19742820Y-8349320D02*
X19742820Y-8285680D01*
X19679180Y-8285680D01*
X19679180Y-8349320D01*
X19742820Y-8349320D01*
X19996820Y-7714320D02*
X19996820Y-7650680D01*
X19933180Y-7650680D01*
X19933180Y-7714320D01*
X19996820Y-7714320D01*
X19996820Y-7968320D02*
X19996820Y-7904680D01*
X19933180Y-7904680D01*
X19933180Y-7968320D01*
X19996820Y-7968320D01*
X19996820Y-8222320D02*
X19996820Y-8158680D01*
X19933180Y-8158680D01*
X19933180Y-8222320D01*
X19996820Y-8222320D01*
X19996820Y-8476320D02*
X19996820Y-8412680D01*
X19933180Y-8412680D01*
X19933180Y-8476320D01*
X19996820Y-8476320D01*
D16*
X12000000Y-9662230D02*
X12062230Y-9600000D01*
X12000000Y-9537770D01*
X11937770Y-9600000D01*
X12000000Y-9662230D01*
X12000000Y-10912230D02*
X12062230Y-10850000D01*
X12000000Y-10787770D01*
X11937770Y-10850000D01*
X12000000Y-10912230D01*
X12123000Y-9387230D02*
X12185230Y-9325000D01*
X12123000Y-9262770D01*
X12060770Y-9325000D01*
X12123000Y-9387230D01*
X12377000Y-9387230D02*
X12439230Y-9325000D01*
X12377000Y-9262770D01*
X12314770Y-9325000D01*
X12377000Y-9387230D01*
X12500000Y-9662230D02*
X12562230Y-9600000D01*
X12500000Y-9537770D01*
X12437770Y-9600000D01*
X12500000Y-9662230D01*
X12500000Y-10912230D02*
X12562230Y-10850000D01*
X12500000Y-10787770D01*
X12437770Y-10850000D01*
X12500000Y-10912230D01*
D17*
X20825000Y-7145000D02*
X20985000Y-7305000D01*
X20985000Y-7145000D02*
X20825000Y-7305000D01*
X20985000Y-7225000D02*
G75*
G03*
X20985000Y-7225000I-80000J0D01*
G01*
X20825000Y-8695000D02*
X20985000Y-8855000D01*
X20985000Y-8695000D02*
X20825000Y-8855000D01*
X20985000Y-8775000D02*
G75*
G03*
X20985000Y-8775000I-80000J0D01*
G01*
D18*
X15678310Y-9870790D02*
X15861190Y-10053670D01*
X15861190Y-9870790D02*
X15678310Y-10053670D01*
X15769750Y-9870790D02*
X15769750Y-10053670D01*
X15678310Y-9962230D02*
X15861190Y-9962230D01*
X17138810Y-9870790D02*
X17321690Y-10053670D01*
X17321690Y-9870790D02*
X17138810Y-10053670D01*
X17230250Y-9870790D02*
X17230250Y-10053670D01*
X17138810Y-9962230D02*
X17321690Y-9962230D01*
D11*
X11742619Y-15317524D02*
X11742619Y-15117524D01*
X11742619Y-15117524D02*
X11790238Y-15117524D01*
X11790238Y-15117524D02*
X11818809Y-15127048D01*
X11818809Y-15127048D02*
X11837857Y-15146095D01*
X11837857Y-15146095D02*
X11847381Y-15165143D01*
X11847381Y-15165143D02*
X11856905Y-15203238D01*
X11856905Y-15203238D02*
X11856905Y-15231809D01*
X11856905Y-15231809D02*
X11847381Y-15269905D01*
X11847381Y-15269905D02*
X11837857Y-15288952D01*
X11837857Y-15288952D02*
X11818809Y-15308000D01*
X11818809Y-15308000D02*
X11790238Y-15317524D01*
X11790238Y-15317524D02*
X11742619Y-15317524D01*
X11942619Y-15317524D02*
X11942619Y-15184190D01*
X11942619Y-15222286D02*
X11952143Y-15203238D01*
X11952143Y-15203238D02*
X11961667Y-15193714D01*
X11961667Y-15193714D02*
X11980714Y-15184190D01*
X11980714Y-15184190D02*
X11999762Y-15184190D01*
X12066428Y-15317524D02*
X12066428Y-15184190D01*
X12066428Y-15117524D02*
X12056905Y-15127048D01*
X12056905Y-15127048D02*
X12066428Y-15136571D01*
X12066428Y-15136571D02*
X12075952Y-15127048D01*
X12075952Y-15127048D02*
X12066428Y-15117524D01*
X12066428Y-15117524D02*
X12066428Y-15136571D01*
X12190238Y-15317524D02*
X12171190Y-15308000D01*
X12171190Y-15308000D02*
X12161667Y-15288952D01*
X12161667Y-15288952D02*
X12161667Y-15117524D01*
X12295000Y-15317524D02*
X12275952Y-15308000D01*
X12275952Y-15308000D02*
X12266428Y-15288952D01*
X12266428Y-15288952D02*
X12266428Y-15117524D01*
X12523571Y-15317524D02*
X12523571Y-15117524D01*
X12523571Y-15117524D02*
X12590238Y-15260381D01*
X12590238Y-15260381D02*
X12656905Y-15117524D01*
X12656905Y-15117524D02*
X12656905Y-15317524D01*
X12837857Y-15317524D02*
X12837857Y-15212762D01*
X12837857Y-15212762D02*
X12828333Y-15193714D01*
X12828333Y-15193714D02*
X12809286Y-15184190D01*
X12809286Y-15184190D02*
X12771190Y-15184190D01*
X12771190Y-15184190D02*
X12752143Y-15193714D01*
X12837857Y-15308000D02*
X12818809Y-15317524D01*
X12818809Y-15317524D02*
X12771190Y-15317524D01*
X12771190Y-15317524D02*
X12752143Y-15308000D01*
X12752143Y-15308000D02*
X12742619Y-15288952D01*
X12742619Y-15288952D02*
X12742619Y-15269905D01*
X12742619Y-15269905D02*
X12752143Y-15250857D01*
X12752143Y-15250857D02*
X12771190Y-15241333D01*
X12771190Y-15241333D02*
X12818809Y-15241333D01*
X12818809Y-15241333D02*
X12837857Y-15231809D01*
X12933095Y-15184190D02*
X12933095Y-15384190D01*
X12933095Y-15193714D02*
X12952143Y-15184190D01*
X12952143Y-15184190D02*
X12990238Y-15184190D01*
X12990238Y-15184190D02*
X13009286Y-15193714D01*
X13009286Y-15193714D02*
X13018809Y-15203238D01*
X13018809Y-15203238D02*
X13028333Y-15222286D01*
X13028333Y-15222286D02*
X13028333Y-15279428D01*
X13028333Y-15279428D02*
X13018809Y-15298476D01*
X13018809Y-15298476D02*
X13009286Y-15308000D01*
X13009286Y-15308000D02*
X12990238Y-15317524D01*
X12990238Y-15317524D02*
X12952143Y-15317524D01*
X12952143Y-15317524D02*
X12933095Y-15308000D01*
X13114048Y-15298476D02*
X13123571Y-15308000D01*
X13123571Y-15308000D02*
X13114048Y-15317524D01*
X13114048Y-15317524D02*
X13104524Y-15308000D01*
X13104524Y-15308000D02*
X13114048Y-15298476D01*
X13114048Y-15298476D02*
X13114048Y-15317524D01*
X13114048Y-15193714D02*
X13123571Y-15203238D01*
X13123571Y-15203238D02*
X13114048Y-15212762D01*
X13114048Y-15212762D02*
X13104524Y-15203238D01*
X13104524Y-15203238D02*
X13114048Y-15193714D01*
X13114048Y-15193714D02*
X13114048Y-15212762D01*
D12*
X11455000Y-15625000D02*
X11495000Y-15665000D01*
X11495000Y-15625000D02*
X11455000Y-15665000D01*
D11*
X11780714Y-15537524D02*
X11799762Y-15537524D01*
X11799762Y-15537524D02*
X11818809Y-15547048D01*
X11818809Y-15547048D02*
X11828333Y-15556571D01*
X11828333Y-15556571D02*
X11837857Y-15575619D01*
X11837857Y-15575619D02*
X11847381Y-15613714D01*
X11847381Y-15613714D02*
X11847381Y-15661333D01*
X11847381Y-15661333D02*
X11837857Y-15699428D01*
X11837857Y-15699428D02*
X11828333Y-15718476D01*
X11828333Y-15718476D02*
X11818809Y-15728000D01*
X11818809Y-15728000D02*
X11799762Y-15737524D01*
X11799762Y-15737524D02*
X11780714Y-15737524D01*
X11780714Y-15737524D02*
X11761667Y-15728000D01*
X11761667Y-15728000D02*
X11752143Y-15718476D01*
X11752143Y-15718476D02*
X11742619Y-15699428D01*
X11742619Y-15699428D02*
X11733095Y-15661333D01*
X11733095Y-15661333D02*
X11733095Y-15613714D01*
X11733095Y-15613714D02*
X11742619Y-15575619D01*
X11742619Y-15575619D02*
X11752143Y-15556571D01*
X11752143Y-15556571D02*
X11761667Y-15547048D01*
X11761667Y-15547048D02*
X11780714Y-15537524D01*
X11933095Y-15718476D02*
X11942619Y-15728000D01*
X11942619Y-15728000D02*
X11933095Y-15737524D01*
X11933095Y-15737524D02*
X11923571Y-15728000D01*
X11923571Y-15728000D02*
X11933095Y-15718476D01*
X11933095Y-15718476D02*
X11933095Y-15737524D01*
X12114048Y-15604190D02*
X12114048Y-15737524D01*
X12066428Y-15528000D02*
X12018809Y-15670857D01*
X12018809Y-15670857D02*
X12142619Y-15670857D01*
X12256905Y-15537524D02*
X12275952Y-15537524D01*
X12275952Y-15537524D02*
X12295000Y-15547048D01*
X12295000Y-15547048D02*
X12304524Y-15556571D01*
X12304524Y-15556571D02*
X12314048Y-15575619D01*
X12314048Y-15575619D02*
X12323571Y-15613714D01*
X12323571Y-15613714D02*
X12323571Y-15661333D01*
X12323571Y-15661333D02*
X12314048Y-15699428D01*
X12314048Y-15699428D02*
X12304524Y-15718476D01*
X12304524Y-15718476D02*
X12295000Y-15728000D01*
X12295000Y-15728000D02*
X12275952Y-15737524D01*
X12275952Y-15737524D02*
X12256905Y-15737524D01*
X12256905Y-15737524D02*
X12237857Y-15728000D01*
X12237857Y-15728000D02*
X12228333Y-15718476D01*
X12228333Y-15718476D02*
X12218809Y-15699428D01*
X12218809Y-15699428D02*
X12209286Y-15661333D01*
X12209286Y-15661333D02*
X12209286Y-15613714D01*
X12209286Y-15613714D02*
X12218809Y-15575619D01*
X12218809Y-15575619D02*
X12228333Y-15556571D01*
X12228333Y-15556571D02*
X12237857Y-15547048D01*
X12237857Y-15547048D02*
X12256905Y-15537524D01*
X12447381Y-15537524D02*
X12466429Y-15537524D01*
X12466429Y-15537524D02*
X12485476Y-15547048D01*
X12485476Y-15547048D02*
X12495000Y-15556571D01*
X12495000Y-15556571D02*
X12504524Y-15575619D01*
X12504524Y-15575619D02*
X12514048Y-15613714D01*
X12514048Y-15613714D02*
X12514048Y-15661333D01*
X12514048Y-15661333D02*
X12504524Y-15699428D01*
X12504524Y-15699428D02*
X12495000Y-15718476D01*
X12495000Y-15718476D02*
X12485476Y-15728000D01*
X12485476Y-15728000D02*
X12466429Y-15737524D01*
X12466429Y-15737524D02*
X12447381Y-15737524D01*
X12447381Y-15737524D02*
X12428333Y-15728000D01*
X12428333Y-15728000D02*
X12418809Y-15718476D01*
X12418809Y-15718476D02*
X12409286Y-15699428D01*
X12409286Y-15699428D02*
X12399762Y-15661333D01*
X12399762Y-15661333D02*
X12399762Y-15613714D01*
X12399762Y-15613714D02*
X12409286Y-15575619D01*
X12409286Y-15575619D02*
X12418809Y-15556571D01*
X12418809Y-15556571D02*
X12428333Y-15547048D01*
X12428333Y-15547048D02*
X12447381Y-15537524D01*
X12599762Y-15737524D02*
X12599762Y-15604190D01*
X12599762Y-15623238D02*
X12609286Y-15613714D01*
X12609286Y-15613714D02*
X12628333Y-15604190D01*
X12628333Y-15604190D02*
X12656905Y-15604190D01*
X12656905Y-15604190D02*
X12675952Y-15613714D01*
X12675952Y-15613714D02*
X12685476Y-15632762D01*
X12685476Y-15632762D02*
X12685476Y-15737524D01*
X12685476Y-15632762D02*
X12695000Y-15613714D01*
X12695000Y-15613714D02*
X12714048Y-15604190D01*
X12714048Y-15604190D02*
X12742619Y-15604190D01*
X12742619Y-15604190D02*
X12761667Y-15613714D01*
X12761667Y-15613714D02*
X12771190Y-15632762D01*
X12771190Y-15632762D02*
X12771190Y-15737524D01*
X12866429Y-15737524D02*
X12866429Y-15604190D01*
X12866429Y-15623238D02*
X12875952Y-15613714D01*
X12875952Y-15613714D02*
X12895000Y-15604190D01*
X12895000Y-15604190D02*
X12923571Y-15604190D01*
X12923571Y-15604190D02*
X12942619Y-15613714D01*
X12942619Y-15613714D02*
X12952143Y-15632762D01*
X12952143Y-15632762D02*
X12952143Y-15737524D01*
X12952143Y-15632762D02*
X12961667Y-15613714D01*
X12961667Y-15613714D02*
X12980714Y-15604190D01*
X12980714Y-15604190D02*
X13009286Y-15604190D01*
X13009286Y-15604190D02*
X13028333Y-15613714D01*
X13028333Y-15613714D02*
X13037857Y-15632762D01*
X13037857Y-15632762D02*
X13037857Y-15737524D01*
X13428333Y-15528000D02*
X13256905Y-15785143D01*
X13685476Y-15537524D02*
X13704524Y-15537524D01*
X13704524Y-15537524D02*
X13723572Y-15547048D01*
X13723572Y-15547048D02*
X13733095Y-15556571D01*
X13733095Y-15556571D02*
X13742619Y-15575619D01*
X13742619Y-15575619D02*
X13752143Y-15613714D01*
X13752143Y-15613714D02*
X13752143Y-15661333D01*
X13752143Y-15661333D02*
X13742619Y-15699428D01*
X13742619Y-15699428D02*
X13733095Y-15718476D01*
X13733095Y-15718476D02*
X13723572Y-15728000D01*
X13723572Y-15728000D02*
X13704524Y-15737524D01*
X13704524Y-15737524D02*
X13685476Y-15737524D01*
X13685476Y-15737524D02*
X13666429Y-15728000D01*
X13666429Y-15728000D02*
X13656905Y-15718476D01*
X13656905Y-15718476D02*
X13647381Y-15699428D01*
X13647381Y-15699428D02*
X13637857Y-15661333D01*
X13637857Y-15661333D02*
X13637857Y-15613714D01*
X13637857Y-15613714D02*
X13647381Y-15575619D01*
X13647381Y-15575619D02*
X13656905Y-15556571D01*
X13656905Y-15556571D02*
X13666429Y-15547048D01*
X13666429Y-15547048D02*
X13685476Y-15537524D01*
X13837857Y-15718476D02*
X13847381Y-15728000D01*
X13847381Y-15728000D02*
X13837857Y-15737524D01*
X13837857Y-15737524D02*
X13828333Y-15728000D01*
X13828333Y-15728000D02*
X13837857Y-15718476D01*
X13837857Y-15718476D02*
X13837857Y-15737524D01*
X13971191Y-15537524D02*
X13990238Y-15537524D01*
X13990238Y-15537524D02*
X14009286Y-15547048D01*
X14009286Y-15547048D02*
X14018810Y-15556571D01*
X14018810Y-15556571D02*
X14028333Y-15575619D01*
X14028333Y-15575619D02*
X14037857Y-15613714D01*
X14037857Y-15613714D02*
X14037857Y-15661333D01*
X14037857Y-15661333D02*
X14028333Y-15699428D01*
X14028333Y-15699428D02*
X14018810Y-15718476D01*
X14018810Y-15718476D02*
X14009286Y-15728000D01*
X14009286Y-15728000D02*
X13990238Y-15737524D01*
X13990238Y-15737524D02*
X13971191Y-15737524D01*
X13971191Y-15737524D02*
X13952143Y-15728000D01*
X13952143Y-15728000D02*
X13942619Y-15718476D01*
X13942619Y-15718476D02*
X13933095Y-15699428D01*
X13933095Y-15699428D02*
X13923572Y-15661333D01*
X13923572Y-15661333D02*
X13923572Y-15613714D01*
X13923572Y-15613714D02*
X13933095Y-15575619D01*
X13933095Y-15575619D02*
X13942619Y-15556571D01*
X13942619Y-15556571D02*
X13952143Y-15547048D01*
X13952143Y-15547048D02*
X13971191Y-15537524D01*
X14228333Y-15737524D02*
X14114048Y-15737524D01*
X14171191Y-15737524D02*
X14171191Y-15537524D01*
X14171191Y-15537524D02*
X14152143Y-15566095D01*
X14152143Y-15566095D02*
X14133095Y-15585143D01*
X14133095Y-15585143D02*
X14114048Y-15594667D01*
X14409286Y-15537524D02*
X14314048Y-15537524D01*
X14314048Y-15537524D02*
X14304524Y-15632762D01*
X14304524Y-15632762D02*
X14314048Y-15623238D01*
X14314048Y-15623238D02*
X14333095Y-15613714D01*
X14333095Y-15613714D02*
X14380714Y-15613714D01*
X14380714Y-15613714D02*
X14399762Y-15623238D01*
X14399762Y-15623238D02*
X14409286Y-15632762D01*
X14409286Y-15632762D02*
X14418810Y-15651809D01*
X14418810Y-15651809D02*
X14418810Y-15699428D01*
X14418810Y-15699428D02*
X14409286Y-15718476D01*
X14409286Y-15718476D02*
X14399762Y-15728000D01*
X14399762Y-15728000D02*
X14380714Y-15737524D01*
X14380714Y-15737524D02*
X14333095Y-15737524D01*
X14333095Y-15737524D02*
X14314048Y-15728000D01*
X14314048Y-15728000D02*
X14304524Y-15718476D01*
X14485476Y-15537524D02*
X14618810Y-15537524D01*
X14618810Y-15537524D02*
X14533095Y-15737524D01*
X14685476Y-15537524D02*
X14685476Y-15575619D01*
X14761667Y-15537524D02*
X14761667Y-15575619D01*
X15056905Y-15813714D02*
X15047381Y-15804190D01*
X15047381Y-15804190D02*
X15028334Y-15775619D01*
X15028334Y-15775619D02*
X15018810Y-15756571D01*
X15018810Y-15756571D02*
X15009286Y-15728000D01*
X15009286Y-15728000D02*
X14999762Y-15680381D01*
X14999762Y-15680381D02*
X14999762Y-15642286D01*
X14999762Y-15642286D02*
X15009286Y-15594667D01*
X15009286Y-15594667D02*
X15018810Y-15566095D01*
X15018810Y-15566095D02*
X15028334Y-15547048D01*
X15028334Y-15547048D02*
X15047381Y-15518476D01*
X15047381Y-15518476D02*
X15056905Y-15508952D01*
X15114048Y-15537524D02*
X15237857Y-15537524D01*
X15237857Y-15537524D02*
X15171191Y-15613714D01*
X15171191Y-15613714D02*
X15199762Y-15613714D01*
X15199762Y-15613714D02*
X15218810Y-15623238D01*
X15218810Y-15623238D02*
X15228334Y-15632762D01*
X15228334Y-15632762D02*
X15237857Y-15651809D01*
X15237857Y-15651809D02*
X15237857Y-15699428D01*
X15237857Y-15699428D02*
X15228334Y-15718476D01*
X15228334Y-15718476D02*
X15218810Y-15728000D01*
X15218810Y-15728000D02*
X15199762Y-15737524D01*
X15199762Y-15737524D02*
X15142619Y-15737524D01*
X15142619Y-15737524D02*
X15123572Y-15728000D01*
X15123572Y-15728000D02*
X15114048Y-15718476D01*
X15418810Y-15537524D02*
X15323572Y-15537524D01*
X15323572Y-15537524D02*
X15314048Y-15632762D01*
X15314048Y-15632762D02*
X15323572Y-15623238D01*
X15323572Y-15623238D02*
X15342619Y-15613714D01*
X15342619Y-15613714D02*
X15390238Y-15613714D01*
X15390238Y-15613714D02*
X15409286Y-15623238D01*
X15409286Y-15623238D02*
X15418810Y-15632762D01*
X15418810Y-15632762D02*
X15428334Y-15651809D01*
X15428334Y-15651809D02*
X15428334Y-15699428D01*
X15428334Y-15699428D02*
X15418810Y-15718476D01*
X15418810Y-15718476D02*
X15409286Y-15728000D01*
X15409286Y-15728000D02*
X15390238Y-15737524D01*
X15390238Y-15737524D02*
X15342619Y-15737524D01*
X15342619Y-15737524D02*
X15323572Y-15728000D01*
X15323572Y-15728000D02*
X15314048Y-15718476D01*
X15542619Y-15623238D02*
X15523572Y-15613714D01*
X15523572Y-15613714D02*
X15514048Y-15604190D01*
X15514048Y-15604190D02*
X15504524Y-15585143D01*
X15504524Y-15585143D02*
X15504524Y-15575619D01*
X15504524Y-15575619D02*
X15514048Y-15556571D01*
X15514048Y-15556571D02*
X15523572Y-15547048D01*
X15523572Y-15547048D02*
X15542619Y-15537524D01*
X15542619Y-15537524D02*
X15580715Y-15537524D01*
X15580715Y-15537524D02*
X15599762Y-15547048D01*
X15599762Y-15547048D02*
X15609286Y-15556571D01*
X15609286Y-15556571D02*
X15618810Y-15575619D01*
X15618810Y-15575619D02*
X15618810Y-15585143D01*
X15618810Y-15585143D02*
X15609286Y-15604190D01*
X15609286Y-15604190D02*
X15599762Y-15613714D01*
X15599762Y-15613714D02*
X15580715Y-15623238D01*
X15580715Y-15623238D02*
X15542619Y-15623238D01*
X15542619Y-15623238D02*
X15523572Y-15632762D01*
X15523572Y-15632762D02*
X15514048Y-15642286D01*
X15514048Y-15642286D02*
X15504524Y-15661333D01*
X15504524Y-15661333D02*
X15504524Y-15699428D01*
X15504524Y-15699428D02*
X15514048Y-15718476D01*
X15514048Y-15718476D02*
X15523572Y-15728000D01*
X15523572Y-15728000D02*
X15542619Y-15737524D01*
X15542619Y-15737524D02*
X15580715Y-15737524D01*
X15580715Y-15737524D02*
X15599762Y-15728000D01*
X15599762Y-15728000D02*
X15609286Y-15718476D01*
X15609286Y-15718476D02*
X15618810Y-15699428D01*
X15618810Y-15699428D02*
X15618810Y-15661333D01*
X15618810Y-15661333D02*
X15609286Y-15642286D01*
X15609286Y-15642286D02*
X15599762Y-15632762D01*
X15599762Y-15632762D02*
X15580715Y-15623238D01*
X15856905Y-15737524D02*
X15856905Y-15537524D01*
X15942619Y-15737524D02*
X15942619Y-15632762D01*
X15942619Y-15632762D02*
X15933096Y-15613714D01*
X15933096Y-15613714D02*
X15914048Y-15604190D01*
X15914048Y-15604190D02*
X15885476Y-15604190D01*
X15885476Y-15604190D02*
X15866429Y-15613714D01*
X15866429Y-15613714D02*
X15856905Y-15623238D01*
X16066429Y-15737524D02*
X16047381Y-15728000D01*
X16047381Y-15728000D02*
X16037857Y-15718476D01*
X16037857Y-15718476D02*
X16028334Y-15699428D01*
X16028334Y-15699428D02*
X16028334Y-15642286D01*
X16028334Y-15642286D02*
X16037857Y-15623238D01*
X16037857Y-15623238D02*
X16047381Y-15613714D01*
X16047381Y-15613714D02*
X16066429Y-15604190D01*
X16066429Y-15604190D02*
X16095000Y-15604190D01*
X16095000Y-15604190D02*
X16114048Y-15613714D01*
X16114048Y-15613714D02*
X16123572Y-15623238D01*
X16123572Y-15623238D02*
X16133096Y-15642286D01*
X16133096Y-15642286D02*
X16133096Y-15699428D01*
X16133096Y-15699428D02*
X16123572Y-15718476D01*
X16123572Y-15718476D02*
X16114048Y-15728000D01*
X16114048Y-15728000D02*
X16095000Y-15737524D01*
X16095000Y-15737524D02*
X16066429Y-15737524D01*
X16247381Y-15737524D02*
X16228334Y-15728000D01*
X16228334Y-15728000D02*
X16218810Y-15708952D01*
X16218810Y-15708952D02*
X16218810Y-15537524D01*
X16399762Y-15728000D02*
X16380715Y-15737524D01*
X16380715Y-15737524D02*
X16342619Y-15737524D01*
X16342619Y-15737524D02*
X16323572Y-15728000D01*
X16323572Y-15728000D02*
X16314048Y-15708952D01*
X16314048Y-15708952D02*
X16314048Y-15632762D01*
X16314048Y-15632762D02*
X16323572Y-15613714D01*
X16323572Y-15613714D02*
X16342619Y-15604190D01*
X16342619Y-15604190D02*
X16380715Y-15604190D01*
X16380715Y-15604190D02*
X16399762Y-15613714D01*
X16399762Y-15613714D02*
X16409286Y-15632762D01*
X16409286Y-15632762D02*
X16409286Y-15651809D01*
X16409286Y-15651809D02*
X16314048Y-15670857D01*
X16485477Y-15728000D02*
X16504524Y-15737524D01*
X16504524Y-15737524D02*
X16542619Y-15737524D01*
X16542619Y-15737524D02*
X16561667Y-15728000D01*
X16561667Y-15728000D02*
X16571191Y-15708952D01*
X16571191Y-15708952D02*
X16571191Y-15699428D01*
X16571191Y-15699428D02*
X16561667Y-15680381D01*
X16561667Y-15680381D02*
X16542619Y-15670857D01*
X16542619Y-15670857D02*
X16514048Y-15670857D01*
X16514048Y-15670857D02*
X16495000Y-15661333D01*
X16495000Y-15661333D02*
X16485477Y-15642286D01*
X16485477Y-15642286D02*
X16485477Y-15632762D01*
X16485477Y-15632762D02*
X16495000Y-15613714D01*
X16495000Y-15613714D02*
X16514048Y-15604190D01*
X16514048Y-15604190D02*
X16542619Y-15604190D01*
X16542619Y-15604190D02*
X16561667Y-15613714D01*
X16637858Y-15813714D02*
X16647381Y-15804190D01*
X16647381Y-15804190D02*
X16666429Y-15775619D01*
X16666429Y-15775619D02*
X16675953Y-15756571D01*
X16675953Y-15756571D02*
X16685477Y-15728000D01*
X16685477Y-15728000D02*
X16695000Y-15680381D01*
X16695000Y-15680381D02*
X16695000Y-15642286D01*
X16695000Y-15642286D02*
X16685477Y-15594667D01*
X16685477Y-15594667D02*
X16675953Y-15566095D01*
X16675953Y-15566095D02*
X16666429Y-15547048D01*
X16666429Y-15547048D02*
X16647381Y-15518476D01*
X16647381Y-15518476D02*
X16637858Y-15508952D01*
D13*
X11495000Y-15909000D02*
G75*
G03*
X11495000Y-15909000I-31750J0D01*
G01*
D11*
X11780714Y-15801524D02*
X11799762Y-15801524D01*
X11799762Y-15801524D02*
X11818809Y-15811048D01*
X11818809Y-15811048D02*
X11828333Y-15820571D01*
X11828333Y-15820571D02*
X11837857Y-15839619D01*
X11837857Y-15839619D02*
X11847381Y-15877714D01*
X11847381Y-15877714D02*
X11847381Y-15925333D01*
X11847381Y-15925333D02*
X11837857Y-15963428D01*
X11837857Y-15963428D02*
X11828333Y-15982476D01*
X11828333Y-15982476D02*
X11818809Y-15992000D01*
X11818809Y-15992000D02*
X11799762Y-16001524D01*
X11799762Y-16001524D02*
X11780714Y-16001524D01*
X11780714Y-16001524D02*
X11761667Y-15992000D01*
X11761667Y-15992000D02*
X11752143Y-15982476D01*
X11752143Y-15982476D02*
X11742619Y-15963428D01*
X11742619Y-15963428D02*
X11733095Y-15925333D01*
X11733095Y-15925333D02*
X11733095Y-15877714D01*
X11733095Y-15877714D02*
X11742619Y-15839619D01*
X11742619Y-15839619D02*
X11752143Y-15820571D01*
X11752143Y-15820571D02*
X11761667Y-15811048D01*
X11761667Y-15811048D02*
X11780714Y-15801524D01*
X11933095Y-15982476D02*
X11942619Y-15992000D01*
X11942619Y-15992000D02*
X11933095Y-16001524D01*
X11933095Y-16001524D02*
X11923571Y-15992000D01*
X11923571Y-15992000D02*
X11933095Y-15982476D01*
X11933095Y-15982476D02*
X11933095Y-16001524D01*
X12114048Y-15801524D02*
X12075952Y-15801524D01*
X12075952Y-15801524D02*
X12056905Y-15811048D01*
X12056905Y-15811048D02*
X12047381Y-15820571D01*
X12047381Y-15820571D02*
X12028333Y-15849143D01*
X12028333Y-15849143D02*
X12018809Y-15887238D01*
X12018809Y-15887238D02*
X12018809Y-15963428D01*
X12018809Y-15963428D02*
X12028333Y-15982476D01*
X12028333Y-15982476D02*
X12037857Y-15992000D01*
X12037857Y-15992000D02*
X12056905Y-16001524D01*
X12056905Y-16001524D02*
X12095000Y-16001524D01*
X12095000Y-16001524D02*
X12114048Y-15992000D01*
X12114048Y-15992000D02*
X12123571Y-15982476D01*
X12123571Y-15982476D02*
X12133095Y-15963428D01*
X12133095Y-15963428D02*
X12133095Y-15915809D01*
X12133095Y-15915809D02*
X12123571Y-15896762D01*
X12123571Y-15896762D02*
X12114048Y-15887238D01*
X12114048Y-15887238D02*
X12095000Y-15877714D01*
X12095000Y-15877714D02*
X12056905Y-15877714D01*
X12056905Y-15877714D02*
X12037857Y-15887238D01*
X12037857Y-15887238D02*
X12028333Y-15896762D01*
X12028333Y-15896762D02*
X12018809Y-15915809D01*
X12199762Y-15801524D02*
X12323571Y-15801524D01*
X12323571Y-15801524D02*
X12256905Y-15877714D01*
X12256905Y-15877714D02*
X12285476Y-15877714D01*
X12285476Y-15877714D02*
X12304524Y-15887238D01*
X12304524Y-15887238D02*
X12314048Y-15896762D01*
X12314048Y-15896762D02*
X12323571Y-15915809D01*
X12323571Y-15915809D02*
X12323571Y-15963428D01*
X12323571Y-15963428D02*
X12314048Y-15982476D01*
X12314048Y-15982476D02*
X12304524Y-15992000D01*
X12304524Y-15992000D02*
X12285476Y-16001524D01*
X12285476Y-16001524D02*
X12228333Y-16001524D01*
X12228333Y-16001524D02*
X12209286Y-15992000D01*
X12209286Y-15992000D02*
X12199762Y-15982476D01*
X12504524Y-15801524D02*
X12409286Y-15801524D01*
X12409286Y-15801524D02*
X12399762Y-15896762D01*
X12399762Y-15896762D02*
X12409286Y-15887238D01*
X12409286Y-15887238D02*
X12428333Y-15877714D01*
X12428333Y-15877714D02*
X12475952Y-15877714D01*
X12475952Y-15877714D02*
X12495000Y-15887238D01*
X12495000Y-15887238D02*
X12504524Y-15896762D01*
X12504524Y-15896762D02*
X12514048Y-15915809D01*
X12514048Y-15915809D02*
X12514048Y-15963428D01*
X12514048Y-15963428D02*
X12504524Y-15982476D01*
X12504524Y-15982476D02*
X12495000Y-15992000D01*
X12495000Y-15992000D02*
X12475952Y-16001524D01*
X12475952Y-16001524D02*
X12428333Y-16001524D01*
X12428333Y-16001524D02*
X12409286Y-15992000D01*
X12409286Y-15992000D02*
X12399762Y-15982476D01*
X12599762Y-16001524D02*
X12599762Y-15868190D01*
X12599762Y-15887238D02*
X12609286Y-15877714D01*
X12609286Y-15877714D02*
X12628333Y-15868190D01*
X12628333Y-15868190D02*
X12656905Y-15868190D01*
X12656905Y-15868190D02*
X12675952Y-15877714D01*
X12675952Y-15877714D02*
X12685476Y-15896762D01*
X12685476Y-15896762D02*
X12685476Y-16001524D01*
X12685476Y-15896762D02*
X12695000Y-15877714D01*
X12695000Y-15877714D02*
X12714048Y-15868190D01*
X12714048Y-15868190D02*
X12742619Y-15868190D01*
X12742619Y-15868190D02*
X12761667Y-15877714D01*
X12761667Y-15877714D02*
X12771190Y-15896762D01*
X12771190Y-15896762D02*
X12771190Y-16001524D01*
X12866429Y-16001524D02*
X12866429Y-15868190D01*
X12866429Y-15887238D02*
X12875952Y-15877714D01*
X12875952Y-15877714D02*
X12895000Y-15868190D01*
X12895000Y-15868190D02*
X12923571Y-15868190D01*
X12923571Y-15868190D02*
X12942619Y-15877714D01*
X12942619Y-15877714D02*
X12952143Y-15896762D01*
X12952143Y-15896762D02*
X12952143Y-16001524D01*
X12952143Y-15896762D02*
X12961667Y-15877714D01*
X12961667Y-15877714D02*
X12980714Y-15868190D01*
X12980714Y-15868190D02*
X13009286Y-15868190D01*
X13009286Y-15868190D02*
X13028333Y-15877714D01*
X13028333Y-15877714D02*
X13037857Y-15896762D01*
X13037857Y-15896762D02*
X13037857Y-16001524D01*
X13428333Y-15792000D02*
X13256905Y-16049143D01*
X13685476Y-15801524D02*
X13704524Y-15801524D01*
X13704524Y-15801524D02*
X13723572Y-15811048D01*
X13723572Y-15811048D02*
X13733095Y-15820571D01*
X13733095Y-15820571D02*
X13742619Y-15839619D01*
X13742619Y-15839619D02*
X13752143Y-15877714D01*
X13752143Y-15877714D02*
X13752143Y-15925333D01*
X13752143Y-15925333D02*
X13742619Y-15963428D01*
X13742619Y-15963428D02*
X13733095Y-15982476D01*
X13733095Y-15982476D02*
X13723572Y-15992000D01*
X13723572Y-15992000D02*
X13704524Y-16001524D01*
X13704524Y-16001524D02*
X13685476Y-16001524D01*
X13685476Y-16001524D02*
X13666429Y-15992000D01*
X13666429Y-15992000D02*
X13656905Y-15982476D01*
X13656905Y-15982476D02*
X13647381Y-15963428D01*
X13647381Y-15963428D02*
X13637857Y-15925333D01*
X13637857Y-15925333D02*
X13637857Y-15877714D01*
X13637857Y-15877714D02*
X13647381Y-15839619D01*
X13647381Y-15839619D02*
X13656905Y-15820571D01*
X13656905Y-15820571D02*
X13666429Y-15811048D01*
X13666429Y-15811048D02*
X13685476Y-15801524D01*
X13837857Y-15982476D02*
X13847381Y-15992000D01*
X13847381Y-15992000D02*
X13837857Y-16001524D01*
X13837857Y-16001524D02*
X13828333Y-15992000D01*
X13828333Y-15992000D02*
X13837857Y-15982476D01*
X13837857Y-15982476D02*
X13837857Y-16001524D01*
X13971191Y-15801524D02*
X13990238Y-15801524D01*
X13990238Y-15801524D02*
X14009286Y-15811048D01*
X14009286Y-15811048D02*
X14018810Y-15820571D01*
X14018810Y-15820571D02*
X14028333Y-15839619D01*
X14028333Y-15839619D02*
X14037857Y-15877714D01*
X14037857Y-15877714D02*
X14037857Y-15925333D01*
X14037857Y-15925333D02*
X14028333Y-15963428D01*
X14028333Y-15963428D02*
X14018810Y-15982476D01*
X14018810Y-15982476D02*
X14009286Y-15992000D01*
X14009286Y-15992000D02*
X13990238Y-16001524D01*
X13990238Y-16001524D02*
X13971191Y-16001524D01*
X13971191Y-16001524D02*
X13952143Y-15992000D01*
X13952143Y-15992000D02*
X13942619Y-15982476D01*
X13942619Y-15982476D02*
X13933095Y-15963428D01*
X13933095Y-15963428D02*
X13923572Y-15925333D01*
X13923572Y-15925333D02*
X13923572Y-15877714D01*
X13923572Y-15877714D02*
X13933095Y-15839619D01*
X13933095Y-15839619D02*
X13942619Y-15820571D01*
X13942619Y-15820571D02*
X13952143Y-15811048D01*
X13952143Y-15811048D02*
X13971191Y-15801524D01*
X14114048Y-15820571D02*
X14123572Y-15811048D01*
X14123572Y-15811048D02*
X14142619Y-15801524D01*
X14142619Y-15801524D02*
X14190238Y-15801524D01*
X14190238Y-15801524D02*
X14209286Y-15811048D01*
X14209286Y-15811048D02*
X14218810Y-15820571D01*
X14218810Y-15820571D02*
X14228333Y-15839619D01*
X14228333Y-15839619D02*
X14228333Y-15858667D01*
X14228333Y-15858667D02*
X14218810Y-15887238D01*
X14218810Y-15887238D02*
X14104524Y-16001524D01*
X14104524Y-16001524D02*
X14228333Y-16001524D01*
X14409286Y-15801524D02*
X14314048Y-15801524D01*
X14314048Y-15801524D02*
X14304524Y-15896762D01*
X14304524Y-15896762D02*
X14314048Y-15887238D01*
X14314048Y-15887238D02*
X14333095Y-15877714D01*
X14333095Y-15877714D02*
X14380714Y-15877714D01*
X14380714Y-15877714D02*
X14399762Y-15887238D01*
X14399762Y-15887238D02*
X14409286Y-15896762D01*
X14409286Y-15896762D02*
X14418810Y-15915809D01*
X14418810Y-15915809D02*
X14418810Y-15963428D01*
X14418810Y-15963428D02*
X14409286Y-15982476D01*
X14409286Y-15982476D02*
X14399762Y-15992000D01*
X14399762Y-15992000D02*
X14380714Y-16001524D01*
X14380714Y-16001524D02*
X14333095Y-16001524D01*
X14333095Y-16001524D02*
X14314048Y-15992000D01*
X14314048Y-15992000D02*
X14304524Y-15982476D01*
X14542619Y-15801524D02*
X14561667Y-15801524D01*
X14561667Y-15801524D02*
X14580714Y-15811048D01*
X14580714Y-15811048D02*
X14590238Y-15820571D01*
X14590238Y-15820571D02*
X14599762Y-15839619D01*
X14599762Y-15839619D02*
X14609286Y-15877714D01*
X14609286Y-15877714D02*
X14609286Y-15925333D01*
X14609286Y-15925333D02*
X14599762Y-15963428D01*
X14599762Y-15963428D02*
X14590238Y-15982476D01*
X14590238Y-15982476D02*
X14580714Y-15992000D01*
X14580714Y-15992000D02*
X14561667Y-16001524D01*
X14561667Y-16001524D02*
X14542619Y-16001524D01*
X14542619Y-16001524D02*
X14523572Y-15992000D01*
X14523572Y-15992000D02*
X14514048Y-15982476D01*
X14514048Y-15982476D02*
X14504524Y-15963428D01*
X14504524Y-15963428D02*
X14495000Y-15925333D01*
X14495000Y-15925333D02*
X14495000Y-15877714D01*
X14495000Y-15877714D02*
X14504524Y-15839619D01*
X14504524Y-15839619D02*
X14514048Y-15820571D01*
X14514048Y-15820571D02*
X14523572Y-15811048D01*
X14523572Y-15811048D02*
X14542619Y-15801524D01*
X14685476Y-15801524D02*
X14685476Y-15839619D01*
X14761667Y-15801524D02*
X14761667Y-15839619D01*
X15056905Y-16077714D02*
X15047381Y-16068190D01*
X15047381Y-16068190D02*
X15028334Y-16039619D01*
X15028334Y-16039619D02*
X15018810Y-16020571D01*
X15018810Y-16020571D02*
X15009286Y-15992000D01*
X15009286Y-15992000D02*
X14999762Y-15944381D01*
X14999762Y-15944381D02*
X14999762Y-15906286D01*
X14999762Y-15906286D02*
X15009286Y-15858667D01*
X15009286Y-15858667D02*
X15018810Y-15830095D01*
X15018810Y-15830095D02*
X15028334Y-15811048D01*
X15028334Y-15811048D02*
X15047381Y-15782476D01*
X15047381Y-15782476D02*
X15056905Y-15772952D01*
X15218810Y-15801524D02*
X15180714Y-15801524D01*
X15180714Y-15801524D02*
X15161667Y-15811048D01*
X15161667Y-15811048D02*
X15152143Y-15820571D01*
X15152143Y-15820571D02*
X15133095Y-15849143D01*
X15133095Y-15849143D02*
X15123572Y-15887238D01*
X15123572Y-15887238D02*
X15123572Y-15963428D01*
X15123572Y-15963428D02*
X15133095Y-15982476D01*
X15133095Y-15982476D02*
X15142619Y-15992000D01*
X15142619Y-15992000D02*
X15161667Y-16001524D01*
X15161667Y-16001524D02*
X15199762Y-16001524D01*
X15199762Y-16001524D02*
X15218810Y-15992000D01*
X15218810Y-15992000D02*
X15228334Y-15982476D01*
X15228334Y-15982476D02*
X15237857Y-15963428D01*
X15237857Y-15963428D02*
X15237857Y-15915809D01*
X15237857Y-15915809D02*
X15228334Y-15896762D01*
X15228334Y-15896762D02*
X15218810Y-15887238D01*
X15218810Y-15887238D02*
X15199762Y-15877714D01*
X15199762Y-15877714D02*
X15161667Y-15877714D01*
X15161667Y-15877714D02*
X15142619Y-15887238D01*
X15142619Y-15887238D02*
X15133095Y-15896762D01*
X15133095Y-15896762D02*
X15123572Y-15915809D01*
X15475953Y-16001524D02*
X15475953Y-15801524D01*
X15561667Y-16001524D02*
X15561667Y-15896762D01*
X15561667Y-15896762D02*
X15552143Y-15877714D01*
X15552143Y-15877714D02*
X15533096Y-15868190D01*
X15533096Y-15868190D02*
X15504524Y-15868190D01*
X15504524Y-15868190D02*
X15485476Y-15877714D01*
X15485476Y-15877714D02*
X15475953Y-15887238D01*
X15685476Y-16001524D02*
X15666429Y-15992000D01*
X15666429Y-15992000D02*
X15656905Y-15982476D01*
X15656905Y-15982476D02*
X15647381Y-15963428D01*
X15647381Y-15963428D02*
X15647381Y-15906286D01*
X15647381Y-15906286D02*
X15656905Y-15887238D01*
X15656905Y-15887238D02*
X15666429Y-15877714D01*
X15666429Y-15877714D02*
X15685476Y-15868190D01*
X15685476Y-15868190D02*
X15714048Y-15868190D01*
X15714048Y-15868190D02*
X15733096Y-15877714D01*
X15733096Y-15877714D02*
X15742619Y-15887238D01*
X15742619Y-15887238D02*
X15752143Y-15906286D01*
X15752143Y-15906286D02*
X15752143Y-15963428D01*
X15752143Y-15963428D02*
X15742619Y-15982476D01*
X15742619Y-15982476D02*
X15733096Y-15992000D01*
X15733096Y-15992000D02*
X15714048Y-16001524D01*
X15714048Y-16001524D02*
X15685476Y-16001524D01*
X15866429Y-16001524D02*
X15847381Y-15992000D01*
X15847381Y-15992000D02*
X15837857Y-15972952D01*
X15837857Y-15972952D02*
X15837857Y-15801524D01*
X16018810Y-15992000D02*
X15999762Y-16001524D01*
X15999762Y-16001524D02*
X15961667Y-16001524D01*
X15961667Y-16001524D02*
X15942619Y-15992000D01*
X15942619Y-15992000D02*
X15933096Y-15972952D01*
X15933096Y-15972952D02*
X15933096Y-15896762D01*
X15933096Y-15896762D02*
X15942619Y-15877714D01*
X15942619Y-15877714D02*
X15961667Y-15868190D01*
X15961667Y-15868190D02*
X15999762Y-15868190D01*
X15999762Y-15868190D02*
X16018810Y-15877714D01*
X16018810Y-15877714D02*
X16028334Y-15896762D01*
X16028334Y-15896762D02*
X16028334Y-15915809D01*
X16028334Y-15915809D02*
X15933096Y-15934857D01*
X16104524Y-15992000D02*
X16123572Y-16001524D01*
X16123572Y-16001524D02*
X16161667Y-16001524D01*
X16161667Y-16001524D02*
X16180715Y-15992000D01*
X16180715Y-15992000D02*
X16190238Y-15972952D01*
X16190238Y-15972952D02*
X16190238Y-15963428D01*
X16190238Y-15963428D02*
X16180715Y-15944381D01*
X16180715Y-15944381D02*
X16161667Y-15934857D01*
X16161667Y-15934857D02*
X16133096Y-15934857D01*
X16133096Y-15934857D02*
X16114048Y-15925333D01*
X16114048Y-15925333D02*
X16104524Y-15906286D01*
X16104524Y-15906286D02*
X16104524Y-15896762D01*
X16104524Y-15896762D02*
X16114048Y-15877714D01*
X16114048Y-15877714D02*
X16133096Y-15868190D01*
X16133096Y-15868190D02*
X16161667Y-15868190D01*
X16161667Y-15868190D02*
X16180715Y-15877714D01*
X16256905Y-16077714D02*
X16266429Y-16068190D01*
X16266429Y-16068190D02*
X16285477Y-16039619D01*
X16285477Y-16039619D02*
X16295000Y-16020571D01*
X16295000Y-16020571D02*
X16304524Y-15992000D01*
X16304524Y-15992000D02*
X16314048Y-15944381D01*
X16314048Y-15944381D02*
X16314048Y-15906286D01*
X16314048Y-15906286D02*
X16304524Y-15858667D01*
X16304524Y-15858667D02*
X16295000Y-15830095D01*
X16295000Y-15830095D02*
X16285477Y-15811048D01*
X16285477Y-15811048D02*
X16266429Y-15782476D01*
X16266429Y-15782476D02*
X16256905Y-15772952D01*
D14*
X11455000Y-16133000D02*
X11455000Y-16213000D01*
X11415000Y-16173000D02*
X11495000Y-16173000D01*
D11*
X11780714Y-16065524D02*
X11799762Y-16065524D01*
X11799762Y-16065524D02*
X11818809Y-16075048D01*
X11818809Y-16075048D02*
X11828333Y-16084571D01*
X11828333Y-16084571D02*
X11837857Y-16103619D01*
X11837857Y-16103619D02*
X11847381Y-16141714D01*
X11847381Y-16141714D02*
X11847381Y-16189333D01*
X11847381Y-16189333D02*
X11837857Y-16227428D01*
X11837857Y-16227428D02*
X11828333Y-16246476D01*
X11828333Y-16246476D02*
X11818809Y-16256000D01*
X11818809Y-16256000D02*
X11799762Y-16265524D01*
X11799762Y-16265524D02*
X11780714Y-16265524D01*
X11780714Y-16265524D02*
X11761667Y-16256000D01*
X11761667Y-16256000D02*
X11752143Y-16246476D01*
X11752143Y-16246476D02*
X11742619Y-16227428D01*
X11742619Y-16227428D02*
X11733095Y-16189333D01*
X11733095Y-16189333D02*
X11733095Y-16141714D01*
X11733095Y-16141714D02*
X11742619Y-16103619D01*
X11742619Y-16103619D02*
X11752143Y-16084571D01*
X11752143Y-16084571D02*
X11761667Y-16075048D01*
X11761667Y-16075048D02*
X11780714Y-16065524D01*
X11933095Y-16246476D02*
X11942619Y-16256000D01*
X11942619Y-16256000D02*
X11933095Y-16265524D01*
X11933095Y-16265524D02*
X11923571Y-16256000D01*
X11923571Y-16256000D02*
X11933095Y-16246476D01*
X11933095Y-16246476D02*
X11933095Y-16265524D01*
X12056905Y-16151238D02*
X12037857Y-16141714D01*
X12037857Y-16141714D02*
X12028333Y-16132190D01*
X12028333Y-16132190D02*
X12018809Y-16113143D01*
X12018809Y-16113143D02*
X12018809Y-16103619D01*
X12018809Y-16103619D02*
X12028333Y-16084571D01*
X12028333Y-16084571D02*
X12037857Y-16075048D01*
X12037857Y-16075048D02*
X12056905Y-16065524D01*
X12056905Y-16065524D02*
X12095000Y-16065524D01*
X12095000Y-16065524D02*
X12114048Y-16075048D01*
X12114048Y-16075048D02*
X12123571Y-16084571D01*
X12123571Y-16084571D02*
X12133095Y-16103619D01*
X12133095Y-16103619D02*
X12133095Y-16113143D01*
X12133095Y-16113143D02*
X12123571Y-16132190D01*
X12123571Y-16132190D02*
X12114048Y-16141714D01*
X12114048Y-16141714D02*
X12095000Y-16151238D01*
X12095000Y-16151238D02*
X12056905Y-16151238D01*
X12056905Y-16151238D02*
X12037857Y-16160762D01*
X12037857Y-16160762D02*
X12028333Y-16170286D01*
X12028333Y-16170286D02*
X12018809Y-16189333D01*
X12018809Y-16189333D02*
X12018809Y-16227428D01*
X12018809Y-16227428D02*
X12028333Y-16246476D01*
X12028333Y-16246476D02*
X12037857Y-16256000D01*
X12037857Y-16256000D02*
X12056905Y-16265524D01*
X12056905Y-16265524D02*
X12095000Y-16265524D01*
X12095000Y-16265524D02*
X12114048Y-16256000D01*
X12114048Y-16256000D02*
X12123571Y-16246476D01*
X12123571Y-16246476D02*
X12133095Y-16227428D01*
X12133095Y-16227428D02*
X12133095Y-16189333D01*
X12133095Y-16189333D02*
X12123571Y-16170286D01*
X12123571Y-16170286D02*
X12114048Y-16160762D01*
X12114048Y-16160762D02*
X12095000Y-16151238D01*
X12256905Y-16065524D02*
X12275952Y-16065524D01*
X12275952Y-16065524D02*
X12295000Y-16075048D01*
X12295000Y-16075048D02*
X12304524Y-16084571D01*
X12304524Y-16084571D02*
X12314048Y-16103619D01*
X12314048Y-16103619D02*
X12323571Y-16141714D01*
X12323571Y-16141714D02*
X12323571Y-16189333D01*
X12323571Y-16189333D02*
X12314048Y-16227428D01*
X12314048Y-16227428D02*
X12304524Y-16246476D01*
X12304524Y-16246476D02*
X12295000Y-16256000D01*
X12295000Y-16256000D02*
X12275952Y-16265524D01*
X12275952Y-16265524D02*
X12256905Y-16265524D01*
X12256905Y-16265524D02*
X12237857Y-16256000D01*
X12237857Y-16256000D02*
X12228333Y-16246476D01*
X12228333Y-16246476D02*
X12218809Y-16227428D01*
X12218809Y-16227428D02*
X12209286Y-16189333D01*
X12209286Y-16189333D02*
X12209286Y-16141714D01*
X12209286Y-16141714D02*
X12218809Y-16103619D01*
X12218809Y-16103619D02*
X12228333Y-16084571D01*
X12228333Y-16084571D02*
X12237857Y-16075048D01*
X12237857Y-16075048D02*
X12256905Y-16065524D01*
X12447381Y-16065524D02*
X12466429Y-16065524D01*
X12466429Y-16065524D02*
X12485476Y-16075048D01*
X12485476Y-16075048D02*
X12495000Y-16084571D01*
X12495000Y-16084571D02*
X12504524Y-16103619D01*
X12504524Y-16103619D02*
X12514048Y-16141714D01*
X12514048Y-16141714D02*
X12514048Y-16189333D01*
X12514048Y-16189333D02*
X12504524Y-16227428D01*
X12504524Y-16227428D02*
X12495000Y-16246476D01*
X12495000Y-16246476D02*
X12485476Y-16256000D01*
X12485476Y-16256000D02*
X12466429Y-16265524D01*
X12466429Y-16265524D02*
X12447381Y-16265524D01*
X12447381Y-16265524D02*
X12428333Y-16256000D01*
X12428333Y-16256000D02*
X12418809Y-16246476D01*
X12418809Y-16246476D02*
X12409286Y-16227428D01*
X12409286Y-16227428D02*
X12399762Y-16189333D01*
X12399762Y-16189333D02*
X12399762Y-16141714D01*
X12399762Y-16141714D02*
X12409286Y-16103619D01*
X12409286Y-16103619D02*
X12418809Y-16084571D01*
X12418809Y-16084571D02*
X12428333Y-16075048D01*
X12428333Y-16075048D02*
X12447381Y-16065524D01*
X12599762Y-16265524D02*
X12599762Y-16132190D01*
X12599762Y-16151238D02*
X12609286Y-16141714D01*
X12609286Y-16141714D02*
X12628333Y-16132190D01*
X12628333Y-16132190D02*
X12656905Y-16132190D01*
X12656905Y-16132190D02*
X12675952Y-16141714D01*
X12675952Y-16141714D02*
X12685476Y-16160762D01*
X12685476Y-16160762D02*
X12685476Y-16265524D01*
X12685476Y-16160762D02*
X12695000Y-16141714D01*
X12695000Y-16141714D02*
X12714048Y-16132190D01*
X12714048Y-16132190D02*
X12742619Y-16132190D01*
X12742619Y-16132190D02*
X12761667Y-16141714D01*
X12761667Y-16141714D02*
X12771190Y-16160762D01*
X12771190Y-16160762D02*
X12771190Y-16265524D01*
X12866429Y-16265524D02*
X12866429Y-16132190D01*
X12866429Y-16151238D02*
X12875952Y-16141714D01*
X12875952Y-16141714D02*
X12895000Y-16132190D01*
X12895000Y-16132190D02*
X12923571Y-16132190D01*
X12923571Y-16132190D02*
X12942619Y-16141714D01*
X12942619Y-16141714D02*
X12952143Y-16160762D01*
X12952143Y-16160762D02*
X12952143Y-16265524D01*
X12952143Y-16160762D02*
X12961667Y-16141714D01*
X12961667Y-16141714D02*
X12980714Y-16132190D01*
X12980714Y-16132190D02*
X13009286Y-16132190D01*
X13009286Y-16132190D02*
X13028333Y-16141714D01*
X13028333Y-16141714D02*
X13037857Y-16160762D01*
X13037857Y-16160762D02*
X13037857Y-16265524D01*
X13428333Y-16056000D02*
X13256905Y-16313143D01*
X13685476Y-16065524D02*
X13704524Y-16065524D01*
X13704524Y-16065524D02*
X13723572Y-16075048D01*
X13723572Y-16075048D02*
X13733095Y-16084571D01*
X13733095Y-16084571D02*
X13742619Y-16103619D01*
X13742619Y-16103619D02*
X13752143Y-16141714D01*
X13752143Y-16141714D02*
X13752143Y-16189333D01*
X13752143Y-16189333D02*
X13742619Y-16227428D01*
X13742619Y-16227428D02*
X13733095Y-16246476D01*
X13733095Y-16246476D02*
X13723572Y-16256000D01*
X13723572Y-16256000D02*
X13704524Y-16265524D01*
X13704524Y-16265524D02*
X13685476Y-16265524D01*
X13685476Y-16265524D02*
X13666429Y-16256000D01*
X13666429Y-16256000D02*
X13656905Y-16246476D01*
X13656905Y-16246476D02*
X13647381Y-16227428D01*
X13647381Y-16227428D02*
X13637857Y-16189333D01*
X13637857Y-16189333D02*
X13637857Y-16141714D01*
X13637857Y-16141714D02*
X13647381Y-16103619D01*
X13647381Y-16103619D02*
X13656905Y-16084571D01*
X13656905Y-16084571D02*
X13666429Y-16075048D01*
X13666429Y-16075048D02*
X13685476Y-16065524D01*
X13837857Y-16246476D02*
X13847381Y-16256000D01*
X13847381Y-16256000D02*
X13837857Y-16265524D01*
X13837857Y-16265524D02*
X13828333Y-16256000D01*
X13828333Y-16256000D02*
X13837857Y-16246476D01*
X13837857Y-16246476D02*
X13837857Y-16265524D01*
X13971191Y-16065524D02*
X13990238Y-16065524D01*
X13990238Y-16065524D02*
X14009286Y-16075048D01*
X14009286Y-16075048D02*
X14018810Y-16084571D01*
X14018810Y-16084571D02*
X14028333Y-16103619D01*
X14028333Y-16103619D02*
X14037857Y-16141714D01*
X14037857Y-16141714D02*
X14037857Y-16189333D01*
X14037857Y-16189333D02*
X14028333Y-16227428D01*
X14028333Y-16227428D02*
X14018810Y-16246476D01*
X14018810Y-16246476D02*
X14009286Y-16256000D01*
X14009286Y-16256000D02*
X13990238Y-16265524D01*
X13990238Y-16265524D02*
X13971191Y-16265524D01*
X13971191Y-16265524D02*
X13952143Y-16256000D01*
X13952143Y-16256000D02*
X13942619Y-16246476D01*
X13942619Y-16246476D02*
X13933095Y-16227428D01*
X13933095Y-16227428D02*
X13923572Y-16189333D01*
X13923572Y-16189333D02*
X13923572Y-16141714D01*
X13923572Y-16141714D02*
X13933095Y-16103619D01*
X13933095Y-16103619D02*
X13942619Y-16084571D01*
X13942619Y-16084571D02*
X13952143Y-16075048D01*
X13952143Y-16075048D02*
X13971191Y-16065524D01*
X14104524Y-16065524D02*
X14228333Y-16065524D01*
X14228333Y-16065524D02*
X14161667Y-16141714D01*
X14161667Y-16141714D02*
X14190238Y-16141714D01*
X14190238Y-16141714D02*
X14209286Y-16151238D01*
X14209286Y-16151238D02*
X14218810Y-16160762D01*
X14218810Y-16160762D02*
X14228333Y-16179809D01*
X14228333Y-16179809D02*
X14228333Y-16227428D01*
X14228333Y-16227428D02*
X14218810Y-16246476D01*
X14218810Y-16246476D02*
X14209286Y-16256000D01*
X14209286Y-16256000D02*
X14190238Y-16265524D01*
X14190238Y-16265524D02*
X14133095Y-16265524D01*
X14133095Y-16265524D02*
X14114048Y-16256000D01*
X14114048Y-16256000D02*
X14104524Y-16246476D01*
X14418810Y-16265524D02*
X14304524Y-16265524D01*
X14361667Y-16265524D02*
X14361667Y-16065524D01*
X14361667Y-16065524D02*
X14342619Y-16094095D01*
X14342619Y-16094095D02*
X14323572Y-16113143D01*
X14323572Y-16113143D02*
X14304524Y-16122667D01*
X14599762Y-16065524D02*
X14504524Y-16065524D01*
X14504524Y-16065524D02*
X14495000Y-16160762D01*
X14495000Y-16160762D02*
X14504524Y-16151238D01*
X14504524Y-16151238D02*
X14523572Y-16141714D01*
X14523572Y-16141714D02*
X14571191Y-16141714D01*
X14571191Y-16141714D02*
X14590238Y-16151238D01*
X14590238Y-16151238D02*
X14599762Y-16160762D01*
X14599762Y-16160762D02*
X14609286Y-16179809D01*
X14609286Y-16179809D02*
X14609286Y-16227428D01*
X14609286Y-16227428D02*
X14599762Y-16246476D01*
X14599762Y-16246476D02*
X14590238Y-16256000D01*
X14590238Y-16256000D02*
X14571191Y-16265524D01*
X14571191Y-16265524D02*
X14523572Y-16265524D01*
X14523572Y-16265524D02*
X14504524Y-16256000D01*
X14504524Y-16256000D02*
X14495000Y-16246476D01*
X14685476Y-16065524D02*
X14685476Y-16103619D01*
X14761667Y-16065524D02*
X14761667Y-16103619D01*
X15056905Y-16341714D02*
X15047381Y-16332190D01*
X15047381Y-16332190D02*
X15028334Y-16303619D01*
X15028334Y-16303619D02*
X15018810Y-16284571D01*
X15018810Y-16284571D02*
X15009286Y-16256000D01*
X15009286Y-16256000D02*
X14999762Y-16208381D01*
X14999762Y-16208381D02*
X14999762Y-16170286D01*
X14999762Y-16170286D02*
X15009286Y-16122667D01*
X15009286Y-16122667D02*
X15018810Y-16094095D01*
X15018810Y-16094095D02*
X15028334Y-16075048D01*
X15028334Y-16075048D02*
X15047381Y-16046476D01*
X15047381Y-16046476D02*
X15056905Y-16036952D01*
X15218810Y-16132190D02*
X15218810Y-16265524D01*
X15171191Y-16056000D02*
X15123572Y-16198857D01*
X15123572Y-16198857D02*
X15247381Y-16198857D01*
X15475953Y-16265524D02*
X15475953Y-16065524D01*
X15561667Y-16265524D02*
X15561667Y-16160762D01*
X15561667Y-16160762D02*
X15552143Y-16141714D01*
X15552143Y-16141714D02*
X15533096Y-16132190D01*
X15533096Y-16132190D02*
X15504524Y-16132190D01*
X15504524Y-16132190D02*
X15485476Y-16141714D01*
X15485476Y-16141714D02*
X15475953Y-16151238D01*
X15685476Y-16265524D02*
X15666429Y-16256000D01*
X15666429Y-16256000D02*
X15656905Y-16246476D01*
X15656905Y-16246476D02*
X15647381Y-16227428D01*
X15647381Y-16227428D02*
X15647381Y-16170286D01*
X15647381Y-16170286D02*
X15656905Y-16151238D01*
X15656905Y-16151238D02*
X15666429Y-16141714D01*
X15666429Y-16141714D02*
X15685476Y-16132190D01*
X15685476Y-16132190D02*
X15714048Y-16132190D01*
X15714048Y-16132190D02*
X15733096Y-16141714D01*
X15733096Y-16141714D02*
X15742619Y-16151238D01*
X15742619Y-16151238D02*
X15752143Y-16170286D01*
X15752143Y-16170286D02*
X15752143Y-16227428D01*
X15752143Y-16227428D02*
X15742619Y-16246476D01*
X15742619Y-16246476D02*
X15733096Y-16256000D01*
X15733096Y-16256000D02*
X15714048Y-16265524D01*
X15714048Y-16265524D02*
X15685476Y-16265524D01*
X15866429Y-16265524D02*
X15847381Y-16256000D01*
X15847381Y-16256000D02*
X15837857Y-16236952D01*
X15837857Y-16236952D02*
X15837857Y-16065524D01*
X16018810Y-16256000D02*
X15999762Y-16265524D01*
X15999762Y-16265524D02*
X15961667Y-16265524D01*
X15961667Y-16265524D02*
X15942619Y-16256000D01*
X15942619Y-16256000D02*
X15933096Y-16236952D01*
X15933096Y-16236952D02*
X15933096Y-16160762D01*
X15933096Y-16160762D02*
X15942619Y-16141714D01*
X15942619Y-16141714D02*
X15961667Y-16132190D01*
X15961667Y-16132190D02*
X15999762Y-16132190D01*
X15999762Y-16132190D02*
X16018810Y-16141714D01*
X16018810Y-16141714D02*
X16028334Y-16160762D01*
X16028334Y-16160762D02*
X16028334Y-16179809D01*
X16028334Y-16179809D02*
X15933096Y-16198857D01*
X16104524Y-16256000D02*
X16123572Y-16265524D01*
X16123572Y-16265524D02*
X16161667Y-16265524D01*
X16161667Y-16265524D02*
X16180715Y-16256000D01*
X16180715Y-16256000D02*
X16190238Y-16236952D01*
X16190238Y-16236952D02*
X16190238Y-16227428D01*
X16190238Y-16227428D02*
X16180715Y-16208381D01*
X16180715Y-16208381D02*
X16161667Y-16198857D01*
X16161667Y-16198857D02*
X16133096Y-16198857D01*
X16133096Y-16198857D02*
X16114048Y-16189333D01*
X16114048Y-16189333D02*
X16104524Y-16170286D01*
X16104524Y-16170286D02*
X16104524Y-16160762D01*
X16104524Y-16160762D02*
X16114048Y-16141714D01*
X16114048Y-16141714D02*
X16133096Y-16132190D01*
X16133096Y-16132190D02*
X16161667Y-16132190D01*
X16161667Y-16132190D02*
X16180715Y-16141714D01*
X16256905Y-16341714D02*
X16266429Y-16332190D01*
X16266429Y-16332190D02*
X16285477Y-16303619D01*
X16285477Y-16303619D02*
X16295000Y-16284571D01*
X16295000Y-16284571D02*
X16304524Y-16256000D01*
X16304524Y-16256000D02*
X16314048Y-16208381D01*
X16314048Y-16208381D02*
X16314048Y-16170286D01*
X16314048Y-16170286D02*
X16304524Y-16122667D01*
X16304524Y-16122667D02*
X16295000Y-16094095D01*
X16295000Y-16094095D02*
X16285477Y-16075048D01*
X16285477Y-16075048D02*
X16266429Y-16046476D01*
X16266429Y-16046476D02*
X16256905Y-16036952D01*
D15*
X11481820Y-16468820D02*
X11481820Y-16405180D01*
X11418180Y-16405180D01*
X11418180Y-16468820D01*
X11481820Y-16468820D01*
D11*
X11780714Y-16329524D02*
X11799762Y-16329524D01*
X11799762Y-16329524D02*
X11818809Y-16339048D01*
X11818809Y-16339048D02*
X11828333Y-16348571D01*
X11828333Y-16348571D02*
X11837857Y-16367619D01*
X11837857Y-16367619D02*
X11847381Y-16405714D01*
X11847381Y-16405714D02*
X11847381Y-16453333D01*
X11847381Y-16453333D02*
X11837857Y-16491428D01*
X11837857Y-16491428D02*
X11828333Y-16510476D01*
X11828333Y-16510476D02*
X11818809Y-16520000D01*
X11818809Y-16520000D02*
X11799762Y-16529524D01*
X11799762Y-16529524D02*
X11780714Y-16529524D01*
X11780714Y-16529524D02*
X11761667Y-16520000D01*
X11761667Y-16520000D02*
X11752143Y-16510476D01*
X11752143Y-16510476D02*
X11742619Y-16491428D01*
X11742619Y-16491428D02*
X11733095Y-16453333D01*
X11733095Y-16453333D02*
X11733095Y-16405714D01*
X11733095Y-16405714D02*
X11742619Y-16367619D01*
X11742619Y-16367619D02*
X11752143Y-16348571D01*
X11752143Y-16348571D02*
X11761667Y-16339048D01*
X11761667Y-16339048D02*
X11780714Y-16329524D01*
X11933095Y-16510476D02*
X11942619Y-16520000D01*
X11942619Y-16520000D02*
X11933095Y-16529524D01*
X11933095Y-16529524D02*
X11923571Y-16520000D01*
X11923571Y-16520000D02*
X11933095Y-16510476D01*
X11933095Y-16510476D02*
X11933095Y-16529524D01*
X12037857Y-16529524D02*
X12075952Y-16529524D01*
X12075952Y-16529524D02*
X12095000Y-16520000D01*
X12095000Y-16520000D02*
X12104524Y-16510476D01*
X12104524Y-16510476D02*
X12123571Y-16481905D01*
X12123571Y-16481905D02*
X12133095Y-16443809D01*
X12133095Y-16443809D02*
X12133095Y-16367619D01*
X12133095Y-16367619D02*
X12123571Y-16348571D01*
X12123571Y-16348571D02*
X12114048Y-16339048D01*
X12114048Y-16339048D02*
X12095000Y-16329524D01*
X12095000Y-16329524D02*
X12056905Y-16329524D01*
X12056905Y-16329524D02*
X12037857Y-16339048D01*
X12037857Y-16339048D02*
X12028333Y-16348571D01*
X12028333Y-16348571D02*
X12018809Y-16367619D01*
X12018809Y-16367619D02*
X12018809Y-16415238D01*
X12018809Y-16415238D02*
X12028333Y-16434286D01*
X12028333Y-16434286D02*
X12037857Y-16443809D01*
X12037857Y-16443809D02*
X12056905Y-16453333D01*
X12056905Y-16453333D02*
X12095000Y-16453333D01*
X12095000Y-16453333D02*
X12114048Y-16443809D01*
X12114048Y-16443809D02*
X12123571Y-16434286D01*
X12123571Y-16434286D02*
X12133095Y-16415238D01*
X12256905Y-16329524D02*
X12275952Y-16329524D01*
X12275952Y-16329524D02*
X12295000Y-16339048D01*
X12295000Y-16339048D02*
X12304524Y-16348571D01*
X12304524Y-16348571D02*
X12314048Y-16367619D01*
X12314048Y-16367619D02*
X12323571Y-16405714D01*
X12323571Y-16405714D02*
X12323571Y-16453333D01*
X12323571Y-16453333D02*
X12314048Y-16491428D01*
X12314048Y-16491428D02*
X12304524Y-16510476D01*
X12304524Y-16510476D02*
X12295000Y-16520000D01*
X12295000Y-16520000D02*
X12275952Y-16529524D01*
X12275952Y-16529524D02*
X12256905Y-16529524D01*
X12256905Y-16529524D02*
X12237857Y-16520000D01*
X12237857Y-16520000D02*
X12228333Y-16510476D01*
X12228333Y-16510476D02*
X12218809Y-16491428D01*
X12218809Y-16491428D02*
X12209286Y-16453333D01*
X12209286Y-16453333D02*
X12209286Y-16405714D01*
X12209286Y-16405714D02*
X12218809Y-16367619D01*
X12218809Y-16367619D02*
X12228333Y-16348571D01*
X12228333Y-16348571D02*
X12237857Y-16339048D01*
X12237857Y-16339048D02*
X12256905Y-16329524D01*
X12447381Y-16329524D02*
X12466429Y-16329524D01*
X12466429Y-16329524D02*
X12485476Y-16339048D01*
X12485476Y-16339048D02*
X12495000Y-16348571D01*
X12495000Y-16348571D02*
X12504524Y-16367619D01*
X12504524Y-16367619D02*
X12514048Y-16405714D01*
X12514048Y-16405714D02*
X12514048Y-16453333D01*
X12514048Y-16453333D02*
X12504524Y-16491428D01*
X12504524Y-16491428D02*
X12495000Y-16510476D01*
X12495000Y-16510476D02*
X12485476Y-16520000D01*
X12485476Y-16520000D02*
X12466429Y-16529524D01*
X12466429Y-16529524D02*
X12447381Y-16529524D01*
X12447381Y-16529524D02*
X12428333Y-16520000D01*
X12428333Y-16520000D02*
X12418809Y-16510476D01*
X12418809Y-16510476D02*
X12409286Y-16491428D01*
X12409286Y-16491428D02*
X12399762Y-16453333D01*
X12399762Y-16453333D02*
X12399762Y-16405714D01*
X12399762Y-16405714D02*
X12409286Y-16367619D01*
X12409286Y-16367619D02*
X12418809Y-16348571D01*
X12418809Y-16348571D02*
X12428333Y-16339048D01*
X12428333Y-16339048D02*
X12447381Y-16329524D01*
X12599762Y-16529524D02*
X12599762Y-16396190D01*
X12599762Y-16415238D02*
X12609286Y-16405714D01*
X12609286Y-16405714D02*
X12628333Y-16396190D01*
X12628333Y-16396190D02*
X12656905Y-16396190D01*
X12656905Y-16396190D02*
X12675952Y-16405714D01*
X12675952Y-16405714D02*
X12685476Y-16424762D01*
X12685476Y-16424762D02*
X12685476Y-16529524D01*
X12685476Y-16424762D02*
X12695000Y-16405714D01*
X12695000Y-16405714D02*
X12714048Y-16396190D01*
X12714048Y-16396190D02*
X12742619Y-16396190D01*
X12742619Y-16396190D02*
X12761667Y-16405714D01*
X12761667Y-16405714D02*
X12771190Y-16424762D01*
X12771190Y-16424762D02*
X12771190Y-16529524D01*
X12866429Y-16529524D02*
X12866429Y-16396190D01*
X12866429Y-16415238D02*
X12875952Y-16405714D01*
X12875952Y-16405714D02*
X12895000Y-16396190D01*
X12895000Y-16396190D02*
X12923571Y-16396190D01*
X12923571Y-16396190D02*
X12942619Y-16405714D01*
X12942619Y-16405714D02*
X12952143Y-16424762D01*
X12952143Y-16424762D02*
X12952143Y-16529524D01*
X12952143Y-16424762D02*
X12961667Y-16405714D01*
X12961667Y-16405714D02*
X12980714Y-16396190D01*
X12980714Y-16396190D02*
X13009286Y-16396190D01*
X13009286Y-16396190D02*
X13028333Y-16405714D01*
X13028333Y-16405714D02*
X13037857Y-16424762D01*
X13037857Y-16424762D02*
X13037857Y-16529524D01*
X13428333Y-16320000D02*
X13256905Y-16577143D01*
X13685476Y-16329524D02*
X13704524Y-16329524D01*
X13704524Y-16329524D02*
X13723572Y-16339048D01*
X13723572Y-16339048D02*
X13733095Y-16348571D01*
X13733095Y-16348571D02*
X13742619Y-16367619D01*
X13742619Y-16367619D02*
X13752143Y-16405714D01*
X13752143Y-16405714D02*
X13752143Y-16453333D01*
X13752143Y-16453333D02*
X13742619Y-16491428D01*
X13742619Y-16491428D02*
X13733095Y-16510476D01*
X13733095Y-16510476D02*
X13723572Y-16520000D01*
X13723572Y-16520000D02*
X13704524Y-16529524D01*
X13704524Y-16529524D02*
X13685476Y-16529524D01*
X13685476Y-16529524D02*
X13666429Y-16520000D01*
X13666429Y-16520000D02*
X13656905Y-16510476D01*
X13656905Y-16510476D02*
X13647381Y-16491428D01*
X13647381Y-16491428D02*
X13637857Y-16453333D01*
X13637857Y-16453333D02*
X13637857Y-16405714D01*
X13637857Y-16405714D02*
X13647381Y-16367619D01*
X13647381Y-16367619D02*
X13656905Y-16348571D01*
X13656905Y-16348571D02*
X13666429Y-16339048D01*
X13666429Y-16339048D02*
X13685476Y-16329524D01*
X13837857Y-16510476D02*
X13847381Y-16520000D01*
X13847381Y-16520000D02*
X13837857Y-16529524D01*
X13837857Y-16529524D02*
X13828333Y-16520000D01*
X13828333Y-16520000D02*
X13837857Y-16510476D01*
X13837857Y-16510476D02*
X13837857Y-16529524D01*
X13971191Y-16329524D02*
X13990238Y-16329524D01*
X13990238Y-16329524D02*
X14009286Y-16339048D01*
X14009286Y-16339048D02*
X14018810Y-16348571D01*
X14018810Y-16348571D02*
X14028333Y-16367619D01*
X14028333Y-16367619D02*
X14037857Y-16405714D01*
X14037857Y-16405714D02*
X14037857Y-16453333D01*
X14037857Y-16453333D02*
X14028333Y-16491428D01*
X14028333Y-16491428D02*
X14018810Y-16510476D01*
X14018810Y-16510476D02*
X14009286Y-16520000D01*
X14009286Y-16520000D02*
X13990238Y-16529524D01*
X13990238Y-16529524D02*
X13971191Y-16529524D01*
X13971191Y-16529524D02*
X13952143Y-16520000D01*
X13952143Y-16520000D02*
X13942619Y-16510476D01*
X13942619Y-16510476D02*
X13933095Y-16491428D01*
X13933095Y-16491428D02*
X13923572Y-16453333D01*
X13923572Y-16453333D02*
X13923572Y-16405714D01*
X13923572Y-16405714D02*
X13933095Y-16367619D01*
X13933095Y-16367619D02*
X13942619Y-16348571D01*
X13942619Y-16348571D02*
X13952143Y-16339048D01*
X13952143Y-16339048D02*
X13971191Y-16329524D01*
X14104524Y-16329524D02*
X14228333Y-16329524D01*
X14228333Y-16329524D02*
X14161667Y-16405714D01*
X14161667Y-16405714D02*
X14190238Y-16405714D01*
X14190238Y-16405714D02*
X14209286Y-16415238D01*
X14209286Y-16415238D02*
X14218810Y-16424762D01*
X14218810Y-16424762D02*
X14228333Y-16443809D01*
X14228333Y-16443809D02*
X14228333Y-16491428D01*
X14228333Y-16491428D02*
X14218810Y-16510476D01*
X14218810Y-16510476D02*
X14209286Y-16520000D01*
X14209286Y-16520000D02*
X14190238Y-16529524D01*
X14190238Y-16529524D02*
X14133095Y-16529524D01*
X14133095Y-16529524D02*
X14114048Y-16520000D01*
X14114048Y-16520000D02*
X14104524Y-16510476D01*
X14409286Y-16329524D02*
X14314048Y-16329524D01*
X14314048Y-16329524D02*
X14304524Y-16424762D01*
X14304524Y-16424762D02*
X14314048Y-16415238D01*
X14314048Y-16415238D02*
X14333095Y-16405714D01*
X14333095Y-16405714D02*
X14380714Y-16405714D01*
X14380714Y-16405714D02*
X14399762Y-16415238D01*
X14399762Y-16415238D02*
X14409286Y-16424762D01*
X14409286Y-16424762D02*
X14418810Y-16443809D01*
X14418810Y-16443809D02*
X14418810Y-16491428D01*
X14418810Y-16491428D02*
X14409286Y-16510476D01*
X14409286Y-16510476D02*
X14399762Y-16520000D01*
X14399762Y-16520000D02*
X14380714Y-16529524D01*
X14380714Y-16529524D02*
X14333095Y-16529524D01*
X14333095Y-16529524D02*
X14314048Y-16520000D01*
X14314048Y-16520000D02*
X14304524Y-16510476D01*
X14590238Y-16396190D02*
X14590238Y-16529524D01*
X14542619Y-16320000D02*
X14495000Y-16462857D01*
X14495000Y-16462857D02*
X14618810Y-16462857D01*
X14685476Y-16329524D02*
X14685476Y-16367619D01*
X14761667Y-16329524D02*
X14761667Y-16367619D01*
X15056905Y-16605714D02*
X15047381Y-16596190D01*
X15047381Y-16596190D02*
X15028334Y-16567619D01*
X15028334Y-16567619D02*
X15018810Y-16548571D01*
X15018810Y-16548571D02*
X15009286Y-16520000D01*
X15009286Y-16520000D02*
X14999762Y-16472381D01*
X14999762Y-16472381D02*
X14999762Y-16434286D01*
X14999762Y-16434286D02*
X15009286Y-16386667D01*
X15009286Y-16386667D02*
X15018810Y-16358095D01*
X15018810Y-16358095D02*
X15028334Y-16339048D01*
X15028334Y-16339048D02*
X15047381Y-16310476D01*
X15047381Y-16310476D02*
X15056905Y-16300952D01*
X15161667Y-16415238D02*
X15142619Y-16405714D01*
X15142619Y-16405714D02*
X15133095Y-16396190D01*
X15133095Y-16396190D02*
X15123572Y-16377143D01*
X15123572Y-16377143D02*
X15123572Y-16367619D01*
X15123572Y-16367619D02*
X15133095Y-16348571D01*
X15133095Y-16348571D02*
X15142619Y-16339048D01*
X15142619Y-16339048D02*
X15161667Y-16329524D01*
X15161667Y-16329524D02*
X15199762Y-16329524D01*
X15199762Y-16329524D02*
X15218810Y-16339048D01*
X15218810Y-16339048D02*
X15228334Y-16348571D01*
X15228334Y-16348571D02*
X15237857Y-16367619D01*
X15237857Y-16367619D02*
X15237857Y-16377143D01*
X15237857Y-16377143D02*
X15228334Y-16396190D01*
X15228334Y-16396190D02*
X15218810Y-16405714D01*
X15218810Y-16405714D02*
X15199762Y-16415238D01*
X15199762Y-16415238D02*
X15161667Y-16415238D01*
X15161667Y-16415238D02*
X15142619Y-16424762D01*
X15142619Y-16424762D02*
X15133095Y-16434286D01*
X15133095Y-16434286D02*
X15123572Y-16453333D01*
X15123572Y-16453333D02*
X15123572Y-16491428D01*
X15123572Y-16491428D02*
X15133095Y-16510476D01*
X15133095Y-16510476D02*
X15142619Y-16520000D01*
X15142619Y-16520000D02*
X15161667Y-16529524D01*
X15161667Y-16529524D02*
X15199762Y-16529524D01*
X15199762Y-16529524D02*
X15218810Y-16520000D01*
X15218810Y-16520000D02*
X15228334Y-16510476D01*
X15228334Y-16510476D02*
X15237857Y-16491428D01*
X15237857Y-16491428D02*
X15237857Y-16453333D01*
X15237857Y-16453333D02*
X15228334Y-16434286D01*
X15228334Y-16434286D02*
X15218810Y-16424762D01*
X15218810Y-16424762D02*
X15199762Y-16415238D01*
X15475953Y-16529524D02*
X15475953Y-16329524D01*
X15561667Y-16529524D02*
X15561667Y-16424762D01*
X15561667Y-16424762D02*
X15552143Y-16405714D01*
X15552143Y-16405714D02*
X15533096Y-16396190D01*
X15533096Y-16396190D02*
X15504524Y-16396190D01*
X15504524Y-16396190D02*
X15485476Y-16405714D01*
X15485476Y-16405714D02*
X15475953Y-16415238D01*
X15685476Y-16529524D02*
X15666429Y-16520000D01*
X15666429Y-16520000D02*
X15656905Y-16510476D01*
X15656905Y-16510476D02*
X15647381Y-16491428D01*
X15647381Y-16491428D02*
X15647381Y-16434286D01*
X15647381Y-16434286D02*
X15656905Y-16415238D01*
X15656905Y-16415238D02*
X15666429Y-16405714D01*
X15666429Y-16405714D02*
X15685476Y-16396190D01*
X15685476Y-16396190D02*
X15714048Y-16396190D01*
X15714048Y-16396190D02*
X15733096Y-16405714D01*
X15733096Y-16405714D02*
X15742619Y-16415238D01*
X15742619Y-16415238D02*
X15752143Y-16434286D01*
X15752143Y-16434286D02*
X15752143Y-16491428D01*
X15752143Y-16491428D02*
X15742619Y-16510476D01*
X15742619Y-16510476D02*
X15733096Y-16520000D01*
X15733096Y-16520000D02*
X15714048Y-16529524D01*
X15714048Y-16529524D02*
X15685476Y-16529524D01*
X15866429Y-16529524D02*
X15847381Y-16520000D01*
X15847381Y-16520000D02*
X15837857Y-16500952D01*
X15837857Y-16500952D02*
X15837857Y-16329524D01*
X16018810Y-16520000D02*
X15999762Y-16529524D01*
X15999762Y-16529524D02*
X15961667Y-16529524D01*
X15961667Y-16529524D02*
X15942619Y-16520000D01*
X15942619Y-16520000D02*
X15933096Y-16500952D01*
X15933096Y-16500952D02*
X15933096Y-16424762D01*
X15933096Y-16424762D02*
X15942619Y-16405714D01*
X15942619Y-16405714D02*
X15961667Y-16396190D01*
X15961667Y-16396190D02*
X15999762Y-16396190D01*
X15999762Y-16396190D02*
X16018810Y-16405714D01*
X16018810Y-16405714D02*
X16028334Y-16424762D01*
X16028334Y-16424762D02*
X16028334Y-16443809D01*
X16028334Y-16443809D02*
X15933096Y-16462857D01*
X16104524Y-16520000D02*
X16123572Y-16529524D01*
X16123572Y-16529524D02*
X16161667Y-16529524D01*
X16161667Y-16529524D02*
X16180715Y-16520000D01*
X16180715Y-16520000D02*
X16190238Y-16500952D01*
X16190238Y-16500952D02*
X16190238Y-16491428D01*
X16190238Y-16491428D02*
X16180715Y-16472381D01*
X16180715Y-16472381D02*
X16161667Y-16462857D01*
X16161667Y-16462857D02*
X16133096Y-16462857D01*
X16133096Y-16462857D02*
X16114048Y-16453333D01*
X16114048Y-16453333D02*
X16104524Y-16434286D01*
X16104524Y-16434286D02*
X16104524Y-16424762D01*
X16104524Y-16424762D02*
X16114048Y-16405714D01*
X16114048Y-16405714D02*
X16133096Y-16396190D01*
X16133096Y-16396190D02*
X16161667Y-16396190D01*
X16161667Y-16396190D02*
X16180715Y-16405714D01*
X16256905Y-16605714D02*
X16266429Y-16596190D01*
X16266429Y-16596190D02*
X16285477Y-16567619D01*
X16285477Y-16567619D02*
X16295000Y-16548571D01*
X16295000Y-16548571D02*
X16304524Y-16520000D01*
X16304524Y-16520000D02*
X16314048Y-16472381D01*
X16314048Y-16472381D02*
X16314048Y-16434286D01*
X16314048Y-16434286D02*
X16304524Y-16386667D01*
X16304524Y-16386667D02*
X16295000Y-16358095D01*
X16295000Y-16358095D02*
X16285477Y-16339048D01*
X16285477Y-16339048D02*
X16266429Y-16310476D01*
X16266429Y-16310476D02*
X16256905Y-16300952D01*
D16*
X11432770Y-16763230D02*
X11495000Y-16701000D01*
X11432770Y-16638770D01*
X11370540Y-16701000D01*
X11432770Y-16763230D01*
D11*
X11847381Y-16793524D02*
X11733095Y-16793524D01*
X11790238Y-16793524D02*
X11790238Y-16593524D01*
X11790238Y-16593524D02*
X11771190Y-16622095D01*
X11771190Y-16622095D02*
X11752143Y-16641143D01*
X11752143Y-16641143D02*
X11733095Y-16650667D01*
X11933095Y-16774476D02*
X11942619Y-16784000D01*
X11942619Y-16784000D02*
X11933095Y-16793524D01*
X11933095Y-16793524D02*
X11923571Y-16784000D01*
X11923571Y-16784000D02*
X11933095Y-16774476D01*
X11933095Y-16774476D02*
X11933095Y-16793524D01*
X12018809Y-16612571D02*
X12028333Y-16603048D01*
X12028333Y-16603048D02*
X12047381Y-16593524D01*
X12047381Y-16593524D02*
X12095000Y-16593524D01*
X12095000Y-16593524D02*
X12114048Y-16603048D01*
X12114048Y-16603048D02*
X12123571Y-16612571D01*
X12123571Y-16612571D02*
X12133095Y-16631619D01*
X12133095Y-16631619D02*
X12133095Y-16650667D01*
X12133095Y-16650667D02*
X12123571Y-16679238D01*
X12123571Y-16679238D02*
X12009286Y-16793524D01*
X12009286Y-16793524D02*
X12133095Y-16793524D01*
X12304524Y-16660190D02*
X12304524Y-16793524D01*
X12256905Y-16584000D02*
X12209286Y-16726857D01*
X12209286Y-16726857D02*
X12333095Y-16726857D01*
X12504524Y-16593524D02*
X12409286Y-16593524D01*
X12409286Y-16593524D02*
X12399762Y-16688762D01*
X12399762Y-16688762D02*
X12409286Y-16679238D01*
X12409286Y-16679238D02*
X12428333Y-16669714D01*
X12428333Y-16669714D02*
X12475952Y-16669714D01*
X12475952Y-16669714D02*
X12495000Y-16679238D01*
X12495000Y-16679238D02*
X12504524Y-16688762D01*
X12504524Y-16688762D02*
X12514048Y-16707809D01*
X12514048Y-16707809D02*
X12514048Y-16755428D01*
X12514048Y-16755428D02*
X12504524Y-16774476D01*
X12504524Y-16774476D02*
X12495000Y-16784000D01*
X12495000Y-16784000D02*
X12475952Y-16793524D01*
X12475952Y-16793524D02*
X12428333Y-16793524D01*
X12428333Y-16793524D02*
X12409286Y-16784000D01*
X12409286Y-16784000D02*
X12399762Y-16774476D01*
X12599762Y-16793524D02*
X12599762Y-16660190D01*
X12599762Y-16679238D02*
X12609286Y-16669714D01*
X12609286Y-16669714D02*
X12628333Y-16660190D01*
X12628333Y-16660190D02*
X12656905Y-16660190D01*
X12656905Y-16660190D02*
X12675952Y-16669714D01*
X12675952Y-16669714D02*
X12685476Y-16688762D01*
X12685476Y-16688762D02*
X12685476Y-16793524D01*
X12685476Y-16688762D02*
X12695000Y-16669714D01*
X12695000Y-16669714D02*
X12714048Y-16660190D01*
X12714048Y-16660190D02*
X12742619Y-16660190D01*
X12742619Y-16660190D02*
X12761667Y-16669714D01*
X12761667Y-16669714D02*
X12771190Y-16688762D01*
X12771190Y-16688762D02*
X12771190Y-16793524D01*
X12866429Y-16793524D02*
X12866429Y-16660190D01*
X12866429Y-16679238D02*
X12875952Y-16669714D01*
X12875952Y-16669714D02*
X12895000Y-16660190D01*
X12895000Y-16660190D02*
X12923571Y-16660190D01*
X12923571Y-16660190D02*
X12942619Y-16669714D01*
X12942619Y-16669714D02*
X12952143Y-16688762D01*
X12952143Y-16688762D02*
X12952143Y-16793524D01*
X12952143Y-16688762D02*
X12961667Y-16669714D01*
X12961667Y-16669714D02*
X12980714Y-16660190D01*
X12980714Y-16660190D02*
X13009286Y-16660190D01*
X13009286Y-16660190D02*
X13028333Y-16669714D01*
X13028333Y-16669714D02*
X13037857Y-16688762D01*
X13037857Y-16688762D02*
X13037857Y-16793524D01*
X13428333Y-16584000D02*
X13256905Y-16841143D01*
X13685476Y-16593524D02*
X13704524Y-16593524D01*
X13704524Y-16593524D02*
X13723572Y-16603048D01*
X13723572Y-16603048D02*
X13733095Y-16612571D01*
X13733095Y-16612571D02*
X13742619Y-16631619D01*
X13742619Y-16631619D02*
X13752143Y-16669714D01*
X13752143Y-16669714D02*
X13752143Y-16717333D01*
X13752143Y-16717333D02*
X13742619Y-16755428D01*
X13742619Y-16755428D02*
X13733095Y-16774476D01*
X13733095Y-16774476D02*
X13723572Y-16784000D01*
X13723572Y-16784000D02*
X13704524Y-16793524D01*
X13704524Y-16793524D02*
X13685476Y-16793524D01*
X13685476Y-16793524D02*
X13666429Y-16784000D01*
X13666429Y-16784000D02*
X13656905Y-16774476D01*
X13656905Y-16774476D02*
X13647381Y-16755428D01*
X13647381Y-16755428D02*
X13637857Y-16717333D01*
X13637857Y-16717333D02*
X13637857Y-16669714D01*
X13637857Y-16669714D02*
X13647381Y-16631619D01*
X13647381Y-16631619D02*
X13656905Y-16612571D01*
X13656905Y-16612571D02*
X13666429Y-16603048D01*
X13666429Y-16603048D02*
X13685476Y-16593524D01*
X13837857Y-16774476D02*
X13847381Y-16784000D01*
X13847381Y-16784000D02*
X13837857Y-16793524D01*
X13837857Y-16793524D02*
X13828333Y-16784000D01*
X13828333Y-16784000D02*
X13837857Y-16774476D01*
X13837857Y-16774476D02*
X13837857Y-16793524D01*
X13971191Y-16593524D02*
X13990238Y-16593524D01*
X13990238Y-16593524D02*
X14009286Y-16603048D01*
X14009286Y-16603048D02*
X14018810Y-16612571D01*
X14018810Y-16612571D02*
X14028333Y-16631619D01*
X14028333Y-16631619D02*
X14037857Y-16669714D01*
X14037857Y-16669714D02*
X14037857Y-16717333D01*
X14037857Y-16717333D02*
X14028333Y-16755428D01*
X14028333Y-16755428D02*
X14018810Y-16774476D01*
X14018810Y-16774476D02*
X14009286Y-16784000D01*
X14009286Y-16784000D02*
X13990238Y-16793524D01*
X13990238Y-16793524D02*
X13971191Y-16793524D01*
X13971191Y-16793524D02*
X13952143Y-16784000D01*
X13952143Y-16784000D02*
X13942619Y-16774476D01*
X13942619Y-16774476D02*
X13933095Y-16755428D01*
X13933095Y-16755428D02*
X13923572Y-16717333D01*
X13923572Y-16717333D02*
X13923572Y-16669714D01*
X13923572Y-16669714D02*
X13933095Y-16631619D01*
X13933095Y-16631619D02*
X13942619Y-16612571D01*
X13942619Y-16612571D02*
X13952143Y-16603048D01*
X13952143Y-16603048D02*
X13971191Y-16593524D01*
X14209286Y-16660190D02*
X14209286Y-16793524D01*
X14161667Y-16584000D02*
X14114048Y-16726857D01*
X14114048Y-16726857D02*
X14237857Y-16726857D01*
X14323572Y-16793524D02*
X14361667Y-16793524D01*
X14361667Y-16793524D02*
X14380714Y-16784000D01*
X14380714Y-16784000D02*
X14390238Y-16774476D01*
X14390238Y-16774476D02*
X14409286Y-16745905D01*
X14409286Y-16745905D02*
X14418810Y-16707809D01*
X14418810Y-16707809D02*
X14418810Y-16631619D01*
X14418810Y-16631619D02*
X14409286Y-16612571D01*
X14409286Y-16612571D02*
X14399762Y-16603048D01*
X14399762Y-16603048D02*
X14380714Y-16593524D01*
X14380714Y-16593524D02*
X14342619Y-16593524D01*
X14342619Y-16593524D02*
X14323572Y-16603048D01*
X14323572Y-16603048D02*
X14314048Y-16612571D01*
X14314048Y-16612571D02*
X14304524Y-16631619D01*
X14304524Y-16631619D02*
X14304524Y-16679238D01*
X14304524Y-16679238D02*
X14314048Y-16698286D01*
X14314048Y-16698286D02*
X14323572Y-16707809D01*
X14323572Y-16707809D02*
X14342619Y-16717333D01*
X14342619Y-16717333D02*
X14380714Y-16717333D01*
X14380714Y-16717333D02*
X14399762Y-16707809D01*
X14399762Y-16707809D02*
X14409286Y-16698286D01*
X14409286Y-16698286D02*
X14418810Y-16679238D01*
X14542619Y-16593524D02*
X14561667Y-16593524D01*
X14561667Y-16593524D02*
X14580714Y-16603048D01*
X14580714Y-16603048D02*
X14590238Y-16612571D01*
X14590238Y-16612571D02*
X14599762Y-16631619D01*
X14599762Y-16631619D02*
X14609286Y-16669714D01*
X14609286Y-16669714D02*
X14609286Y-16717333D01*
X14609286Y-16717333D02*
X14599762Y-16755428D01*
X14599762Y-16755428D02*
X14590238Y-16774476D01*
X14590238Y-16774476D02*
X14580714Y-16784000D01*
X14580714Y-16784000D02*
X14561667Y-16793524D01*
X14561667Y-16793524D02*
X14542619Y-16793524D01*
X14542619Y-16793524D02*
X14523572Y-16784000D01*
X14523572Y-16784000D02*
X14514048Y-16774476D01*
X14514048Y-16774476D02*
X14504524Y-16755428D01*
X14504524Y-16755428D02*
X14495000Y-16717333D01*
X14495000Y-16717333D02*
X14495000Y-16669714D01*
X14495000Y-16669714D02*
X14504524Y-16631619D01*
X14504524Y-16631619D02*
X14514048Y-16612571D01*
X14514048Y-16612571D02*
X14523572Y-16603048D01*
X14523572Y-16603048D02*
X14542619Y-16593524D01*
X14685476Y-16593524D02*
X14685476Y-16631619D01*
X14761667Y-16593524D02*
X14761667Y-16631619D01*
X15056905Y-16869714D02*
X15047381Y-16860190D01*
X15047381Y-16860190D02*
X15028334Y-16831619D01*
X15028334Y-16831619D02*
X15018810Y-16812571D01*
X15018810Y-16812571D02*
X15009286Y-16784000D01*
X15009286Y-16784000D02*
X14999762Y-16736381D01*
X14999762Y-16736381D02*
X14999762Y-16698286D01*
X14999762Y-16698286D02*
X15009286Y-16650667D01*
X15009286Y-16650667D02*
X15018810Y-16622095D01*
X15018810Y-16622095D02*
X15028334Y-16603048D01*
X15028334Y-16603048D02*
X15047381Y-16574476D01*
X15047381Y-16574476D02*
X15056905Y-16564952D01*
X15218810Y-16593524D02*
X15180714Y-16593524D01*
X15180714Y-16593524D02*
X15161667Y-16603048D01*
X15161667Y-16603048D02*
X15152143Y-16612571D01*
X15152143Y-16612571D02*
X15133095Y-16641143D01*
X15133095Y-16641143D02*
X15123572Y-16679238D01*
X15123572Y-16679238D02*
X15123572Y-16755428D01*
X15123572Y-16755428D02*
X15133095Y-16774476D01*
X15133095Y-16774476D02*
X15142619Y-16784000D01*
X15142619Y-16784000D02*
X15161667Y-16793524D01*
X15161667Y-16793524D02*
X15199762Y-16793524D01*
X15199762Y-16793524D02*
X15218810Y-16784000D01*
X15218810Y-16784000D02*
X15228334Y-16774476D01*
X15228334Y-16774476D02*
X15237857Y-16755428D01*
X15237857Y-16755428D02*
X15237857Y-16707809D01*
X15237857Y-16707809D02*
X15228334Y-16688762D01*
X15228334Y-16688762D02*
X15218810Y-16679238D01*
X15218810Y-16679238D02*
X15199762Y-16669714D01*
X15199762Y-16669714D02*
X15161667Y-16669714D01*
X15161667Y-16669714D02*
X15142619Y-16679238D01*
X15142619Y-16679238D02*
X15133095Y-16688762D01*
X15133095Y-16688762D02*
X15123572Y-16707809D01*
X15475953Y-16793524D02*
X15475953Y-16593524D01*
X15561667Y-16793524D02*
X15561667Y-16688762D01*
X15561667Y-16688762D02*
X15552143Y-16669714D01*
X15552143Y-16669714D02*
X15533096Y-16660190D01*
X15533096Y-16660190D02*
X15504524Y-16660190D01*
X15504524Y-16660190D02*
X15485476Y-16669714D01*
X15485476Y-16669714D02*
X15475953Y-16679238D01*
X15685476Y-16793524D02*
X15666429Y-16784000D01*
X15666429Y-16784000D02*
X15656905Y-16774476D01*
X15656905Y-16774476D02*
X15647381Y-16755428D01*
X15647381Y-16755428D02*
X15647381Y-16698286D01*
X15647381Y-16698286D02*
X15656905Y-16679238D01*
X15656905Y-16679238D02*
X15666429Y-16669714D01*
X15666429Y-16669714D02*
X15685476Y-16660190D01*
X15685476Y-16660190D02*
X15714048Y-16660190D01*
X15714048Y-16660190D02*
X15733096Y-16669714D01*
X15733096Y-16669714D02*
X15742619Y-16679238D01*
X15742619Y-16679238D02*
X15752143Y-16698286D01*
X15752143Y-16698286D02*
X15752143Y-16755428D01*
X15752143Y-16755428D02*
X15742619Y-16774476D01*
X15742619Y-16774476D02*
X15733096Y-16784000D01*
X15733096Y-16784000D02*
X15714048Y-16793524D01*
X15714048Y-16793524D02*
X15685476Y-16793524D01*
X15866429Y-16793524D02*
X15847381Y-16784000D01*
X15847381Y-16784000D02*
X15837857Y-16764952D01*
X15837857Y-16764952D02*
X15837857Y-16593524D01*
X16018810Y-16784000D02*
X15999762Y-16793524D01*
X15999762Y-16793524D02*
X15961667Y-16793524D01*
X15961667Y-16793524D02*
X15942619Y-16784000D01*
X15942619Y-16784000D02*
X15933096Y-16764952D01*
X15933096Y-16764952D02*
X15933096Y-16688762D01*
X15933096Y-16688762D02*
X15942619Y-16669714D01*
X15942619Y-16669714D02*
X15961667Y-16660190D01*
X15961667Y-16660190D02*
X15999762Y-16660190D01*
X15999762Y-16660190D02*
X16018810Y-16669714D01*
X16018810Y-16669714D02*
X16028334Y-16688762D01*
X16028334Y-16688762D02*
X16028334Y-16707809D01*
X16028334Y-16707809D02*
X15933096Y-16726857D01*
X16104524Y-16784000D02*
X16123572Y-16793524D01*
X16123572Y-16793524D02*
X16161667Y-16793524D01*
X16161667Y-16793524D02*
X16180715Y-16784000D01*
X16180715Y-16784000D02*
X16190238Y-16764952D01*
X16190238Y-16764952D02*
X16190238Y-16755428D01*
X16190238Y-16755428D02*
X16180715Y-16736381D01*
X16180715Y-16736381D02*
X16161667Y-16726857D01*
X16161667Y-16726857D02*
X16133096Y-16726857D01*
X16133096Y-16726857D02*
X16114048Y-16717333D01*
X16114048Y-16717333D02*
X16104524Y-16698286D01*
X16104524Y-16698286D02*
X16104524Y-16688762D01*
X16104524Y-16688762D02*
X16114048Y-16669714D01*
X16114048Y-16669714D02*
X16133096Y-16660190D01*
X16133096Y-16660190D02*
X16161667Y-16660190D01*
X16161667Y-16660190D02*
X16180715Y-16669714D01*
X16256905Y-16869714D02*
X16266429Y-16860190D01*
X16266429Y-16860190D02*
X16285477Y-16831619D01*
X16285477Y-16831619D02*
X16295000Y-16812571D01*
X16295000Y-16812571D02*
X16304524Y-16784000D01*
X16304524Y-16784000D02*
X16314048Y-16736381D01*
X16314048Y-16736381D02*
X16314048Y-16698286D01*
X16314048Y-16698286D02*
X16304524Y-16650667D01*
X16304524Y-16650667D02*
X16295000Y-16622095D01*
X16295000Y-16622095D02*
X16285477Y-16603048D01*
X16285477Y-16603048D02*
X16266429Y-16574476D01*
X16266429Y-16574476D02*
X16256905Y-16564952D01*
D17*
X11335000Y-16885000D02*
X11495000Y-17045000D01*
X11495000Y-16885000D02*
X11335000Y-17045000D01*
X11495000Y-16965000D02*
G75*
G03*
X11495000Y-16965000I-80000J0D01*
G01*
D11*
X11847381Y-17057524D02*
X11733095Y-17057524D01*
X11790238Y-17057524D02*
X11790238Y-16857524D01*
X11790238Y-16857524D02*
X11771190Y-16886095D01*
X11771190Y-16886095D02*
X11752143Y-16905143D01*
X11752143Y-16905143D02*
X11733095Y-16914667D01*
X11933095Y-17038476D02*
X11942619Y-17048000D01*
X11942619Y-17048000D02*
X11933095Y-17057524D01*
X11933095Y-17057524D02*
X11923571Y-17048000D01*
X11923571Y-17048000D02*
X11933095Y-17038476D01*
X11933095Y-17038476D02*
X11933095Y-17057524D01*
X12114048Y-16857524D02*
X12075952Y-16857524D01*
X12075952Y-16857524D02*
X12056905Y-16867048D01*
X12056905Y-16867048D02*
X12047381Y-16876571D01*
X12047381Y-16876571D02*
X12028333Y-16905143D01*
X12028333Y-16905143D02*
X12018809Y-16943238D01*
X12018809Y-16943238D02*
X12018809Y-17019429D01*
X12018809Y-17019429D02*
X12028333Y-17038476D01*
X12028333Y-17038476D02*
X12037857Y-17048000D01*
X12037857Y-17048000D02*
X12056905Y-17057524D01*
X12056905Y-17057524D02*
X12095000Y-17057524D01*
X12095000Y-17057524D02*
X12114048Y-17048000D01*
X12114048Y-17048000D02*
X12123571Y-17038476D01*
X12123571Y-17038476D02*
X12133095Y-17019429D01*
X12133095Y-17019429D02*
X12133095Y-16971810D01*
X12133095Y-16971810D02*
X12123571Y-16952762D01*
X12123571Y-16952762D02*
X12114048Y-16943238D01*
X12114048Y-16943238D02*
X12095000Y-16933714D01*
X12095000Y-16933714D02*
X12056905Y-16933714D01*
X12056905Y-16933714D02*
X12037857Y-16943238D01*
X12037857Y-16943238D02*
X12028333Y-16952762D01*
X12028333Y-16952762D02*
X12018809Y-16971810D01*
X12256905Y-16857524D02*
X12275952Y-16857524D01*
X12275952Y-16857524D02*
X12295000Y-16867048D01*
X12295000Y-16867048D02*
X12304524Y-16876571D01*
X12304524Y-16876571D02*
X12314048Y-16895619D01*
X12314048Y-16895619D02*
X12323571Y-16933714D01*
X12323571Y-16933714D02*
X12323571Y-16981333D01*
X12323571Y-16981333D02*
X12314048Y-17019429D01*
X12314048Y-17019429D02*
X12304524Y-17038476D01*
X12304524Y-17038476D02*
X12295000Y-17048000D01*
X12295000Y-17048000D02*
X12275952Y-17057524D01*
X12275952Y-17057524D02*
X12256905Y-17057524D01*
X12256905Y-17057524D02*
X12237857Y-17048000D01*
X12237857Y-17048000D02*
X12228333Y-17038476D01*
X12228333Y-17038476D02*
X12218809Y-17019429D01*
X12218809Y-17019429D02*
X12209286Y-16981333D01*
X12209286Y-16981333D02*
X12209286Y-16933714D01*
X12209286Y-16933714D02*
X12218809Y-16895619D01*
X12218809Y-16895619D02*
X12228333Y-16876571D01*
X12228333Y-16876571D02*
X12237857Y-16867048D01*
X12237857Y-16867048D02*
X12256905Y-16857524D01*
X12447381Y-16857524D02*
X12466429Y-16857524D01*
X12466429Y-16857524D02*
X12485476Y-16867048D01*
X12485476Y-16867048D02*
X12495000Y-16876571D01*
X12495000Y-16876571D02*
X12504524Y-16895619D01*
X12504524Y-16895619D02*
X12514048Y-16933714D01*
X12514048Y-16933714D02*
X12514048Y-16981333D01*
X12514048Y-16981333D02*
X12504524Y-17019429D01*
X12504524Y-17019429D02*
X12495000Y-17038476D01*
X12495000Y-17038476D02*
X12485476Y-17048000D01*
X12485476Y-17048000D02*
X12466429Y-17057524D01*
X12466429Y-17057524D02*
X12447381Y-17057524D01*
X12447381Y-17057524D02*
X12428333Y-17048000D01*
X12428333Y-17048000D02*
X12418809Y-17038476D01*
X12418809Y-17038476D02*
X12409286Y-17019429D01*
X12409286Y-17019429D02*
X12399762Y-16981333D01*
X12399762Y-16981333D02*
X12399762Y-16933714D01*
X12399762Y-16933714D02*
X12409286Y-16895619D01*
X12409286Y-16895619D02*
X12418809Y-16876571D01*
X12418809Y-16876571D02*
X12428333Y-16867048D01*
X12428333Y-16867048D02*
X12447381Y-16857524D01*
X12599762Y-17057524D02*
X12599762Y-16924190D01*
X12599762Y-16943238D02*
X12609286Y-16933714D01*
X12609286Y-16933714D02*
X12628333Y-16924190D01*
X12628333Y-16924190D02*
X12656905Y-16924190D01*
X12656905Y-16924190D02*
X12675952Y-16933714D01*
X12675952Y-16933714D02*
X12685476Y-16952762D01*
X12685476Y-16952762D02*
X12685476Y-17057524D01*
X12685476Y-16952762D02*
X12695000Y-16933714D01*
X12695000Y-16933714D02*
X12714048Y-16924190D01*
X12714048Y-16924190D02*
X12742619Y-16924190D01*
X12742619Y-16924190D02*
X12761667Y-16933714D01*
X12761667Y-16933714D02*
X12771190Y-16952762D01*
X12771190Y-16952762D02*
X12771190Y-17057524D01*
X12866429Y-17057524D02*
X12866429Y-16924190D01*
X12866429Y-16943238D02*
X12875952Y-16933714D01*
X12875952Y-16933714D02*
X12895000Y-16924190D01*
X12895000Y-16924190D02*
X12923571Y-16924190D01*
X12923571Y-16924190D02*
X12942619Y-16933714D01*
X12942619Y-16933714D02*
X12952143Y-16952762D01*
X12952143Y-16952762D02*
X12952143Y-17057524D01*
X12952143Y-16952762D02*
X12961667Y-16933714D01*
X12961667Y-16933714D02*
X12980714Y-16924190D01*
X12980714Y-16924190D02*
X13009286Y-16924190D01*
X13009286Y-16924190D02*
X13028333Y-16933714D01*
X13028333Y-16933714D02*
X13037857Y-16952762D01*
X13037857Y-16952762D02*
X13037857Y-17057524D01*
X13428333Y-16848000D02*
X13256905Y-17105143D01*
X13685476Y-16857524D02*
X13704524Y-16857524D01*
X13704524Y-16857524D02*
X13723572Y-16867048D01*
X13723572Y-16867048D02*
X13733095Y-16876571D01*
X13733095Y-16876571D02*
X13742619Y-16895619D01*
X13742619Y-16895619D02*
X13752143Y-16933714D01*
X13752143Y-16933714D02*
X13752143Y-16981333D01*
X13752143Y-16981333D02*
X13742619Y-17019429D01*
X13742619Y-17019429D02*
X13733095Y-17038476D01*
X13733095Y-17038476D02*
X13723572Y-17048000D01*
X13723572Y-17048000D02*
X13704524Y-17057524D01*
X13704524Y-17057524D02*
X13685476Y-17057524D01*
X13685476Y-17057524D02*
X13666429Y-17048000D01*
X13666429Y-17048000D02*
X13656905Y-17038476D01*
X13656905Y-17038476D02*
X13647381Y-17019429D01*
X13647381Y-17019429D02*
X13637857Y-16981333D01*
X13637857Y-16981333D02*
X13637857Y-16933714D01*
X13637857Y-16933714D02*
X13647381Y-16895619D01*
X13647381Y-16895619D02*
X13656905Y-16876571D01*
X13656905Y-16876571D02*
X13666429Y-16867048D01*
X13666429Y-16867048D02*
X13685476Y-16857524D01*
X13837857Y-17038476D02*
X13847381Y-17048000D01*
X13847381Y-17048000D02*
X13837857Y-17057524D01*
X13837857Y-17057524D02*
X13828333Y-17048000D01*
X13828333Y-17048000D02*
X13837857Y-17038476D01*
X13837857Y-17038476D02*
X13837857Y-17057524D01*
X13971191Y-16857524D02*
X13990238Y-16857524D01*
X13990238Y-16857524D02*
X14009286Y-16867048D01*
X14009286Y-16867048D02*
X14018810Y-16876571D01*
X14018810Y-16876571D02*
X14028333Y-16895619D01*
X14028333Y-16895619D02*
X14037857Y-16933714D01*
X14037857Y-16933714D02*
X14037857Y-16981333D01*
X14037857Y-16981333D02*
X14028333Y-17019429D01*
X14028333Y-17019429D02*
X14018810Y-17038476D01*
X14018810Y-17038476D02*
X14009286Y-17048000D01*
X14009286Y-17048000D02*
X13990238Y-17057524D01*
X13990238Y-17057524D02*
X13971191Y-17057524D01*
X13971191Y-17057524D02*
X13952143Y-17048000D01*
X13952143Y-17048000D02*
X13942619Y-17038476D01*
X13942619Y-17038476D02*
X13933095Y-17019429D01*
X13933095Y-17019429D02*
X13923572Y-16981333D01*
X13923572Y-16981333D02*
X13923572Y-16933714D01*
X13923572Y-16933714D02*
X13933095Y-16895619D01*
X13933095Y-16895619D02*
X13942619Y-16876571D01*
X13942619Y-16876571D02*
X13952143Y-16867048D01*
X13952143Y-16867048D02*
X13971191Y-16857524D01*
X14209286Y-16857524D02*
X14171191Y-16857524D01*
X14171191Y-16857524D02*
X14152143Y-16867048D01*
X14152143Y-16867048D02*
X14142619Y-16876571D01*
X14142619Y-16876571D02*
X14123572Y-16905143D01*
X14123572Y-16905143D02*
X14114048Y-16943238D01*
X14114048Y-16943238D02*
X14114048Y-17019429D01*
X14114048Y-17019429D02*
X14123572Y-17038476D01*
X14123572Y-17038476D02*
X14133095Y-17048000D01*
X14133095Y-17048000D02*
X14152143Y-17057524D01*
X14152143Y-17057524D02*
X14190238Y-17057524D01*
X14190238Y-17057524D02*
X14209286Y-17048000D01*
X14209286Y-17048000D02*
X14218810Y-17038476D01*
X14218810Y-17038476D02*
X14228333Y-17019429D01*
X14228333Y-17019429D02*
X14228333Y-16971810D01*
X14228333Y-16971810D02*
X14218810Y-16952762D01*
X14218810Y-16952762D02*
X14209286Y-16943238D01*
X14209286Y-16943238D02*
X14190238Y-16933714D01*
X14190238Y-16933714D02*
X14152143Y-16933714D01*
X14152143Y-16933714D02*
X14133095Y-16943238D01*
X14133095Y-16943238D02*
X14123572Y-16952762D01*
X14123572Y-16952762D02*
X14114048Y-16971810D01*
X14295000Y-16857524D02*
X14418810Y-16857524D01*
X14418810Y-16857524D02*
X14352143Y-16933714D01*
X14352143Y-16933714D02*
X14380714Y-16933714D01*
X14380714Y-16933714D02*
X14399762Y-16943238D01*
X14399762Y-16943238D02*
X14409286Y-16952762D01*
X14409286Y-16952762D02*
X14418810Y-16971810D01*
X14418810Y-16971810D02*
X14418810Y-17019429D01*
X14418810Y-17019429D02*
X14409286Y-17038476D01*
X14409286Y-17038476D02*
X14399762Y-17048000D01*
X14399762Y-17048000D02*
X14380714Y-17057524D01*
X14380714Y-17057524D02*
X14323572Y-17057524D01*
X14323572Y-17057524D02*
X14304524Y-17048000D01*
X14304524Y-17048000D02*
X14295000Y-17038476D01*
X14542619Y-16857524D02*
X14561667Y-16857524D01*
X14561667Y-16857524D02*
X14580714Y-16867048D01*
X14580714Y-16867048D02*
X14590238Y-16876571D01*
X14590238Y-16876571D02*
X14599762Y-16895619D01*
X14599762Y-16895619D02*
X14609286Y-16933714D01*
X14609286Y-16933714D02*
X14609286Y-16981333D01*
X14609286Y-16981333D02*
X14599762Y-17019429D01*
X14599762Y-17019429D02*
X14590238Y-17038476D01*
X14590238Y-17038476D02*
X14580714Y-17048000D01*
X14580714Y-17048000D02*
X14561667Y-17057524D01*
X14561667Y-17057524D02*
X14542619Y-17057524D01*
X14542619Y-17057524D02*
X14523572Y-17048000D01*
X14523572Y-17048000D02*
X14514048Y-17038476D01*
X14514048Y-17038476D02*
X14504524Y-17019429D01*
X14504524Y-17019429D02*
X14495000Y-16981333D01*
X14495000Y-16981333D02*
X14495000Y-16933714D01*
X14495000Y-16933714D02*
X14504524Y-16895619D01*
X14504524Y-16895619D02*
X14514048Y-16876571D01*
X14514048Y-16876571D02*
X14523572Y-16867048D01*
X14523572Y-16867048D02*
X14542619Y-16857524D01*
X14685476Y-16857524D02*
X14685476Y-16895619D01*
X14761667Y-16857524D02*
X14761667Y-16895619D01*
X15056905Y-17133714D02*
X15047381Y-17124190D01*
X15047381Y-17124190D02*
X15028334Y-17095619D01*
X15028334Y-17095619D02*
X15018810Y-17076571D01*
X15018810Y-17076571D02*
X15009286Y-17048000D01*
X15009286Y-17048000D02*
X14999762Y-17000381D01*
X14999762Y-17000381D02*
X14999762Y-16962286D01*
X14999762Y-16962286D02*
X15009286Y-16914667D01*
X15009286Y-16914667D02*
X15018810Y-16886095D01*
X15018810Y-16886095D02*
X15028334Y-16867048D01*
X15028334Y-16867048D02*
X15047381Y-16838476D01*
X15047381Y-16838476D02*
X15056905Y-16828952D01*
X15123572Y-16876571D02*
X15133095Y-16867048D01*
X15133095Y-16867048D02*
X15152143Y-16857524D01*
X15152143Y-16857524D02*
X15199762Y-16857524D01*
X15199762Y-16857524D02*
X15218810Y-16867048D01*
X15218810Y-16867048D02*
X15228334Y-16876571D01*
X15228334Y-16876571D02*
X15237857Y-16895619D01*
X15237857Y-16895619D02*
X15237857Y-16914667D01*
X15237857Y-16914667D02*
X15228334Y-16943238D01*
X15228334Y-16943238D02*
X15114048Y-17057524D01*
X15114048Y-17057524D02*
X15237857Y-17057524D01*
X15475953Y-17057524D02*
X15475953Y-16857524D01*
X15561667Y-17057524D02*
X15561667Y-16952762D01*
X15561667Y-16952762D02*
X15552143Y-16933714D01*
X15552143Y-16933714D02*
X15533096Y-16924190D01*
X15533096Y-16924190D02*
X15504524Y-16924190D01*
X15504524Y-16924190D02*
X15485476Y-16933714D01*
X15485476Y-16933714D02*
X15475953Y-16943238D01*
X15685476Y-17057524D02*
X15666429Y-17048000D01*
X15666429Y-17048000D02*
X15656905Y-17038476D01*
X15656905Y-17038476D02*
X15647381Y-17019429D01*
X15647381Y-17019429D02*
X15647381Y-16962286D01*
X15647381Y-16962286D02*
X15656905Y-16943238D01*
X15656905Y-16943238D02*
X15666429Y-16933714D01*
X15666429Y-16933714D02*
X15685476Y-16924190D01*
X15685476Y-16924190D02*
X15714048Y-16924190D01*
X15714048Y-16924190D02*
X15733096Y-16933714D01*
X15733096Y-16933714D02*
X15742619Y-16943238D01*
X15742619Y-16943238D02*
X15752143Y-16962286D01*
X15752143Y-16962286D02*
X15752143Y-17019429D01*
X15752143Y-17019429D02*
X15742619Y-17038476D01*
X15742619Y-17038476D02*
X15733096Y-17048000D01*
X15733096Y-17048000D02*
X15714048Y-17057524D01*
X15714048Y-17057524D02*
X15685476Y-17057524D01*
X15866429Y-17057524D02*
X15847381Y-17048000D01*
X15847381Y-17048000D02*
X15837857Y-17028952D01*
X15837857Y-17028952D02*
X15837857Y-16857524D01*
X16018810Y-17048000D02*
X15999762Y-17057524D01*
X15999762Y-17057524D02*
X15961667Y-17057524D01*
X15961667Y-17057524D02*
X15942619Y-17048000D01*
X15942619Y-17048000D02*
X15933096Y-17028952D01*
X15933096Y-17028952D02*
X15933096Y-16952762D01*
X15933096Y-16952762D02*
X15942619Y-16933714D01*
X15942619Y-16933714D02*
X15961667Y-16924190D01*
X15961667Y-16924190D02*
X15999762Y-16924190D01*
X15999762Y-16924190D02*
X16018810Y-16933714D01*
X16018810Y-16933714D02*
X16028334Y-16952762D01*
X16028334Y-16952762D02*
X16028334Y-16971810D01*
X16028334Y-16971810D02*
X15933096Y-16990857D01*
X16104524Y-17048000D02*
X16123572Y-17057524D01*
X16123572Y-17057524D02*
X16161667Y-17057524D01*
X16161667Y-17057524D02*
X16180715Y-17048000D01*
X16180715Y-17048000D02*
X16190238Y-17028952D01*
X16190238Y-17028952D02*
X16190238Y-17019429D01*
X16190238Y-17019429D02*
X16180715Y-17000381D01*
X16180715Y-17000381D02*
X16161667Y-16990857D01*
X16161667Y-16990857D02*
X16133096Y-16990857D01*
X16133096Y-16990857D02*
X16114048Y-16981333D01*
X16114048Y-16981333D02*
X16104524Y-16962286D01*
X16104524Y-16962286D02*
X16104524Y-16952762D01*
X16104524Y-16952762D02*
X16114048Y-16933714D01*
X16114048Y-16933714D02*
X16133096Y-16924190D01*
X16133096Y-16924190D02*
X16161667Y-16924190D01*
X16161667Y-16924190D02*
X16180715Y-16933714D01*
X16256905Y-17133714D02*
X16266429Y-17124190D01*
X16266429Y-17124190D02*
X16285477Y-17095619D01*
X16285477Y-17095619D02*
X16295000Y-17076571D01*
X16295000Y-17076571D02*
X16304524Y-17048000D01*
X16304524Y-17048000D02*
X16314048Y-17000381D01*
X16314048Y-17000381D02*
X16314048Y-16962286D01*
X16314048Y-16962286D02*
X16304524Y-16914667D01*
X16304524Y-16914667D02*
X16295000Y-16886095D01*
X16295000Y-16886095D02*
X16285477Y-16867048D01*
X16285477Y-16867048D02*
X16266429Y-16838476D01*
X16266429Y-16838476D02*
X16256905Y-16828952D01*
D18*
X11312120Y-17153560D02*
X11495000Y-17336440D01*
X11495000Y-17153560D02*
X11312120Y-17336440D01*
X11403560Y-17153560D02*
X11403560Y-17336440D01*
X11312120Y-17245000D02*
X11495000Y-17245000D01*
D11*
X11847381Y-17337524D02*
X11733095Y-17337524D01*
X11790238Y-17337524D02*
X11790238Y-17137524D01*
X11790238Y-17137524D02*
X11771190Y-17166095D01*
X11771190Y-17166095D02*
X11752143Y-17185143D01*
X11752143Y-17185143D02*
X11733095Y-17194667D01*
X11933095Y-17318476D02*
X11942619Y-17328000D01*
X11942619Y-17328000D02*
X11933095Y-17337524D01*
X11933095Y-17337524D02*
X11923571Y-17328000D01*
X11923571Y-17328000D02*
X11933095Y-17318476D01*
X11933095Y-17318476D02*
X11933095Y-17337524D01*
X12056905Y-17223238D02*
X12037857Y-17213714D01*
X12037857Y-17213714D02*
X12028333Y-17204190D01*
X12028333Y-17204190D02*
X12018809Y-17185143D01*
X12018809Y-17185143D02*
X12018809Y-17175619D01*
X12018809Y-17175619D02*
X12028333Y-17156571D01*
X12028333Y-17156571D02*
X12037857Y-17147048D01*
X12037857Y-17147048D02*
X12056905Y-17137524D01*
X12056905Y-17137524D02*
X12095000Y-17137524D01*
X12095000Y-17137524D02*
X12114048Y-17147048D01*
X12114048Y-17147048D02*
X12123571Y-17156571D01*
X12123571Y-17156571D02*
X12133095Y-17175619D01*
X12133095Y-17175619D02*
X12133095Y-17185143D01*
X12133095Y-17185143D02*
X12123571Y-17204190D01*
X12123571Y-17204190D02*
X12114048Y-17213714D01*
X12114048Y-17213714D02*
X12095000Y-17223238D01*
X12095000Y-17223238D02*
X12056905Y-17223238D01*
X12056905Y-17223238D02*
X12037857Y-17232762D01*
X12037857Y-17232762D02*
X12028333Y-17242286D01*
X12028333Y-17242286D02*
X12018809Y-17261333D01*
X12018809Y-17261333D02*
X12018809Y-17299429D01*
X12018809Y-17299429D02*
X12028333Y-17318476D01*
X12028333Y-17318476D02*
X12037857Y-17328000D01*
X12037857Y-17328000D02*
X12056905Y-17337524D01*
X12056905Y-17337524D02*
X12095000Y-17337524D01*
X12095000Y-17337524D02*
X12114048Y-17328000D01*
X12114048Y-17328000D02*
X12123571Y-17318476D01*
X12123571Y-17318476D02*
X12133095Y-17299429D01*
X12133095Y-17299429D02*
X12133095Y-17261333D01*
X12133095Y-17261333D02*
X12123571Y-17242286D01*
X12123571Y-17242286D02*
X12114048Y-17232762D01*
X12114048Y-17232762D02*
X12095000Y-17223238D01*
X12209286Y-17156571D02*
X12218809Y-17147048D01*
X12218809Y-17147048D02*
X12237857Y-17137524D01*
X12237857Y-17137524D02*
X12285476Y-17137524D01*
X12285476Y-17137524D02*
X12304524Y-17147048D01*
X12304524Y-17147048D02*
X12314048Y-17156571D01*
X12314048Y-17156571D02*
X12323571Y-17175619D01*
X12323571Y-17175619D02*
X12323571Y-17194667D01*
X12323571Y-17194667D02*
X12314048Y-17223238D01*
X12314048Y-17223238D02*
X12199762Y-17337524D01*
X12199762Y-17337524D02*
X12323571Y-17337524D01*
X12418809Y-17337524D02*
X12456905Y-17337524D01*
X12456905Y-17337524D02*
X12475952Y-17328000D01*
X12475952Y-17328000D02*
X12485476Y-17318476D01*
X12485476Y-17318476D02*
X12504524Y-17289905D01*
X12504524Y-17289905D02*
X12514048Y-17251810D01*
X12514048Y-17251810D02*
X12514048Y-17175619D01*
X12514048Y-17175619D02*
X12504524Y-17156571D01*
X12504524Y-17156571D02*
X12495000Y-17147048D01*
X12495000Y-17147048D02*
X12475952Y-17137524D01*
X12475952Y-17137524D02*
X12437857Y-17137524D01*
X12437857Y-17137524D02*
X12418809Y-17147048D01*
X12418809Y-17147048D02*
X12409286Y-17156571D01*
X12409286Y-17156571D02*
X12399762Y-17175619D01*
X12399762Y-17175619D02*
X12399762Y-17223238D01*
X12399762Y-17223238D02*
X12409286Y-17242286D01*
X12409286Y-17242286D02*
X12418809Y-17251810D01*
X12418809Y-17251810D02*
X12437857Y-17261333D01*
X12437857Y-17261333D02*
X12475952Y-17261333D01*
X12475952Y-17261333D02*
X12495000Y-17251810D01*
X12495000Y-17251810D02*
X12504524Y-17242286D01*
X12504524Y-17242286D02*
X12514048Y-17223238D01*
X12599762Y-17337524D02*
X12599762Y-17204190D01*
X12599762Y-17223238D02*
X12609286Y-17213714D01*
X12609286Y-17213714D02*
X12628333Y-17204190D01*
X12628333Y-17204190D02*
X12656905Y-17204190D01*
X12656905Y-17204190D02*
X12675952Y-17213714D01*
X12675952Y-17213714D02*
X12685476Y-17232762D01*
X12685476Y-17232762D02*
X12685476Y-17337524D01*
X12685476Y-17232762D02*
X12695000Y-17213714D01*
X12695000Y-17213714D02*
X12714048Y-17204190D01*
X12714048Y-17204190D02*
X12742619Y-17204190D01*
X12742619Y-17204190D02*
X12761667Y-17213714D01*
X12761667Y-17213714D02*
X12771190Y-17232762D01*
X12771190Y-17232762D02*
X12771190Y-17337524D01*
X12866429Y-17337524D02*
X12866429Y-17204190D01*
X12866429Y-17223238D02*
X12875952Y-17213714D01*
X12875952Y-17213714D02*
X12895000Y-17204190D01*
X12895000Y-17204190D02*
X12923571Y-17204190D01*
X12923571Y-17204190D02*
X12942619Y-17213714D01*
X12942619Y-17213714D02*
X12952143Y-17232762D01*
X12952143Y-17232762D02*
X12952143Y-17337524D01*
X12952143Y-17232762D02*
X12961667Y-17213714D01*
X12961667Y-17213714D02*
X12980714Y-17204190D01*
X12980714Y-17204190D02*
X13009286Y-17204190D01*
X13009286Y-17204190D02*
X13028333Y-17213714D01*
X13028333Y-17213714D02*
X13037857Y-17232762D01*
X13037857Y-17232762D02*
X13037857Y-17337524D01*
X13428333Y-17128000D02*
X13256905Y-17385143D01*
X13685476Y-17137524D02*
X13704524Y-17137524D01*
X13704524Y-17137524D02*
X13723572Y-17147048D01*
X13723572Y-17147048D02*
X13733095Y-17156571D01*
X13733095Y-17156571D02*
X13742619Y-17175619D01*
X13742619Y-17175619D02*
X13752143Y-17213714D01*
X13752143Y-17213714D02*
X13752143Y-17261333D01*
X13752143Y-17261333D02*
X13742619Y-17299429D01*
X13742619Y-17299429D02*
X13733095Y-17318476D01*
X13733095Y-17318476D02*
X13723572Y-17328000D01*
X13723572Y-17328000D02*
X13704524Y-17337524D01*
X13704524Y-17337524D02*
X13685476Y-17337524D01*
X13685476Y-17337524D02*
X13666429Y-17328000D01*
X13666429Y-17328000D02*
X13656905Y-17318476D01*
X13656905Y-17318476D02*
X13647381Y-17299429D01*
X13647381Y-17299429D02*
X13637857Y-17261333D01*
X13637857Y-17261333D02*
X13637857Y-17213714D01*
X13637857Y-17213714D02*
X13647381Y-17175619D01*
X13647381Y-17175619D02*
X13656905Y-17156571D01*
X13656905Y-17156571D02*
X13666429Y-17147048D01*
X13666429Y-17147048D02*
X13685476Y-17137524D01*
X13837857Y-17318476D02*
X13847381Y-17328000D01*
X13847381Y-17328000D02*
X13837857Y-17337524D01*
X13837857Y-17337524D02*
X13828333Y-17328000D01*
X13828333Y-17328000D02*
X13837857Y-17318476D01*
X13837857Y-17318476D02*
X13837857Y-17337524D01*
X13971191Y-17137524D02*
X13990238Y-17137524D01*
X13990238Y-17137524D02*
X14009286Y-17147048D01*
X14009286Y-17147048D02*
X14018810Y-17156571D01*
X14018810Y-17156571D02*
X14028333Y-17175619D01*
X14028333Y-17175619D02*
X14037857Y-17213714D01*
X14037857Y-17213714D02*
X14037857Y-17261333D01*
X14037857Y-17261333D02*
X14028333Y-17299429D01*
X14028333Y-17299429D02*
X14018810Y-17318476D01*
X14018810Y-17318476D02*
X14009286Y-17328000D01*
X14009286Y-17328000D02*
X13990238Y-17337524D01*
X13990238Y-17337524D02*
X13971191Y-17337524D01*
X13971191Y-17337524D02*
X13952143Y-17328000D01*
X13952143Y-17328000D02*
X13942619Y-17318476D01*
X13942619Y-17318476D02*
X13933095Y-17299429D01*
X13933095Y-17299429D02*
X13923572Y-17261333D01*
X13923572Y-17261333D02*
X13923572Y-17213714D01*
X13923572Y-17213714D02*
X13933095Y-17175619D01*
X13933095Y-17175619D02*
X13942619Y-17156571D01*
X13942619Y-17156571D02*
X13952143Y-17147048D01*
X13952143Y-17147048D02*
X13971191Y-17137524D01*
X14104524Y-17137524D02*
X14237857Y-17137524D01*
X14237857Y-17137524D02*
X14152143Y-17337524D01*
X14304524Y-17156571D02*
X14314048Y-17147048D01*
X14314048Y-17147048D02*
X14333095Y-17137524D01*
X14333095Y-17137524D02*
X14380714Y-17137524D01*
X14380714Y-17137524D02*
X14399762Y-17147048D01*
X14399762Y-17147048D02*
X14409286Y-17156571D01*
X14409286Y-17156571D02*
X14418810Y-17175619D01*
X14418810Y-17175619D02*
X14418810Y-17194667D01*
X14418810Y-17194667D02*
X14409286Y-17223238D01*
X14409286Y-17223238D02*
X14295000Y-17337524D01*
X14295000Y-17337524D02*
X14418810Y-17337524D01*
X14542619Y-17137524D02*
X14561667Y-17137524D01*
X14561667Y-17137524D02*
X14580714Y-17147048D01*
X14580714Y-17147048D02*
X14590238Y-17156571D01*
X14590238Y-17156571D02*
X14599762Y-17175619D01*
X14599762Y-17175619D02*
X14609286Y-17213714D01*
X14609286Y-17213714D02*
X14609286Y-17261333D01*
X14609286Y-17261333D02*
X14599762Y-17299429D01*
X14599762Y-17299429D02*
X14590238Y-17318476D01*
X14590238Y-17318476D02*
X14580714Y-17328000D01*
X14580714Y-17328000D02*
X14561667Y-17337524D01*
X14561667Y-17337524D02*
X14542619Y-17337524D01*
X14542619Y-17337524D02*
X14523572Y-17328000D01*
X14523572Y-17328000D02*
X14514048Y-17318476D01*
X14514048Y-17318476D02*
X14504524Y-17299429D01*
X14504524Y-17299429D02*
X14495000Y-17261333D01*
X14495000Y-17261333D02*
X14495000Y-17213714D01*
X14495000Y-17213714D02*
X14504524Y-17175619D01*
X14504524Y-17175619D02*
X14514048Y-17156571D01*
X14514048Y-17156571D02*
X14523572Y-17147048D01*
X14523572Y-17147048D02*
X14542619Y-17137524D01*
X14685476Y-17137524D02*
X14685476Y-17175619D01*
X14761667Y-17137524D02*
X14761667Y-17175619D01*
X15056905Y-17413714D02*
X15047381Y-17404190D01*
X15047381Y-17404190D02*
X15028334Y-17375619D01*
X15028334Y-17375619D02*
X15018810Y-17356571D01*
X15018810Y-17356571D02*
X15009286Y-17328000D01*
X15009286Y-17328000D02*
X14999762Y-17280381D01*
X14999762Y-17280381D02*
X14999762Y-17242286D01*
X14999762Y-17242286D02*
X15009286Y-17194667D01*
X15009286Y-17194667D02*
X15018810Y-17166095D01*
X15018810Y-17166095D02*
X15028334Y-17147048D01*
X15028334Y-17147048D02*
X15047381Y-17118476D01*
X15047381Y-17118476D02*
X15056905Y-17108952D01*
X15123572Y-17156571D02*
X15133095Y-17147048D01*
X15133095Y-17147048D02*
X15152143Y-17137524D01*
X15152143Y-17137524D02*
X15199762Y-17137524D01*
X15199762Y-17137524D02*
X15218810Y-17147048D01*
X15218810Y-17147048D02*
X15228334Y-17156571D01*
X15228334Y-17156571D02*
X15237857Y-17175619D01*
X15237857Y-17175619D02*
X15237857Y-17194667D01*
X15237857Y-17194667D02*
X15228334Y-17223238D01*
X15228334Y-17223238D02*
X15114048Y-17337524D01*
X15114048Y-17337524D02*
X15237857Y-17337524D01*
X15475953Y-17337524D02*
X15475953Y-17137524D01*
X15561667Y-17337524D02*
X15561667Y-17232762D01*
X15561667Y-17232762D02*
X15552143Y-17213714D01*
X15552143Y-17213714D02*
X15533096Y-17204190D01*
X15533096Y-17204190D02*
X15504524Y-17204190D01*
X15504524Y-17204190D02*
X15485476Y-17213714D01*
X15485476Y-17213714D02*
X15475953Y-17223238D01*
X15685476Y-17337524D02*
X15666429Y-17328000D01*
X15666429Y-17328000D02*
X15656905Y-17318476D01*
X15656905Y-17318476D02*
X15647381Y-17299429D01*
X15647381Y-17299429D02*
X15647381Y-17242286D01*
X15647381Y-17242286D02*
X15656905Y-17223238D01*
X15656905Y-17223238D02*
X15666429Y-17213714D01*
X15666429Y-17213714D02*
X15685476Y-17204190D01*
X15685476Y-17204190D02*
X15714048Y-17204190D01*
X15714048Y-17204190D02*
X15733096Y-17213714D01*
X15733096Y-17213714D02*
X15742619Y-17223238D01*
X15742619Y-17223238D02*
X15752143Y-17242286D01*
X15752143Y-17242286D02*
X15752143Y-17299429D01*
X15752143Y-17299429D02*
X15742619Y-17318476D01*
X15742619Y-17318476D02*
X15733096Y-17328000D01*
X15733096Y-17328000D02*
X15714048Y-17337524D01*
X15714048Y-17337524D02*
X15685476Y-17337524D01*
X15866429Y-17337524D02*
X15847381Y-17328000D01*
X15847381Y-17328000D02*
X15837857Y-17308952D01*
X15837857Y-17308952D02*
X15837857Y-17137524D01*
X16018810Y-17328000D02*
X15999762Y-17337524D01*
X15999762Y-17337524D02*
X15961667Y-17337524D01*
X15961667Y-17337524D02*
X15942619Y-17328000D01*
X15942619Y-17328000D02*
X15933096Y-17308952D01*
X15933096Y-17308952D02*
X15933096Y-17232762D01*
X15933096Y-17232762D02*
X15942619Y-17213714D01*
X15942619Y-17213714D02*
X15961667Y-17204190D01*
X15961667Y-17204190D02*
X15999762Y-17204190D01*
X15999762Y-17204190D02*
X16018810Y-17213714D01*
X16018810Y-17213714D02*
X16028334Y-17232762D01*
X16028334Y-17232762D02*
X16028334Y-17251810D01*
X16028334Y-17251810D02*
X15933096Y-17270857D01*
X16104524Y-17328000D02*
X16123572Y-17337524D01*
X16123572Y-17337524D02*
X16161667Y-17337524D01*
X16161667Y-17337524D02*
X16180715Y-17328000D01*
X16180715Y-17328000D02*
X16190238Y-17308952D01*
X16190238Y-17308952D02*
X16190238Y-17299429D01*
X16190238Y-17299429D02*
X16180715Y-17280381D01*
X16180715Y-17280381D02*
X16161667Y-17270857D01*
X16161667Y-17270857D02*
X16133096Y-17270857D01*
X16133096Y-17270857D02*
X16114048Y-17261333D01*
X16114048Y-17261333D02*
X16104524Y-17242286D01*
X16104524Y-17242286D02*
X16104524Y-17232762D01*
X16104524Y-17232762D02*
X16114048Y-17213714D01*
X16114048Y-17213714D02*
X16133096Y-17204190D01*
X16133096Y-17204190D02*
X16161667Y-17204190D01*
X16161667Y-17204190D02*
X16180715Y-17213714D01*
X16256905Y-17413714D02*
X16266429Y-17404190D01*
X16266429Y-17404190D02*
X16285477Y-17375619D01*
X16285477Y-17375619D02*
X16295000Y-17356571D01*
X16295000Y-17356571D02*
X16304524Y-17328000D01*
X16304524Y-17328000D02*
X16314048Y-17280381D01*
X16314048Y-17280381D02*
X16314048Y-17242286D01*
X16314048Y-17242286D02*
X16304524Y-17194667D01*
X16304524Y-17194667D02*
X16295000Y-17166095D01*
X16295000Y-17166095D02*
X16285477Y-17147048D01*
X16285477Y-17147048D02*
X16266429Y-17118476D01*
X16266429Y-17118476D02*
X16256905Y-17108952D01*
M02*
