G04 #@! TF.GenerationSoftware,KiCad,Pcbnew,7.0.1*
G04 #@! TF.CreationDate,2024-08-21T15:05:22-07:00*
G04 #@! TF.ProjectId,Dual encoder controller - left,4475616c-2065-46e6-936f-64657220636f,rev?*
G04 #@! TF.SameCoordinates,Original*
G04 #@! TF.FileFunction,Legend,Top*
G04 #@! TF.FilePolarity,Positive*
%FSLAX46Y46*%
G04 Gerber Fmt 4.6, Leading zero omitted, Abs format (unit mm)*
G04 Created by KiCad (PCBNEW 7.0.1) date 2024-08-21 15:05:22*
%MOMM*%
%LPD*%
G01*
G04 APERTURE LIST*
%ADD10C,0.300000*%
%ADD11C,0.150000*%
%ADD12C,0.010000*%
%ADD13C,0.120000*%
%ADD14C,0.100000*%
%ADD15C,0.152400*%
%ADD16C,0.127000*%
%ADD17C,0.200000*%
G04 APERTURE END LIST*
D10*
X202325237Y-91625238D02*
X202325237Y-89625238D01*
X202325237Y-89625238D02*
X202991904Y-91053809D01*
X202991904Y-91053809D02*
X203658570Y-89625238D01*
X203658570Y-89625238D02*
X203658570Y-91625238D01*
X205468094Y-91625238D02*
X205468094Y-90577619D01*
X205468094Y-90577619D02*
X205372856Y-90387142D01*
X205372856Y-90387142D02*
X205182380Y-90291904D01*
X205182380Y-90291904D02*
X204801427Y-90291904D01*
X204801427Y-90291904D02*
X204610951Y-90387142D01*
X205468094Y-91530000D02*
X205277618Y-91625238D01*
X205277618Y-91625238D02*
X204801427Y-91625238D01*
X204801427Y-91625238D02*
X204610951Y-91530000D01*
X204610951Y-91530000D02*
X204515713Y-91339523D01*
X204515713Y-91339523D02*
X204515713Y-91149047D01*
X204515713Y-91149047D02*
X204610951Y-90958571D01*
X204610951Y-90958571D02*
X204801427Y-90863333D01*
X204801427Y-90863333D02*
X205277618Y-90863333D01*
X205277618Y-90863333D02*
X205468094Y-90768095D01*
X206420475Y-91625238D02*
X206420475Y-90291904D01*
X206420475Y-89625238D02*
X206325237Y-89720476D01*
X206325237Y-89720476D02*
X206420475Y-89815714D01*
X206420475Y-89815714D02*
X206515713Y-89720476D01*
X206515713Y-89720476D02*
X206420475Y-89625238D01*
X206420475Y-89625238D02*
X206420475Y-89815714D01*
X207372856Y-90291904D02*
X207372856Y-91625238D01*
X207372856Y-90482380D02*
X207468094Y-90387142D01*
X207468094Y-90387142D02*
X207658570Y-90291904D01*
X207658570Y-90291904D02*
X207944285Y-90291904D01*
X207944285Y-90291904D02*
X208134761Y-90387142D01*
X208134761Y-90387142D02*
X208229999Y-90577619D01*
X208229999Y-90577619D02*
X208229999Y-91625238D01*
X210706190Y-90863333D02*
X212230000Y-90863333D01*
X211849047Y-91244285D02*
X212230000Y-90863333D01*
X212230000Y-90863333D02*
X211849047Y-90482380D01*
X202801427Y-93817619D02*
X203468094Y-93817619D01*
X203753808Y-94865238D02*
X202801427Y-94865238D01*
X202801427Y-94865238D02*
X202801427Y-92865238D01*
X202801427Y-92865238D02*
X203753808Y-92865238D01*
X204610951Y-93531904D02*
X204610951Y-94865238D01*
X204610951Y-93722380D02*
X204706189Y-93627142D01*
X204706189Y-93627142D02*
X204896665Y-93531904D01*
X204896665Y-93531904D02*
X205182380Y-93531904D01*
X205182380Y-93531904D02*
X205372856Y-93627142D01*
X205372856Y-93627142D02*
X205468094Y-93817619D01*
X205468094Y-93817619D02*
X205468094Y-94865238D01*
X207277618Y-94770000D02*
X207087142Y-94865238D01*
X207087142Y-94865238D02*
X206706189Y-94865238D01*
X206706189Y-94865238D02*
X206515713Y-94770000D01*
X206515713Y-94770000D02*
X206420475Y-94674761D01*
X206420475Y-94674761D02*
X206325237Y-94484285D01*
X206325237Y-94484285D02*
X206325237Y-93912857D01*
X206325237Y-93912857D02*
X206420475Y-93722380D01*
X206420475Y-93722380D02*
X206515713Y-93627142D01*
X206515713Y-93627142D02*
X206706189Y-93531904D01*
X206706189Y-93531904D02*
X207087142Y-93531904D01*
X207087142Y-93531904D02*
X207277618Y-93627142D01*
X208420475Y-94865238D02*
X208229999Y-94770000D01*
X208229999Y-94770000D02*
X208134761Y-94674761D01*
X208134761Y-94674761D02*
X208039523Y-94484285D01*
X208039523Y-94484285D02*
X208039523Y-93912857D01*
X208039523Y-93912857D02*
X208134761Y-93722380D01*
X208134761Y-93722380D02*
X208229999Y-93627142D01*
X208229999Y-93627142D02*
X208420475Y-93531904D01*
X208420475Y-93531904D02*
X208706190Y-93531904D01*
X208706190Y-93531904D02*
X208896666Y-93627142D01*
X208896666Y-93627142D02*
X208991904Y-93722380D01*
X208991904Y-93722380D02*
X209087142Y-93912857D01*
X209087142Y-93912857D02*
X209087142Y-94484285D01*
X209087142Y-94484285D02*
X208991904Y-94674761D01*
X208991904Y-94674761D02*
X208896666Y-94770000D01*
X208896666Y-94770000D02*
X208706190Y-94865238D01*
X208706190Y-94865238D02*
X208420475Y-94865238D01*
X210801428Y-94865238D02*
X210801428Y-92865238D01*
X210801428Y-94770000D02*
X210610952Y-94865238D01*
X210610952Y-94865238D02*
X210229999Y-94865238D01*
X210229999Y-94865238D02*
X210039523Y-94770000D01*
X210039523Y-94770000D02*
X209944285Y-94674761D01*
X209944285Y-94674761D02*
X209849047Y-94484285D01*
X209849047Y-94484285D02*
X209849047Y-93912857D01*
X209849047Y-93912857D02*
X209944285Y-93722380D01*
X209944285Y-93722380D02*
X210039523Y-93627142D01*
X210039523Y-93627142D02*
X210229999Y-93531904D01*
X210229999Y-93531904D02*
X210610952Y-93531904D01*
X210610952Y-93531904D02*
X210801428Y-93627142D01*
X212515714Y-94770000D02*
X212325238Y-94865238D01*
X212325238Y-94865238D02*
X211944285Y-94865238D01*
X211944285Y-94865238D02*
X211753809Y-94770000D01*
X211753809Y-94770000D02*
X211658571Y-94579523D01*
X211658571Y-94579523D02*
X211658571Y-93817619D01*
X211658571Y-93817619D02*
X211753809Y-93627142D01*
X211753809Y-93627142D02*
X211944285Y-93531904D01*
X211944285Y-93531904D02*
X212325238Y-93531904D01*
X212325238Y-93531904D02*
X212515714Y-93627142D01*
X212515714Y-93627142D02*
X212610952Y-93817619D01*
X212610952Y-93817619D02*
X212610952Y-94008095D01*
X212610952Y-94008095D02*
X211658571Y-94198571D01*
X213468095Y-94865238D02*
X213468095Y-93531904D01*
X213468095Y-93912857D02*
X213563333Y-93722380D01*
X213563333Y-93722380D02*
X213658571Y-93627142D01*
X213658571Y-93627142D02*
X213849047Y-93531904D01*
X213849047Y-93531904D02*
X214039524Y-93531904D01*
D11*
X138519285Y-146087619D02*
X138043095Y-146087619D01*
X138043095Y-146087619D02*
X138043095Y-145087619D01*
X138852619Y-146087619D02*
X138852619Y-145420952D01*
X138852619Y-145087619D02*
X138805000Y-145135238D01*
X138805000Y-145135238D02*
X138852619Y-145182857D01*
X138852619Y-145182857D02*
X138900238Y-145135238D01*
X138900238Y-145135238D02*
X138852619Y-145087619D01*
X138852619Y-145087619D02*
X138852619Y-145182857D01*
X139757380Y-146040000D02*
X139662142Y-146087619D01*
X139662142Y-146087619D02*
X139471666Y-146087619D01*
X139471666Y-146087619D02*
X139376428Y-146040000D01*
X139376428Y-146040000D02*
X139328809Y-145992380D01*
X139328809Y-145992380D02*
X139281190Y-145897142D01*
X139281190Y-145897142D02*
X139281190Y-145611428D01*
X139281190Y-145611428D02*
X139328809Y-145516190D01*
X139328809Y-145516190D02*
X139376428Y-145468571D01*
X139376428Y-145468571D02*
X139471666Y-145420952D01*
X139471666Y-145420952D02*
X139662142Y-145420952D01*
X139662142Y-145420952D02*
X139757380Y-145468571D01*
X140566904Y-146040000D02*
X140471666Y-146087619D01*
X140471666Y-146087619D02*
X140281190Y-146087619D01*
X140281190Y-146087619D02*
X140185952Y-146040000D01*
X140185952Y-146040000D02*
X140138333Y-145944761D01*
X140138333Y-145944761D02*
X140138333Y-145563809D01*
X140138333Y-145563809D02*
X140185952Y-145468571D01*
X140185952Y-145468571D02*
X140281190Y-145420952D01*
X140281190Y-145420952D02*
X140471666Y-145420952D01*
X140471666Y-145420952D02*
X140566904Y-145468571D01*
X140566904Y-145468571D02*
X140614523Y-145563809D01*
X140614523Y-145563809D02*
X140614523Y-145659047D01*
X140614523Y-145659047D02*
X140138333Y-145754285D01*
X141043095Y-145420952D02*
X141043095Y-146087619D01*
X141043095Y-145516190D02*
X141090714Y-145468571D01*
X141090714Y-145468571D02*
X141185952Y-145420952D01*
X141185952Y-145420952D02*
X141328809Y-145420952D01*
X141328809Y-145420952D02*
X141424047Y-145468571D01*
X141424047Y-145468571D02*
X141471666Y-145563809D01*
X141471666Y-145563809D02*
X141471666Y-146087619D01*
X141900238Y-146040000D02*
X141995476Y-146087619D01*
X141995476Y-146087619D02*
X142185952Y-146087619D01*
X142185952Y-146087619D02*
X142281190Y-146040000D01*
X142281190Y-146040000D02*
X142328809Y-145944761D01*
X142328809Y-145944761D02*
X142328809Y-145897142D01*
X142328809Y-145897142D02*
X142281190Y-145801904D01*
X142281190Y-145801904D02*
X142185952Y-145754285D01*
X142185952Y-145754285D02*
X142043095Y-145754285D01*
X142043095Y-145754285D02*
X141947857Y-145706666D01*
X141947857Y-145706666D02*
X141900238Y-145611428D01*
X141900238Y-145611428D02*
X141900238Y-145563809D01*
X141900238Y-145563809D02*
X141947857Y-145468571D01*
X141947857Y-145468571D02*
X142043095Y-145420952D01*
X142043095Y-145420952D02*
X142185952Y-145420952D01*
X142185952Y-145420952D02*
X142281190Y-145468571D01*
X143138333Y-146040000D02*
X143043095Y-146087619D01*
X143043095Y-146087619D02*
X142852619Y-146087619D01*
X142852619Y-146087619D02*
X142757381Y-146040000D01*
X142757381Y-146040000D02*
X142709762Y-145944761D01*
X142709762Y-145944761D02*
X142709762Y-145563809D01*
X142709762Y-145563809D02*
X142757381Y-145468571D01*
X142757381Y-145468571D02*
X142852619Y-145420952D01*
X142852619Y-145420952D02*
X143043095Y-145420952D01*
X143043095Y-145420952D02*
X143138333Y-145468571D01*
X143138333Y-145468571D02*
X143185952Y-145563809D01*
X143185952Y-145563809D02*
X143185952Y-145659047D01*
X143185952Y-145659047D02*
X142709762Y-145754285D01*
X143614524Y-145992380D02*
X143662143Y-146040000D01*
X143662143Y-146040000D02*
X143614524Y-146087619D01*
X143614524Y-146087619D02*
X143566905Y-146040000D01*
X143566905Y-146040000D02*
X143614524Y-145992380D01*
X143614524Y-145992380D02*
X143614524Y-146087619D01*
X143614524Y-145468571D02*
X143662143Y-145516190D01*
X143662143Y-145516190D02*
X143614524Y-145563809D01*
X143614524Y-145563809D02*
X143566905Y-145516190D01*
X143566905Y-145516190D02*
X143614524Y-145468571D01*
X143614524Y-145468571D02*
X143614524Y-145563809D01*
X145424047Y-145992380D02*
X145376428Y-146040000D01*
X145376428Y-146040000D02*
X145233571Y-146087619D01*
X145233571Y-146087619D02*
X145138333Y-146087619D01*
X145138333Y-146087619D02*
X144995476Y-146040000D01*
X144995476Y-146040000D02*
X144900238Y-145944761D01*
X144900238Y-145944761D02*
X144852619Y-145849523D01*
X144852619Y-145849523D02*
X144805000Y-145659047D01*
X144805000Y-145659047D02*
X144805000Y-145516190D01*
X144805000Y-145516190D02*
X144852619Y-145325714D01*
X144852619Y-145325714D02*
X144900238Y-145230476D01*
X144900238Y-145230476D02*
X144995476Y-145135238D01*
X144995476Y-145135238D02*
X145138333Y-145087619D01*
X145138333Y-145087619D02*
X145233571Y-145087619D01*
X145233571Y-145087619D02*
X145376428Y-145135238D01*
X145376428Y-145135238D02*
X145424047Y-145182857D01*
X145852619Y-146087619D02*
X145852619Y-145420952D01*
X145852619Y-145611428D02*
X145900238Y-145516190D01*
X145900238Y-145516190D02*
X145947857Y-145468571D01*
X145947857Y-145468571D02*
X146043095Y-145420952D01*
X146043095Y-145420952D02*
X146138333Y-145420952D01*
X146852619Y-146040000D02*
X146757381Y-146087619D01*
X146757381Y-146087619D02*
X146566905Y-146087619D01*
X146566905Y-146087619D02*
X146471667Y-146040000D01*
X146471667Y-146040000D02*
X146424048Y-145944761D01*
X146424048Y-145944761D02*
X146424048Y-145563809D01*
X146424048Y-145563809D02*
X146471667Y-145468571D01*
X146471667Y-145468571D02*
X146566905Y-145420952D01*
X146566905Y-145420952D02*
X146757381Y-145420952D01*
X146757381Y-145420952D02*
X146852619Y-145468571D01*
X146852619Y-145468571D02*
X146900238Y-145563809D01*
X146900238Y-145563809D02*
X146900238Y-145659047D01*
X146900238Y-145659047D02*
X146424048Y-145754285D01*
X147757381Y-146087619D02*
X147757381Y-145563809D01*
X147757381Y-145563809D02*
X147709762Y-145468571D01*
X147709762Y-145468571D02*
X147614524Y-145420952D01*
X147614524Y-145420952D02*
X147424048Y-145420952D01*
X147424048Y-145420952D02*
X147328810Y-145468571D01*
X147757381Y-146040000D02*
X147662143Y-146087619D01*
X147662143Y-146087619D02*
X147424048Y-146087619D01*
X147424048Y-146087619D02*
X147328810Y-146040000D01*
X147328810Y-146040000D02*
X147281191Y-145944761D01*
X147281191Y-145944761D02*
X147281191Y-145849523D01*
X147281191Y-145849523D02*
X147328810Y-145754285D01*
X147328810Y-145754285D02*
X147424048Y-145706666D01*
X147424048Y-145706666D02*
X147662143Y-145706666D01*
X147662143Y-145706666D02*
X147757381Y-145659047D01*
X148090715Y-145420952D02*
X148471667Y-145420952D01*
X148233572Y-145087619D02*
X148233572Y-145944761D01*
X148233572Y-145944761D02*
X148281191Y-146040000D01*
X148281191Y-146040000D02*
X148376429Y-146087619D01*
X148376429Y-146087619D02*
X148471667Y-146087619D01*
X148805001Y-146087619D02*
X148805001Y-145420952D01*
X148805001Y-145087619D02*
X148757382Y-145135238D01*
X148757382Y-145135238D02*
X148805001Y-145182857D01*
X148805001Y-145182857D02*
X148852620Y-145135238D01*
X148852620Y-145135238D02*
X148805001Y-145087619D01*
X148805001Y-145087619D02*
X148805001Y-145182857D01*
X149185953Y-145420952D02*
X149424048Y-146087619D01*
X149424048Y-146087619D02*
X149662143Y-145420952D01*
X150424048Y-146040000D02*
X150328810Y-146087619D01*
X150328810Y-146087619D02*
X150138334Y-146087619D01*
X150138334Y-146087619D02*
X150043096Y-146040000D01*
X150043096Y-146040000D02*
X149995477Y-145944761D01*
X149995477Y-145944761D02*
X149995477Y-145563809D01*
X149995477Y-145563809D02*
X150043096Y-145468571D01*
X150043096Y-145468571D02*
X150138334Y-145420952D01*
X150138334Y-145420952D02*
X150328810Y-145420952D01*
X150328810Y-145420952D02*
X150424048Y-145468571D01*
X150424048Y-145468571D02*
X150471667Y-145563809D01*
X150471667Y-145563809D02*
X150471667Y-145659047D01*
X150471667Y-145659047D02*
X149995477Y-145754285D01*
X152233572Y-145992380D02*
X152185953Y-146040000D01*
X152185953Y-146040000D02*
X152043096Y-146087619D01*
X152043096Y-146087619D02*
X151947858Y-146087619D01*
X151947858Y-146087619D02*
X151805001Y-146040000D01*
X151805001Y-146040000D02*
X151709763Y-145944761D01*
X151709763Y-145944761D02*
X151662144Y-145849523D01*
X151662144Y-145849523D02*
X151614525Y-145659047D01*
X151614525Y-145659047D02*
X151614525Y-145516190D01*
X151614525Y-145516190D02*
X151662144Y-145325714D01*
X151662144Y-145325714D02*
X151709763Y-145230476D01*
X151709763Y-145230476D02*
X151805001Y-145135238D01*
X151805001Y-145135238D02*
X151947858Y-145087619D01*
X151947858Y-145087619D02*
X152043096Y-145087619D01*
X152043096Y-145087619D02*
X152185953Y-145135238D01*
X152185953Y-145135238D02*
X152233572Y-145182857D01*
X152805001Y-146087619D02*
X152709763Y-146040000D01*
X152709763Y-146040000D02*
X152662144Y-145992380D01*
X152662144Y-145992380D02*
X152614525Y-145897142D01*
X152614525Y-145897142D02*
X152614525Y-145611428D01*
X152614525Y-145611428D02*
X152662144Y-145516190D01*
X152662144Y-145516190D02*
X152709763Y-145468571D01*
X152709763Y-145468571D02*
X152805001Y-145420952D01*
X152805001Y-145420952D02*
X152947858Y-145420952D01*
X152947858Y-145420952D02*
X153043096Y-145468571D01*
X153043096Y-145468571D02*
X153090715Y-145516190D01*
X153090715Y-145516190D02*
X153138334Y-145611428D01*
X153138334Y-145611428D02*
X153138334Y-145897142D01*
X153138334Y-145897142D02*
X153090715Y-145992380D01*
X153090715Y-145992380D02*
X153043096Y-146040000D01*
X153043096Y-146040000D02*
X152947858Y-146087619D01*
X152947858Y-146087619D02*
X152805001Y-146087619D01*
X153566906Y-146087619D02*
X153566906Y-145420952D01*
X153566906Y-145516190D02*
X153614525Y-145468571D01*
X153614525Y-145468571D02*
X153709763Y-145420952D01*
X153709763Y-145420952D02*
X153852620Y-145420952D01*
X153852620Y-145420952D02*
X153947858Y-145468571D01*
X153947858Y-145468571D02*
X153995477Y-145563809D01*
X153995477Y-145563809D02*
X153995477Y-146087619D01*
X153995477Y-145563809D02*
X154043096Y-145468571D01*
X154043096Y-145468571D02*
X154138334Y-145420952D01*
X154138334Y-145420952D02*
X154281191Y-145420952D01*
X154281191Y-145420952D02*
X154376430Y-145468571D01*
X154376430Y-145468571D02*
X154424049Y-145563809D01*
X154424049Y-145563809D02*
X154424049Y-146087619D01*
X154900239Y-146087619D02*
X154900239Y-145420952D01*
X154900239Y-145516190D02*
X154947858Y-145468571D01*
X154947858Y-145468571D02*
X155043096Y-145420952D01*
X155043096Y-145420952D02*
X155185953Y-145420952D01*
X155185953Y-145420952D02*
X155281191Y-145468571D01*
X155281191Y-145468571D02*
X155328810Y-145563809D01*
X155328810Y-145563809D02*
X155328810Y-146087619D01*
X155328810Y-145563809D02*
X155376429Y-145468571D01*
X155376429Y-145468571D02*
X155471667Y-145420952D01*
X155471667Y-145420952D02*
X155614524Y-145420952D01*
X155614524Y-145420952D02*
X155709763Y-145468571D01*
X155709763Y-145468571D02*
X155757382Y-145563809D01*
X155757382Y-145563809D02*
X155757382Y-146087619D01*
X156376429Y-146087619D02*
X156281191Y-146040000D01*
X156281191Y-146040000D02*
X156233572Y-145992380D01*
X156233572Y-145992380D02*
X156185953Y-145897142D01*
X156185953Y-145897142D02*
X156185953Y-145611428D01*
X156185953Y-145611428D02*
X156233572Y-145516190D01*
X156233572Y-145516190D02*
X156281191Y-145468571D01*
X156281191Y-145468571D02*
X156376429Y-145420952D01*
X156376429Y-145420952D02*
X156519286Y-145420952D01*
X156519286Y-145420952D02*
X156614524Y-145468571D01*
X156614524Y-145468571D02*
X156662143Y-145516190D01*
X156662143Y-145516190D02*
X156709762Y-145611428D01*
X156709762Y-145611428D02*
X156709762Y-145897142D01*
X156709762Y-145897142D02*
X156662143Y-145992380D01*
X156662143Y-145992380D02*
X156614524Y-146040000D01*
X156614524Y-146040000D02*
X156519286Y-146087619D01*
X156519286Y-146087619D02*
X156376429Y-146087619D01*
X157138334Y-145420952D02*
X157138334Y-146087619D01*
X157138334Y-145516190D02*
X157185953Y-145468571D01*
X157185953Y-145468571D02*
X157281191Y-145420952D01*
X157281191Y-145420952D02*
X157424048Y-145420952D01*
X157424048Y-145420952D02*
X157519286Y-145468571D01*
X157519286Y-145468571D02*
X157566905Y-145563809D01*
X157566905Y-145563809D02*
X157566905Y-146087619D01*
X157995477Y-146040000D02*
X158090715Y-146087619D01*
X158090715Y-146087619D02*
X158281191Y-146087619D01*
X158281191Y-146087619D02*
X158376429Y-146040000D01*
X158376429Y-146040000D02*
X158424048Y-145944761D01*
X158424048Y-145944761D02*
X158424048Y-145897142D01*
X158424048Y-145897142D02*
X158376429Y-145801904D01*
X158376429Y-145801904D02*
X158281191Y-145754285D01*
X158281191Y-145754285D02*
X158138334Y-145754285D01*
X158138334Y-145754285D02*
X158043096Y-145706666D01*
X158043096Y-145706666D02*
X157995477Y-145611428D01*
X157995477Y-145611428D02*
X157995477Y-145563809D01*
X157995477Y-145563809D02*
X158043096Y-145468571D01*
X158043096Y-145468571D02*
X158138334Y-145420952D01*
X158138334Y-145420952D02*
X158281191Y-145420952D01*
X158281191Y-145420952D02*
X158376429Y-145468571D01*
X159566906Y-145801904D02*
X160043096Y-145801904D01*
X159471668Y-146087619D02*
X159805001Y-145087619D01*
X159805001Y-145087619D02*
X160138334Y-146087619D01*
X160328811Y-145420952D02*
X160709763Y-145420952D01*
X160471668Y-145087619D02*
X160471668Y-145944761D01*
X160471668Y-145944761D02*
X160519287Y-146040000D01*
X160519287Y-146040000D02*
X160614525Y-146087619D01*
X160614525Y-146087619D02*
X160709763Y-146087619D01*
X160900240Y-145420952D02*
X161281192Y-145420952D01*
X161043097Y-145087619D02*
X161043097Y-145944761D01*
X161043097Y-145944761D02*
X161090716Y-146040000D01*
X161090716Y-146040000D02*
X161185954Y-146087619D01*
X161185954Y-146087619D02*
X161281192Y-146087619D01*
X161614526Y-146087619D02*
X161614526Y-145420952D01*
X161614526Y-145611428D02*
X161662145Y-145516190D01*
X161662145Y-145516190D02*
X161709764Y-145468571D01*
X161709764Y-145468571D02*
X161805002Y-145420952D01*
X161805002Y-145420952D02*
X161900240Y-145420952D01*
X162233574Y-146087619D02*
X162233574Y-145420952D01*
X162233574Y-145087619D02*
X162185955Y-145135238D01*
X162185955Y-145135238D02*
X162233574Y-145182857D01*
X162233574Y-145182857D02*
X162281193Y-145135238D01*
X162281193Y-145135238D02*
X162233574Y-145087619D01*
X162233574Y-145087619D02*
X162233574Y-145182857D01*
X162709764Y-146087619D02*
X162709764Y-145087619D01*
X162709764Y-145468571D02*
X162805002Y-145420952D01*
X162805002Y-145420952D02*
X162995478Y-145420952D01*
X162995478Y-145420952D02*
X163090716Y-145468571D01*
X163090716Y-145468571D02*
X163138335Y-145516190D01*
X163138335Y-145516190D02*
X163185954Y-145611428D01*
X163185954Y-145611428D02*
X163185954Y-145897142D01*
X163185954Y-145897142D02*
X163138335Y-145992380D01*
X163138335Y-145992380D02*
X163090716Y-146040000D01*
X163090716Y-146040000D02*
X162995478Y-146087619D01*
X162995478Y-146087619D02*
X162805002Y-146087619D01*
X162805002Y-146087619D02*
X162709764Y-146040000D01*
X164043097Y-145420952D02*
X164043097Y-146087619D01*
X163614526Y-145420952D02*
X163614526Y-145944761D01*
X163614526Y-145944761D02*
X163662145Y-146040000D01*
X163662145Y-146040000D02*
X163757383Y-146087619D01*
X163757383Y-146087619D02*
X163900240Y-146087619D01*
X163900240Y-146087619D02*
X163995478Y-146040000D01*
X163995478Y-146040000D02*
X164043097Y-145992380D01*
X164376431Y-145420952D02*
X164757383Y-145420952D01*
X164519288Y-145087619D02*
X164519288Y-145944761D01*
X164519288Y-145944761D02*
X164566907Y-146040000D01*
X164566907Y-146040000D02*
X164662145Y-146087619D01*
X164662145Y-146087619D02*
X164757383Y-146087619D01*
X165090717Y-146087619D02*
X165090717Y-145420952D01*
X165090717Y-145087619D02*
X165043098Y-145135238D01*
X165043098Y-145135238D02*
X165090717Y-145182857D01*
X165090717Y-145182857D02*
X165138336Y-145135238D01*
X165138336Y-145135238D02*
X165090717Y-145087619D01*
X165090717Y-145087619D02*
X165090717Y-145182857D01*
X165709764Y-146087619D02*
X165614526Y-146040000D01*
X165614526Y-146040000D02*
X165566907Y-145992380D01*
X165566907Y-145992380D02*
X165519288Y-145897142D01*
X165519288Y-145897142D02*
X165519288Y-145611428D01*
X165519288Y-145611428D02*
X165566907Y-145516190D01*
X165566907Y-145516190D02*
X165614526Y-145468571D01*
X165614526Y-145468571D02*
X165709764Y-145420952D01*
X165709764Y-145420952D02*
X165852621Y-145420952D01*
X165852621Y-145420952D02*
X165947859Y-145468571D01*
X165947859Y-145468571D02*
X165995478Y-145516190D01*
X165995478Y-145516190D02*
X166043097Y-145611428D01*
X166043097Y-145611428D02*
X166043097Y-145897142D01*
X166043097Y-145897142D02*
X165995478Y-145992380D01*
X165995478Y-145992380D02*
X165947859Y-146040000D01*
X165947859Y-146040000D02*
X165852621Y-146087619D01*
X165852621Y-146087619D02*
X165709764Y-146087619D01*
X166471669Y-145420952D02*
X166471669Y-146087619D01*
X166471669Y-145516190D02*
X166519288Y-145468571D01*
X166519288Y-145468571D02*
X166614526Y-145420952D01*
X166614526Y-145420952D02*
X166757383Y-145420952D01*
X166757383Y-145420952D02*
X166852621Y-145468571D01*
X166852621Y-145468571D02*
X166900240Y-145563809D01*
X166900240Y-145563809D02*
X166900240Y-146087619D01*
X167376431Y-145706666D02*
X168138336Y-145706666D01*
X168566907Y-146040000D02*
X168709764Y-146087619D01*
X168709764Y-146087619D02*
X168947859Y-146087619D01*
X168947859Y-146087619D02*
X169043097Y-146040000D01*
X169043097Y-146040000D02*
X169090716Y-145992380D01*
X169090716Y-145992380D02*
X169138335Y-145897142D01*
X169138335Y-145897142D02*
X169138335Y-145801904D01*
X169138335Y-145801904D02*
X169090716Y-145706666D01*
X169090716Y-145706666D02*
X169043097Y-145659047D01*
X169043097Y-145659047D02*
X168947859Y-145611428D01*
X168947859Y-145611428D02*
X168757383Y-145563809D01*
X168757383Y-145563809D02*
X168662145Y-145516190D01*
X168662145Y-145516190D02*
X168614526Y-145468571D01*
X168614526Y-145468571D02*
X168566907Y-145373333D01*
X168566907Y-145373333D02*
X168566907Y-145278095D01*
X168566907Y-145278095D02*
X168614526Y-145182857D01*
X168614526Y-145182857D02*
X168662145Y-145135238D01*
X168662145Y-145135238D02*
X168757383Y-145087619D01*
X168757383Y-145087619D02*
X168995478Y-145087619D01*
X168995478Y-145087619D02*
X169138335Y-145135238D01*
X169566907Y-146087619D02*
X169566907Y-145087619D01*
X169995478Y-146087619D02*
X169995478Y-145563809D01*
X169995478Y-145563809D02*
X169947859Y-145468571D01*
X169947859Y-145468571D02*
X169852621Y-145420952D01*
X169852621Y-145420952D02*
X169709764Y-145420952D01*
X169709764Y-145420952D02*
X169614526Y-145468571D01*
X169614526Y-145468571D02*
X169566907Y-145516190D01*
X170900240Y-146087619D02*
X170900240Y-145563809D01*
X170900240Y-145563809D02*
X170852621Y-145468571D01*
X170852621Y-145468571D02*
X170757383Y-145420952D01*
X170757383Y-145420952D02*
X170566907Y-145420952D01*
X170566907Y-145420952D02*
X170471669Y-145468571D01*
X170900240Y-146040000D02*
X170805002Y-146087619D01*
X170805002Y-146087619D02*
X170566907Y-146087619D01*
X170566907Y-146087619D02*
X170471669Y-146040000D01*
X170471669Y-146040000D02*
X170424050Y-145944761D01*
X170424050Y-145944761D02*
X170424050Y-145849523D01*
X170424050Y-145849523D02*
X170471669Y-145754285D01*
X170471669Y-145754285D02*
X170566907Y-145706666D01*
X170566907Y-145706666D02*
X170805002Y-145706666D01*
X170805002Y-145706666D02*
X170900240Y-145659047D01*
X171376431Y-146087619D02*
X171376431Y-145420952D01*
X171376431Y-145611428D02*
X171424050Y-145516190D01*
X171424050Y-145516190D02*
X171471669Y-145468571D01*
X171471669Y-145468571D02*
X171566907Y-145420952D01*
X171566907Y-145420952D02*
X171662145Y-145420952D01*
X172376431Y-146040000D02*
X172281193Y-146087619D01*
X172281193Y-146087619D02*
X172090717Y-146087619D01*
X172090717Y-146087619D02*
X171995479Y-146040000D01*
X171995479Y-146040000D02*
X171947860Y-145944761D01*
X171947860Y-145944761D02*
X171947860Y-145563809D01*
X171947860Y-145563809D02*
X171995479Y-145468571D01*
X171995479Y-145468571D02*
X172090717Y-145420952D01*
X172090717Y-145420952D02*
X172281193Y-145420952D01*
X172281193Y-145420952D02*
X172376431Y-145468571D01*
X172376431Y-145468571D02*
X172424050Y-145563809D01*
X172424050Y-145563809D02*
X172424050Y-145659047D01*
X172424050Y-145659047D02*
X171947860Y-145754285D01*
X172805003Y-145801904D02*
X173281193Y-145801904D01*
X172709765Y-146087619D02*
X173043098Y-145087619D01*
X173043098Y-145087619D02*
X173376431Y-146087619D01*
X173852622Y-146087619D02*
X173757384Y-146040000D01*
X173757384Y-146040000D02*
X173709765Y-145944761D01*
X173709765Y-145944761D02*
X173709765Y-145087619D01*
X174233575Y-146087619D02*
X174233575Y-145420952D01*
X174233575Y-145087619D02*
X174185956Y-145135238D01*
X174185956Y-145135238D02*
X174233575Y-145182857D01*
X174233575Y-145182857D02*
X174281194Y-145135238D01*
X174281194Y-145135238D02*
X174233575Y-145087619D01*
X174233575Y-145087619D02*
X174233575Y-145182857D01*
X174709765Y-146087619D02*
X174709765Y-145087619D01*
X174805003Y-145706666D02*
X175090717Y-146087619D01*
X175090717Y-145420952D02*
X174709765Y-145801904D01*
X175900241Y-146040000D02*
X175805003Y-146087619D01*
X175805003Y-146087619D02*
X175614527Y-146087619D01*
X175614527Y-146087619D02*
X175519289Y-146040000D01*
X175519289Y-146040000D02*
X175471670Y-145944761D01*
X175471670Y-145944761D02*
X175471670Y-145563809D01*
X175471670Y-145563809D02*
X175519289Y-145468571D01*
X175519289Y-145468571D02*
X175614527Y-145420952D01*
X175614527Y-145420952D02*
X175805003Y-145420952D01*
X175805003Y-145420952D02*
X175900241Y-145468571D01*
X175900241Y-145468571D02*
X175947860Y-145563809D01*
X175947860Y-145563809D02*
X175947860Y-145659047D01*
X175947860Y-145659047D02*
X175471670Y-145754285D01*
X177566908Y-145420952D02*
X177566908Y-146087619D01*
X177328813Y-145040000D02*
X177090718Y-145754285D01*
X177090718Y-145754285D02*
X177709765Y-145754285D01*
X178090718Y-145992380D02*
X178138337Y-146040000D01*
X178138337Y-146040000D02*
X178090718Y-146087619D01*
X178090718Y-146087619D02*
X178043099Y-146040000D01*
X178043099Y-146040000D02*
X178090718Y-145992380D01*
X178090718Y-145992380D02*
X178090718Y-146087619D01*
X178757384Y-145087619D02*
X178852622Y-145087619D01*
X178852622Y-145087619D02*
X178947860Y-145135238D01*
X178947860Y-145135238D02*
X178995479Y-145182857D01*
X178995479Y-145182857D02*
X179043098Y-145278095D01*
X179043098Y-145278095D02*
X179090717Y-145468571D01*
X179090717Y-145468571D02*
X179090717Y-145706666D01*
X179090717Y-145706666D02*
X179043098Y-145897142D01*
X179043098Y-145897142D02*
X178995479Y-145992380D01*
X178995479Y-145992380D02*
X178947860Y-146040000D01*
X178947860Y-146040000D02*
X178852622Y-146087619D01*
X178852622Y-146087619D02*
X178757384Y-146087619D01*
X178757384Y-146087619D02*
X178662146Y-146040000D01*
X178662146Y-146040000D02*
X178614527Y-145992380D01*
X178614527Y-145992380D02*
X178566908Y-145897142D01*
X178566908Y-145897142D02*
X178519289Y-145706666D01*
X178519289Y-145706666D02*
X178519289Y-145468571D01*
X178519289Y-145468571D02*
X178566908Y-145278095D01*
X178566908Y-145278095D02*
X178614527Y-145182857D01*
X178614527Y-145182857D02*
X178662146Y-145135238D01*
X178662146Y-145135238D02*
X178757384Y-145087619D01*
X138043095Y-147707619D02*
X138043095Y-146707619D01*
X138471666Y-147707619D02*
X138471666Y-147183809D01*
X138471666Y-147183809D02*
X138424047Y-147088571D01*
X138424047Y-147088571D02*
X138328809Y-147040952D01*
X138328809Y-147040952D02*
X138185952Y-147040952D01*
X138185952Y-147040952D02*
X138090714Y-147088571D01*
X138090714Y-147088571D02*
X138043095Y-147136190D01*
X138805000Y-147040952D02*
X139185952Y-147040952D01*
X138947857Y-146707619D02*
X138947857Y-147564761D01*
X138947857Y-147564761D02*
X138995476Y-147660000D01*
X138995476Y-147660000D02*
X139090714Y-147707619D01*
X139090714Y-147707619D02*
X139185952Y-147707619D01*
X139376429Y-147040952D02*
X139757381Y-147040952D01*
X139519286Y-146707619D02*
X139519286Y-147564761D01*
X139519286Y-147564761D02*
X139566905Y-147660000D01*
X139566905Y-147660000D02*
X139662143Y-147707619D01*
X139662143Y-147707619D02*
X139757381Y-147707619D01*
X140090715Y-147040952D02*
X140090715Y-148040952D01*
X140090715Y-147088571D02*
X140185953Y-147040952D01*
X140185953Y-147040952D02*
X140376429Y-147040952D01*
X140376429Y-147040952D02*
X140471667Y-147088571D01*
X140471667Y-147088571D02*
X140519286Y-147136190D01*
X140519286Y-147136190D02*
X140566905Y-147231428D01*
X140566905Y-147231428D02*
X140566905Y-147517142D01*
X140566905Y-147517142D02*
X140519286Y-147612380D01*
X140519286Y-147612380D02*
X140471667Y-147660000D01*
X140471667Y-147660000D02*
X140376429Y-147707619D01*
X140376429Y-147707619D02*
X140185953Y-147707619D01*
X140185953Y-147707619D02*
X140090715Y-147660000D01*
X140947858Y-147660000D02*
X141043096Y-147707619D01*
X141043096Y-147707619D02*
X141233572Y-147707619D01*
X141233572Y-147707619D02*
X141328810Y-147660000D01*
X141328810Y-147660000D02*
X141376429Y-147564761D01*
X141376429Y-147564761D02*
X141376429Y-147517142D01*
X141376429Y-147517142D02*
X141328810Y-147421904D01*
X141328810Y-147421904D02*
X141233572Y-147374285D01*
X141233572Y-147374285D02*
X141090715Y-147374285D01*
X141090715Y-147374285D02*
X140995477Y-147326666D01*
X140995477Y-147326666D02*
X140947858Y-147231428D01*
X140947858Y-147231428D02*
X140947858Y-147183809D01*
X140947858Y-147183809D02*
X140995477Y-147088571D01*
X140995477Y-147088571D02*
X141090715Y-147040952D01*
X141090715Y-147040952D02*
X141233572Y-147040952D01*
X141233572Y-147040952D02*
X141328810Y-147088571D01*
X141805001Y-147612380D02*
X141852620Y-147660000D01*
X141852620Y-147660000D02*
X141805001Y-147707619D01*
X141805001Y-147707619D02*
X141757382Y-147660000D01*
X141757382Y-147660000D02*
X141805001Y-147612380D01*
X141805001Y-147612380D02*
X141805001Y-147707619D01*
X141805001Y-147088571D02*
X141852620Y-147136190D01*
X141852620Y-147136190D02*
X141805001Y-147183809D01*
X141805001Y-147183809D02*
X141757382Y-147136190D01*
X141757382Y-147136190D02*
X141805001Y-147088571D01*
X141805001Y-147088571D02*
X141805001Y-147183809D01*
X142995476Y-146660000D02*
X142138334Y-147945714D01*
X144043095Y-146660000D02*
X143185953Y-147945714D01*
X144805000Y-147040952D02*
X144805000Y-147850476D01*
X144805000Y-147850476D02*
X144757381Y-147945714D01*
X144757381Y-147945714D02*
X144709762Y-147993333D01*
X144709762Y-147993333D02*
X144614524Y-148040952D01*
X144614524Y-148040952D02*
X144471667Y-148040952D01*
X144471667Y-148040952D02*
X144376429Y-147993333D01*
X144805000Y-147660000D02*
X144709762Y-147707619D01*
X144709762Y-147707619D02*
X144519286Y-147707619D01*
X144519286Y-147707619D02*
X144424048Y-147660000D01*
X144424048Y-147660000D02*
X144376429Y-147612380D01*
X144376429Y-147612380D02*
X144328810Y-147517142D01*
X144328810Y-147517142D02*
X144328810Y-147231428D01*
X144328810Y-147231428D02*
X144376429Y-147136190D01*
X144376429Y-147136190D02*
X144424048Y-147088571D01*
X144424048Y-147088571D02*
X144519286Y-147040952D01*
X144519286Y-147040952D02*
X144709762Y-147040952D01*
X144709762Y-147040952D02*
X144805000Y-147088571D01*
X145281191Y-147707619D02*
X145281191Y-147040952D01*
X145281191Y-146707619D02*
X145233572Y-146755238D01*
X145233572Y-146755238D02*
X145281191Y-146802857D01*
X145281191Y-146802857D02*
X145328810Y-146755238D01*
X145328810Y-146755238D02*
X145281191Y-146707619D01*
X145281191Y-146707619D02*
X145281191Y-146802857D01*
X145614524Y-147040952D02*
X145995476Y-147040952D01*
X145757381Y-146707619D02*
X145757381Y-147564761D01*
X145757381Y-147564761D02*
X145805000Y-147660000D01*
X145805000Y-147660000D02*
X145900238Y-147707619D01*
X145900238Y-147707619D02*
X145995476Y-147707619D01*
X146328810Y-147707619D02*
X146328810Y-146707619D01*
X146757381Y-147707619D02*
X146757381Y-147183809D01*
X146757381Y-147183809D02*
X146709762Y-147088571D01*
X146709762Y-147088571D02*
X146614524Y-147040952D01*
X146614524Y-147040952D02*
X146471667Y-147040952D01*
X146471667Y-147040952D02*
X146376429Y-147088571D01*
X146376429Y-147088571D02*
X146328810Y-147136190D01*
X147662143Y-147040952D02*
X147662143Y-147707619D01*
X147233572Y-147040952D02*
X147233572Y-147564761D01*
X147233572Y-147564761D02*
X147281191Y-147660000D01*
X147281191Y-147660000D02*
X147376429Y-147707619D01*
X147376429Y-147707619D02*
X147519286Y-147707619D01*
X147519286Y-147707619D02*
X147614524Y-147660000D01*
X147614524Y-147660000D02*
X147662143Y-147612380D01*
X148138334Y-147707619D02*
X148138334Y-146707619D01*
X148138334Y-147088571D02*
X148233572Y-147040952D01*
X148233572Y-147040952D02*
X148424048Y-147040952D01*
X148424048Y-147040952D02*
X148519286Y-147088571D01*
X148519286Y-147088571D02*
X148566905Y-147136190D01*
X148566905Y-147136190D02*
X148614524Y-147231428D01*
X148614524Y-147231428D02*
X148614524Y-147517142D01*
X148614524Y-147517142D02*
X148566905Y-147612380D01*
X148566905Y-147612380D02*
X148519286Y-147660000D01*
X148519286Y-147660000D02*
X148424048Y-147707619D01*
X148424048Y-147707619D02*
X148233572Y-147707619D01*
X148233572Y-147707619D02*
X148138334Y-147660000D01*
X149043096Y-147612380D02*
X149090715Y-147660000D01*
X149090715Y-147660000D02*
X149043096Y-147707619D01*
X149043096Y-147707619D02*
X148995477Y-147660000D01*
X148995477Y-147660000D02*
X149043096Y-147612380D01*
X149043096Y-147612380D02*
X149043096Y-147707619D01*
X149947857Y-147660000D02*
X149852619Y-147707619D01*
X149852619Y-147707619D02*
X149662143Y-147707619D01*
X149662143Y-147707619D02*
X149566905Y-147660000D01*
X149566905Y-147660000D02*
X149519286Y-147612380D01*
X149519286Y-147612380D02*
X149471667Y-147517142D01*
X149471667Y-147517142D02*
X149471667Y-147231428D01*
X149471667Y-147231428D02*
X149519286Y-147136190D01*
X149519286Y-147136190D02*
X149566905Y-147088571D01*
X149566905Y-147088571D02*
X149662143Y-147040952D01*
X149662143Y-147040952D02*
X149852619Y-147040952D01*
X149852619Y-147040952D02*
X149947857Y-147088571D01*
X150519286Y-147707619D02*
X150424048Y-147660000D01*
X150424048Y-147660000D02*
X150376429Y-147612380D01*
X150376429Y-147612380D02*
X150328810Y-147517142D01*
X150328810Y-147517142D02*
X150328810Y-147231428D01*
X150328810Y-147231428D02*
X150376429Y-147136190D01*
X150376429Y-147136190D02*
X150424048Y-147088571D01*
X150424048Y-147088571D02*
X150519286Y-147040952D01*
X150519286Y-147040952D02*
X150662143Y-147040952D01*
X150662143Y-147040952D02*
X150757381Y-147088571D01*
X150757381Y-147088571D02*
X150805000Y-147136190D01*
X150805000Y-147136190D02*
X150852619Y-147231428D01*
X150852619Y-147231428D02*
X150852619Y-147517142D01*
X150852619Y-147517142D02*
X150805000Y-147612380D01*
X150805000Y-147612380D02*
X150757381Y-147660000D01*
X150757381Y-147660000D02*
X150662143Y-147707619D01*
X150662143Y-147707619D02*
X150519286Y-147707619D01*
X151281191Y-147707619D02*
X151281191Y-147040952D01*
X151281191Y-147136190D02*
X151328810Y-147088571D01*
X151328810Y-147088571D02*
X151424048Y-147040952D01*
X151424048Y-147040952D02*
X151566905Y-147040952D01*
X151566905Y-147040952D02*
X151662143Y-147088571D01*
X151662143Y-147088571D02*
X151709762Y-147183809D01*
X151709762Y-147183809D02*
X151709762Y-147707619D01*
X151709762Y-147183809D02*
X151757381Y-147088571D01*
X151757381Y-147088571D02*
X151852619Y-147040952D01*
X151852619Y-147040952D02*
X151995476Y-147040952D01*
X151995476Y-147040952D02*
X152090715Y-147088571D01*
X152090715Y-147088571D02*
X152138334Y-147183809D01*
X152138334Y-147183809D02*
X152138334Y-147707619D01*
X153328809Y-146660000D02*
X152471667Y-147945714D01*
X154138333Y-147707619D02*
X153662143Y-147707619D01*
X153662143Y-147707619D02*
X153662143Y-146707619D01*
X154614524Y-147707619D02*
X154519286Y-147660000D01*
X154519286Y-147660000D02*
X154471667Y-147564761D01*
X154471667Y-147564761D02*
X154471667Y-146707619D01*
X155424048Y-147707619D02*
X155424048Y-147183809D01*
X155424048Y-147183809D02*
X155376429Y-147088571D01*
X155376429Y-147088571D02*
X155281191Y-147040952D01*
X155281191Y-147040952D02*
X155090715Y-147040952D01*
X155090715Y-147040952D02*
X154995477Y-147088571D01*
X155424048Y-147660000D02*
X155328810Y-147707619D01*
X155328810Y-147707619D02*
X155090715Y-147707619D01*
X155090715Y-147707619D02*
X154995477Y-147660000D01*
X154995477Y-147660000D02*
X154947858Y-147564761D01*
X154947858Y-147564761D02*
X154947858Y-147469523D01*
X154947858Y-147469523D02*
X154995477Y-147374285D01*
X154995477Y-147374285D02*
X155090715Y-147326666D01*
X155090715Y-147326666D02*
X155328810Y-147326666D01*
X155328810Y-147326666D02*
X155424048Y-147279047D01*
X155900239Y-147707619D02*
X155900239Y-147040952D01*
X155900239Y-147136190D02*
X155947858Y-147088571D01*
X155947858Y-147088571D02*
X156043096Y-147040952D01*
X156043096Y-147040952D02*
X156185953Y-147040952D01*
X156185953Y-147040952D02*
X156281191Y-147088571D01*
X156281191Y-147088571D02*
X156328810Y-147183809D01*
X156328810Y-147183809D02*
X156328810Y-147707619D01*
X156328810Y-147183809D02*
X156376429Y-147088571D01*
X156376429Y-147088571D02*
X156471667Y-147040952D01*
X156471667Y-147040952D02*
X156614524Y-147040952D01*
X156614524Y-147040952D02*
X156709763Y-147088571D01*
X156709763Y-147088571D02*
X156757382Y-147183809D01*
X156757382Y-147183809D02*
X156757382Y-147707619D01*
X157614524Y-147660000D02*
X157519286Y-147707619D01*
X157519286Y-147707619D02*
X157328810Y-147707619D01*
X157328810Y-147707619D02*
X157233572Y-147660000D01*
X157233572Y-147660000D02*
X157185953Y-147564761D01*
X157185953Y-147564761D02*
X157185953Y-147183809D01*
X157185953Y-147183809D02*
X157233572Y-147088571D01*
X157233572Y-147088571D02*
X157328810Y-147040952D01*
X157328810Y-147040952D02*
X157519286Y-147040952D01*
X157519286Y-147040952D02*
X157614524Y-147088571D01*
X157614524Y-147088571D02*
X157662143Y-147183809D01*
X157662143Y-147183809D02*
X157662143Y-147279047D01*
X157662143Y-147279047D02*
X157185953Y-147374285D01*
X158090715Y-147707619D02*
X158090715Y-147040952D01*
X158090715Y-147231428D02*
X158138334Y-147136190D01*
X158138334Y-147136190D02*
X158185953Y-147088571D01*
X158185953Y-147088571D02*
X158281191Y-147040952D01*
X158281191Y-147040952D02*
X158376429Y-147040952D01*
X158852620Y-147707619D02*
X158757382Y-147660000D01*
X158757382Y-147660000D02*
X158709763Y-147612380D01*
X158709763Y-147612380D02*
X158662144Y-147517142D01*
X158662144Y-147517142D02*
X158662144Y-147231428D01*
X158662144Y-147231428D02*
X158709763Y-147136190D01*
X158709763Y-147136190D02*
X158757382Y-147088571D01*
X158757382Y-147088571D02*
X158852620Y-147040952D01*
X158852620Y-147040952D02*
X158995477Y-147040952D01*
X158995477Y-147040952D02*
X159090715Y-147088571D01*
X159090715Y-147088571D02*
X159138334Y-147136190D01*
X159138334Y-147136190D02*
X159185953Y-147231428D01*
X159185953Y-147231428D02*
X159185953Y-147517142D01*
X159185953Y-147517142D02*
X159138334Y-147612380D01*
X159138334Y-147612380D02*
X159090715Y-147660000D01*
X159090715Y-147660000D02*
X158995477Y-147707619D01*
X158995477Y-147707619D02*
X158852620Y-147707619D01*
X160328810Y-146660000D02*
X159471668Y-147945714D01*
X160662144Y-147707619D02*
X160662144Y-146707619D01*
X160662144Y-146707619D02*
X160900239Y-146707619D01*
X160900239Y-146707619D02*
X161043096Y-146755238D01*
X161043096Y-146755238D02*
X161138334Y-146850476D01*
X161138334Y-146850476D02*
X161185953Y-146945714D01*
X161185953Y-146945714D02*
X161233572Y-147136190D01*
X161233572Y-147136190D02*
X161233572Y-147279047D01*
X161233572Y-147279047D02*
X161185953Y-147469523D01*
X161185953Y-147469523D02*
X161138334Y-147564761D01*
X161138334Y-147564761D02*
X161043096Y-147660000D01*
X161043096Y-147660000D02*
X160900239Y-147707619D01*
X160900239Y-147707619D02*
X160662144Y-147707619D01*
X162090715Y-147040952D02*
X162090715Y-147707619D01*
X161662144Y-147040952D02*
X161662144Y-147564761D01*
X161662144Y-147564761D02*
X161709763Y-147660000D01*
X161709763Y-147660000D02*
X161805001Y-147707619D01*
X161805001Y-147707619D02*
X161947858Y-147707619D01*
X161947858Y-147707619D02*
X162043096Y-147660000D01*
X162043096Y-147660000D02*
X162090715Y-147612380D01*
X162995477Y-147707619D02*
X162995477Y-147183809D01*
X162995477Y-147183809D02*
X162947858Y-147088571D01*
X162947858Y-147088571D02*
X162852620Y-147040952D01*
X162852620Y-147040952D02*
X162662144Y-147040952D01*
X162662144Y-147040952D02*
X162566906Y-147088571D01*
X162995477Y-147660000D02*
X162900239Y-147707619D01*
X162900239Y-147707619D02*
X162662144Y-147707619D01*
X162662144Y-147707619D02*
X162566906Y-147660000D01*
X162566906Y-147660000D02*
X162519287Y-147564761D01*
X162519287Y-147564761D02*
X162519287Y-147469523D01*
X162519287Y-147469523D02*
X162566906Y-147374285D01*
X162566906Y-147374285D02*
X162662144Y-147326666D01*
X162662144Y-147326666D02*
X162900239Y-147326666D01*
X162900239Y-147326666D02*
X162995477Y-147279047D01*
X163614525Y-147707619D02*
X163519287Y-147660000D01*
X163519287Y-147660000D02*
X163471668Y-147564761D01*
X163471668Y-147564761D02*
X163471668Y-146707619D01*
X163757383Y-147802857D02*
X164519287Y-147802857D01*
X165138335Y-147660000D02*
X165043097Y-147707619D01*
X165043097Y-147707619D02*
X164852621Y-147707619D01*
X164852621Y-147707619D02*
X164757383Y-147660000D01*
X164757383Y-147660000D02*
X164709764Y-147564761D01*
X164709764Y-147564761D02*
X164709764Y-147183809D01*
X164709764Y-147183809D02*
X164757383Y-147088571D01*
X164757383Y-147088571D02*
X164852621Y-147040952D01*
X164852621Y-147040952D02*
X165043097Y-147040952D01*
X165043097Y-147040952D02*
X165138335Y-147088571D01*
X165138335Y-147088571D02*
X165185954Y-147183809D01*
X165185954Y-147183809D02*
X165185954Y-147279047D01*
X165185954Y-147279047D02*
X164709764Y-147374285D01*
X165614526Y-147040952D02*
X165614526Y-147707619D01*
X165614526Y-147136190D02*
X165662145Y-147088571D01*
X165662145Y-147088571D02*
X165757383Y-147040952D01*
X165757383Y-147040952D02*
X165900240Y-147040952D01*
X165900240Y-147040952D02*
X165995478Y-147088571D01*
X165995478Y-147088571D02*
X166043097Y-147183809D01*
X166043097Y-147183809D02*
X166043097Y-147707619D01*
X166947859Y-147660000D02*
X166852621Y-147707619D01*
X166852621Y-147707619D02*
X166662145Y-147707619D01*
X166662145Y-147707619D02*
X166566907Y-147660000D01*
X166566907Y-147660000D02*
X166519288Y-147612380D01*
X166519288Y-147612380D02*
X166471669Y-147517142D01*
X166471669Y-147517142D02*
X166471669Y-147231428D01*
X166471669Y-147231428D02*
X166519288Y-147136190D01*
X166519288Y-147136190D02*
X166566907Y-147088571D01*
X166566907Y-147088571D02*
X166662145Y-147040952D01*
X166662145Y-147040952D02*
X166852621Y-147040952D01*
X166852621Y-147040952D02*
X166947859Y-147088571D01*
X167519288Y-147707619D02*
X167424050Y-147660000D01*
X167424050Y-147660000D02*
X167376431Y-147612380D01*
X167376431Y-147612380D02*
X167328812Y-147517142D01*
X167328812Y-147517142D02*
X167328812Y-147231428D01*
X167328812Y-147231428D02*
X167376431Y-147136190D01*
X167376431Y-147136190D02*
X167424050Y-147088571D01*
X167424050Y-147088571D02*
X167519288Y-147040952D01*
X167519288Y-147040952D02*
X167662145Y-147040952D01*
X167662145Y-147040952D02*
X167757383Y-147088571D01*
X167757383Y-147088571D02*
X167805002Y-147136190D01*
X167805002Y-147136190D02*
X167852621Y-147231428D01*
X167852621Y-147231428D02*
X167852621Y-147517142D01*
X167852621Y-147517142D02*
X167805002Y-147612380D01*
X167805002Y-147612380D02*
X167757383Y-147660000D01*
X167757383Y-147660000D02*
X167662145Y-147707619D01*
X167662145Y-147707619D02*
X167519288Y-147707619D01*
X168709764Y-147707619D02*
X168709764Y-146707619D01*
X168709764Y-147660000D02*
X168614526Y-147707619D01*
X168614526Y-147707619D02*
X168424050Y-147707619D01*
X168424050Y-147707619D02*
X168328812Y-147660000D01*
X168328812Y-147660000D02*
X168281193Y-147612380D01*
X168281193Y-147612380D02*
X168233574Y-147517142D01*
X168233574Y-147517142D02*
X168233574Y-147231428D01*
X168233574Y-147231428D02*
X168281193Y-147136190D01*
X168281193Y-147136190D02*
X168328812Y-147088571D01*
X168328812Y-147088571D02*
X168424050Y-147040952D01*
X168424050Y-147040952D02*
X168614526Y-147040952D01*
X168614526Y-147040952D02*
X168709764Y-147088571D01*
X169566907Y-147660000D02*
X169471669Y-147707619D01*
X169471669Y-147707619D02*
X169281193Y-147707619D01*
X169281193Y-147707619D02*
X169185955Y-147660000D01*
X169185955Y-147660000D02*
X169138336Y-147564761D01*
X169138336Y-147564761D02*
X169138336Y-147183809D01*
X169138336Y-147183809D02*
X169185955Y-147088571D01*
X169185955Y-147088571D02*
X169281193Y-147040952D01*
X169281193Y-147040952D02*
X169471669Y-147040952D01*
X169471669Y-147040952D02*
X169566907Y-147088571D01*
X169566907Y-147088571D02*
X169614526Y-147183809D01*
X169614526Y-147183809D02*
X169614526Y-147279047D01*
X169614526Y-147279047D02*
X169138336Y-147374285D01*
X170043098Y-147707619D02*
X170043098Y-147040952D01*
X170043098Y-147231428D02*
X170090717Y-147136190D01*
X170090717Y-147136190D02*
X170138336Y-147088571D01*
X170138336Y-147088571D02*
X170233574Y-147040952D01*
X170233574Y-147040952D02*
X170328812Y-147040952D01*
X170424051Y-147802857D02*
X171185955Y-147802857D01*
X171852622Y-147660000D02*
X171757384Y-147707619D01*
X171757384Y-147707619D02*
X171566908Y-147707619D01*
X171566908Y-147707619D02*
X171471670Y-147660000D01*
X171471670Y-147660000D02*
X171424051Y-147612380D01*
X171424051Y-147612380D02*
X171376432Y-147517142D01*
X171376432Y-147517142D02*
X171376432Y-147231428D01*
X171376432Y-147231428D02*
X171424051Y-147136190D01*
X171424051Y-147136190D02*
X171471670Y-147088571D01*
X171471670Y-147088571D02*
X171566908Y-147040952D01*
X171566908Y-147040952D02*
X171757384Y-147040952D01*
X171757384Y-147040952D02*
X171852622Y-147088571D01*
X172424051Y-147707619D02*
X172328813Y-147660000D01*
X172328813Y-147660000D02*
X172281194Y-147612380D01*
X172281194Y-147612380D02*
X172233575Y-147517142D01*
X172233575Y-147517142D02*
X172233575Y-147231428D01*
X172233575Y-147231428D02*
X172281194Y-147136190D01*
X172281194Y-147136190D02*
X172328813Y-147088571D01*
X172328813Y-147088571D02*
X172424051Y-147040952D01*
X172424051Y-147040952D02*
X172566908Y-147040952D01*
X172566908Y-147040952D02*
X172662146Y-147088571D01*
X172662146Y-147088571D02*
X172709765Y-147136190D01*
X172709765Y-147136190D02*
X172757384Y-147231428D01*
X172757384Y-147231428D02*
X172757384Y-147517142D01*
X172757384Y-147517142D02*
X172709765Y-147612380D01*
X172709765Y-147612380D02*
X172662146Y-147660000D01*
X172662146Y-147660000D02*
X172566908Y-147707619D01*
X172566908Y-147707619D02*
X172424051Y-147707619D01*
X173185956Y-147040952D02*
X173185956Y-147707619D01*
X173185956Y-147136190D02*
X173233575Y-147088571D01*
X173233575Y-147088571D02*
X173328813Y-147040952D01*
X173328813Y-147040952D02*
X173471670Y-147040952D01*
X173471670Y-147040952D02*
X173566908Y-147088571D01*
X173566908Y-147088571D02*
X173614527Y-147183809D01*
X173614527Y-147183809D02*
X173614527Y-147707619D01*
X173947861Y-147040952D02*
X174328813Y-147040952D01*
X174090718Y-146707619D02*
X174090718Y-147564761D01*
X174090718Y-147564761D02*
X174138337Y-147660000D01*
X174138337Y-147660000D02*
X174233575Y-147707619D01*
X174233575Y-147707619D02*
X174328813Y-147707619D01*
X174662147Y-147707619D02*
X174662147Y-147040952D01*
X174662147Y-147231428D02*
X174709766Y-147136190D01*
X174709766Y-147136190D02*
X174757385Y-147088571D01*
X174757385Y-147088571D02*
X174852623Y-147040952D01*
X174852623Y-147040952D02*
X174947861Y-147040952D01*
X175424052Y-147707619D02*
X175328814Y-147660000D01*
X175328814Y-147660000D02*
X175281195Y-147612380D01*
X175281195Y-147612380D02*
X175233576Y-147517142D01*
X175233576Y-147517142D02*
X175233576Y-147231428D01*
X175233576Y-147231428D02*
X175281195Y-147136190D01*
X175281195Y-147136190D02*
X175328814Y-147088571D01*
X175328814Y-147088571D02*
X175424052Y-147040952D01*
X175424052Y-147040952D02*
X175566909Y-147040952D01*
X175566909Y-147040952D02*
X175662147Y-147088571D01*
X175662147Y-147088571D02*
X175709766Y-147136190D01*
X175709766Y-147136190D02*
X175757385Y-147231428D01*
X175757385Y-147231428D02*
X175757385Y-147517142D01*
X175757385Y-147517142D02*
X175709766Y-147612380D01*
X175709766Y-147612380D02*
X175662147Y-147660000D01*
X175662147Y-147660000D02*
X175566909Y-147707619D01*
X175566909Y-147707619D02*
X175424052Y-147707619D01*
X176328814Y-147707619D02*
X176233576Y-147660000D01*
X176233576Y-147660000D02*
X176185957Y-147564761D01*
X176185957Y-147564761D02*
X176185957Y-146707619D01*
X176852624Y-147707619D02*
X176757386Y-147660000D01*
X176757386Y-147660000D02*
X176709767Y-147564761D01*
X176709767Y-147564761D02*
X176709767Y-146707619D01*
X177614529Y-147660000D02*
X177519291Y-147707619D01*
X177519291Y-147707619D02*
X177328815Y-147707619D01*
X177328815Y-147707619D02*
X177233577Y-147660000D01*
X177233577Y-147660000D02*
X177185958Y-147564761D01*
X177185958Y-147564761D02*
X177185958Y-147183809D01*
X177185958Y-147183809D02*
X177233577Y-147088571D01*
X177233577Y-147088571D02*
X177328815Y-147040952D01*
X177328815Y-147040952D02*
X177519291Y-147040952D01*
X177519291Y-147040952D02*
X177614529Y-147088571D01*
X177614529Y-147088571D02*
X177662148Y-147183809D01*
X177662148Y-147183809D02*
X177662148Y-147279047D01*
X177662148Y-147279047D02*
X177185958Y-147374285D01*
X178090720Y-147707619D02*
X178090720Y-147040952D01*
X178090720Y-147231428D02*
X178138339Y-147136190D01*
X178138339Y-147136190D02*
X178185958Y-147088571D01*
X178185958Y-147088571D02*
X178281196Y-147040952D01*
X178281196Y-147040952D02*
X178376434Y-147040952D01*
X138043095Y-149327619D02*
X138043095Y-148327619D01*
X138043095Y-148327619D02*
X138281190Y-148327619D01*
X138281190Y-148327619D02*
X138424047Y-148375238D01*
X138424047Y-148375238D02*
X138519285Y-148470476D01*
X138519285Y-148470476D02*
X138566904Y-148565714D01*
X138566904Y-148565714D02*
X138614523Y-148756190D01*
X138614523Y-148756190D02*
X138614523Y-148899047D01*
X138614523Y-148899047D02*
X138566904Y-149089523D01*
X138566904Y-149089523D02*
X138519285Y-149184761D01*
X138519285Y-149184761D02*
X138424047Y-149280000D01*
X138424047Y-149280000D02*
X138281190Y-149327619D01*
X138281190Y-149327619D02*
X138043095Y-149327619D01*
X139424047Y-149280000D02*
X139328809Y-149327619D01*
X139328809Y-149327619D02*
X139138333Y-149327619D01*
X139138333Y-149327619D02*
X139043095Y-149280000D01*
X139043095Y-149280000D02*
X138995476Y-149184761D01*
X138995476Y-149184761D02*
X138995476Y-148803809D01*
X138995476Y-148803809D02*
X139043095Y-148708571D01*
X139043095Y-148708571D02*
X139138333Y-148660952D01*
X139138333Y-148660952D02*
X139328809Y-148660952D01*
X139328809Y-148660952D02*
X139424047Y-148708571D01*
X139424047Y-148708571D02*
X139471666Y-148803809D01*
X139471666Y-148803809D02*
X139471666Y-148899047D01*
X139471666Y-148899047D02*
X138995476Y-148994285D01*
X139852619Y-149280000D02*
X139947857Y-149327619D01*
X139947857Y-149327619D02*
X140138333Y-149327619D01*
X140138333Y-149327619D02*
X140233571Y-149280000D01*
X140233571Y-149280000D02*
X140281190Y-149184761D01*
X140281190Y-149184761D02*
X140281190Y-149137142D01*
X140281190Y-149137142D02*
X140233571Y-149041904D01*
X140233571Y-149041904D02*
X140138333Y-148994285D01*
X140138333Y-148994285D02*
X139995476Y-148994285D01*
X139995476Y-148994285D02*
X139900238Y-148946666D01*
X139900238Y-148946666D02*
X139852619Y-148851428D01*
X139852619Y-148851428D02*
X139852619Y-148803809D01*
X139852619Y-148803809D02*
X139900238Y-148708571D01*
X139900238Y-148708571D02*
X139995476Y-148660952D01*
X139995476Y-148660952D02*
X140138333Y-148660952D01*
X140138333Y-148660952D02*
X140233571Y-148708571D01*
X140709762Y-149327619D02*
X140709762Y-148660952D01*
X140709762Y-148327619D02*
X140662143Y-148375238D01*
X140662143Y-148375238D02*
X140709762Y-148422857D01*
X140709762Y-148422857D02*
X140757381Y-148375238D01*
X140757381Y-148375238D02*
X140709762Y-148327619D01*
X140709762Y-148327619D02*
X140709762Y-148422857D01*
X141614523Y-148660952D02*
X141614523Y-149470476D01*
X141614523Y-149470476D02*
X141566904Y-149565714D01*
X141566904Y-149565714D02*
X141519285Y-149613333D01*
X141519285Y-149613333D02*
X141424047Y-149660952D01*
X141424047Y-149660952D02*
X141281190Y-149660952D01*
X141281190Y-149660952D02*
X141185952Y-149613333D01*
X141614523Y-149280000D02*
X141519285Y-149327619D01*
X141519285Y-149327619D02*
X141328809Y-149327619D01*
X141328809Y-149327619D02*
X141233571Y-149280000D01*
X141233571Y-149280000D02*
X141185952Y-149232380D01*
X141185952Y-149232380D02*
X141138333Y-149137142D01*
X141138333Y-149137142D02*
X141138333Y-148851428D01*
X141138333Y-148851428D02*
X141185952Y-148756190D01*
X141185952Y-148756190D02*
X141233571Y-148708571D01*
X141233571Y-148708571D02*
X141328809Y-148660952D01*
X141328809Y-148660952D02*
X141519285Y-148660952D01*
X141519285Y-148660952D02*
X141614523Y-148708571D01*
X142090714Y-148660952D02*
X142090714Y-149327619D01*
X142090714Y-148756190D02*
X142138333Y-148708571D01*
X142138333Y-148708571D02*
X142233571Y-148660952D01*
X142233571Y-148660952D02*
X142376428Y-148660952D01*
X142376428Y-148660952D02*
X142471666Y-148708571D01*
X142471666Y-148708571D02*
X142519285Y-148803809D01*
X142519285Y-148803809D02*
X142519285Y-149327619D01*
X143376428Y-149280000D02*
X143281190Y-149327619D01*
X143281190Y-149327619D02*
X143090714Y-149327619D01*
X143090714Y-149327619D02*
X142995476Y-149280000D01*
X142995476Y-149280000D02*
X142947857Y-149184761D01*
X142947857Y-149184761D02*
X142947857Y-148803809D01*
X142947857Y-148803809D02*
X142995476Y-148708571D01*
X142995476Y-148708571D02*
X143090714Y-148660952D01*
X143090714Y-148660952D02*
X143281190Y-148660952D01*
X143281190Y-148660952D02*
X143376428Y-148708571D01*
X143376428Y-148708571D02*
X143424047Y-148803809D01*
X143424047Y-148803809D02*
X143424047Y-148899047D01*
X143424047Y-148899047D02*
X142947857Y-148994285D01*
X144281190Y-149327619D02*
X144281190Y-148327619D01*
X144281190Y-149280000D02*
X144185952Y-149327619D01*
X144185952Y-149327619D02*
X143995476Y-149327619D01*
X143995476Y-149327619D02*
X143900238Y-149280000D01*
X143900238Y-149280000D02*
X143852619Y-149232380D01*
X143852619Y-149232380D02*
X143805000Y-149137142D01*
X143805000Y-149137142D02*
X143805000Y-148851428D01*
X143805000Y-148851428D02*
X143852619Y-148756190D01*
X143852619Y-148756190D02*
X143900238Y-148708571D01*
X143900238Y-148708571D02*
X143995476Y-148660952D01*
X143995476Y-148660952D02*
X144185952Y-148660952D01*
X144185952Y-148660952D02*
X144281190Y-148708571D01*
X145519286Y-149327619D02*
X145519286Y-148327619D01*
X145519286Y-148708571D02*
X145614524Y-148660952D01*
X145614524Y-148660952D02*
X145805000Y-148660952D01*
X145805000Y-148660952D02*
X145900238Y-148708571D01*
X145900238Y-148708571D02*
X145947857Y-148756190D01*
X145947857Y-148756190D02*
X145995476Y-148851428D01*
X145995476Y-148851428D02*
X145995476Y-149137142D01*
X145995476Y-149137142D02*
X145947857Y-149232380D01*
X145947857Y-149232380D02*
X145900238Y-149280000D01*
X145900238Y-149280000D02*
X145805000Y-149327619D01*
X145805000Y-149327619D02*
X145614524Y-149327619D01*
X145614524Y-149327619D02*
X145519286Y-149280000D01*
X146328810Y-148660952D02*
X146566905Y-149327619D01*
X146805000Y-148660952D02*
X146566905Y-149327619D01*
X146566905Y-149327619D02*
X146471667Y-149565714D01*
X146471667Y-149565714D02*
X146424048Y-149613333D01*
X146424048Y-149613333D02*
X146328810Y-149660952D01*
X147185953Y-149232380D02*
X147233572Y-149280000D01*
X147233572Y-149280000D02*
X147185953Y-149327619D01*
X147185953Y-149327619D02*
X147138334Y-149280000D01*
X147138334Y-149280000D02*
X147185953Y-149232380D01*
X147185953Y-149232380D02*
X147185953Y-149327619D01*
X147185953Y-148708571D02*
X147233572Y-148756190D01*
X147233572Y-148756190D02*
X147185953Y-148803809D01*
X147185953Y-148803809D02*
X147138334Y-148756190D01*
X147138334Y-148756190D02*
X147185953Y-148708571D01*
X147185953Y-148708571D02*
X147185953Y-148803809D01*
X148757381Y-148803809D02*
X148900238Y-148851428D01*
X148900238Y-148851428D02*
X148947857Y-148899047D01*
X148947857Y-148899047D02*
X148995476Y-148994285D01*
X148995476Y-148994285D02*
X148995476Y-149137142D01*
X148995476Y-149137142D02*
X148947857Y-149232380D01*
X148947857Y-149232380D02*
X148900238Y-149280000D01*
X148900238Y-149280000D02*
X148805000Y-149327619D01*
X148805000Y-149327619D02*
X148424048Y-149327619D01*
X148424048Y-149327619D02*
X148424048Y-148327619D01*
X148424048Y-148327619D02*
X148757381Y-148327619D01*
X148757381Y-148327619D02*
X148852619Y-148375238D01*
X148852619Y-148375238D02*
X148900238Y-148422857D01*
X148900238Y-148422857D02*
X148947857Y-148518095D01*
X148947857Y-148518095D02*
X148947857Y-148613333D01*
X148947857Y-148613333D02*
X148900238Y-148708571D01*
X148900238Y-148708571D02*
X148852619Y-148756190D01*
X148852619Y-148756190D02*
X148757381Y-148803809D01*
X148757381Y-148803809D02*
X148424048Y-148803809D01*
X149805000Y-149280000D02*
X149709762Y-149327619D01*
X149709762Y-149327619D02*
X149519286Y-149327619D01*
X149519286Y-149327619D02*
X149424048Y-149280000D01*
X149424048Y-149280000D02*
X149376429Y-149184761D01*
X149376429Y-149184761D02*
X149376429Y-148803809D01*
X149376429Y-148803809D02*
X149424048Y-148708571D01*
X149424048Y-148708571D02*
X149519286Y-148660952D01*
X149519286Y-148660952D02*
X149709762Y-148660952D01*
X149709762Y-148660952D02*
X149805000Y-148708571D01*
X149805000Y-148708571D02*
X149852619Y-148803809D01*
X149852619Y-148803809D02*
X149852619Y-148899047D01*
X149852619Y-148899047D02*
X149376429Y-148994285D01*
X150281191Y-148660952D02*
X150281191Y-149327619D01*
X150281191Y-148756190D02*
X150328810Y-148708571D01*
X150328810Y-148708571D02*
X150424048Y-148660952D01*
X150424048Y-148660952D02*
X150566905Y-148660952D01*
X150566905Y-148660952D02*
X150662143Y-148708571D01*
X150662143Y-148708571D02*
X150709762Y-148803809D01*
X150709762Y-148803809D02*
X150709762Y-149327619D01*
X151185953Y-148660952D02*
X151185953Y-149518095D01*
X151185953Y-149518095D02*
X151138334Y-149613333D01*
X151138334Y-149613333D02*
X151043096Y-149660952D01*
X151043096Y-149660952D02*
X150995477Y-149660952D01*
X151185953Y-148327619D02*
X151138334Y-148375238D01*
X151138334Y-148375238D02*
X151185953Y-148422857D01*
X151185953Y-148422857D02*
X151233572Y-148375238D01*
X151233572Y-148375238D02*
X151185953Y-148327619D01*
X151185953Y-148327619D02*
X151185953Y-148422857D01*
X152090714Y-149327619D02*
X152090714Y-148803809D01*
X152090714Y-148803809D02*
X152043095Y-148708571D01*
X152043095Y-148708571D02*
X151947857Y-148660952D01*
X151947857Y-148660952D02*
X151757381Y-148660952D01*
X151757381Y-148660952D02*
X151662143Y-148708571D01*
X152090714Y-149280000D02*
X151995476Y-149327619D01*
X151995476Y-149327619D02*
X151757381Y-149327619D01*
X151757381Y-149327619D02*
X151662143Y-149280000D01*
X151662143Y-149280000D02*
X151614524Y-149184761D01*
X151614524Y-149184761D02*
X151614524Y-149089523D01*
X151614524Y-149089523D02*
X151662143Y-148994285D01*
X151662143Y-148994285D02*
X151757381Y-148946666D01*
X151757381Y-148946666D02*
X151995476Y-148946666D01*
X151995476Y-148946666D02*
X152090714Y-148899047D01*
X152566905Y-149327619D02*
X152566905Y-148660952D01*
X152566905Y-148756190D02*
X152614524Y-148708571D01*
X152614524Y-148708571D02*
X152709762Y-148660952D01*
X152709762Y-148660952D02*
X152852619Y-148660952D01*
X152852619Y-148660952D02*
X152947857Y-148708571D01*
X152947857Y-148708571D02*
X152995476Y-148803809D01*
X152995476Y-148803809D02*
X152995476Y-149327619D01*
X152995476Y-148803809D02*
X153043095Y-148708571D01*
X153043095Y-148708571D02*
X153138333Y-148660952D01*
X153138333Y-148660952D02*
X153281190Y-148660952D01*
X153281190Y-148660952D02*
X153376429Y-148708571D01*
X153376429Y-148708571D02*
X153424048Y-148803809D01*
X153424048Y-148803809D02*
X153424048Y-149327619D01*
X153900238Y-149327619D02*
X153900238Y-148660952D01*
X153900238Y-148327619D02*
X153852619Y-148375238D01*
X153852619Y-148375238D02*
X153900238Y-148422857D01*
X153900238Y-148422857D02*
X153947857Y-148375238D01*
X153947857Y-148375238D02*
X153900238Y-148327619D01*
X153900238Y-148327619D02*
X153900238Y-148422857D01*
X154376428Y-148660952D02*
X154376428Y-149327619D01*
X154376428Y-148756190D02*
X154424047Y-148708571D01*
X154424047Y-148708571D02*
X154519285Y-148660952D01*
X154519285Y-148660952D02*
X154662142Y-148660952D01*
X154662142Y-148660952D02*
X154757380Y-148708571D01*
X154757380Y-148708571D02*
X154804999Y-148803809D01*
X154804999Y-148803809D02*
X154804999Y-149327619D01*
X156043095Y-148803809D02*
X156376428Y-148803809D01*
X156519285Y-149327619D02*
X156043095Y-149327619D01*
X156043095Y-149327619D02*
X156043095Y-148327619D01*
X156043095Y-148327619D02*
X156519285Y-148327619D01*
X156947857Y-149232380D02*
X156995476Y-149280000D01*
X156995476Y-149280000D02*
X156947857Y-149327619D01*
X156947857Y-149327619D02*
X156900238Y-149280000D01*
X156900238Y-149280000D02*
X156947857Y-149232380D01*
X156947857Y-149232380D02*
X156947857Y-149327619D01*
X158138333Y-149280000D02*
X158281190Y-149327619D01*
X158281190Y-149327619D02*
X158519285Y-149327619D01*
X158519285Y-149327619D02*
X158614523Y-149280000D01*
X158614523Y-149280000D02*
X158662142Y-149232380D01*
X158662142Y-149232380D02*
X158709761Y-149137142D01*
X158709761Y-149137142D02*
X158709761Y-149041904D01*
X158709761Y-149041904D02*
X158662142Y-148946666D01*
X158662142Y-148946666D02*
X158614523Y-148899047D01*
X158614523Y-148899047D02*
X158519285Y-148851428D01*
X158519285Y-148851428D02*
X158328809Y-148803809D01*
X158328809Y-148803809D02*
X158233571Y-148756190D01*
X158233571Y-148756190D02*
X158185952Y-148708571D01*
X158185952Y-148708571D02*
X158138333Y-148613333D01*
X158138333Y-148613333D02*
X158138333Y-148518095D01*
X158138333Y-148518095D02*
X158185952Y-148422857D01*
X158185952Y-148422857D02*
X158233571Y-148375238D01*
X158233571Y-148375238D02*
X158328809Y-148327619D01*
X158328809Y-148327619D02*
X158566904Y-148327619D01*
X158566904Y-148327619D02*
X158709761Y-148375238D01*
X159138333Y-149327619D02*
X159138333Y-148660952D01*
X159138333Y-148756190D02*
X159185952Y-148708571D01*
X159185952Y-148708571D02*
X159281190Y-148660952D01*
X159281190Y-148660952D02*
X159424047Y-148660952D01*
X159424047Y-148660952D02*
X159519285Y-148708571D01*
X159519285Y-148708571D02*
X159566904Y-148803809D01*
X159566904Y-148803809D02*
X159566904Y-149327619D01*
X159566904Y-148803809D02*
X159614523Y-148708571D01*
X159614523Y-148708571D02*
X159709761Y-148660952D01*
X159709761Y-148660952D02*
X159852618Y-148660952D01*
X159852618Y-148660952D02*
X159947857Y-148708571D01*
X159947857Y-148708571D02*
X159995476Y-148803809D01*
X159995476Y-148803809D02*
X159995476Y-149327619D01*
X160471666Y-149327619D02*
X160471666Y-148660952D01*
X160471666Y-148327619D02*
X160424047Y-148375238D01*
X160424047Y-148375238D02*
X160471666Y-148422857D01*
X160471666Y-148422857D02*
X160519285Y-148375238D01*
X160519285Y-148375238D02*
X160471666Y-148327619D01*
X160471666Y-148327619D02*
X160471666Y-148422857D01*
X160804999Y-148660952D02*
X161185951Y-148660952D01*
X160947856Y-148327619D02*
X160947856Y-149184761D01*
X160947856Y-149184761D02*
X160995475Y-149280000D01*
X160995475Y-149280000D02*
X161090713Y-149327619D01*
X161090713Y-149327619D02*
X161185951Y-149327619D01*
X161519285Y-149327619D02*
X161519285Y-148327619D01*
X161947856Y-149327619D02*
X161947856Y-148803809D01*
X161947856Y-148803809D02*
X161900237Y-148708571D01*
X161900237Y-148708571D02*
X161804999Y-148660952D01*
X161804999Y-148660952D02*
X161662142Y-148660952D01*
X161662142Y-148660952D02*
X161566904Y-148708571D01*
X161566904Y-148708571D02*
X161519285Y-148756190D01*
X162471666Y-149280000D02*
X162471666Y-149327619D01*
X162471666Y-149327619D02*
X162424047Y-149422857D01*
X162424047Y-149422857D02*
X162376428Y-149470476D01*
X163995475Y-148803809D02*
X163662142Y-148803809D01*
X163662142Y-149327619D02*
X163662142Y-148327619D01*
X163662142Y-148327619D02*
X164138332Y-148327619D01*
X164947856Y-148660952D02*
X164947856Y-149327619D01*
X164519285Y-148660952D02*
X164519285Y-149184761D01*
X164519285Y-149184761D02*
X164566904Y-149280000D01*
X164566904Y-149280000D02*
X164662142Y-149327619D01*
X164662142Y-149327619D02*
X164804999Y-149327619D01*
X164804999Y-149327619D02*
X164900237Y-149280000D01*
X164900237Y-149280000D02*
X164947856Y-149232380D01*
X165424047Y-148660952D02*
X165424047Y-149327619D01*
X165424047Y-148756190D02*
X165471666Y-148708571D01*
X165471666Y-148708571D02*
X165566904Y-148660952D01*
X165566904Y-148660952D02*
X165709761Y-148660952D01*
X165709761Y-148660952D02*
X165804999Y-148708571D01*
X165804999Y-148708571D02*
X165852618Y-148803809D01*
X165852618Y-148803809D02*
X165852618Y-149327619D01*
X166757380Y-149327619D02*
X166757380Y-148327619D01*
X166757380Y-149280000D02*
X166662142Y-149327619D01*
X166662142Y-149327619D02*
X166471666Y-149327619D01*
X166471666Y-149327619D02*
X166376428Y-149280000D01*
X166376428Y-149280000D02*
X166328809Y-149232380D01*
X166328809Y-149232380D02*
X166281190Y-149137142D01*
X166281190Y-149137142D02*
X166281190Y-148851428D01*
X166281190Y-148851428D02*
X166328809Y-148756190D01*
X166328809Y-148756190D02*
X166376428Y-148708571D01*
X166376428Y-148708571D02*
X166471666Y-148660952D01*
X166471666Y-148660952D02*
X166662142Y-148660952D01*
X166662142Y-148660952D02*
X166757380Y-148708571D01*
X167614523Y-149280000D02*
X167519285Y-149327619D01*
X167519285Y-149327619D02*
X167328809Y-149327619D01*
X167328809Y-149327619D02*
X167233571Y-149280000D01*
X167233571Y-149280000D02*
X167185952Y-149184761D01*
X167185952Y-149184761D02*
X167185952Y-148803809D01*
X167185952Y-148803809D02*
X167233571Y-148708571D01*
X167233571Y-148708571D02*
X167328809Y-148660952D01*
X167328809Y-148660952D02*
X167519285Y-148660952D01*
X167519285Y-148660952D02*
X167614523Y-148708571D01*
X167614523Y-148708571D02*
X167662142Y-148803809D01*
X167662142Y-148803809D02*
X167662142Y-148899047D01*
X167662142Y-148899047D02*
X167185952Y-148994285D01*
X168519285Y-149327619D02*
X168519285Y-148327619D01*
X168519285Y-149280000D02*
X168424047Y-149327619D01*
X168424047Y-149327619D02*
X168233571Y-149327619D01*
X168233571Y-149327619D02*
X168138333Y-149280000D01*
X168138333Y-149280000D02*
X168090714Y-149232380D01*
X168090714Y-149232380D02*
X168043095Y-149137142D01*
X168043095Y-149137142D02*
X168043095Y-148851428D01*
X168043095Y-148851428D02*
X168090714Y-148756190D01*
X168090714Y-148756190D02*
X168138333Y-148708571D01*
X168138333Y-148708571D02*
X168233571Y-148660952D01*
X168233571Y-148660952D02*
X168424047Y-148660952D01*
X168424047Y-148660952D02*
X168519285Y-148708571D01*
X169757381Y-149327619D02*
X169757381Y-148327619D01*
X169757381Y-148708571D02*
X169852619Y-148660952D01*
X169852619Y-148660952D02*
X170043095Y-148660952D01*
X170043095Y-148660952D02*
X170138333Y-148708571D01*
X170138333Y-148708571D02*
X170185952Y-148756190D01*
X170185952Y-148756190D02*
X170233571Y-148851428D01*
X170233571Y-148851428D02*
X170233571Y-149137142D01*
X170233571Y-149137142D02*
X170185952Y-149232380D01*
X170185952Y-149232380D02*
X170138333Y-149280000D01*
X170138333Y-149280000D02*
X170043095Y-149327619D01*
X170043095Y-149327619D02*
X169852619Y-149327619D01*
X169852619Y-149327619D02*
X169757381Y-149280000D01*
X170566905Y-148660952D02*
X170805000Y-149327619D01*
X171043095Y-148660952D02*
X170805000Y-149327619D01*
X170805000Y-149327619D02*
X170709762Y-149565714D01*
X170709762Y-149565714D02*
X170662143Y-149613333D01*
X170662143Y-149613333D02*
X170566905Y-149660952D01*
X171424048Y-149232380D02*
X171471667Y-149280000D01*
X171471667Y-149280000D02*
X171424048Y-149327619D01*
X171424048Y-149327619D02*
X171376429Y-149280000D01*
X171376429Y-149280000D02*
X171424048Y-149232380D01*
X171424048Y-149232380D02*
X171424048Y-149327619D01*
X171424048Y-148708571D02*
X171471667Y-148756190D01*
X171471667Y-148756190D02*
X171424048Y-148803809D01*
X171424048Y-148803809D02*
X171376429Y-148756190D01*
X171376429Y-148756190D02*
X171424048Y-148708571D01*
X171424048Y-148708571D02*
X171424048Y-148803809D01*
X172662143Y-149327619D02*
X172662143Y-148327619D01*
X172662143Y-148327619D02*
X173233571Y-149327619D01*
X173233571Y-149327619D02*
X173233571Y-148327619D01*
X173709762Y-149327619D02*
X173709762Y-148327619D01*
X174185952Y-149327619D02*
X174185952Y-148327619D01*
X174185952Y-148803809D02*
X174757380Y-148803809D01*
X174757380Y-149327619D02*
X174757380Y-148327619D01*
X175995476Y-149327619D02*
X175995476Y-148327619D01*
X175995476Y-148327619D02*
X176376428Y-148327619D01*
X176376428Y-148327619D02*
X176471666Y-148375238D01*
X176471666Y-148375238D02*
X176519285Y-148422857D01*
X176519285Y-148422857D02*
X176566904Y-148518095D01*
X176566904Y-148518095D02*
X176566904Y-148660952D01*
X176566904Y-148660952D02*
X176519285Y-148756190D01*
X176519285Y-148756190D02*
X176471666Y-148803809D01*
X176471666Y-148803809D02*
X176376428Y-148851428D01*
X176376428Y-148851428D02*
X175995476Y-148851428D01*
X176900238Y-148327619D02*
X177519285Y-148327619D01*
X177519285Y-148327619D02*
X177185952Y-148708571D01*
X177185952Y-148708571D02*
X177328809Y-148708571D01*
X177328809Y-148708571D02*
X177424047Y-148756190D01*
X177424047Y-148756190D02*
X177471666Y-148803809D01*
X177471666Y-148803809D02*
X177519285Y-148899047D01*
X177519285Y-148899047D02*
X177519285Y-149137142D01*
X177519285Y-149137142D02*
X177471666Y-149232380D01*
X177471666Y-149232380D02*
X177424047Y-149280000D01*
X177424047Y-149280000D02*
X177328809Y-149327619D01*
X177328809Y-149327619D02*
X177043095Y-149327619D01*
X177043095Y-149327619D02*
X176947857Y-149280000D01*
X176947857Y-149280000D02*
X176900238Y-149232380D01*
X178138333Y-148327619D02*
X178233571Y-148327619D01*
X178233571Y-148327619D02*
X178328809Y-148375238D01*
X178328809Y-148375238D02*
X178376428Y-148422857D01*
X178376428Y-148422857D02*
X178424047Y-148518095D01*
X178424047Y-148518095D02*
X178471666Y-148708571D01*
X178471666Y-148708571D02*
X178471666Y-148946666D01*
X178471666Y-148946666D02*
X178424047Y-149137142D01*
X178424047Y-149137142D02*
X178376428Y-149232380D01*
X178376428Y-149232380D02*
X178328809Y-149280000D01*
X178328809Y-149280000D02*
X178233571Y-149327619D01*
X178233571Y-149327619D02*
X178138333Y-149327619D01*
X178138333Y-149327619D02*
X178043095Y-149280000D01*
X178043095Y-149280000D02*
X177995476Y-149232380D01*
X177995476Y-149232380D02*
X177947857Y-149137142D01*
X177947857Y-149137142D02*
X177900238Y-148946666D01*
X177900238Y-148946666D02*
X177900238Y-148708571D01*
X177900238Y-148708571D02*
X177947857Y-148518095D01*
X177947857Y-148518095D02*
X177995476Y-148422857D01*
X177995476Y-148422857D02*
X178043095Y-148375238D01*
X178043095Y-148375238D02*
X178138333Y-148327619D01*
X178900238Y-148803809D02*
X179233571Y-148803809D01*
X179376428Y-149327619D02*
X178900238Y-149327619D01*
X178900238Y-149327619D02*
X178900238Y-148327619D01*
X178900238Y-148327619D02*
X179376428Y-148327619D01*
X179995476Y-148851428D02*
X179995476Y-149327619D01*
X179662143Y-148327619D02*
X179995476Y-148851428D01*
X179995476Y-148851428D02*
X180328809Y-148327619D01*
X180852619Y-148327619D02*
X180947857Y-148327619D01*
X180947857Y-148327619D02*
X181043095Y-148375238D01*
X181043095Y-148375238D02*
X181090714Y-148422857D01*
X181090714Y-148422857D02*
X181138333Y-148518095D01*
X181138333Y-148518095D02*
X181185952Y-148708571D01*
X181185952Y-148708571D02*
X181185952Y-148946666D01*
X181185952Y-148946666D02*
X181138333Y-149137142D01*
X181138333Y-149137142D02*
X181090714Y-149232380D01*
X181090714Y-149232380D02*
X181043095Y-149280000D01*
X181043095Y-149280000D02*
X180947857Y-149327619D01*
X180947857Y-149327619D02*
X180852619Y-149327619D01*
X180852619Y-149327619D02*
X180757381Y-149280000D01*
X180757381Y-149280000D02*
X180709762Y-149232380D01*
X180709762Y-149232380D02*
X180662143Y-149137142D01*
X180662143Y-149137142D02*
X180614524Y-148946666D01*
X180614524Y-148946666D02*
X180614524Y-148708571D01*
X180614524Y-148708571D02*
X180662143Y-148518095D01*
X180662143Y-148518095D02*
X180709762Y-148422857D01*
X180709762Y-148422857D02*
X180757381Y-148375238D01*
X180757381Y-148375238D02*
X180852619Y-148327619D01*
X181805000Y-148327619D02*
X181900238Y-148327619D01*
X181900238Y-148327619D02*
X181995476Y-148375238D01*
X181995476Y-148375238D02*
X182043095Y-148422857D01*
X182043095Y-148422857D02*
X182090714Y-148518095D01*
X182090714Y-148518095D02*
X182138333Y-148708571D01*
X182138333Y-148708571D02*
X182138333Y-148946666D01*
X182138333Y-148946666D02*
X182090714Y-149137142D01*
X182090714Y-149137142D02*
X182043095Y-149232380D01*
X182043095Y-149232380D02*
X181995476Y-149280000D01*
X181995476Y-149280000D02*
X181900238Y-149327619D01*
X181900238Y-149327619D02*
X181805000Y-149327619D01*
X181805000Y-149327619D02*
X181709762Y-149280000D01*
X181709762Y-149280000D02*
X181662143Y-149232380D01*
X181662143Y-149232380D02*
X181614524Y-149137142D01*
X181614524Y-149137142D02*
X181566905Y-148946666D01*
X181566905Y-148946666D02*
X181566905Y-148708571D01*
X181566905Y-148708571D02*
X181614524Y-148518095D01*
X181614524Y-148518095D02*
X181662143Y-148422857D01*
X181662143Y-148422857D02*
X181709762Y-148375238D01*
X181709762Y-148375238D02*
X181805000Y-148327619D01*
X182471667Y-148327619D02*
X183090714Y-148327619D01*
X183090714Y-148327619D02*
X182757381Y-148708571D01*
X182757381Y-148708571D02*
X182900238Y-148708571D01*
X182900238Y-148708571D02*
X182995476Y-148756190D01*
X182995476Y-148756190D02*
X183043095Y-148803809D01*
X183043095Y-148803809D02*
X183090714Y-148899047D01*
X183090714Y-148899047D02*
X183090714Y-149137142D01*
X183090714Y-149137142D02*
X183043095Y-149232380D01*
X183043095Y-149232380D02*
X182995476Y-149280000D01*
X182995476Y-149280000D02*
X182900238Y-149327619D01*
X182900238Y-149327619D02*
X182614524Y-149327619D01*
X182614524Y-149327619D02*
X182519286Y-149280000D01*
X182519286Y-149280000D02*
X182471667Y-149232380D01*
X184043095Y-149327619D02*
X183471667Y-149327619D01*
X183757381Y-149327619D02*
X183757381Y-148327619D01*
X183757381Y-148327619D02*
X183662143Y-148470476D01*
X183662143Y-148470476D02*
X183566905Y-148565714D01*
X183566905Y-148565714D02*
X183471667Y-148613333D01*
X184376429Y-148327619D02*
X185043095Y-148327619D01*
X185043095Y-148327619D02*
X184614524Y-149327619D01*
X185852619Y-148327619D02*
X185662143Y-148327619D01*
X185662143Y-148327619D02*
X185566905Y-148375238D01*
X185566905Y-148375238D02*
X185519286Y-148422857D01*
X185519286Y-148422857D02*
X185424048Y-148565714D01*
X185424048Y-148565714D02*
X185376429Y-148756190D01*
X185376429Y-148756190D02*
X185376429Y-149137142D01*
X185376429Y-149137142D02*
X185424048Y-149232380D01*
X185424048Y-149232380D02*
X185471667Y-149280000D01*
X185471667Y-149280000D02*
X185566905Y-149327619D01*
X185566905Y-149327619D02*
X185757381Y-149327619D01*
X185757381Y-149327619D02*
X185852619Y-149280000D01*
X185852619Y-149280000D02*
X185900238Y-149232380D01*
X185900238Y-149232380D02*
X185947857Y-149137142D01*
X185947857Y-149137142D02*
X185947857Y-148899047D01*
X185947857Y-148899047D02*
X185900238Y-148803809D01*
X185900238Y-148803809D02*
X185852619Y-148756190D01*
X185852619Y-148756190D02*
X185757381Y-148708571D01*
X185757381Y-148708571D02*
X185566905Y-148708571D01*
X185566905Y-148708571D02*
X185471667Y-148756190D01*
X185471667Y-148756190D02*
X185424048Y-148803809D01*
X185424048Y-148803809D02*
X185376429Y-148899047D01*
X180984523Y-146590000D02*
X180889285Y-146637619D01*
X180889285Y-146637619D02*
X180698809Y-146637619D01*
X180698809Y-146637619D02*
X180603571Y-146590000D01*
X180603571Y-146590000D02*
X180555952Y-146542380D01*
X180555952Y-146542380D02*
X180508333Y-146447142D01*
X180508333Y-146447142D02*
X180508333Y-146161428D01*
X180508333Y-146161428D02*
X180555952Y-146066190D01*
X180555952Y-146066190D02*
X180603571Y-146018571D01*
X180603571Y-146018571D02*
X180698809Y-145970952D01*
X180698809Y-145970952D02*
X180889285Y-145970952D01*
X180889285Y-145970952D02*
X180984523Y-146018571D01*
X181841666Y-146590000D02*
X181746428Y-146637619D01*
X181746428Y-146637619D02*
X181555952Y-146637619D01*
X181555952Y-146637619D02*
X181460714Y-146590000D01*
X181460714Y-146590000D02*
X181413095Y-146542380D01*
X181413095Y-146542380D02*
X181365476Y-146447142D01*
X181365476Y-146447142D02*
X181365476Y-146161428D01*
X181365476Y-146161428D02*
X181413095Y-146066190D01*
X181413095Y-146066190D02*
X181460714Y-146018571D01*
X181460714Y-146018571D02*
X181555952Y-145970952D01*
X181555952Y-145970952D02*
X181746428Y-145970952D01*
X181746428Y-145970952D02*
X181841666Y-146018571D01*
X158665714Y-90618809D02*
X158999047Y-90618809D01*
X159141904Y-91142619D02*
X158665714Y-91142619D01*
X158665714Y-91142619D02*
X158665714Y-90142619D01*
X158665714Y-90142619D02*
X159141904Y-90142619D01*
X159570476Y-91142619D02*
X159570476Y-90142619D01*
X159570476Y-90142619D02*
X160141904Y-91142619D01*
X160141904Y-91142619D02*
X160141904Y-90142619D01*
X161141904Y-91142619D02*
X160570476Y-91142619D01*
X160856190Y-91142619D02*
X160856190Y-90142619D01*
X160856190Y-90142619D02*
X160760952Y-90285476D01*
X160760952Y-90285476D02*
X160665714Y-90380714D01*
X160665714Y-90380714D02*
X160570476Y-90428333D01*
X121536668Y-89505000D02*
X121679525Y-89552619D01*
X121679525Y-89552619D02*
X121917620Y-89552619D01*
X121917620Y-89552619D02*
X122012858Y-89505000D01*
X122012858Y-89505000D02*
X122060477Y-89457380D01*
X122060477Y-89457380D02*
X122108096Y-89362142D01*
X122108096Y-89362142D02*
X122108096Y-89266904D01*
X122108096Y-89266904D02*
X122060477Y-89171666D01*
X122060477Y-89171666D02*
X122012858Y-89124047D01*
X122012858Y-89124047D02*
X121917620Y-89076428D01*
X121917620Y-89076428D02*
X121727144Y-89028809D01*
X121727144Y-89028809D02*
X121631906Y-88981190D01*
X121631906Y-88981190D02*
X121584287Y-88933571D01*
X121584287Y-88933571D02*
X121536668Y-88838333D01*
X121536668Y-88838333D02*
X121536668Y-88743095D01*
X121536668Y-88743095D02*
X121584287Y-88647857D01*
X121584287Y-88647857D02*
X121631906Y-88600238D01*
X121631906Y-88600238D02*
X121727144Y-88552619D01*
X121727144Y-88552619D02*
X121965239Y-88552619D01*
X121965239Y-88552619D02*
X122108096Y-88600238D01*
X122441430Y-88552619D02*
X122679525Y-89552619D01*
X122679525Y-89552619D02*
X122870001Y-88838333D01*
X122870001Y-88838333D02*
X123060477Y-89552619D01*
X123060477Y-89552619D02*
X123298573Y-88552619D01*
X124203334Y-89552619D02*
X123631906Y-89552619D01*
X123917620Y-89552619D02*
X123917620Y-88552619D01*
X123917620Y-88552619D02*
X123822382Y-88695476D01*
X123822382Y-88695476D02*
X123727144Y-88790714D01*
X123727144Y-88790714D02*
X123631906Y-88838333D01*
X190043333Y-71652619D02*
X189710000Y-71176428D01*
X189471905Y-71652619D02*
X189471905Y-70652619D01*
X189471905Y-70652619D02*
X189852857Y-70652619D01*
X189852857Y-70652619D02*
X189948095Y-70700238D01*
X189948095Y-70700238D02*
X189995714Y-70747857D01*
X189995714Y-70747857D02*
X190043333Y-70843095D01*
X190043333Y-70843095D02*
X190043333Y-70985952D01*
X190043333Y-70985952D02*
X189995714Y-71081190D01*
X189995714Y-71081190D02*
X189948095Y-71128809D01*
X189948095Y-71128809D02*
X189852857Y-71176428D01*
X189852857Y-71176428D02*
X189471905Y-71176428D01*
X190995714Y-71652619D02*
X190424286Y-71652619D01*
X190710000Y-71652619D02*
X190710000Y-70652619D01*
X190710000Y-70652619D02*
X190614762Y-70795476D01*
X190614762Y-70795476D02*
X190519524Y-70890714D01*
X190519524Y-70890714D02*
X190424286Y-70938333D01*
X203953333Y-69077666D02*
X203953333Y-70077666D01*
X203953333Y-70077666D02*
X203886666Y-70277666D01*
X203886666Y-70277666D02*
X203753333Y-70411000D01*
X203753333Y-70411000D02*
X203553333Y-70477666D01*
X203553333Y-70477666D02*
X203420000Y-70477666D01*
X205353333Y-70477666D02*
X204553333Y-70477666D01*
X204953333Y-70477666D02*
X204953333Y-69077666D01*
X204953333Y-69077666D02*
X204820000Y-69277666D01*
X204820000Y-69277666D02*
X204686667Y-69411000D01*
X204686667Y-69411000D02*
X204553333Y-69477666D01*
X165773333Y-87957380D02*
X165725714Y-88005000D01*
X165725714Y-88005000D02*
X165582857Y-88052619D01*
X165582857Y-88052619D02*
X165487619Y-88052619D01*
X165487619Y-88052619D02*
X165344762Y-88005000D01*
X165344762Y-88005000D02*
X165249524Y-87909761D01*
X165249524Y-87909761D02*
X165201905Y-87814523D01*
X165201905Y-87814523D02*
X165154286Y-87624047D01*
X165154286Y-87624047D02*
X165154286Y-87481190D01*
X165154286Y-87481190D02*
X165201905Y-87290714D01*
X165201905Y-87290714D02*
X165249524Y-87195476D01*
X165249524Y-87195476D02*
X165344762Y-87100238D01*
X165344762Y-87100238D02*
X165487619Y-87052619D01*
X165487619Y-87052619D02*
X165582857Y-87052619D01*
X165582857Y-87052619D02*
X165725714Y-87100238D01*
X165725714Y-87100238D02*
X165773333Y-87147857D01*
X166725714Y-88052619D02*
X166154286Y-88052619D01*
X166440000Y-88052619D02*
X166440000Y-87052619D01*
X166440000Y-87052619D02*
X166344762Y-87195476D01*
X166344762Y-87195476D02*
X166249524Y-87290714D01*
X166249524Y-87290714D02*
X166154286Y-87338333D01*
D12*
X192652600Y-148788752D02*
X192669948Y-148796334D01*
X192711356Y-148829128D01*
X192746765Y-148876547D01*
X192768664Y-148927151D01*
X192772229Y-148952098D01*
X192760279Y-148986927D01*
X192734067Y-149005357D01*
X192705964Y-149016516D01*
X192693095Y-149018572D01*
X192686829Y-149003649D01*
X192674456Y-148971175D01*
X192669028Y-148956502D01*
X192638590Y-148905744D01*
X192594520Y-148880427D01*
X192538010Y-148881206D01*
X192533825Y-148882203D01*
X192503655Y-148896507D01*
X192481476Y-148924393D01*
X192466327Y-148969287D01*
X192457250Y-149034615D01*
X192453286Y-149123804D01*
X192452914Y-149171261D01*
X192452730Y-149246071D01*
X192451522Y-149297069D01*
X192448309Y-149329471D01*
X192442109Y-149348495D01*
X192431940Y-149359356D01*
X192416819Y-149367272D01*
X192415946Y-149367670D01*
X192386828Y-149379981D01*
X192372403Y-149384514D01*
X192370186Y-149370809D01*
X192368289Y-149332925D01*
X192366847Y-149275715D01*
X192365998Y-149204027D01*
X192365829Y-149151565D01*
X192366692Y-149050047D01*
X192370070Y-148973032D01*
X192377142Y-148916023D01*
X192389088Y-148874526D01*
X192407090Y-148844043D01*
X192432327Y-148820080D01*
X192457247Y-148803355D01*
X192517171Y-148781097D01*
X192586911Y-148776076D01*
X192652600Y-148788752D01*
G36*
X192652600Y-148788752D02*
G01*
X192669948Y-148796334D01*
X192711356Y-148829128D01*
X192746765Y-148876547D01*
X192768664Y-148927151D01*
X192772229Y-148952098D01*
X192760279Y-148986927D01*
X192734067Y-149005357D01*
X192705964Y-149016516D01*
X192693095Y-149018572D01*
X192686829Y-149003649D01*
X192674456Y-148971175D01*
X192669028Y-148956502D01*
X192638590Y-148905744D01*
X192594520Y-148880427D01*
X192538010Y-148881206D01*
X192533825Y-148882203D01*
X192503655Y-148896507D01*
X192481476Y-148924393D01*
X192466327Y-148969287D01*
X192457250Y-149034615D01*
X192453286Y-149123804D01*
X192452914Y-149171261D01*
X192452730Y-149246071D01*
X192451522Y-149297069D01*
X192448309Y-149329471D01*
X192442109Y-149348495D01*
X192431940Y-149359356D01*
X192416819Y-149367272D01*
X192415946Y-149367670D01*
X192386828Y-149379981D01*
X192372403Y-149384514D01*
X192370186Y-149370809D01*
X192368289Y-149332925D01*
X192366847Y-149275715D01*
X192365998Y-149204027D01*
X192365829Y-149151565D01*
X192366692Y-149050047D01*
X192370070Y-148973032D01*
X192377142Y-148916023D01*
X192389088Y-148874526D01*
X192407090Y-148844043D01*
X192432327Y-148820080D01*
X192457247Y-148803355D01*
X192517171Y-148781097D01*
X192586911Y-148776076D01*
X192652600Y-148788752D01*
G37*
X188716093Y-148757780D02*
X188762672Y-148784723D01*
X188795057Y-148811466D01*
X188818742Y-148839484D01*
X188835059Y-148873748D01*
X188845339Y-148919227D01*
X188850914Y-148980892D01*
X188853116Y-149063711D01*
X188853371Y-149123246D01*
X188853371Y-149342391D01*
X188791686Y-149370044D01*
X188730000Y-149397697D01*
X188722743Y-149157670D01*
X188719744Y-149068028D01*
X188716598Y-149002962D01*
X188712701Y-148958026D01*
X188707447Y-148928770D01*
X188700231Y-148910748D01*
X188690450Y-148899511D01*
X188687312Y-148897079D01*
X188639761Y-148878083D01*
X188591697Y-148885600D01*
X188563086Y-148905543D01*
X188551447Y-148919675D01*
X188543391Y-148938220D01*
X188538271Y-148966334D01*
X188535441Y-149009173D01*
X188534256Y-149071895D01*
X188534057Y-149137261D01*
X188534018Y-149219268D01*
X188532614Y-149277316D01*
X188527914Y-149316465D01*
X188517987Y-149341780D01*
X188500903Y-149358323D01*
X188474732Y-149371156D01*
X188439775Y-149384491D01*
X188401596Y-149399007D01*
X188406141Y-149141389D01*
X188407971Y-149048519D01*
X188410112Y-148979889D01*
X188413181Y-148930711D01*
X188417794Y-148896198D01*
X188424568Y-148871562D01*
X188434119Y-148852016D01*
X188445634Y-148834770D01*
X188501190Y-148779680D01*
X188568980Y-148747822D01*
X188642713Y-148740191D01*
X188716093Y-148757780D01*
G36*
X188716093Y-148757780D02*
G01*
X188762672Y-148784723D01*
X188795057Y-148811466D01*
X188818742Y-148839484D01*
X188835059Y-148873748D01*
X188845339Y-148919227D01*
X188850914Y-148980892D01*
X188853116Y-149063711D01*
X188853371Y-149123246D01*
X188853371Y-149342391D01*
X188791686Y-149370044D01*
X188730000Y-149397697D01*
X188722743Y-149157670D01*
X188719744Y-149068028D01*
X188716598Y-149002962D01*
X188712701Y-148958026D01*
X188707447Y-148928770D01*
X188700231Y-148910748D01*
X188690450Y-148899511D01*
X188687312Y-148897079D01*
X188639761Y-148878083D01*
X188591697Y-148885600D01*
X188563086Y-148905543D01*
X188551447Y-148919675D01*
X188543391Y-148938220D01*
X188538271Y-148966334D01*
X188535441Y-149009173D01*
X188534256Y-149071895D01*
X188534057Y-149137261D01*
X188534018Y-149219268D01*
X188532614Y-149277316D01*
X188527914Y-149316465D01*
X188517987Y-149341780D01*
X188500903Y-149358323D01*
X188474732Y-149371156D01*
X188439775Y-149384491D01*
X188401596Y-149399007D01*
X188406141Y-149141389D01*
X188407971Y-149048519D01*
X188410112Y-148979889D01*
X188413181Y-148930711D01*
X188417794Y-148896198D01*
X188424568Y-148871562D01*
X188434119Y-148852016D01*
X188445634Y-148834770D01*
X188501190Y-148779680D01*
X188568980Y-148747822D01*
X188642713Y-148740191D01*
X188716093Y-148757780D01*
G37*
X190529926Y-148779755D02*
X190595858Y-148804084D01*
X190649273Y-148847117D01*
X190670164Y-148877409D01*
X190692939Y-148932994D01*
X190692466Y-148973186D01*
X190668562Y-149000217D01*
X190659717Y-149004813D01*
X190621530Y-149019144D01*
X190602028Y-149015472D01*
X190595422Y-148991407D01*
X190595086Y-148978114D01*
X190582992Y-148929210D01*
X190551471Y-148894999D01*
X190507659Y-148878476D01*
X190458695Y-148882634D01*
X190418894Y-148904227D01*
X190405450Y-148916544D01*
X190395921Y-148931487D01*
X190389485Y-148954075D01*
X190385317Y-148989328D01*
X190382597Y-149042266D01*
X190380502Y-149117907D01*
X190379960Y-149141857D01*
X190377981Y-149223790D01*
X190375731Y-149281455D01*
X190372357Y-149319608D01*
X190367006Y-149343004D01*
X190358824Y-149356398D01*
X190346959Y-149364545D01*
X190339362Y-149368144D01*
X190307102Y-149380452D01*
X190288111Y-149384514D01*
X190281836Y-149370948D01*
X190278006Y-149329934D01*
X190276600Y-149260999D01*
X190277598Y-149163669D01*
X190277908Y-149148657D01*
X190280101Y-149059859D01*
X190282693Y-148995019D01*
X190286382Y-148949067D01*
X190291864Y-148916935D01*
X190299835Y-148893553D01*
X190310993Y-148873852D01*
X190316830Y-148865410D01*
X190350296Y-148828057D01*
X190387727Y-148799003D01*
X190392309Y-148796467D01*
X190459426Y-148776443D01*
X190529926Y-148779755D01*
G36*
X190529926Y-148779755D02*
G01*
X190595858Y-148804084D01*
X190649273Y-148847117D01*
X190670164Y-148877409D01*
X190692939Y-148932994D01*
X190692466Y-148973186D01*
X190668562Y-149000217D01*
X190659717Y-149004813D01*
X190621530Y-149019144D01*
X190602028Y-149015472D01*
X190595422Y-148991407D01*
X190595086Y-148978114D01*
X190582992Y-148929210D01*
X190551471Y-148894999D01*
X190507659Y-148878476D01*
X190458695Y-148882634D01*
X190418894Y-148904227D01*
X190405450Y-148916544D01*
X190395921Y-148931487D01*
X190389485Y-148954075D01*
X190385317Y-148989328D01*
X190382597Y-149042266D01*
X190380502Y-149117907D01*
X190379960Y-149141857D01*
X190377981Y-149223790D01*
X190375731Y-149281455D01*
X190372357Y-149319608D01*
X190367006Y-149343004D01*
X190358824Y-149356398D01*
X190346959Y-149364545D01*
X190339362Y-149368144D01*
X190307102Y-149380452D01*
X190288111Y-149384514D01*
X190281836Y-149370948D01*
X190278006Y-149329934D01*
X190276600Y-149260999D01*
X190277598Y-149163669D01*
X190277908Y-149148657D01*
X190280101Y-149059859D01*
X190282693Y-148995019D01*
X190286382Y-148949067D01*
X190291864Y-148916935D01*
X190299835Y-148893553D01*
X190310993Y-148873852D01*
X190316830Y-148865410D01*
X190350296Y-148828057D01*
X190387727Y-148799003D01*
X190392309Y-148796467D01*
X190459426Y-148776443D01*
X190529926Y-148779755D01*
G37*
X189375886Y-148681289D02*
X189380139Y-148740613D01*
X189385025Y-148775572D01*
X189391795Y-148790820D01*
X189401702Y-148791015D01*
X189404914Y-148789195D01*
X189447644Y-148776015D01*
X189503227Y-148776785D01*
X189559737Y-148790333D01*
X189595082Y-148807861D01*
X189631321Y-148835861D01*
X189657813Y-148867549D01*
X189675999Y-148907813D01*
X189687322Y-148961543D01*
X189693222Y-149033626D01*
X189695143Y-149128951D01*
X189695177Y-149147237D01*
X189695200Y-149352646D01*
X189649491Y-149368580D01*
X189617027Y-149379420D01*
X189599215Y-149384468D01*
X189598691Y-149384514D01*
X189596937Y-149370828D01*
X189595444Y-149333076D01*
X189594326Y-149276224D01*
X189593697Y-149205234D01*
X189593600Y-149162073D01*
X189593398Y-149076973D01*
X189592358Y-149015981D01*
X189589831Y-148974177D01*
X189585164Y-148946642D01*
X189577707Y-148928456D01*
X189566811Y-148914698D01*
X189560007Y-148908073D01*
X189513272Y-148881375D01*
X189462272Y-148879375D01*
X189416001Y-148901955D01*
X189407444Y-148910107D01*
X189394893Y-148925436D01*
X189386188Y-148943618D01*
X189380631Y-148969909D01*
X189377526Y-149009562D01*
X189376176Y-149067832D01*
X189375886Y-149148173D01*
X189375886Y-149352646D01*
X189330177Y-149368580D01*
X189297713Y-149379420D01*
X189279901Y-149384468D01*
X189279377Y-149384514D01*
X189278037Y-149370623D01*
X189276828Y-149331439D01*
X189275801Y-149270700D01*
X189275002Y-149192141D01*
X189274481Y-149099498D01*
X189274286Y-148996509D01*
X189274286Y-148599342D01*
X189321457Y-148579444D01*
X189368629Y-148559547D01*
X189375886Y-148681289D01*
G36*
X189375886Y-148681289D02*
G01*
X189380139Y-148740613D01*
X189385025Y-148775572D01*
X189391795Y-148790820D01*
X189401702Y-148791015D01*
X189404914Y-148789195D01*
X189447644Y-148776015D01*
X189503227Y-148776785D01*
X189559737Y-148790333D01*
X189595082Y-148807861D01*
X189631321Y-148835861D01*
X189657813Y-148867549D01*
X189675999Y-148907813D01*
X189687322Y-148961543D01*
X189693222Y-149033626D01*
X189695143Y-149128951D01*
X189695177Y-149147237D01*
X189695200Y-149352646D01*
X189649491Y-149368580D01*
X189617027Y-149379420D01*
X189599215Y-149384468D01*
X189598691Y-149384514D01*
X189596937Y-149370828D01*
X189595444Y-149333076D01*
X189594326Y-149276224D01*
X189593697Y-149205234D01*
X189593600Y-149162073D01*
X189593398Y-149076973D01*
X189592358Y-149015981D01*
X189589831Y-148974177D01*
X189585164Y-148946642D01*
X189577707Y-148928456D01*
X189566811Y-148914698D01*
X189560007Y-148908073D01*
X189513272Y-148881375D01*
X189462272Y-148879375D01*
X189416001Y-148901955D01*
X189407444Y-148910107D01*
X189394893Y-148925436D01*
X189386188Y-148943618D01*
X189380631Y-148969909D01*
X189377526Y-149009562D01*
X189376176Y-149067832D01*
X189375886Y-149148173D01*
X189375886Y-149352646D01*
X189330177Y-149368580D01*
X189297713Y-149379420D01*
X189279901Y-149384468D01*
X189279377Y-149384514D01*
X189278037Y-149370623D01*
X189276828Y-149331439D01*
X189275801Y-149270700D01*
X189275002Y-149192141D01*
X189274481Y-149099498D01*
X189274286Y-148996509D01*
X189274286Y-148599342D01*
X189321457Y-148579444D01*
X189368629Y-148559547D01*
X189375886Y-148681289D01*
G37*
X191779833Y-148788663D02*
X191782048Y-148826850D01*
X191783784Y-148884886D01*
X191784899Y-148958180D01*
X191785257Y-149035055D01*
X191785257Y-149295196D01*
X191739326Y-149341127D01*
X191707675Y-149369429D01*
X191679890Y-149380893D01*
X191641915Y-149380168D01*
X191626840Y-149378321D01*
X191579726Y-149372948D01*
X191540756Y-149369869D01*
X191531257Y-149369585D01*
X191499233Y-149371445D01*
X191453432Y-149376114D01*
X191435674Y-149378321D01*
X191392057Y-149381735D01*
X191362745Y-149374320D01*
X191333680Y-149351427D01*
X191323188Y-149341127D01*
X191277257Y-149295196D01*
X191277257Y-148808602D01*
X191314226Y-148791758D01*
X191346059Y-148779282D01*
X191364683Y-148774914D01*
X191369458Y-148788718D01*
X191373921Y-148827286D01*
X191377775Y-148886356D01*
X191380722Y-148961663D01*
X191382143Y-149025286D01*
X191386114Y-149275657D01*
X191420759Y-149280556D01*
X191452268Y-149277131D01*
X191467708Y-149266041D01*
X191472023Y-149245308D01*
X191475708Y-149201145D01*
X191478469Y-149139146D01*
X191480012Y-149064909D01*
X191480235Y-149026706D01*
X191480457Y-148806783D01*
X191526166Y-148790849D01*
X191558518Y-148780015D01*
X191576115Y-148774962D01*
X191576623Y-148774914D01*
X191578388Y-148788648D01*
X191580329Y-148826730D01*
X191582282Y-148884482D01*
X191584084Y-148957227D01*
X191585343Y-149025286D01*
X191589314Y-149275657D01*
X191676400Y-149275657D01*
X191680396Y-149047240D01*
X191684392Y-148818822D01*
X191726847Y-148796868D01*
X191758192Y-148781793D01*
X191776744Y-148774951D01*
X191777279Y-148774914D01*
X191779833Y-148788663D01*
G36*
X191779833Y-148788663D02*
G01*
X191782048Y-148826850D01*
X191783784Y-148884886D01*
X191784899Y-148958180D01*
X191785257Y-149035055D01*
X191785257Y-149295196D01*
X191739326Y-149341127D01*
X191707675Y-149369429D01*
X191679890Y-149380893D01*
X191641915Y-149380168D01*
X191626840Y-149378321D01*
X191579726Y-149372948D01*
X191540756Y-149369869D01*
X191531257Y-149369585D01*
X191499233Y-149371445D01*
X191453432Y-149376114D01*
X191435674Y-149378321D01*
X191392057Y-149381735D01*
X191362745Y-149374320D01*
X191333680Y-149351427D01*
X191323188Y-149341127D01*
X191277257Y-149295196D01*
X191277257Y-148808602D01*
X191314226Y-148791758D01*
X191346059Y-148779282D01*
X191364683Y-148774914D01*
X191369458Y-148788718D01*
X191373921Y-148827286D01*
X191377775Y-148886356D01*
X191380722Y-148961663D01*
X191382143Y-149025286D01*
X191386114Y-149275657D01*
X191420759Y-149280556D01*
X191452268Y-149277131D01*
X191467708Y-149266041D01*
X191472023Y-149245308D01*
X191475708Y-149201145D01*
X191478469Y-149139146D01*
X191480012Y-149064909D01*
X191480235Y-149026706D01*
X191480457Y-148806783D01*
X191526166Y-148790849D01*
X191558518Y-148780015D01*
X191576115Y-148774962D01*
X191576623Y-148774914D01*
X191578388Y-148788648D01*
X191580329Y-148826730D01*
X191582282Y-148884482D01*
X191584084Y-148957227D01*
X191585343Y-149025286D01*
X191589314Y-149275657D01*
X191676400Y-149275657D01*
X191680396Y-149047240D01*
X191684392Y-148818822D01*
X191726847Y-148796868D01*
X191758192Y-148781793D01*
X191776744Y-148774951D01*
X191777279Y-148774914D01*
X191779833Y-148788663D01*
G37*
X186734322Y-149060192D02*
X186879429Y-149060192D01*
X186880273Y-149126430D01*
X186883596Y-149170386D01*
X186890583Y-149198779D01*
X186902416Y-149218325D01*
X186908457Y-149224857D01*
X186943186Y-149249680D01*
X186976903Y-149248548D01*
X187010995Y-149227016D01*
X187031329Y-149204029D01*
X187043371Y-149170478D01*
X187050134Y-149117569D01*
X187050598Y-149111399D01*
X187051752Y-149015513D01*
X187039688Y-148944299D01*
X187014570Y-148898194D01*
X186976560Y-148877635D01*
X186962992Y-148876514D01*
X186927364Y-148882152D01*
X186902994Y-148901686D01*
X186888093Y-148939042D01*
X186880875Y-148998150D01*
X186879429Y-149060192D01*
X186734322Y-149060192D01*
X186734826Y-148990413D01*
X186737096Y-148938159D01*
X186742068Y-148901949D01*
X186750713Y-148875299D01*
X186764005Y-148851722D01*
X186766943Y-148847338D01*
X186816313Y-148788249D01*
X186870109Y-148753947D01*
X186935602Y-148740331D01*
X186957842Y-148739665D01*
X187041115Y-148751962D01*
X187109145Y-148787733D01*
X187159351Y-148845301D01*
X187177185Y-148882312D01*
X187191063Y-148937882D01*
X187198167Y-149008096D01*
X187198840Y-149084727D01*
X187193427Y-149159552D01*
X187182270Y-149224342D01*
X187165714Y-149270873D01*
X187160626Y-149278887D01*
X187100355Y-149338707D01*
X187028769Y-149374535D01*
X186951092Y-149385020D01*
X186872548Y-149368810D01*
X186850689Y-149359092D01*
X186808122Y-149329143D01*
X186770763Y-149289433D01*
X186767232Y-149284397D01*
X186752881Y-149260124D01*
X186743394Y-149234178D01*
X186737790Y-149200022D01*
X186735086Y-149151119D01*
X186734299Y-149080935D01*
X186734286Y-149065200D01*
X186734322Y-149060192D01*
G36*
X186734322Y-149060192D02*
G01*
X186879429Y-149060192D01*
X186880273Y-149126430D01*
X186883596Y-149170386D01*
X186890583Y-149198779D01*
X186902416Y-149218325D01*
X186908457Y-149224857D01*
X186943186Y-149249680D01*
X186976903Y-149248548D01*
X187010995Y-149227016D01*
X187031329Y-149204029D01*
X187043371Y-149170478D01*
X187050134Y-149117569D01*
X187050598Y-149111399D01*
X187051752Y-149015513D01*
X187039688Y-148944299D01*
X187014570Y-148898194D01*
X186976560Y-148877635D01*
X186962992Y-148876514D01*
X186927364Y-148882152D01*
X186902994Y-148901686D01*
X186888093Y-148939042D01*
X186880875Y-148998150D01*
X186879429Y-149060192D01*
X186734322Y-149060192D01*
X186734826Y-148990413D01*
X186737096Y-148938159D01*
X186742068Y-148901949D01*
X186750713Y-148875299D01*
X186764005Y-148851722D01*
X186766943Y-148847338D01*
X186816313Y-148788249D01*
X186870109Y-148753947D01*
X186935602Y-148740331D01*
X186957842Y-148739665D01*
X187041115Y-148751962D01*
X187109145Y-148787733D01*
X187159351Y-148845301D01*
X187177185Y-148882312D01*
X187191063Y-148937882D01*
X187198167Y-149008096D01*
X187198840Y-149084727D01*
X187193427Y-149159552D01*
X187182270Y-149224342D01*
X187165714Y-149270873D01*
X187160626Y-149278887D01*
X187100355Y-149338707D01*
X187028769Y-149374535D01*
X186951092Y-149385020D01*
X186872548Y-149368810D01*
X186850689Y-149359092D01*
X186808122Y-149329143D01*
X186770763Y-149289433D01*
X186767232Y-149284397D01*
X186752881Y-149260124D01*
X186743394Y-149234178D01*
X186737790Y-149200022D01*
X186735086Y-149151119D01*
X186734299Y-149080935D01*
X186734286Y-149065200D01*
X186734322Y-149060192D01*
G37*
X192860372Y-149036247D02*
X192948007Y-149036247D01*
X192949023Y-149061126D01*
X192951556Y-149065200D01*
X192968274Y-149059665D01*
X193004249Y-149045017D01*
X193052331Y-149024190D01*
X193062386Y-149019714D01*
X193123152Y-148988814D01*
X193156632Y-148961657D01*
X193163990Y-148936220D01*
X193146391Y-148910481D01*
X193131856Y-148899109D01*
X193079410Y-148876364D01*
X193030322Y-148880122D01*
X192989227Y-148907884D01*
X192960758Y-148957152D01*
X192951631Y-148996257D01*
X192948007Y-149036247D01*
X192860372Y-149036247D01*
X192861285Y-148992249D01*
X192868196Y-148925384D01*
X192881884Y-148876695D01*
X192904096Y-148840849D01*
X192936574Y-148812513D01*
X192950733Y-148803355D01*
X193015053Y-148779507D01*
X193085473Y-148778006D01*
X193153595Y-148796966D01*
X193211021Y-148834497D01*
X193238719Y-148868096D01*
X193260662Y-148929064D01*
X193262405Y-148977308D01*
X193258457Y-149041816D01*
X193109686Y-149106934D01*
X193037349Y-149140202D01*
X192990084Y-149166964D01*
X192965507Y-149190144D01*
X192961237Y-149212667D01*
X192974889Y-149237455D01*
X192989943Y-149253886D01*
X193033746Y-149280235D01*
X193081389Y-149282081D01*
X193125145Y-149261546D01*
X193157289Y-149220752D01*
X193163038Y-149206347D01*
X193190576Y-149161356D01*
X193222258Y-149142182D01*
X193265714Y-149125779D01*
X193265714Y-149187966D01*
X193261872Y-149230283D01*
X193246823Y-149265969D01*
X193215280Y-149306943D01*
X193210592Y-149312267D01*
X193175506Y-149348720D01*
X193145347Y-149368283D01*
X193107615Y-149377283D01*
X193076335Y-149380230D01*
X193020385Y-149380965D01*
X192980555Y-149371660D01*
X192955708Y-149357846D01*
X192916656Y-149327467D01*
X192889625Y-149294613D01*
X192872517Y-149253294D01*
X192863238Y-149197521D01*
X192859693Y-149121305D01*
X192859410Y-149082622D01*
X192860372Y-149036247D01*
G36*
X192860372Y-149036247D02*
G01*
X192948007Y-149036247D01*
X192949023Y-149061126D01*
X192951556Y-149065200D01*
X192968274Y-149059665D01*
X193004249Y-149045017D01*
X193052331Y-149024190D01*
X193062386Y-149019714D01*
X193123152Y-148988814D01*
X193156632Y-148961657D01*
X193163990Y-148936220D01*
X193146391Y-148910481D01*
X193131856Y-148899109D01*
X193079410Y-148876364D01*
X193030322Y-148880122D01*
X192989227Y-148907884D01*
X192960758Y-148957152D01*
X192951631Y-148996257D01*
X192948007Y-149036247D01*
X192860372Y-149036247D01*
X192861285Y-148992249D01*
X192868196Y-148925384D01*
X192881884Y-148876695D01*
X192904096Y-148840849D01*
X192936574Y-148812513D01*
X192950733Y-148803355D01*
X193015053Y-148779507D01*
X193085473Y-148778006D01*
X193153595Y-148796966D01*
X193211021Y-148834497D01*
X193238719Y-148868096D01*
X193260662Y-148929064D01*
X193262405Y-148977308D01*
X193258457Y-149041816D01*
X193109686Y-149106934D01*
X193037349Y-149140202D01*
X192990084Y-149166964D01*
X192965507Y-149190144D01*
X192961237Y-149212667D01*
X192974889Y-149237455D01*
X192989943Y-149253886D01*
X193033746Y-149280235D01*
X193081389Y-149282081D01*
X193125145Y-149261546D01*
X193157289Y-149220752D01*
X193163038Y-149206347D01*
X193190576Y-149161356D01*
X193222258Y-149142182D01*
X193265714Y-149125779D01*
X193265714Y-149187966D01*
X193261872Y-149230283D01*
X193246823Y-149265969D01*
X193215280Y-149306943D01*
X193210592Y-149312267D01*
X193175506Y-149348720D01*
X193145347Y-149368283D01*
X193107615Y-149377283D01*
X193076335Y-149380230D01*
X193020385Y-149380965D01*
X192980555Y-149371660D01*
X192955708Y-149357846D01*
X192916656Y-149327467D01*
X192889625Y-149294613D01*
X192872517Y-149253294D01*
X192863238Y-149197521D01*
X192859693Y-149121305D01*
X192859410Y-149082622D01*
X192860372Y-149036247D01*
G37*
X190769458Y-149075647D02*
X190870857Y-149075647D01*
X190871476Y-149140550D01*
X190874314Y-149183514D01*
X190880840Y-149211622D01*
X190892523Y-149231953D01*
X190906483Y-149247288D01*
X190953365Y-149276890D01*
X191003701Y-149279419D01*
X191051276Y-149254705D01*
X191054979Y-149251356D01*
X191070783Y-149233935D01*
X191080693Y-149213209D01*
X191086058Y-149182362D01*
X191088228Y-149134577D01*
X191088571Y-149081748D01*
X191087827Y-149015381D01*
X191084748Y-148971106D01*
X191078061Y-148942009D01*
X191066496Y-148921173D01*
X191057013Y-148910107D01*
X191012960Y-148882198D01*
X190962224Y-148878843D01*
X190913796Y-148900159D01*
X190904450Y-148908073D01*
X190888540Y-148925647D01*
X190878610Y-148946587D01*
X190873278Y-148977782D01*
X190871163Y-149026122D01*
X190870857Y-149075647D01*
X190769458Y-149075647D01*
X190772810Y-148988568D01*
X190784726Y-148920086D01*
X190807135Y-148868600D01*
X190842124Y-148828443D01*
X190869375Y-148807861D01*
X190918907Y-148785625D01*
X190976316Y-148775304D01*
X191029682Y-148778067D01*
X191059543Y-148789212D01*
X191071261Y-148792383D01*
X191079037Y-148780557D01*
X191084465Y-148748866D01*
X191088571Y-148700593D01*
X191093067Y-148646829D01*
X191099313Y-148614482D01*
X191110676Y-148595985D01*
X191130528Y-148583770D01*
X191143000Y-148578362D01*
X191190171Y-148558601D01*
X191190117Y-148895358D01*
X191189933Y-149003837D01*
X191189219Y-149087287D01*
X191187675Y-149149704D01*
X191185001Y-149195085D01*
X191180894Y-149227429D01*
X191175055Y-149250733D01*
X191167182Y-149268995D01*
X191161221Y-149279418D01*
X191111855Y-149335945D01*
X191049264Y-149371377D01*
X190980013Y-149384090D01*
X190910668Y-149372463D01*
X190869375Y-149351568D01*
X190826025Y-149315422D01*
X190796481Y-149271276D01*
X190778655Y-149213462D01*
X190770463Y-149136313D01*
X190769302Y-149079714D01*
X190769458Y-149075647D01*
G36*
X190769458Y-149075647D02*
G01*
X190870857Y-149075647D01*
X190871476Y-149140550D01*
X190874314Y-149183514D01*
X190880840Y-149211622D01*
X190892523Y-149231953D01*
X190906483Y-149247288D01*
X190953365Y-149276890D01*
X191003701Y-149279419D01*
X191051276Y-149254705D01*
X191054979Y-149251356D01*
X191070783Y-149233935D01*
X191080693Y-149213209D01*
X191086058Y-149182362D01*
X191088228Y-149134577D01*
X191088571Y-149081748D01*
X191087827Y-149015381D01*
X191084748Y-148971106D01*
X191078061Y-148942009D01*
X191066496Y-148921173D01*
X191057013Y-148910107D01*
X191012960Y-148882198D01*
X190962224Y-148878843D01*
X190913796Y-148900159D01*
X190904450Y-148908073D01*
X190888540Y-148925647D01*
X190878610Y-148946587D01*
X190873278Y-148977782D01*
X190871163Y-149026122D01*
X190870857Y-149075647D01*
X190769458Y-149075647D01*
X190772810Y-148988568D01*
X190784726Y-148920086D01*
X190807135Y-148868600D01*
X190842124Y-148828443D01*
X190869375Y-148807861D01*
X190918907Y-148785625D01*
X190976316Y-148775304D01*
X191029682Y-148778067D01*
X191059543Y-148789212D01*
X191071261Y-148792383D01*
X191079037Y-148780557D01*
X191084465Y-148748866D01*
X191088571Y-148700593D01*
X191093067Y-148646829D01*
X191099313Y-148614482D01*
X191110676Y-148595985D01*
X191130528Y-148583770D01*
X191143000Y-148578362D01*
X191190171Y-148558601D01*
X191190117Y-148895358D01*
X191189933Y-149003837D01*
X191189219Y-149087287D01*
X191187675Y-149149704D01*
X191185001Y-149195085D01*
X191180894Y-149227429D01*
X191175055Y-149250733D01*
X191167182Y-149268995D01*
X191161221Y-149279418D01*
X191111855Y-149335945D01*
X191049264Y-149371377D01*
X190980013Y-149384090D01*
X190910668Y-149372463D01*
X190869375Y-149351568D01*
X190826025Y-149315422D01*
X190796481Y-149271276D01*
X190778655Y-149213462D01*
X190770463Y-149136313D01*
X190769302Y-149079714D01*
X190769458Y-149075647D01*
G37*
X187843233Y-148972748D02*
X187982514Y-148972748D01*
X187984324Y-149004753D01*
X187994222Y-149014093D01*
X188018898Y-149007105D01*
X188057795Y-148990587D01*
X188101275Y-148969881D01*
X188102356Y-148969333D01*
X188139209Y-148949949D01*
X188154000Y-148937013D01*
X188150353Y-148923451D01*
X188134995Y-148905632D01*
X188095923Y-148879845D01*
X188053846Y-148877950D01*
X188016103Y-148896717D01*
X187990034Y-148932915D01*
X187982514Y-148972748D01*
X187843233Y-148972748D01*
X187847194Y-148936027D01*
X187871550Y-148866212D01*
X187905456Y-148817302D01*
X187966653Y-148767878D01*
X188034063Y-148743359D01*
X188102880Y-148741797D01*
X188168303Y-148761239D01*
X188225527Y-148799735D01*
X188269749Y-148855335D01*
X188296167Y-148926086D01*
X188301510Y-148978162D01*
X188300903Y-148999893D01*
X188295822Y-149016531D01*
X188281855Y-149031437D01*
X188254589Y-149047973D01*
X188209612Y-149069498D01*
X188142511Y-149099374D01*
X188142171Y-149099524D01*
X188080407Y-149127813D01*
X188029759Y-149152933D01*
X187995404Y-149172179D01*
X187982518Y-149182848D01*
X187982514Y-149182934D01*
X187993872Y-149206166D01*
X188020431Y-149231774D01*
X188050923Y-149250221D01*
X188066370Y-149253886D01*
X188108515Y-149241212D01*
X188144808Y-149209471D01*
X188162517Y-149174572D01*
X188179552Y-149148845D01*
X188212922Y-149119546D01*
X188252149Y-149094235D01*
X188286756Y-149080471D01*
X188293993Y-149079714D01*
X188302139Y-149092160D01*
X188302630Y-149123972D01*
X188296643Y-149166866D01*
X188285357Y-149212558D01*
X188269950Y-149252761D01*
X188269171Y-149254322D01*
X188222804Y-149319062D01*
X188162711Y-149363097D01*
X188094465Y-149384711D01*
X188023638Y-149382185D01*
X187955804Y-149353804D01*
X187952788Y-149351808D01*
X187899427Y-149303448D01*
X187864340Y-149240352D01*
X187844922Y-149157387D01*
X187842316Y-149134078D01*
X187837701Y-149024055D01*
X187843233Y-148972748D01*
G36*
X187843233Y-148972748D02*
G01*
X187982514Y-148972748D01*
X187984324Y-149004753D01*
X187994222Y-149014093D01*
X188018898Y-149007105D01*
X188057795Y-148990587D01*
X188101275Y-148969881D01*
X188102356Y-148969333D01*
X188139209Y-148949949D01*
X188154000Y-148937013D01*
X188150353Y-148923451D01*
X188134995Y-148905632D01*
X188095923Y-148879845D01*
X188053846Y-148877950D01*
X188016103Y-148896717D01*
X187990034Y-148932915D01*
X187982514Y-148972748D01*
X187843233Y-148972748D01*
X187847194Y-148936027D01*
X187871550Y-148866212D01*
X187905456Y-148817302D01*
X187966653Y-148767878D01*
X188034063Y-148743359D01*
X188102880Y-148741797D01*
X188168303Y-148761239D01*
X188225527Y-148799735D01*
X188269749Y-148855335D01*
X188296167Y-148926086D01*
X188301510Y-148978162D01*
X188300903Y-148999893D01*
X188295822Y-149016531D01*
X188281855Y-149031437D01*
X188254589Y-149047973D01*
X188209612Y-149069498D01*
X188142511Y-149099374D01*
X188142171Y-149099524D01*
X188080407Y-149127813D01*
X188029759Y-149152933D01*
X187995404Y-149172179D01*
X187982518Y-149182848D01*
X187982514Y-149182934D01*
X187993872Y-149206166D01*
X188020431Y-149231774D01*
X188050923Y-149250221D01*
X188066370Y-149253886D01*
X188108515Y-149241212D01*
X188144808Y-149209471D01*
X188162517Y-149174572D01*
X188179552Y-149148845D01*
X188212922Y-149119546D01*
X188252149Y-149094235D01*
X188286756Y-149080471D01*
X188293993Y-149079714D01*
X188302139Y-149092160D01*
X188302630Y-149123972D01*
X188296643Y-149166866D01*
X188285357Y-149212558D01*
X188269950Y-149252761D01*
X188269171Y-149254322D01*
X188222804Y-149319062D01*
X188162711Y-149363097D01*
X188094465Y-149384711D01*
X188023638Y-149382185D01*
X187955804Y-149353804D01*
X187952788Y-149351808D01*
X187899427Y-149303448D01*
X187864340Y-149240352D01*
X187844922Y-149157387D01*
X187842316Y-149134078D01*
X187837701Y-149024055D01*
X187843233Y-148972748D01*
G37*
X190039744Y-148780968D02*
X190096616Y-148802087D01*
X190097267Y-148802493D01*
X190132440Y-148828380D01*
X190158407Y-148858633D01*
X190176670Y-148898058D01*
X190188732Y-148951462D01*
X190196096Y-149023651D01*
X190200264Y-149119432D01*
X190200629Y-149133078D01*
X190205876Y-149338842D01*
X190161716Y-149361678D01*
X190129763Y-149377110D01*
X190110470Y-149384423D01*
X190109578Y-149384514D01*
X190106239Y-149371022D01*
X190103587Y-149334626D01*
X190101956Y-149281452D01*
X190101600Y-149238393D01*
X190101592Y-149168641D01*
X190098403Y-149124837D01*
X190087288Y-149103944D01*
X190063501Y-149102925D01*
X190022296Y-149118741D01*
X189960086Y-149147815D01*
X189914341Y-149171963D01*
X189890813Y-149192913D01*
X189883896Y-149215747D01*
X189883886Y-149216877D01*
X189895299Y-149256212D01*
X189929092Y-149277462D01*
X189980809Y-149280539D01*
X190018061Y-149280006D01*
X190037703Y-149290735D01*
X190049952Y-149316505D01*
X190057002Y-149349337D01*
X190046842Y-149367966D01*
X190043017Y-149370632D01*
X190007001Y-149381340D01*
X189956566Y-149382856D01*
X189904626Y-149375759D01*
X189867822Y-149362788D01*
X189816938Y-149319585D01*
X189788014Y-149259446D01*
X189782286Y-149212462D01*
X189786657Y-149170082D01*
X189802475Y-149135488D01*
X189833797Y-149104763D01*
X189884678Y-149073990D01*
X189959176Y-149039252D01*
X189963714Y-149037288D01*
X190030821Y-149006287D01*
X190072232Y-148980862D01*
X190089981Y-148958014D01*
X190086107Y-148934745D01*
X190062643Y-148908056D01*
X190055627Y-148901914D01*
X190008630Y-148878100D01*
X189959933Y-148879103D01*
X189917522Y-148902451D01*
X189889384Y-148945675D01*
X189886769Y-148954160D01*
X189861308Y-148995308D01*
X189829001Y-149015128D01*
X189782286Y-149034770D01*
X189782286Y-148983950D01*
X189796496Y-148910082D01*
X189838675Y-148842327D01*
X189860624Y-148819661D01*
X189910517Y-148790569D01*
X189973967Y-148777400D01*
X190039744Y-148780968D01*
G36*
X190039744Y-148780968D02*
G01*
X190096616Y-148802087D01*
X190097267Y-148802493D01*
X190132440Y-148828380D01*
X190158407Y-148858633D01*
X190176670Y-148898058D01*
X190188732Y-148951462D01*
X190196096Y-149023651D01*
X190200264Y-149119432D01*
X190200629Y-149133078D01*
X190205876Y-149338842D01*
X190161716Y-149361678D01*
X190129763Y-149377110D01*
X190110470Y-149384423D01*
X190109578Y-149384514D01*
X190106239Y-149371022D01*
X190103587Y-149334626D01*
X190101956Y-149281452D01*
X190101600Y-149238393D01*
X190101592Y-149168641D01*
X190098403Y-149124837D01*
X190087288Y-149103944D01*
X190063501Y-149102925D01*
X190022296Y-149118741D01*
X189960086Y-149147815D01*
X189914341Y-149171963D01*
X189890813Y-149192913D01*
X189883896Y-149215747D01*
X189883886Y-149216877D01*
X189895299Y-149256212D01*
X189929092Y-149277462D01*
X189980809Y-149280539D01*
X190018061Y-149280006D01*
X190037703Y-149290735D01*
X190049952Y-149316505D01*
X190057002Y-149349337D01*
X190046842Y-149367966D01*
X190043017Y-149370632D01*
X190007001Y-149381340D01*
X189956566Y-149382856D01*
X189904626Y-149375759D01*
X189867822Y-149362788D01*
X189816938Y-149319585D01*
X189788014Y-149259446D01*
X189782286Y-149212462D01*
X189786657Y-149170082D01*
X189802475Y-149135488D01*
X189833797Y-149104763D01*
X189884678Y-149073990D01*
X189959176Y-149039252D01*
X189963714Y-149037288D01*
X190030821Y-149006287D01*
X190072232Y-148980862D01*
X190089981Y-148958014D01*
X190086107Y-148934745D01*
X190062643Y-148908056D01*
X190055627Y-148901914D01*
X190008630Y-148878100D01*
X189959933Y-148879103D01*
X189917522Y-148902451D01*
X189889384Y-148945675D01*
X189886769Y-148954160D01*
X189861308Y-148995308D01*
X189829001Y-149015128D01*
X189782286Y-149034770D01*
X189782286Y-148983950D01*
X189796496Y-148910082D01*
X189838675Y-148842327D01*
X189860624Y-148819661D01*
X189910517Y-148790569D01*
X189973967Y-148777400D01*
X190039744Y-148780968D01*
G37*
X187291472Y-149058603D02*
X187430971Y-149058603D01*
X187431755Y-149120499D01*
X187435240Y-149160997D01*
X187443124Y-149187708D01*
X187457105Y-149208244D01*
X187466597Y-149218260D01*
X187505404Y-149247567D01*
X187539763Y-149249952D01*
X187575216Y-149225750D01*
X187576114Y-149224857D01*
X187590539Y-149206153D01*
X187599313Y-149180732D01*
X187603739Y-149141584D01*
X187605118Y-149081697D01*
X187605143Y-149068430D01*
X187601812Y-148985901D01*
X187590969Y-148928691D01*
X187571340Y-148893766D01*
X187541650Y-148878094D01*
X187524491Y-148876514D01*
X187483766Y-148883926D01*
X187455832Y-148908330D01*
X187439017Y-148952980D01*
X187431650Y-149021130D01*
X187430971Y-149058603D01*
X187291472Y-149058603D01*
X187291708Y-149045245D01*
X187293677Y-148980333D01*
X187296450Y-148932958D01*
X187300388Y-148899290D01*
X187305849Y-148875498D01*
X187313192Y-148857753D01*
X187322777Y-148842224D01*
X187326887Y-148836381D01*
X187381405Y-148781185D01*
X187450336Y-148749890D01*
X187530072Y-148741165D01*
X187599744Y-148749918D01*
X187655201Y-148777568D01*
X187704148Y-148828480D01*
X187717629Y-148847338D01*
X187732314Y-148872015D01*
X187741842Y-148898816D01*
X187747293Y-148934587D01*
X187749747Y-148986169D01*
X187750286Y-149054267D01*
X187747852Y-149147588D01*
X187739394Y-149217657D01*
X187723174Y-149269931D01*
X187697454Y-149309869D01*
X187660497Y-149342929D01*
X187657782Y-149344886D01*
X187621360Y-149364908D01*
X187577502Y-149374815D01*
X187521724Y-149377257D01*
X187431048Y-149377257D01*
X187431010Y-149465283D01*
X187430166Y-149514308D01*
X187425024Y-149543065D01*
X187411587Y-149560311D01*
X187385858Y-149574808D01*
X187379679Y-149577769D01*
X187350764Y-149591648D01*
X187328376Y-149600414D01*
X187311729Y-149601171D01*
X187300036Y-149591023D01*
X187292510Y-149567073D01*
X187288366Y-149526426D01*
X187286815Y-149466186D01*
X187287071Y-149383455D01*
X187288349Y-149275339D01*
X187288748Y-149243000D01*
X187290185Y-149131524D01*
X187291472Y-149058603D01*
G36*
X187291472Y-149058603D02*
G01*
X187430971Y-149058603D01*
X187431755Y-149120499D01*
X187435240Y-149160997D01*
X187443124Y-149187708D01*
X187457105Y-149208244D01*
X187466597Y-149218260D01*
X187505404Y-149247567D01*
X187539763Y-149249952D01*
X187575216Y-149225750D01*
X187576114Y-149224857D01*
X187590539Y-149206153D01*
X187599313Y-149180732D01*
X187603739Y-149141584D01*
X187605118Y-149081697D01*
X187605143Y-149068430D01*
X187601812Y-148985901D01*
X187590969Y-148928691D01*
X187571340Y-148893766D01*
X187541650Y-148878094D01*
X187524491Y-148876514D01*
X187483766Y-148883926D01*
X187455832Y-148908330D01*
X187439017Y-148952980D01*
X187431650Y-149021130D01*
X187430971Y-149058603D01*
X187291472Y-149058603D01*
X187291708Y-149045245D01*
X187293677Y-148980333D01*
X187296450Y-148932958D01*
X187300388Y-148899290D01*
X187305849Y-148875498D01*
X187313192Y-148857753D01*
X187322777Y-148842224D01*
X187326887Y-148836381D01*
X187381405Y-148781185D01*
X187450336Y-148749890D01*
X187530072Y-148741165D01*
X187599744Y-148749918D01*
X187655201Y-148777568D01*
X187704148Y-148828480D01*
X187717629Y-148847338D01*
X187732314Y-148872015D01*
X187741842Y-148898816D01*
X187747293Y-148934587D01*
X187749747Y-148986169D01*
X187750286Y-149054267D01*
X187747852Y-149147588D01*
X187739394Y-149217657D01*
X187723174Y-149269931D01*
X187697454Y-149309869D01*
X187660497Y-149342929D01*
X187657782Y-149344886D01*
X187621360Y-149364908D01*
X187577502Y-149374815D01*
X187521724Y-149377257D01*
X187431048Y-149377257D01*
X187431010Y-149465283D01*
X187430166Y-149514308D01*
X187425024Y-149543065D01*
X187411587Y-149560311D01*
X187385858Y-149574808D01*
X187379679Y-149577769D01*
X187350764Y-149591648D01*
X187328376Y-149600414D01*
X187311729Y-149601171D01*
X187300036Y-149591023D01*
X187292510Y-149567073D01*
X187288366Y-149526426D01*
X187286815Y-149466186D01*
X187287071Y-149383455D01*
X187288349Y-149275339D01*
X187288748Y-149243000D01*
X187290185Y-149131524D01*
X187291472Y-149058603D01*
G37*
X192144876Y-148786335D02*
X192186667Y-148805344D01*
X192219469Y-148828378D01*
X192243503Y-148854133D01*
X192260097Y-148887358D01*
X192270577Y-148932800D01*
X192276271Y-148995207D01*
X192278507Y-149079327D01*
X192278743Y-149134721D01*
X192278743Y-149350826D01*
X192241774Y-149367670D01*
X192212656Y-149379981D01*
X192198231Y-149384514D01*
X192195472Y-149371025D01*
X192193282Y-149334653D01*
X192191942Y-149281542D01*
X192191657Y-149239372D01*
X192190434Y-149178447D01*
X192187136Y-149130115D01*
X192182321Y-149100518D01*
X192178496Y-149094229D01*
X192152783Y-149100652D01*
X192112418Y-149117125D01*
X192065679Y-149139458D01*
X192020845Y-149163457D01*
X191986193Y-149184930D01*
X191970002Y-149199685D01*
X191969938Y-149199845D01*
X191971330Y-149227152D01*
X191983818Y-149253219D01*
X192005743Y-149274392D01*
X192037743Y-149281474D01*
X192065092Y-149280649D01*
X192103826Y-149280042D01*
X192124158Y-149289116D01*
X192136369Y-149313092D01*
X192137909Y-149317613D01*
X192143203Y-149351806D01*
X192129047Y-149372568D01*
X192092148Y-149382462D01*
X192052289Y-149384292D01*
X191980562Y-149370727D01*
X191943432Y-149351355D01*
X191897576Y-149305845D01*
X191873256Y-149249983D01*
X191871073Y-149190957D01*
X191891629Y-149135953D01*
X191922549Y-149101486D01*
X191953420Y-149082189D01*
X192001942Y-149057759D01*
X192058485Y-149032985D01*
X192067910Y-149029199D01*
X192130019Y-149001791D01*
X192165822Y-148977634D01*
X192177337Y-148953619D01*
X192166580Y-148926635D01*
X192148114Y-148905543D01*
X192104469Y-148879572D01*
X192056446Y-148877624D01*
X192012406Y-148897637D01*
X191980709Y-148937551D01*
X191976549Y-148947848D01*
X191952327Y-148985724D01*
X191916965Y-149013842D01*
X191872343Y-149036917D01*
X191872343Y-148971485D01*
X191874969Y-148931506D01*
X191886230Y-148899997D01*
X191911199Y-148866378D01*
X191935169Y-148840484D01*
X191972441Y-148803817D01*
X192001401Y-148784121D01*
X192032505Y-148776220D01*
X192067713Y-148774914D01*
X192144876Y-148786335D01*
G36*
X192144876Y-148786335D02*
G01*
X192186667Y-148805344D01*
X192219469Y-148828378D01*
X192243503Y-148854133D01*
X192260097Y-148887358D01*
X192270577Y-148932800D01*
X192276271Y-148995207D01*
X192278507Y-149079327D01*
X192278743Y-149134721D01*
X192278743Y-149350826D01*
X192241774Y-149367670D01*
X192212656Y-149379981D01*
X192198231Y-149384514D01*
X192195472Y-149371025D01*
X192193282Y-149334653D01*
X192191942Y-149281542D01*
X192191657Y-149239372D01*
X192190434Y-149178447D01*
X192187136Y-149130115D01*
X192182321Y-149100518D01*
X192178496Y-149094229D01*
X192152783Y-149100652D01*
X192112418Y-149117125D01*
X192065679Y-149139458D01*
X192020845Y-149163457D01*
X191986193Y-149184930D01*
X191970002Y-149199685D01*
X191969938Y-149199845D01*
X191971330Y-149227152D01*
X191983818Y-149253219D01*
X192005743Y-149274392D01*
X192037743Y-149281474D01*
X192065092Y-149280649D01*
X192103826Y-149280042D01*
X192124158Y-149289116D01*
X192136369Y-149313092D01*
X192137909Y-149317613D01*
X192143203Y-149351806D01*
X192129047Y-149372568D01*
X192092148Y-149382462D01*
X192052289Y-149384292D01*
X191980562Y-149370727D01*
X191943432Y-149351355D01*
X191897576Y-149305845D01*
X191873256Y-149249983D01*
X191871073Y-149190957D01*
X191891629Y-149135953D01*
X191922549Y-149101486D01*
X191953420Y-149082189D01*
X192001942Y-149057759D01*
X192058485Y-149032985D01*
X192067910Y-149029199D01*
X192130019Y-149001791D01*
X192165822Y-148977634D01*
X192177337Y-148953619D01*
X192166580Y-148926635D01*
X192148114Y-148905543D01*
X192104469Y-148879572D01*
X192056446Y-148877624D01*
X192012406Y-148897637D01*
X191980709Y-148937551D01*
X191976549Y-148947848D01*
X191952327Y-148985724D01*
X191916965Y-149013842D01*
X191872343Y-149036917D01*
X191872343Y-148971485D01*
X191874969Y-148931506D01*
X191886230Y-148899997D01*
X191911199Y-148866378D01*
X191935169Y-148840484D01*
X191972441Y-148803817D01*
X192001401Y-148784121D01*
X192032505Y-148776220D01*
X192067713Y-148774914D01*
X192144876Y-148786335D01*
G37*
X190103910Y-144072348D02*
X190182454Y-144072778D01*
X190239298Y-144073942D01*
X190278105Y-144076207D01*
X190302538Y-144079940D01*
X190316262Y-144085506D01*
X190322940Y-144093273D01*
X190326236Y-144103605D01*
X190326556Y-144104943D01*
X190331562Y-144129079D01*
X190340829Y-144176701D01*
X190353392Y-144242741D01*
X190368287Y-144322128D01*
X190384551Y-144409796D01*
X190385119Y-144412875D01*
X190401410Y-144498789D01*
X190416652Y-144574696D01*
X190429861Y-144636045D01*
X190440054Y-144678282D01*
X190446248Y-144696855D01*
X190446543Y-144697184D01*
X190464788Y-144706253D01*
X190502405Y-144721367D01*
X190551271Y-144739262D01*
X190551543Y-144739358D01*
X190613093Y-144762493D01*
X190685657Y-144791965D01*
X190754057Y-144821597D01*
X190757294Y-144823062D01*
X190868702Y-144873626D01*
X191115399Y-144705160D01*
X191191077Y-144653803D01*
X191259631Y-144607889D01*
X191317088Y-144570030D01*
X191359476Y-144542837D01*
X191382825Y-144528921D01*
X191385042Y-144527889D01*
X191402010Y-144532484D01*
X191433701Y-144554655D01*
X191481352Y-144595447D01*
X191546198Y-144655905D01*
X191612397Y-144720227D01*
X191676214Y-144783612D01*
X191733329Y-144841451D01*
X191780305Y-144890175D01*
X191813703Y-144926210D01*
X191830085Y-144945984D01*
X191830694Y-144947002D01*
X191832505Y-144960572D01*
X191825683Y-144982733D01*
X191808540Y-145016478D01*
X191779393Y-145064800D01*
X191736555Y-145130692D01*
X191679448Y-145215517D01*
X191628766Y-145290177D01*
X191583461Y-145357140D01*
X191546150Y-145412516D01*
X191519452Y-145452420D01*
X191505985Y-145472962D01*
X191505137Y-145474356D01*
X191506781Y-145494038D01*
X191519245Y-145532293D01*
X191540048Y-145581889D01*
X191547462Y-145597728D01*
X191579814Y-145668290D01*
X191614328Y-145748353D01*
X191642365Y-145817629D01*
X191662568Y-145869045D01*
X191678615Y-145908119D01*
X191687888Y-145928541D01*
X191689041Y-145930114D01*
X191706096Y-145932721D01*
X191746298Y-145939863D01*
X191804302Y-145950523D01*
X191874763Y-145963685D01*
X191952335Y-145978333D01*
X192031672Y-145993449D01*
X192107431Y-146008018D01*
X192174264Y-146021022D01*
X192226828Y-146031445D01*
X192259776Y-146038270D01*
X192267857Y-146040199D01*
X192276205Y-146044962D01*
X192282506Y-146055718D01*
X192287045Y-146076098D01*
X192290104Y-146109734D01*
X192291967Y-146160255D01*
X192292918Y-146231292D01*
X192293240Y-146326476D01*
X192293257Y-146365492D01*
X192293257Y-146682799D01*
X192217057Y-146697839D01*
X192174663Y-146705995D01*
X192111400Y-146717899D01*
X192034962Y-146732116D01*
X191953043Y-146747210D01*
X191930400Y-146751355D01*
X191854806Y-146766053D01*
X191788953Y-146780505D01*
X191738366Y-146793375D01*
X191708574Y-146803322D01*
X191703612Y-146806287D01*
X191691426Y-146827283D01*
X191673953Y-146867967D01*
X191654577Y-146920322D01*
X191650734Y-146931600D01*
X191625339Y-147001523D01*
X191593817Y-147080418D01*
X191562969Y-147151266D01*
X191562817Y-147151595D01*
X191511447Y-147262733D01*
X191680399Y-147511253D01*
X191849352Y-147759772D01*
X191632429Y-147977058D01*
X191566819Y-148041726D01*
X191506979Y-148098733D01*
X191456267Y-148145033D01*
X191418046Y-148177584D01*
X191395675Y-148193343D01*
X191392466Y-148194343D01*
X191373626Y-148186469D01*
X191335180Y-148164578D01*
X191281330Y-148131267D01*
X191216276Y-148089131D01*
X191145940Y-148041943D01*
X191074555Y-147993810D01*
X191010908Y-147951928D01*
X190959041Y-147918871D01*
X190922995Y-147897218D01*
X190906867Y-147889543D01*
X190887189Y-147896037D01*
X190849875Y-147913150D01*
X190802621Y-147937326D01*
X190797612Y-147940013D01*
X190733977Y-147971927D01*
X190690341Y-147987579D01*
X190663202Y-147987745D01*
X190649057Y-147973204D01*
X190648975Y-147973000D01*
X190641905Y-147955779D01*
X190625042Y-147914899D01*
X190599695Y-147853525D01*
X190567171Y-147774819D01*
X190528778Y-147681947D01*
X190485822Y-147578072D01*
X190444222Y-147477502D01*
X190398504Y-147366516D01*
X190356526Y-147263703D01*
X190319548Y-147172215D01*
X190288827Y-147095201D01*
X190265622Y-147035815D01*
X190251190Y-146997209D01*
X190246743Y-146982800D01*
X190257896Y-146966272D01*
X190287069Y-146939930D01*
X190325971Y-146910887D01*
X190436757Y-146819039D01*
X190523351Y-146713759D01*
X190584716Y-146597266D01*
X190619815Y-146471776D01*
X190627608Y-146339507D01*
X190621943Y-146278457D01*
X190591078Y-146151795D01*
X190537920Y-146039941D01*
X190465767Y-145944001D01*
X190377917Y-145865076D01*
X190277665Y-145804270D01*
X190168310Y-145762687D01*
X190053147Y-145741428D01*
X189935475Y-145741599D01*
X189818590Y-145764301D01*
X189705789Y-145810638D01*
X189600369Y-145881713D01*
X189556368Y-145921911D01*
X189471979Y-146025129D01*
X189413222Y-146137925D01*
X189379704Y-146257010D01*
X189371035Y-146379095D01*
X189386823Y-146500893D01*
X189426678Y-146619116D01*
X189490207Y-146730475D01*
X189577021Y-146831684D01*
X189674029Y-146910887D01*
X189714437Y-146941162D01*
X189742982Y-146967219D01*
X189753257Y-146982825D01*
X189747877Y-146999843D01*
X189732575Y-147040500D01*
X189708612Y-147101642D01*
X189677244Y-147180119D01*
X189639732Y-147272780D01*
X189597333Y-147376472D01*
X189555663Y-147477526D01*
X189509690Y-147588607D01*
X189467107Y-147691541D01*
X189429221Y-147783165D01*
X189397340Y-147860316D01*
X189372771Y-147919831D01*
X189356820Y-147958544D01*
X189350910Y-147973000D01*
X189336948Y-147987685D01*
X189309940Y-147987642D01*
X189266413Y-147972099D01*
X189202890Y-147940284D01*
X189202388Y-147940013D01*
X189154560Y-147915323D01*
X189115897Y-147897338D01*
X189094095Y-147889614D01*
X189093133Y-147889543D01*
X189076721Y-147897378D01*
X189040487Y-147919165D01*
X188988474Y-147952328D01*
X188924725Y-147994291D01*
X188854060Y-148041943D01*
X188782116Y-148090191D01*
X188717274Y-148132151D01*
X188663735Y-148165227D01*
X188625697Y-148186821D01*
X188607533Y-148194343D01*
X188590808Y-148184457D01*
X188557180Y-148156826D01*
X188510010Y-148114495D01*
X188452658Y-148060505D01*
X188388484Y-147997899D01*
X188367497Y-147976983D01*
X188150499Y-147759623D01*
X188315668Y-147517220D01*
X188365864Y-147442781D01*
X188409919Y-147375972D01*
X188445362Y-147320665D01*
X188469719Y-147280729D01*
X188480522Y-147260036D01*
X188480838Y-147258563D01*
X188475143Y-147239058D01*
X188459826Y-147199822D01*
X188437537Y-147147430D01*
X188421893Y-147112355D01*
X188392641Y-147045201D01*
X188365094Y-146977358D01*
X188343737Y-146920034D01*
X188337935Y-146902572D01*
X188321452Y-146855938D01*
X188305340Y-146819905D01*
X188296490Y-146806287D01*
X188276960Y-146797952D01*
X188234334Y-146786137D01*
X188174145Y-146772181D01*
X188101922Y-146757422D01*
X188069600Y-146751355D01*
X187987522Y-146736273D01*
X187908795Y-146721669D01*
X187841109Y-146708980D01*
X187792160Y-146699642D01*
X187782943Y-146697839D01*
X187706743Y-146682799D01*
X187706743Y-146365492D01*
X187706914Y-146261154D01*
X187707616Y-146182213D01*
X187709134Y-146125038D01*
X187711749Y-146085999D01*
X187715746Y-146061465D01*
X187721409Y-146047805D01*
X187729020Y-146041389D01*
X187732143Y-146040199D01*
X187750978Y-146035980D01*
X187792588Y-146027562D01*
X187851630Y-146015961D01*
X187922757Y-146002195D01*
X188000625Y-145987280D01*
X188079887Y-145972232D01*
X188155198Y-145958069D01*
X188221213Y-145945806D01*
X188272587Y-145936461D01*
X188303975Y-145931050D01*
X188310959Y-145930114D01*
X188317285Y-145917596D01*
X188331290Y-145884246D01*
X188350355Y-145836377D01*
X188357634Y-145817629D01*
X188386996Y-145745195D01*
X188421571Y-145665170D01*
X188452537Y-145597728D01*
X188475323Y-145546159D01*
X188490482Y-145503785D01*
X188495542Y-145477834D01*
X188494736Y-145474356D01*
X188484041Y-145457936D01*
X188459620Y-145421417D01*
X188424095Y-145368687D01*
X188380087Y-145303635D01*
X188330217Y-145230151D01*
X188320356Y-145215645D01*
X188262492Y-145129704D01*
X188219956Y-145064261D01*
X188191054Y-145016304D01*
X188174090Y-144982820D01*
X188167367Y-144960795D01*
X188169190Y-144947217D01*
X188169236Y-144947131D01*
X188183586Y-144929297D01*
X188215323Y-144894817D01*
X188261010Y-144847268D01*
X188317204Y-144790222D01*
X188380468Y-144727255D01*
X188387602Y-144720227D01*
X188467330Y-144643020D01*
X188528857Y-144586330D01*
X188573421Y-144549110D01*
X188602257Y-144530315D01*
X188614958Y-144527889D01*
X188633494Y-144538471D01*
X188671961Y-144562916D01*
X188726386Y-144598612D01*
X188792798Y-144642947D01*
X188867225Y-144693311D01*
X188884601Y-144705160D01*
X189131297Y-144873626D01*
X189242706Y-144823062D01*
X189310457Y-144793595D01*
X189383183Y-144763959D01*
X189445703Y-144740330D01*
X189448457Y-144739358D01*
X189497360Y-144721457D01*
X189535057Y-144706320D01*
X189553425Y-144697210D01*
X189553456Y-144697184D01*
X189559285Y-144680717D01*
X189569192Y-144640219D01*
X189582195Y-144580242D01*
X189597309Y-144505340D01*
X189613552Y-144420064D01*
X189614881Y-144412875D01*
X189631175Y-144325014D01*
X189646133Y-144245260D01*
X189658791Y-144178681D01*
X189668186Y-144130347D01*
X189673354Y-144105325D01*
X189673444Y-144104943D01*
X189676589Y-144094299D01*
X189682704Y-144086262D01*
X189695453Y-144080467D01*
X189718500Y-144076547D01*
X189755509Y-144074135D01*
X189810144Y-144072865D01*
X189886067Y-144072371D01*
X189986944Y-144072286D01*
X190000000Y-144072286D01*
X190103910Y-144072348D01*
G36*
X190103910Y-144072348D02*
G01*
X190182454Y-144072778D01*
X190239298Y-144073942D01*
X190278105Y-144076207D01*
X190302538Y-144079940D01*
X190316262Y-144085506D01*
X190322940Y-144093273D01*
X190326236Y-144103605D01*
X190326556Y-144104943D01*
X190331562Y-144129079D01*
X190340829Y-144176701D01*
X190353392Y-144242741D01*
X190368287Y-144322128D01*
X190384551Y-144409796D01*
X190385119Y-144412875D01*
X190401410Y-144498789D01*
X190416652Y-144574696D01*
X190429861Y-144636045D01*
X190440054Y-144678282D01*
X190446248Y-144696855D01*
X190446543Y-144697184D01*
X190464788Y-144706253D01*
X190502405Y-144721367D01*
X190551271Y-144739262D01*
X190551543Y-144739358D01*
X190613093Y-144762493D01*
X190685657Y-144791965D01*
X190754057Y-144821597D01*
X190757294Y-144823062D01*
X190868702Y-144873626D01*
X191115399Y-144705160D01*
X191191077Y-144653803D01*
X191259631Y-144607889D01*
X191317088Y-144570030D01*
X191359476Y-144542837D01*
X191382825Y-144528921D01*
X191385042Y-144527889D01*
X191402010Y-144532484D01*
X191433701Y-144554655D01*
X191481352Y-144595447D01*
X191546198Y-144655905D01*
X191612397Y-144720227D01*
X191676214Y-144783612D01*
X191733329Y-144841451D01*
X191780305Y-144890175D01*
X191813703Y-144926210D01*
X191830085Y-144945984D01*
X191830694Y-144947002D01*
X191832505Y-144960572D01*
X191825683Y-144982733D01*
X191808540Y-145016478D01*
X191779393Y-145064800D01*
X191736555Y-145130692D01*
X191679448Y-145215517D01*
X191628766Y-145290177D01*
X191583461Y-145357140D01*
X191546150Y-145412516D01*
X191519452Y-145452420D01*
X191505985Y-145472962D01*
X191505137Y-145474356D01*
X191506781Y-145494038D01*
X191519245Y-145532293D01*
X191540048Y-145581889D01*
X191547462Y-145597728D01*
X191579814Y-145668290D01*
X191614328Y-145748353D01*
X191642365Y-145817629D01*
X191662568Y-145869045D01*
X191678615Y-145908119D01*
X191687888Y-145928541D01*
X191689041Y-145930114D01*
X191706096Y-145932721D01*
X191746298Y-145939863D01*
X191804302Y-145950523D01*
X191874763Y-145963685D01*
X191952335Y-145978333D01*
X192031672Y-145993449D01*
X192107431Y-146008018D01*
X192174264Y-146021022D01*
X192226828Y-146031445D01*
X192259776Y-146038270D01*
X192267857Y-146040199D01*
X192276205Y-146044962D01*
X192282506Y-146055718D01*
X192287045Y-146076098D01*
X192290104Y-146109734D01*
X192291967Y-146160255D01*
X192292918Y-146231292D01*
X192293240Y-146326476D01*
X192293257Y-146365492D01*
X192293257Y-146682799D01*
X192217057Y-146697839D01*
X192174663Y-146705995D01*
X192111400Y-146717899D01*
X192034962Y-146732116D01*
X191953043Y-146747210D01*
X191930400Y-146751355D01*
X191854806Y-146766053D01*
X191788953Y-146780505D01*
X191738366Y-146793375D01*
X191708574Y-146803322D01*
X191703612Y-146806287D01*
X191691426Y-146827283D01*
X191673953Y-146867967D01*
X191654577Y-146920322D01*
X191650734Y-146931600D01*
X191625339Y-147001523D01*
X191593817Y-147080418D01*
X191562969Y-147151266D01*
X191562817Y-147151595D01*
X191511447Y-147262733D01*
X191680399Y-147511253D01*
X191849352Y-147759772D01*
X191632429Y-147977058D01*
X191566819Y-148041726D01*
X191506979Y-148098733D01*
X191456267Y-148145033D01*
X191418046Y-148177584D01*
X191395675Y-148193343D01*
X191392466Y-148194343D01*
X191373626Y-148186469D01*
X191335180Y-148164578D01*
X191281330Y-148131267D01*
X191216276Y-148089131D01*
X191145940Y-148041943D01*
X191074555Y-147993810D01*
X191010908Y-147951928D01*
X190959041Y-147918871D01*
X190922995Y-147897218D01*
X190906867Y-147889543D01*
X190887189Y-147896037D01*
X190849875Y-147913150D01*
X190802621Y-147937326D01*
X190797612Y-147940013D01*
X190733977Y-147971927D01*
X190690341Y-147987579D01*
X190663202Y-147987745D01*
X190649057Y-147973204D01*
X190648975Y-147973000D01*
X190641905Y-147955779D01*
X190625042Y-147914899D01*
X190599695Y-147853525D01*
X190567171Y-147774819D01*
X190528778Y-147681947D01*
X190485822Y-147578072D01*
X190444222Y-147477502D01*
X190398504Y-147366516D01*
X190356526Y-147263703D01*
X190319548Y-147172215D01*
X190288827Y-147095201D01*
X190265622Y-147035815D01*
X190251190Y-146997209D01*
X190246743Y-146982800D01*
X190257896Y-146966272D01*
X190287069Y-146939930D01*
X190325971Y-146910887D01*
X190436757Y-146819039D01*
X190523351Y-146713759D01*
X190584716Y-146597266D01*
X190619815Y-146471776D01*
X190627608Y-146339507D01*
X190621943Y-146278457D01*
X190591078Y-146151795D01*
X190537920Y-146039941D01*
X190465767Y-145944001D01*
X190377917Y-145865076D01*
X190277665Y-145804270D01*
X190168310Y-145762687D01*
X190053147Y-145741428D01*
X189935475Y-145741599D01*
X189818590Y-145764301D01*
X189705789Y-145810638D01*
X189600369Y-145881713D01*
X189556368Y-145921911D01*
X189471979Y-146025129D01*
X189413222Y-146137925D01*
X189379704Y-146257010D01*
X189371035Y-146379095D01*
X189386823Y-146500893D01*
X189426678Y-146619116D01*
X189490207Y-146730475D01*
X189577021Y-146831684D01*
X189674029Y-146910887D01*
X189714437Y-146941162D01*
X189742982Y-146967219D01*
X189753257Y-146982825D01*
X189747877Y-146999843D01*
X189732575Y-147040500D01*
X189708612Y-147101642D01*
X189677244Y-147180119D01*
X189639732Y-147272780D01*
X189597333Y-147376472D01*
X189555663Y-147477526D01*
X189509690Y-147588607D01*
X189467107Y-147691541D01*
X189429221Y-147783165D01*
X189397340Y-147860316D01*
X189372771Y-147919831D01*
X189356820Y-147958544D01*
X189350910Y-147973000D01*
X189336948Y-147987685D01*
X189309940Y-147987642D01*
X189266413Y-147972099D01*
X189202890Y-147940284D01*
X189202388Y-147940013D01*
X189154560Y-147915323D01*
X189115897Y-147897338D01*
X189094095Y-147889614D01*
X189093133Y-147889543D01*
X189076721Y-147897378D01*
X189040487Y-147919165D01*
X188988474Y-147952328D01*
X188924725Y-147994291D01*
X188854060Y-148041943D01*
X188782116Y-148090191D01*
X188717274Y-148132151D01*
X188663735Y-148165227D01*
X188625697Y-148186821D01*
X188607533Y-148194343D01*
X188590808Y-148184457D01*
X188557180Y-148156826D01*
X188510010Y-148114495D01*
X188452658Y-148060505D01*
X188388484Y-147997899D01*
X188367497Y-147976983D01*
X188150499Y-147759623D01*
X188315668Y-147517220D01*
X188365864Y-147442781D01*
X188409919Y-147375972D01*
X188445362Y-147320665D01*
X188469719Y-147280729D01*
X188480522Y-147260036D01*
X188480838Y-147258563D01*
X188475143Y-147239058D01*
X188459826Y-147199822D01*
X188437537Y-147147430D01*
X188421893Y-147112355D01*
X188392641Y-147045201D01*
X188365094Y-146977358D01*
X188343737Y-146920034D01*
X188337935Y-146902572D01*
X188321452Y-146855938D01*
X188305340Y-146819905D01*
X188296490Y-146806287D01*
X188276960Y-146797952D01*
X188234334Y-146786137D01*
X188174145Y-146772181D01*
X188101922Y-146757422D01*
X188069600Y-146751355D01*
X187987522Y-146736273D01*
X187908795Y-146721669D01*
X187841109Y-146708980D01*
X187792160Y-146699642D01*
X187782943Y-146697839D01*
X187706743Y-146682799D01*
X187706743Y-146365492D01*
X187706914Y-146261154D01*
X187707616Y-146182213D01*
X187709134Y-146125038D01*
X187711749Y-146085999D01*
X187715746Y-146061465D01*
X187721409Y-146047805D01*
X187729020Y-146041389D01*
X187732143Y-146040199D01*
X187750978Y-146035980D01*
X187792588Y-146027562D01*
X187851630Y-146015961D01*
X187922757Y-146002195D01*
X188000625Y-145987280D01*
X188079887Y-145972232D01*
X188155198Y-145958069D01*
X188221213Y-145945806D01*
X188272587Y-145936461D01*
X188303975Y-145931050D01*
X188310959Y-145930114D01*
X188317285Y-145917596D01*
X188331290Y-145884246D01*
X188350355Y-145836377D01*
X188357634Y-145817629D01*
X188386996Y-145745195D01*
X188421571Y-145665170D01*
X188452537Y-145597728D01*
X188475323Y-145546159D01*
X188490482Y-145503785D01*
X188495542Y-145477834D01*
X188494736Y-145474356D01*
X188484041Y-145457936D01*
X188459620Y-145421417D01*
X188424095Y-145368687D01*
X188380087Y-145303635D01*
X188330217Y-145230151D01*
X188320356Y-145215645D01*
X188262492Y-145129704D01*
X188219956Y-145064261D01*
X188191054Y-145016304D01*
X188174090Y-144982820D01*
X188167367Y-144960795D01*
X188169190Y-144947217D01*
X188169236Y-144947131D01*
X188183586Y-144929297D01*
X188215323Y-144894817D01*
X188261010Y-144847268D01*
X188317204Y-144790222D01*
X188380468Y-144727255D01*
X188387602Y-144720227D01*
X188467330Y-144643020D01*
X188528857Y-144586330D01*
X188573421Y-144549110D01*
X188602257Y-144530315D01*
X188614958Y-144527889D01*
X188633494Y-144538471D01*
X188671961Y-144562916D01*
X188726386Y-144598612D01*
X188792798Y-144642947D01*
X188867225Y-144693311D01*
X188884601Y-144705160D01*
X189131297Y-144873626D01*
X189242706Y-144823062D01*
X189310457Y-144793595D01*
X189383183Y-144763959D01*
X189445703Y-144740330D01*
X189448457Y-144739358D01*
X189497360Y-144721457D01*
X189535057Y-144706320D01*
X189553425Y-144697210D01*
X189553456Y-144697184D01*
X189559285Y-144680717D01*
X189569192Y-144640219D01*
X189582195Y-144580242D01*
X189597309Y-144505340D01*
X189613552Y-144420064D01*
X189614881Y-144412875D01*
X189631175Y-144325014D01*
X189646133Y-144245260D01*
X189658791Y-144178681D01*
X189668186Y-144130347D01*
X189673354Y-144105325D01*
X189673444Y-144104943D01*
X189676589Y-144094299D01*
X189682704Y-144086262D01*
X189695453Y-144080467D01*
X189718500Y-144076547D01*
X189755509Y-144074135D01*
X189810144Y-144072865D01*
X189886067Y-144072371D01*
X189986944Y-144072286D01*
X190000000Y-144072286D01*
X190103910Y-144072348D01*
G37*
D13*
X185325000Y-146715000D02*
G75*
G03*
X185100753Y-146276936I300000J430000D01*
G01*
X182175000Y-146305000D02*
G75*
G03*
X182175000Y-146305000I-1000000J0D01*
G01*
X183445000Y-145745000D02*
G75*
G03*
X183445000Y-145745000I-50000J0D01*
G01*
X183505000Y-145745000D02*
G75*
G03*
X183505000Y-145745000I-100000J0D01*
G01*
X184425000Y-146305000D02*
G75*
G03*
X184425000Y-146305000I-1000000J0D01*
G01*
X186605000Y-146315000D02*
G75*
G03*
X186605000Y-146315000I-1000000J0D01*
G01*
D14*
X185085000Y-146555000D02*
X184875000Y-146285000D01*
X185305000Y-146285000D01*
X185085000Y-146555000D01*
G36*
X185085000Y-146555000D02*
G01*
X184875000Y-146285000D01*
X185305000Y-146285000D01*
X185085000Y-146555000D01*
G37*
X183555000Y-146965000D02*
X183305000Y-146965000D01*
X183305000Y-146605000D01*
X183555000Y-146595000D01*
X183555000Y-146965000D01*
G36*
X183555000Y-146965000D02*
G01*
X183305000Y-146965000D01*
X183305000Y-146605000D01*
X183555000Y-146595000D01*
X183555000Y-146965000D01*
G37*
X183675000Y-146565000D02*
X183145000Y-146565000D01*
X183145000Y-145975000D01*
X183675000Y-145975000D01*
X183675000Y-146565000D01*
G36*
X183675000Y-146565000D02*
G01*
X183145000Y-146565000D01*
X183145000Y-145975000D01*
X183675000Y-145975000D01*
X183675000Y-146565000D01*
G37*
D15*
X172747000Y-106505700D02*
X172745000Y-101173900D01*
X172747000Y-91494300D02*
X157253000Y-91494300D01*
X172745000Y-98043900D02*
X172747000Y-91494300D01*
X157255000Y-101173900D02*
X157253000Y-106505700D01*
X157253000Y-106505700D02*
X172747000Y-106505700D01*
X157253000Y-91494300D02*
X157255000Y-98093900D01*
X116175401Y-90123001D02*
X116175401Y-108588801D01*
X116175401Y-108588801D02*
X118794227Y-108588801D01*
X121205776Y-108588801D02*
X123794227Y-108588801D01*
X126205776Y-108588801D02*
X128824601Y-108588801D01*
X128824601Y-90123001D02*
X116175401Y-90123001D01*
X128824601Y-108588801D02*
X128824601Y-90123001D01*
D13*
X186940000Y-72190000D02*
X193480000Y-72190000D01*
X186940000Y-72520000D02*
X186940000Y-72190000D01*
X186940000Y-74600000D02*
X186940000Y-74930000D01*
X186940000Y-74930000D02*
X193480000Y-74930000D01*
X193480000Y-72190000D02*
X193480000Y-72520000D01*
X193480000Y-74930000D02*
X193480000Y-74600000D01*
D16*
X195700000Y-87900000D02*
X195700000Y-72100000D01*
X207380000Y-87900000D02*
X195700000Y-87900000D01*
X214300000Y-87900000D02*
X210720000Y-87900000D01*
X195700000Y-72100000D02*
X207380000Y-72100000D01*
X210720000Y-72100000D02*
X214300000Y-72100000D01*
X214300000Y-72100000D02*
X214300000Y-87900000D01*
D17*
X199819000Y-88586000D02*
G75*
G03*
X199819000Y-88586000I-100000J0D01*
G01*
D13*
X163540000Y-88380000D02*
X163540000Y-89085000D01*
X163540000Y-88380000D02*
X167780000Y-88380000D01*
X163540000Y-90415000D02*
X163540000Y-91120000D01*
X163540000Y-91120000D02*
X167780000Y-91120000D01*
X167780000Y-88380000D02*
X167780000Y-89085000D01*
X167780000Y-90415000D02*
X167780000Y-91120000D01*
M02*
