%TF.GenerationSoftware,KiCad,Pcbnew,7.0.1*%
%TF.CreationDate,2024-08-21T14:55:40-07:00*%
%TF.ProjectId,Dual encoder controller - left,4475616c-2065-46e6-936f-64657220636f,rev?*%
%TF.SameCoordinates,Original*%
%TF.FileFunction,Drillmap*%
%TF.FilePolarity,Positive*%
%FSLAX45Y45*%
G04 Gerber Fmt 4.5, Leading zero omitted, Abs format (unit mm)*
G04 Created by KiCad (PCBNEW 7.0.1) date 2024-08-21 14:55:40*
%MOMM*%
%LPD*%
G01*
G04 APERTURE LIST*
%ADD10C,0.100000*%
%ADD11C,0.200000*%
%ADD12C,0.185420*%
%ADD13C,0.320000*%
G04 APERTURE END LIST*
D10*
X12500000Y-5000000D02*
G75*
G03*
X11500000Y-6000000I0J-1000000D01*
G01*
X11500000Y-14000000D02*
X11500000Y-6000000D01*
X12500000Y-5000000D02*
X20500000Y-5000000D01*
X20500000Y-15000000D02*
X12500000Y-15000000D01*
X11500000Y-14000000D02*
G75*
G03*
X12500000Y-15000000I1000000J0D01*
G01*
X21500000Y-6000000D02*
X21500000Y-14000000D01*
X20500000Y-15000000D02*
G75*
G03*
X21500000Y-14000000I0J1000000D01*
G01*
X21500000Y-6000000D02*
G75*
G03*
X20500000Y-5000000I-1000000J0D01*
G01*
D11*
D12*
X11707290Y-10132290D02*
X11892710Y-10317710D01*
X11892710Y-10132290D02*
X11707290Y-10317710D01*
X12607290Y-10132290D02*
X12792710Y-10317710D01*
X12792710Y-10132290D02*
X12607290Y-10317710D01*
D13*
X20760000Y-7428500D02*
G75*
G03*
X20760000Y-7428500I-160000J0D01*
G01*
X20760000Y-8571500D02*
G75*
G03*
X20760000Y-8571500I-160000J0D01*
G01*
D11*
X11742619Y-15317524D02*
X11742619Y-15117524D01*
X11742619Y-15117524D02*
X11790238Y-15117524D01*
X11790238Y-15117524D02*
X11818809Y-15127048D01*
X11818809Y-15127048D02*
X11837857Y-15146095D01*
X11837857Y-15146095D02*
X11847381Y-15165143D01*
X11847381Y-15165143D02*
X11856905Y-15203238D01*
X11856905Y-15203238D02*
X11856905Y-15231809D01*
X11856905Y-15231809D02*
X11847381Y-15269905D01*
X11847381Y-15269905D02*
X11837857Y-15288952D01*
X11837857Y-15288952D02*
X11818809Y-15308000D01*
X11818809Y-15308000D02*
X11790238Y-15317524D01*
X11790238Y-15317524D02*
X11742619Y-15317524D01*
X11942619Y-15317524D02*
X11942619Y-15184190D01*
X11942619Y-15222286D02*
X11952143Y-15203238D01*
X11952143Y-15203238D02*
X11961667Y-15193714D01*
X11961667Y-15193714D02*
X11980714Y-15184190D01*
X11980714Y-15184190D02*
X11999762Y-15184190D01*
X12066428Y-15317524D02*
X12066428Y-15184190D01*
X12066428Y-15117524D02*
X12056905Y-15127048D01*
X12056905Y-15127048D02*
X12066428Y-15136571D01*
X12066428Y-15136571D02*
X12075952Y-15127048D01*
X12075952Y-15127048D02*
X12066428Y-15117524D01*
X12066428Y-15117524D02*
X12066428Y-15136571D01*
X12190238Y-15317524D02*
X12171190Y-15308000D01*
X12171190Y-15308000D02*
X12161667Y-15288952D01*
X12161667Y-15288952D02*
X12161667Y-15117524D01*
X12295000Y-15317524D02*
X12275952Y-15308000D01*
X12275952Y-15308000D02*
X12266428Y-15288952D01*
X12266428Y-15288952D02*
X12266428Y-15117524D01*
X12523571Y-15317524D02*
X12523571Y-15117524D01*
X12523571Y-15117524D02*
X12590238Y-15260381D01*
X12590238Y-15260381D02*
X12656905Y-15117524D01*
X12656905Y-15117524D02*
X12656905Y-15317524D01*
X12837857Y-15317524D02*
X12837857Y-15212762D01*
X12837857Y-15212762D02*
X12828333Y-15193714D01*
X12828333Y-15193714D02*
X12809286Y-15184190D01*
X12809286Y-15184190D02*
X12771190Y-15184190D01*
X12771190Y-15184190D02*
X12752143Y-15193714D01*
X12837857Y-15308000D02*
X12818809Y-15317524D01*
X12818809Y-15317524D02*
X12771190Y-15317524D01*
X12771190Y-15317524D02*
X12752143Y-15308000D01*
X12752143Y-15308000D02*
X12742619Y-15288952D01*
X12742619Y-15288952D02*
X12742619Y-15269905D01*
X12742619Y-15269905D02*
X12752143Y-15250857D01*
X12752143Y-15250857D02*
X12771190Y-15241333D01*
X12771190Y-15241333D02*
X12818809Y-15241333D01*
X12818809Y-15241333D02*
X12837857Y-15231809D01*
X12933095Y-15184190D02*
X12933095Y-15384190D01*
X12933095Y-15193714D02*
X12952143Y-15184190D01*
X12952143Y-15184190D02*
X12990238Y-15184190D01*
X12990238Y-15184190D02*
X13009286Y-15193714D01*
X13009286Y-15193714D02*
X13018809Y-15203238D01*
X13018809Y-15203238D02*
X13028333Y-15222286D01*
X13028333Y-15222286D02*
X13028333Y-15279428D01*
X13028333Y-15279428D02*
X13018809Y-15298476D01*
X13018809Y-15298476D02*
X13009286Y-15308000D01*
X13009286Y-15308000D02*
X12990238Y-15317524D01*
X12990238Y-15317524D02*
X12952143Y-15317524D01*
X12952143Y-15317524D02*
X12933095Y-15308000D01*
X13114048Y-15298476D02*
X13123571Y-15308000D01*
X13123571Y-15308000D02*
X13114048Y-15317524D01*
X13114048Y-15317524D02*
X13104524Y-15308000D01*
X13104524Y-15308000D02*
X13114048Y-15298476D01*
X13114048Y-15298476D02*
X13114048Y-15317524D01*
X13114048Y-15193714D02*
X13123571Y-15203238D01*
X13123571Y-15203238D02*
X13114048Y-15212762D01*
X13114048Y-15212762D02*
X13104524Y-15203238D01*
X13104524Y-15203238D02*
X13114048Y-15193714D01*
X13114048Y-15193714D02*
X13114048Y-15212762D01*
D12*
X11309580Y-15552290D02*
X11495000Y-15737710D01*
X11495000Y-15552290D02*
X11309580Y-15737710D01*
D11*
X11847381Y-15737524D02*
X11733095Y-15737524D01*
X11790238Y-15737524D02*
X11790238Y-15537524D01*
X11790238Y-15537524D02*
X11771190Y-15566095D01*
X11771190Y-15566095D02*
X11752143Y-15585143D01*
X11752143Y-15585143D02*
X11733095Y-15594667D01*
X11933095Y-15718476D02*
X11942619Y-15728000D01*
X11942619Y-15728000D02*
X11933095Y-15737524D01*
X11933095Y-15737524D02*
X11923571Y-15728000D01*
X11923571Y-15728000D02*
X11933095Y-15718476D01*
X11933095Y-15718476D02*
X11933095Y-15737524D01*
X12056905Y-15623238D02*
X12037857Y-15613714D01*
X12037857Y-15613714D02*
X12028333Y-15604190D01*
X12028333Y-15604190D02*
X12018809Y-15585143D01*
X12018809Y-15585143D02*
X12018809Y-15575619D01*
X12018809Y-15575619D02*
X12028333Y-15556571D01*
X12028333Y-15556571D02*
X12037857Y-15547048D01*
X12037857Y-15547048D02*
X12056905Y-15537524D01*
X12056905Y-15537524D02*
X12095000Y-15537524D01*
X12095000Y-15537524D02*
X12114048Y-15547048D01*
X12114048Y-15547048D02*
X12123571Y-15556571D01*
X12123571Y-15556571D02*
X12133095Y-15575619D01*
X12133095Y-15575619D02*
X12133095Y-15585143D01*
X12133095Y-15585143D02*
X12123571Y-15604190D01*
X12123571Y-15604190D02*
X12114048Y-15613714D01*
X12114048Y-15613714D02*
X12095000Y-15623238D01*
X12095000Y-15623238D02*
X12056905Y-15623238D01*
X12056905Y-15623238D02*
X12037857Y-15632762D01*
X12037857Y-15632762D02*
X12028333Y-15642286D01*
X12028333Y-15642286D02*
X12018809Y-15661333D01*
X12018809Y-15661333D02*
X12018809Y-15699428D01*
X12018809Y-15699428D02*
X12028333Y-15718476D01*
X12028333Y-15718476D02*
X12037857Y-15728000D01*
X12037857Y-15728000D02*
X12056905Y-15737524D01*
X12056905Y-15737524D02*
X12095000Y-15737524D01*
X12095000Y-15737524D02*
X12114048Y-15728000D01*
X12114048Y-15728000D02*
X12123571Y-15718476D01*
X12123571Y-15718476D02*
X12133095Y-15699428D01*
X12133095Y-15699428D02*
X12133095Y-15661333D01*
X12133095Y-15661333D02*
X12123571Y-15642286D01*
X12123571Y-15642286D02*
X12114048Y-15632762D01*
X12114048Y-15632762D02*
X12095000Y-15623238D01*
X12314048Y-15537524D02*
X12218809Y-15537524D01*
X12218809Y-15537524D02*
X12209286Y-15632762D01*
X12209286Y-15632762D02*
X12218809Y-15623238D01*
X12218809Y-15623238D02*
X12237857Y-15613714D01*
X12237857Y-15613714D02*
X12285476Y-15613714D01*
X12285476Y-15613714D02*
X12304524Y-15623238D01*
X12304524Y-15623238D02*
X12314048Y-15632762D01*
X12314048Y-15632762D02*
X12323571Y-15651809D01*
X12323571Y-15651809D02*
X12323571Y-15699428D01*
X12323571Y-15699428D02*
X12314048Y-15718476D01*
X12314048Y-15718476D02*
X12304524Y-15728000D01*
X12304524Y-15728000D02*
X12285476Y-15737524D01*
X12285476Y-15737524D02*
X12237857Y-15737524D01*
X12237857Y-15737524D02*
X12218809Y-15728000D01*
X12218809Y-15728000D02*
X12209286Y-15718476D01*
X12495000Y-15604190D02*
X12495000Y-15737524D01*
X12447381Y-15528000D02*
X12399762Y-15670857D01*
X12399762Y-15670857D02*
X12523571Y-15670857D01*
X12599762Y-15737524D02*
X12599762Y-15604190D01*
X12599762Y-15623238D02*
X12609286Y-15613714D01*
X12609286Y-15613714D02*
X12628333Y-15604190D01*
X12628333Y-15604190D02*
X12656905Y-15604190D01*
X12656905Y-15604190D02*
X12675952Y-15613714D01*
X12675952Y-15613714D02*
X12685476Y-15632762D01*
X12685476Y-15632762D02*
X12685476Y-15737524D01*
X12685476Y-15632762D02*
X12695000Y-15613714D01*
X12695000Y-15613714D02*
X12714048Y-15604190D01*
X12714048Y-15604190D02*
X12742619Y-15604190D01*
X12742619Y-15604190D02*
X12761667Y-15613714D01*
X12761667Y-15613714D02*
X12771190Y-15632762D01*
X12771190Y-15632762D02*
X12771190Y-15737524D01*
X12866429Y-15737524D02*
X12866429Y-15604190D01*
X12866429Y-15623238D02*
X12875952Y-15613714D01*
X12875952Y-15613714D02*
X12895000Y-15604190D01*
X12895000Y-15604190D02*
X12923571Y-15604190D01*
X12923571Y-15604190D02*
X12942619Y-15613714D01*
X12942619Y-15613714D02*
X12952143Y-15632762D01*
X12952143Y-15632762D02*
X12952143Y-15737524D01*
X12952143Y-15632762D02*
X12961667Y-15613714D01*
X12961667Y-15613714D02*
X12980714Y-15604190D01*
X12980714Y-15604190D02*
X13009286Y-15604190D01*
X13009286Y-15604190D02*
X13028333Y-15613714D01*
X13028333Y-15613714D02*
X13037857Y-15632762D01*
X13037857Y-15632762D02*
X13037857Y-15737524D01*
X13428333Y-15528000D02*
X13256905Y-15785143D01*
X13685476Y-15537524D02*
X13704524Y-15537524D01*
X13704524Y-15537524D02*
X13723572Y-15547048D01*
X13723572Y-15547048D02*
X13733095Y-15556571D01*
X13733095Y-15556571D02*
X13742619Y-15575619D01*
X13742619Y-15575619D02*
X13752143Y-15613714D01*
X13752143Y-15613714D02*
X13752143Y-15661333D01*
X13752143Y-15661333D02*
X13742619Y-15699428D01*
X13742619Y-15699428D02*
X13733095Y-15718476D01*
X13733095Y-15718476D02*
X13723572Y-15728000D01*
X13723572Y-15728000D02*
X13704524Y-15737524D01*
X13704524Y-15737524D02*
X13685476Y-15737524D01*
X13685476Y-15737524D02*
X13666429Y-15728000D01*
X13666429Y-15728000D02*
X13656905Y-15718476D01*
X13656905Y-15718476D02*
X13647381Y-15699428D01*
X13647381Y-15699428D02*
X13637857Y-15661333D01*
X13637857Y-15661333D02*
X13637857Y-15613714D01*
X13637857Y-15613714D02*
X13647381Y-15575619D01*
X13647381Y-15575619D02*
X13656905Y-15556571D01*
X13656905Y-15556571D02*
X13666429Y-15547048D01*
X13666429Y-15547048D02*
X13685476Y-15537524D01*
X13837857Y-15718476D02*
X13847381Y-15728000D01*
X13847381Y-15728000D02*
X13837857Y-15737524D01*
X13837857Y-15737524D02*
X13828333Y-15728000D01*
X13828333Y-15728000D02*
X13837857Y-15718476D01*
X13837857Y-15718476D02*
X13837857Y-15737524D01*
X13971191Y-15537524D02*
X13990238Y-15537524D01*
X13990238Y-15537524D02*
X14009286Y-15547048D01*
X14009286Y-15547048D02*
X14018810Y-15556571D01*
X14018810Y-15556571D02*
X14028333Y-15575619D01*
X14028333Y-15575619D02*
X14037857Y-15613714D01*
X14037857Y-15613714D02*
X14037857Y-15661333D01*
X14037857Y-15661333D02*
X14028333Y-15699428D01*
X14028333Y-15699428D02*
X14018810Y-15718476D01*
X14018810Y-15718476D02*
X14009286Y-15728000D01*
X14009286Y-15728000D02*
X13990238Y-15737524D01*
X13990238Y-15737524D02*
X13971191Y-15737524D01*
X13971191Y-15737524D02*
X13952143Y-15728000D01*
X13952143Y-15728000D02*
X13942619Y-15718476D01*
X13942619Y-15718476D02*
X13933095Y-15699428D01*
X13933095Y-15699428D02*
X13923572Y-15661333D01*
X13923572Y-15661333D02*
X13923572Y-15613714D01*
X13923572Y-15613714D02*
X13933095Y-15575619D01*
X13933095Y-15575619D02*
X13942619Y-15556571D01*
X13942619Y-15556571D02*
X13952143Y-15547048D01*
X13952143Y-15547048D02*
X13971191Y-15537524D01*
X14104524Y-15537524D02*
X14237857Y-15537524D01*
X14237857Y-15537524D02*
X14152143Y-15737524D01*
X14295000Y-15537524D02*
X14418810Y-15537524D01*
X14418810Y-15537524D02*
X14352143Y-15613714D01*
X14352143Y-15613714D02*
X14380714Y-15613714D01*
X14380714Y-15613714D02*
X14399762Y-15623238D01*
X14399762Y-15623238D02*
X14409286Y-15632762D01*
X14409286Y-15632762D02*
X14418810Y-15651809D01*
X14418810Y-15651809D02*
X14418810Y-15699428D01*
X14418810Y-15699428D02*
X14409286Y-15718476D01*
X14409286Y-15718476D02*
X14399762Y-15728000D01*
X14399762Y-15728000D02*
X14380714Y-15737524D01*
X14380714Y-15737524D02*
X14323572Y-15737524D01*
X14323572Y-15737524D02*
X14304524Y-15728000D01*
X14304524Y-15728000D02*
X14295000Y-15718476D01*
X14542619Y-15537524D02*
X14561667Y-15537524D01*
X14561667Y-15537524D02*
X14580714Y-15547048D01*
X14580714Y-15547048D02*
X14590238Y-15556571D01*
X14590238Y-15556571D02*
X14599762Y-15575619D01*
X14599762Y-15575619D02*
X14609286Y-15613714D01*
X14609286Y-15613714D02*
X14609286Y-15661333D01*
X14609286Y-15661333D02*
X14599762Y-15699428D01*
X14599762Y-15699428D02*
X14590238Y-15718476D01*
X14590238Y-15718476D02*
X14580714Y-15728000D01*
X14580714Y-15728000D02*
X14561667Y-15737524D01*
X14561667Y-15737524D02*
X14542619Y-15737524D01*
X14542619Y-15737524D02*
X14523572Y-15728000D01*
X14523572Y-15728000D02*
X14514048Y-15718476D01*
X14514048Y-15718476D02*
X14504524Y-15699428D01*
X14504524Y-15699428D02*
X14495000Y-15661333D01*
X14495000Y-15661333D02*
X14495000Y-15613714D01*
X14495000Y-15613714D02*
X14504524Y-15575619D01*
X14504524Y-15575619D02*
X14514048Y-15556571D01*
X14514048Y-15556571D02*
X14523572Y-15547048D01*
X14523572Y-15547048D02*
X14542619Y-15537524D01*
X14685476Y-15537524D02*
X14685476Y-15575619D01*
X14761667Y-15537524D02*
X14761667Y-15575619D01*
X15056905Y-15813714D02*
X15047381Y-15804190D01*
X15047381Y-15804190D02*
X15028334Y-15775619D01*
X15028334Y-15775619D02*
X15018810Y-15756571D01*
X15018810Y-15756571D02*
X15009286Y-15728000D01*
X15009286Y-15728000D02*
X14999762Y-15680381D01*
X14999762Y-15680381D02*
X14999762Y-15642286D01*
X14999762Y-15642286D02*
X15009286Y-15594667D01*
X15009286Y-15594667D02*
X15018810Y-15566095D01*
X15018810Y-15566095D02*
X15028334Y-15547048D01*
X15028334Y-15547048D02*
X15047381Y-15518476D01*
X15047381Y-15518476D02*
X15056905Y-15508952D01*
X15123572Y-15556571D02*
X15133095Y-15547048D01*
X15133095Y-15547048D02*
X15152143Y-15537524D01*
X15152143Y-15537524D02*
X15199762Y-15537524D01*
X15199762Y-15537524D02*
X15218810Y-15547048D01*
X15218810Y-15547048D02*
X15228334Y-15556571D01*
X15228334Y-15556571D02*
X15237857Y-15575619D01*
X15237857Y-15575619D02*
X15237857Y-15594667D01*
X15237857Y-15594667D02*
X15228334Y-15623238D01*
X15228334Y-15623238D02*
X15114048Y-15737524D01*
X15114048Y-15737524D02*
X15237857Y-15737524D01*
X15475953Y-15737524D02*
X15475953Y-15537524D01*
X15561667Y-15737524D02*
X15561667Y-15632762D01*
X15561667Y-15632762D02*
X15552143Y-15613714D01*
X15552143Y-15613714D02*
X15533096Y-15604190D01*
X15533096Y-15604190D02*
X15504524Y-15604190D01*
X15504524Y-15604190D02*
X15485476Y-15613714D01*
X15485476Y-15613714D02*
X15475953Y-15623238D01*
X15685476Y-15737524D02*
X15666429Y-15728000D01*
X15666429Y-15728000D02*
X15656905Y-15718476D01*
X15656905Y-15718476D02*
X15647381Y-15699428D01*
X15647381Y-15699428D02*
X15647381Y-15642286D01*
X15647381Y-15642286D02*
X15656905Y-15623238D01*
X15656905Y-15623238D02*
X15666429Y-15613714D01*
X15666429Y-15613714D02*
X15685476Y-15604190D01*
X15685476Y-15604190D02*
X15714048Y-15604190D01*
X15714048Y-15604190D02*
X15733096Y-15613714D01*
X15733096Y-15613714D02*
X15742619Y-15623238D01*
X15742619Y-15623238D02*
X15752143Y-15642286D01*
X15752143Y-15642286D02*
X15752143Y-15699428D01*
X15752143Y-15699428D02*
X15742619Y-15718476D01*
X15742619Y-15718476D02*
X15733096Y-15728000D01*
X15733096Y-15728000D02*
X15714048Y-15737524D01*
X15714048Y-15737524D02*
X15685476Y-15737524D01*
X15866429Y-15737524D02*
X15847381Y-15728000D01*
X15847381Y-15728000D02*
X15837857Y-15708952D01*
X15837857Y-15708952D02*
X15837857Y-15537524D01*
X16018810Y-15728000D02*
X15999762Y-15737524D01*
X15999762Y-15737524D02*
X15961667Y-15737524D01*
X15961667Y-15737524D02*
X15942619Y-15728000D01*
X15942619Y-15728000D02*
X15933096Y-15708952D01*
X15933096Y-15708952D02*
X15933096Y-15632762D01*
X15933096Y-15632762D02*
X15942619Y-15613714D01*
X15942619Y-15613714D02*
X15961667Y-15604190D01*
X15961667Y-15604190D02*
X15999762Y-15604190D01*
X15999762Y-15604190D02*
X16018810Y-15613714D01*
X16018810Y-15613714D02*
X16028334Y-15632762D01*
X16028334Y-15632762D02*
X16028334Y-15651809D01*
X16028334Y-15651809D02*
X15933096Y-15670857D01*
X16104524Y-15728000D02*
X16123572Y-15737524D01*
X16123572Y-15737524D02*
X16161667Y-15737524D01*
X16161667Y-15737524D02*
X16180715Y-15728000D01*
X16180715Y-15728000D02*
X16190238Y-15708952D01*
X16190238Y-15708952D02*
X16190238Y-15699428D01*
X16190238Y-15699428D02*
X16180715Y-15680381D01*
X16180715Y-15680381D02*
X16161667Y-15670857D01*
X16161667Y-15670857D02*
X16133096Y-15670857D01*
X16133096Y-15670857D02*
X16114048Y-15661333D01*
X16114048Y-15661333D02*
X16104524Y-15642286D01*
X16104524Y-15642286D02*
X16104524Y-15632762D01*
X16104524Y-15632762D02*
X16114048Y-15613714D01*
X16114048Y-15613714D02*
X16133096Y-15604190D01*
X16133096Y-15604190D02*
X16161667Y-15604190D01*
X16161667Y-15604190D02*
X16180715Y-15613714D01*
X16256905Y-15813714D02*
X16266429Y-15804190D01*
X16266429Y-15804190D02*
X16285477Y-15775619D01*
X16285477Y-15775619D02*
X16295000Y-15756571D01*
X16295000Y-15756571D02*
X16304524Y-15728000D01*
X16304524Y-15728000D02*
X16314048Y-15680381D01*
X16314048Y-15680381D02*
X16314048Y-15642286D01*
X16314048Y-15642286D02*
X16304524Y-15594667D01*
X16304524Y-15594667D02*
X16295000Y-15566095D01*
X16295000Y-15566095D02*
X16285477Y-15547048D01*
X16285477Y-15547048D02*
X16266429Y-15518476D01*
X16266429Y-15518476D02*
X16256905Y-15508952D01*
X16618810Y-15813714D02*
X16609286Y-15804190D01*
X16609286Y-15804190D02*
X16590238Y-15775619D01*
X16590238Y-15775619D02*
X16580715Y-15756571D01*
X16580715Y-15756571D02*
X16571191Y-15728000D01*
X16571191Y-15728000D02*
X16561667Y-15680381D01*
X16561667Y-15680381D02*
X16561667Y-15642286D01*
X16561667Y-15642286D02*
X16571191Y-15594667D01*
X16571191Y-15594667D02*
X16580715Y-15566095D01*
X16580715Y-15566095D02*
X16590238Y-15547048D01*
X16590238Y-15547048D02*
X16609286Y-15518476D01*
X16609286Y-15518476D02*
X16618810Y-15508952D01*
X16695000Y-15604190D02*
X16695000Y-15737524D01*
X16695000Y-15623238D02*
X16704524Y-15613714D01*
X16704524Y-15613714D02*
X16723572Y-15604190D01*
X16723572Y-15604190D02*
X16752143Y-15604190D01*
X16752143Y-15604190D02*
X16771191Y-15613714D01*
X16771191Y-15613714D02*
X16780715Y-15632762D01*
X16780715Y-15632762D02*
X16780715Y-15737524D01*
X16904524Y-15737524D02*
X16885477Y-15728000D01*
X16885477Y-15728000D02*
X16875953Y-15718476D01*
X16875953Y-15718476D02*
X16866429Y-15699428D01*
X16866429Y-15699428D02*
X16866429Y-15642286D01*
X16866429Y-15642286D02*
X16875953Y-15623238D01*
X16875953Y-15623238D02*
X16885477Y-15613714D01*
X16885477Y-15613714D02*
X16904524Y-15604190D01*
X16904524Y-15604190D02*
X16933096Y-15604190D01*
X16933096Y-15604190D02*
X16952143Y-15613714D01*
X16952143Y-15613714D02*
X16961667Y-15623238D01*
X16961667Y-15623238D02*
X16971191Y-15642286D01*
X16971191Y-15642286D02*
X16971191Y-15699428D01*
X16971191Y-15699428D02*
X16961667Y-15718476D01*
X16961667Y-15718476D02*
X16952143Y-15728000D01*
X16952143Y-15728000D02*
X16933096Y-15737524D01*
X16933096Y-15737524D02*
X16904524Y-15737524D01*
X17028334Y-15604190D02*
X17104524Y-15604190D01*
X17056905Y-15537524D02*
X17056905Y-15708952D01*
X17056905Y-15708952D02*
X17066429Y-15728000D01*
X17066429Y-15728000D02*
X17085477Y-15737524D01*
X17085477Y-15737524D02*
X17104524Y-15737524D01*
X17323572Y-15604190D02*
X17323572Y-15804190D01*
X17323572Y-15613714D02*
X17342620Y-15604190D01*
X17342620Y-15604190D02*
X17380715Y-15604190D01*
X17380715Y-15604190D02*
X17399762Y-15613714D01*
X17399762Y-15613714D02*
X17409286Y-15623238D01*
X17409286Y-15623238D02*
X17418810Y-15642286D01*
X17418810Y-15642286D02*
X17418810Y-15699428D01*
X17418810Y-15699428D02*
X17409286Y-15718476D01*
X17409286Y-15718476D02*
X17399762Y-15728000D01*
X17399762Y-15728000D02*
X17380715Y-15737524D01*
X17380715Y-15737524D02*
X17342620Y-15737524D01*
X17342620Y-15737524D02*
X17323572Y-15728000D01*
X17533096Y-15737524D02*
X17514048Y-15728000D01*
X17514048Y-15728000D02*
X17504524Y-15708952D01*
X17504524Y-15708952D02*
X17504524Y-15537524D01*
X17695001Y-15737524D02*
X17695001Y-15632762D01*
X17695001Y-15632762D02*
X17685477Y-15613714D01*
X17685477Y-15613714D02*
X17666429Y-15604190D01*
X17666429Y-15604190D02*
X17628334Y-15604190D01*
X17628334Y-15604190D02*
X17609286Y-15613714D01*
X17695001Y-15728000D02*
X17675953Y-15737524D01*
X17675953Y-15737524D02*
X17628334Y-15737524D01*
X17628334Y-15737524D02*
X17609286Y-15728000D01*
X17609286Y-15728000D02*
X17599762Y-15708952D01*
X17599762Y-15708952D02*
X17599762Y-15689905D01*
X17599762Y-15689905D02*
X17609286Y-15670857D01*
X17609286Y-15670857D02*
X17628334Y-15661333D01*
X17628334Y-15661333D02*
X17675953Y-15661333D01*
X17675953Y-15661333D02*
X17695001Y-15651809D01*
X17761667Y-15604190D02*
X17837858Y-15604190D01*
X17790239Y-15537524D02*
X17790239Y-15708952D01*
X17790239Y-15708952D02*
X17799762Y-15728000D01*
X17799762Y-15728000D02*
X17818810Y-15737524D01*
X17818810Y-15737524D02*
X17837858Y-15737524D01*
X17980715Y-15728000D02*
X17961667Y-15737524D01*
X17961667Y-15737524D02*
X17923572Y-15737524D01*
X17923572Y-15737524D02*
X17904524Y-15728000D01*
X17904524Y-15728000D02*
X17895001Y-15708952D01*
X17895001Y-15708952D02*
X17895001Y-15632762D01*
X17895001Y-15632762D02*
X17904524Y-15613714D01*
X17904524Y-15613714D02*
X17923572Y-15604190D01*
X17923572Y-15604190D02*
X17961667Y-15604190D01*
X17961667Y-15604190D02*
X17980715Y-15613714D01*
X17980715Y-15613714D02*
X17990239Y-15632762D01*
X17990239Y-15632762D02*
X17990239Y-15651809D01*
X17990239Y-15651809D02*
X17895001Y-15670857D01*
X18161667Y-15737524D02*
X18161667Y-15537524D01*
X18161667Y-15728000D02*
X18142620Y-15737524D01*
X18142620Y-15737524D02*
X18104524Y-15737524D01*
X18104524Y-15737524D02*
X18085477Y-15728000D01*
X18085477Y-15728000D02*
X18075953Y-15718476D01*
X18075953Y-15718476D02*
X18066429Y-15699428D01*
X18066429Y-15699428D02*
X18066429Y-15642286D01*
X18066429Y-15642286D02*
X18075953Y-15623238D01*
X18075953Y-15623238D02*
X18085477Y-15613714D01*
X18085477Y-15613714D02*
X18104524Y-15604190D01*
X18104524Y-15604190D02*
X18142620Y-15604190D01*
X18142620Y-15604190D02*
X18161667Y-15613714D01*
X18237858Y-15813714D02*
X18247382Y-15804190D01*
X18247382Y-15804190D02*
X18266429Y-15775619D01*
X18266429Y-15775619D02*
X18275953Y-15756571D01*
X18275953Y-15756571D02*
X18285477Y-15728000D01*
X18285477Y-15728000D02*
X18295001Y-15680381D01*
X18295001Y-15680381D02*
X18295001Y-15642286D01*
X18295001Y-15642286D02*
X18285477Y-15594667D01*
X18285477Y-15594667D02*
X18275953Y-15566095D01*
X18275953Y-15566095D02*
X18266429Y-15547048D01*
X18266429Y-15547048D02*
X18247382Y-15518476D01*
X18247382Y-15518476D02*
X18237858Y-15508952D01*
X11495000Y-15950420D02*
G75*
G03*
X11495000Y-15950420I-100000J0D01*
G01*
X11723571Y-15842944D02*
X11847381Y-15842944D01*
X11847381Y-15842944D02*
X11780714Y-15919134D01*
X11780714Y-15919134D02*
X11809286Y-15919134D01*
X11809286Y-15919134D02*
X11828333Y-15928658D01*
X11828333Y-15928658D02*
X11837857Y-15938182D01*
X11837857Y-15938182D02*
X11847381Y-15957229D01*
X11847381Y-15957229D02*
X11847381Y-16004848D01*
X11847381Y-16004848D02*
X11837857Y-16023896D01*
X11837857Y-16023896D02*
X11828333Y-16033420D01*
X11828333Y-16033420D02*
X11809286Y-16042944D01*
X11809286Y-16042944D02*
X11752143Y-16042944D01*
X11752143Y-16042944D02*
X11733095Y-16033420D01*
X11733095Y-16033420D02*
X11723571Y-16023896D01*
X11933095Y-16023896D02*
X11942619Y-16033420D01*
X11942619Y-16033420D02*
X11933095Y-16042944D01*
X11933095Y-16042944D02*
X11923571Y-16033420D01*
X11923571Y-16033420D02*
X11933095Y-16023896D01*
X11933095Y-16023896D02*
X11933095Y-16042944D01*
X12018809Y-15861991D02*
X12028333Y-15852468D01*
X12028333Y-15852468D02*
X12047381Y-15842944D01*
X12047381Y-15842944D02*
X12095000Y-15842944D01*
X12095000Y-15842944D02*
X12114048Y-15852468D01*
X12114048Y-15852468D02*
X12123571Y-15861991D01*
X12123571Y-15861991D02*
X12133095Y-15881039D01*
X12133095Y-15881039D02*
X12133095Y-15900087D01*
X12133095Y-15900087D02*
X12123571Y-15928658D01*
X12123571Y-15928658D02*
X12009286Y-16042944D01*
X12009286Y-16042944D02*
X12133095Y-16042944D01*
X12256905Y-15842944D02*
X12275952Y-15842944D01*
X12275952Y-15842944D02*
X12295000Y-15852468D01*
X12295000Y-15852468D02*
X12304524Y-15861991D01*
X12304524Y-15861991D02*
X12314048Y-15881039D01*
X12314048Y-15881039D02*
X12323571Y-15919134D01*
X12323571Y-15919134D02*
X12323571Y-15966753D01*
X12323571Y-15966753D02*
X12314048Y-16004848D01*
X12314048Y-16004848D02*
X12304524Y-16023896D01*
X12304524Y-16023896D02*
X12295000Y-16033420D01*
X12295000Y-16033420D02*
X12275952Y-16042944D01*
X12275952Y-16042944D02*
X12256905Y-16042944D01*
X12256905Y-16042944D02*
X12237857Y-16033420D01*
X12237857Y-16033420D02*
X12228333Y-16023896D01*
X12228333Y-16023896D02*
X12218809Y-16004848D01*
X12218809Y-16004848D02*
X12209286Y-15966753D01*
X12209286Y-15966753D02*
X12209286Y-15919134D01*
X12209286Y-15919134D02*
X12218809Y-15881039D01*
X12218809Y-15881039D02*
X12228333Y-15861991D01*
X12228333Y-15861991D02*
X12237857Y-15852468D01*
X12237857Y-15852468D02*
X12256905Y-15842944D01*
X12447381Y-15842944D02*
X12466429Y-15842944D01*
X12466429Y-15842944D02*
X12485476Y-15852468D01*
X12485476Y-15852468D02*
X12495000Y-15861991D01*
X12495000Y-15861991D02*
X12504524Y-15881039D01*
X12504524Y-15881039D02*
X12514048Y-15919134D01*
X12514048Y-15919134D02*
X12514048Y-15966753D01*
X12514048Y-15966753D02*
X12504524Y-16004848D01*
X12504524Y-16004848D02*
X12495000Y-16023896D01*
X12495000Y-16023896D02*
X12485476Y-16033420D01*
X12485476Y-16033420D02*
X12466429Y-16042944D01*
X12466429Y-16042944D02*
X12447381Y-16042944D01*
X12447381Y-16042944D02*
X12428333Y-16033420D01*
X12428333Y-16033420D02*
X12418809Y-16023896D01*
X12418809Y-16023896D02*
X12409286Y-16004848D01*
X12409286Y-16004848D02*
X12399762Y-15966753D01*
X12399762Y-15966753D02*
X12399762Y-15919134D01*
X12399762Y-15919134D02*
X12409286Y-15881039D01*
X12409286Y-15881039D02*
X12418809Y-15861991D01*
X12418809Y-15861991D02*
X12428333Y-15852468D01*
X12428333Y-15852468D02*
X12447381Y-15842944D01*
X12599762Y-16042944D02*
X12599762Y-15909610D01*
X12599762Y-15928658D02*
X12609286Y-15919134D01*
X12609286Y-15919134D02*
X12628333Y-15909610D01*
X12628333Y-15909610D02*
X12656905Y-15909610D01*
X12656905Y-15909610D02*
X12675952Y-15919134D01*
X12675952Y-15919134D02*
X12685476Y-15938182D01*
X12685476Y-15938182D02*
X12685476Y-16042944D01*
X12685476Y-15938182D02*
X12695000Y-15919134D01*
X12695000Y-15919134D02*
X12714048Y-15909610D01*
X12714048Y-15909610D02*
X12742619Y-15909610D01*
X12742619Y-15909610D02*
X12761667Y-15919134D01*
X12761667Y-15919134D02*
X12771190Y-15938182D01*
X12771190Y-15938182D02*
X12771190Y-16042944D01*
X12866429Y-16042944D02*
X12866429Y-15909610D01*
X12866429Y-15928658D02*
X12875952Y-15919134D01*
X12875952Y-15919134D02*
X12895000Y-15909610D01*
X12895000Y-15909610D02*
X12923571Y-15909610D01*
X12923571Y-15909610D02*
X12942619Y-15919134D01*
X12942619Y-15919134D02*
X12952143Y-15938182D01*
X12952143Y-15938182D02*
X12952143Y-16042944D01*
X12952143Y-15938182D02*
X12961667Y-15919134D01*
X12961667Y-15919134D02*
X12980714Y-15909610D01*
X12980714Y-15909610D02*
X13009286Y-15909610D01*
X13009286Y-15909610D02*
X13028333Y-15919134D01*
X13028333Y-15919134D02*
X13037857Y-15938182D01*
X13037857Y-15938182D02*
X13037857Y-16042944D01*
X13428333Y-15833420D02*
X13256905Y-16090563D01*
X13685476Y-15842944D02*
X13704524Y-15842944D01*
X13704524Y-15842944D02*
X13723572Y-15852468D01*
X13723572Y-15852468D02*
X13733095Y-15861991D01*
X13733095Y-15861991D02*
X13742619Y-15881039D01*
X13742619Y-15881039D02*
X13752143Y-15919134D01*
X13752143Y-15919134D02*
X13752143Y-15966753D01*
X13752143Y-15966753D02*
X13742619Y-16004848D01*
X13742619Y-16004848D02*
X13733095Y-16023896D01*
X13733095Y-16023896D02*
X13723572Y-16033420D01*
X13723572Y-16033420D02*
X13704524Y-16042944D01*
X13704524Y-16042944D02*
X13685476Y-16042944D01*
X13685476Y-16042944D02*
X13666429Y-16033420D01*
X13666429Y-16033420D02*
X13656905Y-16023896D01*
X13656905Y-16023896D02*
X13647381Y-16004848D01*
X13647381Y-16004848D02*
X13637857Y-15966753D01*
X13637857Y-15966753D02*
X13637857Y-15919134D01*
X13637857Y-15919134D02*
X13647381Y-15881039D01*
X13647381Y-15881039D02*
X13656905Y-15861991D01*
X13656905Y-15861991D02*
X13666429Y-15852468D01*
X13666429Y-15852468D02*
X13685476Y-15842944D01*
X13837857Y-16023896D02*
X13847381Y-16033420D01*
X13847381Y-16033420D02*
X13837857Y-16042944D01*
X13837857Y-16042944D02*
X13828333Y-16033420D01*
X13828333Y-16033420D02*
X13837857Y-16023896D01*
X13837857Y-16023896D02*
X13837857Y-16042944D01*
X14037857Y-16042944D02*
X13923572Y-16042944D01*
X13980714Y-16042944D02*
X13980714Y-15842944D01*
X13980714Y-15842944D02*
X13961667Y-15871515D01*
X13961667Y-15871515D02*
X13942619Y-15890563D01*
X13942619Y-15890563D02*
X13923572Y-15900087D01*
X14114048Y-15861991D02*
X14123572Y-15852468D01*
X14123572Y-15852468D02*
X14142619Y-15842944D01*
X14142619Y-15842944D02*
X14190238Y-15842944D01*
X14190238Y-15842944D02*
X14209286Y-15852468D01*
X14209286Y-15852468D02*
X14218810Y-15861991D01*
X14218810Y-15861991D02*
X14228333Y-15881039D01*
X14228333Y-15881039D02*
X14228333Y-15900087D01*
X14228333Y-15900087D02*
X14218810Y-15928658D01*
X14218810Y-15928658D02*
X14104524Y-16042944D01*
X14104524Y-16042944D02*
X14228333Y-16042944D01*
X14399762Y-15842944D02*
X14361667Y-15842944D01*
X14361667Y-15842944D02*
X14342619Y-15852468D01*
X14342619Y-15852468D02*
X14333095Y-15861991D01*
X14333095Y-15861991D02*
X14314048Y-15890563D01*
X14314048Y-15890563D02*
X14304524Y-15928658D01*
X14304524Y-15928658D02*
X14304524Y-16004848D01*
X14304524Y-16004848D02*
X14314048Y-16023896D01*
X14314048Y-16023896D02*
X14323572Y-16033420D01*
X14323572Y-16033420D02*
X14342619Y-16042944D01*
X14342619Y-16042944D02*
X14380714Y-16042944D01*
X14380714Y-16042944D02*
X14399762Y-16033420D01*
X14399762Y-16033420D02*
X14409286Y-16023896D01*
X14409286Y-16023896D02*
X14418810Y-16004848D01*
X14418810Y-16004848D02*
X14418810Y-15957229D01*
X14418810Y-15957229D02*
X14409286Y-15938182D01*
X14409286Y-15938182D02*
X14399762Y-15928658D01*
X14399762Y-15928658D02*
X14380714Y-15919134D01*
X14380714Y-15919134D02*
X14342619Y-15919134D01*
X14342619Y-15919134D02*
X14323572Y-15928658D01*
X14323572Y-15928658D02*
X14314048Y-15938182D01*
X14314048Y-15938182D02*
X14304524Y-15957229D01*
X14542619Y-15842944D02*
X14561667Y-15842944D01*
X14561667Y-15842944D02*
X14580714Y-15852468D01*
X14580714Y-15852468D02*
X14590238Y-15861991D01*
X14590238Y-15861991D02*
X14599762Y-15881039D01*
X14599762Y-15881039D02*
X14609286Y-15919134D01*
X14609286Y-15919134D02*
X14609286Y-15966753D01*
X14609286Y-15966753D02*
X14599762Y-16004848D01*
X14599762Y-16004848D02*
X14590238Y-16023896D01*
X14590238Y-16023896D02*
X14580714Y-16033420D01*
X14580714Y-16033420D02*
X14561667Y-16042944D01*
X14561667Y-16042944D02*
X14542619Y-16042944D01*
X14542619Y-16042944D02*
X14523572Y-16033420D01*
X14523572Y-16033420D02*
X14514048Y-16023896D01*
X14514048Y-16023896D02*
X14504524Y-16004848D01*
X14504524Y-16004848D02*
X14495000Y-15966753D01*
X14495000Y-15966753D02*
X14495000Y-15919134D01*
X14495000Y-15919134D02*
X14504524Y-15881039D01*
X14504524Y-15881039D02*
X14514048Y-15861991D01*
X14514048Y-15861991D02*
X14523572Y-15852468D01*
X14523572Y-15852468D02*
X14542619Y-15842944D01*
X14685476Y-15842944D02*
X14685476Y-15881039D01*
X14761667Y-15842944D02*
X14761667Y-15881039D01*
X15056905Y-16119134D02*
X15047381Y-16109610D01*
X15047381Y-16109610D02*
X15028334Y-16081039D01*
X15028334Y-16081039D02*
X15018810Y-16061991D01*
X15018810Y-16061991D02*
X15009286Y-16033420D01*
X15009286Y-16033420D02*
X14999762Y-15985801D01*
X14999762Y-15985801D02*
X14999762Y-15947706D01*
X14999762Y-15947706D02*
X15009286Y-15900087D01*
X15009286Y-15900087D02*
X15018810Y-15871515D01*
X15018810Y-15871515D02*
X15028334Y-15852468D01*
X15028334Y-15852468D02*
X15047381Y-15823896D01*
X15047381Y-15823896D02*
X15056905Y-15814372D01*
X15123572Y-15861991D02*
X15133095Y-15852468D01*
X15133095Y-15852468D02*
X15152143Y-15842944D01*
X15152143Y-15842944D02*
X15199762Y-15842944D01*
X15199762Y-15842944D02*
X15218810Y-15852468D01*
X15218810Y-15852468D02*
X15228334Y-15861991D01*
X15228334Y-15861991D02*
X15237857Y-15881039D01*
X15237857Y-15881039D02*
X15237857Y-15900087D01*
X15237857Y-15900087D02*
X15228334Y-15928658D01*
X15228334Y-15928658D02*
X15114048Y-16042944D01*
X15114048Y-16042944D02*
X15237857Y-16042944D01*
X15475953Y-16042944D02*
X15475953Y-15842944D01*
X15561667Y-16042944D02*
X15561667Y-15938182D01*
X15561667Y-15938182D02*
X15552143Y-15919134D01*
X15552143Y-15919134D02*
X15533096Y-15909610D01*
X15533096Y-15909610D02*
X15504524Y-15909610D01*
X15504524Y-15909610D02*
X15485476Y-15919134D01*
X15485476Y-15919134D02*
X15475953Y-15928658D01*
X15685476Y-16042944D02*
X15666429Y-16033420D01*
X15666429Y-16033420D02*
X15656905Y-16023896D01*
X15656905Y-16023896D02*
X15647381Y-16004848D01*
X15647381Y-16004848D02*
X15647381Y-15947706D01*
X15647381Y-15947706D02*
X15656905Y-15928658D01*
X15656905Y-15928658D02*
X15666429Y-15919134D01*
X15666429Y-15919134D02*
X15685476Y-15909610D01*
X15685476Y-15909610D02*
X15714048Y-15909610D01*
X15714048Y-15909610D02*
X15733096Y-15919134D01*
X15733096Y-15919134D02*
X15742619Y-15928658D01*
X15742619Y-15928658D02*
X15752143Y-15947706D01*
X15752143Y-15947706D02*
X15752143Y-16004848D01*
X15752143Y-16004848D02*
X15742619Y-16023896D01*
X15742619Y-16023896D02*
X15733096Y-16033420D01*
X15733096Y-16033420D02*
X15714048Y-16042944D01*
X15714048Y-16042944D02*
X15685476Y-16042944D01*
X15866429Y-16042944D02*
X15847381Y-16033420D01*
X15847381Y-16033420D02*
X15837857Y-16014372D01*
X15837857Y-16014372D02*
X15837857Y-15842944D01*
X16018810Y-16033420D02*
X15999762Y-16042944D01*
X15999762Y-16042944D02*
X15961667Y-16042944D01*
X15961667Y-16042944D02*
X15942619Y-16033420D01*
X15942619Y-16033420D02*
X15933096Y-16014372D01*
X15933096Y-16014372D02*
X15933096Y-15938182D01*
X15933096Y-15938182D02*
X15942619Y-15919134D01*
X15942619Y-15919134D02*
X15961667Y-15909610D01*
X15961667Y-15909610D02*
X15999762Y-15909610D01*
X15999762Y-15909610D02*
X16018810Y-15919134D01*
X16018810Y-15919134D02*
X16028334Y-15938182D01*
X16028334Y-15938182D02*
X16028334Y-15957229D01*
X16028334Y-15957229D02*
X15933096Y-15976277D01*
X16104524Y-16033420D02*
X16123572Y-16042944D01*
X16123572Y-16042944D02*
X16161667Y-16042944D01*
X16161667Y-16042944D02*
X16180715Y-16033420D01*
X16180715Y-16033420D02*
X16190238Y-16014372D01*
X16190238Y-16014372D02*
X16190238Y-16004848D01*
X16190238Y-16004848D02*
X16180715Y-15985801D01*
X16180715Y-15985801D02*
X16161667Y-15976277D01*
X16161667Y-15976277D02*
X16133096Y-15976277D01*
X16133096Y-15976277D02*
X16114048Y-15966753D01*
X16114048Y-15966753D02*
X16104524Y-15947706D01*
X16104524Y-15947706D02*
X16104524Y-15938182D01*
X16104524Y-15938182D02*
X16114048Y-15919134D01*
X16114048Y-15919134D02*
X16133096Y-15909610D01*
X16133096Y-15909610D02*
X16161667Y-15909610D01*
X16161667Y-15909610D02*
X16180715Y-15919134D01*
X16256905Y-16119134D02*
X16266429Y-16109610D01*
X16266429Y-16109610D02*
X16285477Y-16081039D01*
X16285477Y-16081039D02*
X16295000Y-16061991D01*
X16295000Y-16061991D02*
X16304524Y-16033420D01*
X16304524Y-16033420D02*
X16314048Y-15985801D01*
X16314048Y-15985801D02*
X16314048Y-15947706D01*
X16314048Y-15947706D02*
X16304524Y-15900087D01*
X16304524Y-15900087D02*
X16295000Y-15871515D01*
X16295000Y-15871515D02*
X16285477Y-15852468D01*
X16285477Y-15852468D02*
X16266429Y-15823896D01*
X16266429Y-15823896D02*
X16256905Y-15814372D01*
X16618810Y-16119134D02*
X16609286Y-16109610D01*
X16609286Y-16109610D02*
X16590238Y-16081039D01*
X16590238Y-16081039D02*
X16580715Y-16061991D01*
X16580715Y-16061991D02*
X16571191Y-16033420D01*
X16571191Y-16033420D02*
X16561667Y-15985801D01*
X16561667Y-15985801D02*
X16561667Y-15947706D01*
X16561667Y-15947706D02*
X16571191Y-15900087D01*
X16571191Y-15900087D02*
X16580715Y-15871515D01*
X16580715Y-15871515D02*
X16590238Y-15852468D01*
X16590238Y-15852468D02*
X16609286Y-15823896D01*
X16609286Y-15823896D02*
X16618810Y-15814372D01*
X16695000Y-15909610D02*
X16695000Y-16042944D01*
X16695000Y-15928658D02*
X16704524Y-15919134D01*
X16704524Y-15919134D02*
X16723572Y-15909610D01*
X16723572Y-15909610D02*
X16752143Y-15909610D01*
X16752143Y-15909610D02*
X16771191Y-15919134D01*
X16771191Y-15919134D02*
X16780715Y-15938182D01*
X16780715Y-15938182D02*
X16780715Y-16042944D01*
X16904524Y-16042944D02*
X16885477Y-16033420D01*
X16885477Y-16033420D02*
X16875953Y-16023896D01*
X16875953Y-16023896D02*
X16866429Y-16004848D01*
X16866429Y-16004848D02*
X16866429Y-15947706D01*
X16866429Y-15947706D02*
X16875953Y-15928658D01*
X16875953Y-15928658D02*
X16885477Y-15919134D01*
X16885477Y-15919134D02*
X16904524Y-15909610D01*
X16904524Y-15909610D02*
X16933096Y-15909610D01*
X16933096Y-15909610D02*
X16952143Y-15919134D01*
X16952143Y-15919134D02*
X16961667Y-15928658D01*
X16961667Y-15928658D02*
X16971191Y-15947706D01*
X16971191Y-15947706D02*
X16971191Y-16004848D01*
X16971191Y-16004848D02*
X16961667Y-16023896D01*
X16961667Y-16023896D02*
X16952143Y-16033420D01*
X16952143Y-16033420D02*
X16933096Y-16042944D01*
X16933096Y-16042944D02*
X16904524Y-16042944D01*
X17028334Y-15909610D02*
X17104524Y-15909610D01*
X17056905Y-15842944D02*
X17056905Y-16014372D01*
X17056905Y-16014372D02*
X17066429Y-16033420D01*
X17066429Y-16033420D02*
X17085477Y-16042944D01*
X17085477Y-16042944D02*
X17104524Y-16042944D01*
X17323572Y-15909610D02*
X17323572Y-16109610D01*
X17323572Y-15919134D02*
X17342620Y-15909610D01*
X17342620Y-15909610D02*
X17380715Y-15909610D01*
X17380715Y-15909610D02*
X17399762Y-15919134D01*
X17399762Y-15919134D02*
X17409286Y-15928658D01*
X17409286Y-15928658D02*
X17418810Y-15947706D01*
X17418810Y-15947706D02*
X17418810Y-16004848D01*
X17418810Y-16004848D02*
X17409286Y-16023896D01*
X17409286Y-16023896D02*
X17399762Y-16033420D01*
X17399762Y-16033420D02*
X17380715Y-16042944D01*
X17380715Y-16042944D02*
X17342620Y-16042944D01*
X17342620Y-16042944D02*
X17323572Y-16033420D01*
X17533096Y-16042944D02*
X17514048Y-16033420D01*
X17514048Y-16033420D02*
X17504524Y-16014372D01*
X17504524Y-16014372D02*
X17504524Y-15842944D01*
X17695001Y-16042944D02*
X17695001Y-15938182D01*
X17695001Y-15938182D02*
X17685477Y-15919134D01*
X17685477Y-15919134D02*
X17666429Y-15909610D01*
X17666429Y-15909610D02*
X17628334Y-15909610D01*
X17628334Y-15909610D02*
X17609286Y-15919134D01*
X17695001Y-16033420D02*
X17675953Y-16042944D01*
X17675953Y-16042944D02*
X17628334Y-16042944D01*
X17628334Y-16042944D02*
X17609286Y-16033420D01*
X17609286Y-16033420D02*
X17599762Y-16014372D01*
X17599762Y-16014372D02*
X17599762Y-15995325D01*
X17599762Y-15995325D02*
X17609286Y-15976277D01*
X17609286Y-15976277D02*
X17628334Y-15966753D01*
X17628334Y-15966753D02*
X17675953Y-15966753D01*
X17675953Y-15966753D02*
X17695001Y-15957229D01*
X17761667Y-15909610D02*
X17837858Y-15909610D01*
X17790239Y-15842944D02*
X17790239Y-16014372D01*
X17790239Y-16014372D02*
X17799762Y-16033420D01*
X17799762Y-16033420D02*
X17818810Y-16042944D01*
X17818810Y-16042944D02*
X17837858Y-16042944D01*
X17980715Y-16033420D02*
X17961667Y-16042944D01*
X17961667Y-16042944D02*
X17923572Y-16042944D01*
X17923572Y-16042944D02*
X17904524Y-16033420D01*
X17904524Y-16033420D02*
X17895001Y-16014372D01*
X17895001Y-16014372D02*
X17895001Y-15938182D01*
X17895001Y-15938182D02*
X17904524Y-15919134D01*
X17904524Y-15919134D02*
X17923572Y-15909610D01*
X17923572Y-15909610D02*
X17961667Y-15909610D01*
X17961667Y-15909610D02*
X17980715Y-15919134D01*
X17980715Y-15919134D02*
X17990239Y-15938182D01*
X17990239Y-15938182D02*
X17990239Y-15957229D01*
X17990239Y-15957229D02*
X17895001Y-15976277D01*
X18161667Y-16042944D02*
X18161667Y-15842944D01*
X18161667Y-16033420D02*
X18142620Y-16042944D01*
X18142620Y-16042944D02*
X18104524Y-16042944D01*
X18104524Y-16042944D02*
X18085477Y-16033420D01*
X18085477Y-16033420D02*
X18075953Y-16023896D01*
X18075953Y-16023896D02*
X18066429Y-16004848D01*
X18066429Y-16004848D02*
X18066429Y-15947706D01*
X18066429Y-15947706D02*
X18075953Y-15928658D01*
X18075953Y-15928658D02*
X18085477Y-15919134D01*
X18085477Y-15919134D02*
X18104524Y-15909610D01*
X18104524Y-15909610D02*
X18142620Y-15909610D01*
X18142620Y-15909610D02*
X18161667Y-15919134D01*
X18237858Y-16119134D02*
X18247382Y-16109610D01*
X18247382Y-16109610D02*
X18266429Y-16081039D01*
X18266429Y-16081039D02*
X18275953Y-16061991D01*
X18275953Y-16061991D02*
X18285477Y-16033420D01*
X18285477Y-16033420D02*
X18295001Y-15985801D01*
X18295001Y-15985801D02*
X18295001Y-15947706D01*
X18295001Y-15947706D02*
X18285477Y-15900087D01*
X18285477Y-15900087D02*
X18275953Y-15871515D01*
X18275953Y-15871515D02*
X18266429Y-15852468D01*
X18266429Y-15852468D02*
X18247382Y-15823896D01*
X18247382Y-15823896D02*
X18237858Y-15814372D01*
M02*
